<?xml version="1.0" encoding="UTF-8" standalone="no"?>
<svg
   xmlns:dc="http://purl.org/dc/elements/1.1/"
   xmlns:cc="http://creativecommons.org/ns#"
   xmlns:rdf="http://www.w3.org/1999/02/22-rdf-syntax-ns#"
   xmlns:svg="http://www.w3.org/2000/svg"
   xmlns="http://www.w3.org/2000/svg"
   xmlns:xlink="http://www.w3.org/1999/xlink"
   id="svg4354"
   height="32"
   width="32"
   version="1.1">
  <defs
     id="defs4356">
    <linearGradient
       gradientTransform="matrix(-0.29999995,0,0,0.29999995,34.258887,18.300002)"
       gradientUnits="userSpaceOnUse"
       xlink:href="#linearGradient3707-319-631-407-1-846-5-4-5-44"
       id="linearGradient4251"
       y2="-61.256123"
       x2="19.874987"
       y1="38.245197"
       x1="19.874987" />
    <linearGradient
       id="linearGradient3707-319-631-407-1-846-5-4-5-44">
      <stop
         offset="0"
         style="stop-color:#365a7c;stop-opacity:1"
         id="stop3788-4-8-9-7" />
      <stop
         offset="1"
         style="stop-color:#5ea1ca;stop-opacity:1"
         id="stop3790-2-1-9-6" />
    </linearGradient>
    <linearGradient
       gradientTransform="matrix(-0.29999995,0,0,0.29999995,28.258887,18.300002)"
       gradientUnits="userSpaceOnUse"
       xlink:href="#linearGradient3707-319-631-407-1-846-5-4-5-4"
       id="linearGradient4253"
       y2="-61.256123"
       x2="19.874987"
       y1="38.245197"
       x1="19.874987" />
    <linearGradient
       id="linearGradient3707-319-631-407-1-846-5-4-5-4">
      <stop
         offset="0"
         style="stop-color:#365a7c;stop-opacity:1"
         id="stop3788-4-8-9-8" />
      <stop
         offset="1"
         style="stop-color:#5ea1ca;stop-opacity:1"
         id="stop3790-2-1-9-10" />
    </linearGradient>
    <linearGradient
       gradientTransform="matrix(-0.29999995,0,0,0.29999995,22.258887,18.300002)"
       gradientUnits="userSpaceOnUse"
       xlink:href="#linearGradient3707-319-631-407-1-846-5-4-5-6"
       id="linearGradient4255"
       y2="-61.256123"
       x2="19.874987"
       y1="38.245197"
       x1="19.874987" />
    <linearGradient
       id="linearGradient3707-319-631-407-1-846-5-4-5-6">
      <stop
         offset="0"
         style="stop-color:#365a7c;stop-opacity:1"
         id="stop3788-4-8-9-1" />
      <stop
         offset="1"
         style="stop-color:#5ea1ca;stop-opacity:1"
         id="stop3790-2-1-9-1" />
    </linearGradient>
    <linearGradient
       gradientTransform="matrix(-0.29999995,0,0,0.29999995,16.258887,18.300002)"
       gradientUnits="userSpaceOnUse"
       xlink:href="#linearGradient3707-319-631-407-1-846-5-4-5"
       id="linearGradient4257"
       y2="-61.256123"
       x2="19.874987"
       y1="38.245197"
       x1="19.874987" />
    <linearGradient
       id="linearGradient3707-319-631-407-1-846-5-4-5">
      <stop
         offset="0"
         style="stop-color:#365a7c;stop-opacity:1"
         id="stop3788-4-8-9" />
      <stop
         offset="1"
         style="stop-color:#5ea1ca;stop-opacity:1"
         id="stop3790-2-1-9" />
    </linearGradient>
    <linearGradient
       gradientTransform="matrix(0.72972972,0,0,0.64864869,-1.5135104,-0.06756106)"
       gradientUnits="userSpaceOnUse"
       xlink:href="#linearGradient3924"
       id="linearGradient3141"
       y2="43"
       x2="23.99999"
       y1="4.999989"
       x1="23.99999" />
    <linearGradient
       id="linearGradient3924">
      <stop
         offset="0"
         style="stop-color:#ffffff;stop-opacity:1"
         id="stop3926" />
      <stop
         offset="0.06316455"
         style="stop-color:#ffffff;stop-opacity:0.23529412"
         id="stop3928" />
      <stop
         offset="0.95056331"
         style="stop-color:#ffffff;stop-opacity:0.15686275"
         id="stop3930" />
      <stop
         offset="1"
         style="stop-color:#ffffff;stop-opacity:0.39215687"
         id="stop3932" />
    </linearGradient>
    <radialGradient
       gradientTransform="matrix(0,1.8470782,-2.1794488,-5.5888698e-8,34.415917,-10.119455)"
       gradientUnits="userSpaceOnUse"
       xlink:href="#linearGradient2867-449-88-871-390-598-476-591-434-148-57-177-8"
       id="radialGradient3166-9"
       fy="8.4497671"
       fx="4.5993023"
       r="19.99999"
       cy="8.4497671"
       cx="4.5993023" />
    <linearGradient
       id="linearGradient2867-449-88-871-390-598-476-591-434-148-57-177-8">
      <stop
         offset="0"
         style="stop-color:#90dbec;stop-opacity:1"
         id="stop3750-4" />
      <stop
         offset="0.26238"
         style="stop-color:#55c1ec;stop-opacity:1"
         id="stop3752-8" />
      <stop
         offset="0.704952"
         style="stop-color:#3689e6;stop-opacity:1"
         id="stop3754-1" />
      <stop
         offset="1"
         style="stop-color:#2b63a0;stop-opacity:1"
         id="stop3756-0" />
    </linearGradient>
    <radialGradient
       gradientTransform="matrix(-0.04372487,0,0,0.01647059,31.794815,20.294422)"
       gradientUnits="userSpaceOnUse"
       xlink:href="#linearGradient5060-6-6-5"
       id="radialGradient2910"
       fy="486.64789"
       fx="605.71429"
       r="117.14286"
       cy="486.64789"
       cx="605.71429" />
    <linearGradient
       id="linearGradient5060-6-6-5">
      <stop
         offset="0"
         style="stop-color:#000000;stop-opacity:1"
         id="stop5062-3-0-3" />
      <stop
         offset="1"
         style="stop-color:#000000;stop-opacity:0"
         id="stop5064-1-4-9" />
    </linearGradient>
    <radialGradient
       gradientTransform="matrix(0.04372487,0,0,0.01647059,0.20519206,20.294422)"
       gradientUnits="userSpaceOnUse"
       xlink:href="#linearGradient5060-6-6-5"
       id="radialGradient2913"
       fy="486.64789"
       fx="605.71429"
       r="117.14286"
       cy="486.64789"
       cx="605.71429" />
    <linearGradient
       id="linearGradient5048-7-7-5">
      <stop
         offset="0"
         style="stop-color:#000000;stop-opacity:0"
         id="stop5050-5-6-4" />
      <stop
         offset="0.5"
         style="stop-color:#000000;stop-opacity:1"
         id="stop5056-9-0-1" />
      <stop
         offset="1"
         style="stop-color:#000000;stop-opacity:0"
         id="stop5052-6-9-5" />
    </linearGradient>
    <linearGradient
       gradientTransform="matrix(0.04372487,0,0,0.01647059,0.19658512,20.294422)"
       gradientUnits="userSpaceOnUse"
       xlink:href="#linearGradient5048-7-7-5"
       id="linearGradient4352"
       y2="609.50507"
       x2="302.85715"
       y1="366.64789"
       x1="302.85715" />
    <radialGradient
       gradientUnits="userSpaceOnUse"
       gradientTransform="matrix(1.8750016,-3.7506847e-7,3.0005478e-7,1.5000013,-77.398628,-179.95787)"
       r="7.9999967"
       fy="135.00006"
       fx="58"
       cy="135.00006"
       cx="58"
       id="radialGradient46715"
       xlink:href="#linearGradient46709" />
    <linearGradient
       id="linearGradient46709">
      <stop
         id="stop46711"
         offset="0"
         style="stop-color:#ffffff;stop-opacity:1;" />
      <stop
         id="stop46713"
         offset="1"
         style="stop-color:#ffffff;stop-opacity:0;" />
    </linearGradient>
    <linearGradient
       x1="44.200016"
       y1="1037.505"
       x2="53.800014"
       y2="1037.505"
       id="linearGradient3333"
       xlink:href="#linearGradient46709"
       gradientUnits="userSpaceOnUse"
       gradientTransform="matrix(0.72916668,0,0,0.7777778,-14.686817,-840.2996)" />
    <linearGradient
       x1="32.139999"
       y1="29.5"
       x2="65.260002"
       y2="29.5"
       id="linearGradient3336"
       xlink:href="#linearGradient3688-464-309"
       gradientUnits="userSpaceOnUse"
       gradientTransform="matrix(0,0.56521735,0.56521735,0,27.945892,-6.4502671)" />
    <linearGradient
       id="linearGradient3688-464-309">
      <stop
         id="stop2889"
         style="stop-color:#181818;stop-opacity:1"
         offset="0" />
      <stop
         id="stop2891"
         style="stop-color:#181818;stop-opacity:0"
         offset="1" />
    </linearGradient>
    <linearGradient
       x1="32.139999"
       y1="29.5"
       x2="65.260002"
       y2="29.5"
       id="linearGradient3339"
       xlink:href="#linearGradient3688-464-309"
       gradientUnits="userSpaceOnUse"
       gradientTransform="matrix(0,0.63025208,0.63025208,0,26.229472,-9.6802071)" />
    <radialGradient
       cx="51.91"
       cy="38.188026"
       r="27.5"
       fx="51.91"
       fy="38.188026"
       id="radialGradient3343"
       xlink:href="#linearGradient12727"
       gradientUnits="userSpaceOnUse"
       gradientTransform="matrix(0,0.32535882,-0.3253589,1.3972489e-8,45.775672,7.6531229)"
       spreadMethod="pad" />
    <linearGradient
       id="linearGradient12727">
      <stop
         id="stop12729"
         style="stop-color:#181818;stop-opacity:0"
         offset="0" />
      <stop
         id="stop12745"
         style="stop-color:#181818;stop-opacity:0"
         offset="0.53846145" />
      <stop
         id="stop12731"
         style="stop-color:#181818;stop-opacity:1"
         offset="1" />
    </linearGradient>
    <linearGradient
       x1="33.243969"
       y1="42.379356"
       x2="66.731972"
       y2="42.379356"
       id="linearGradient3351"
       xlink:href="#linearGradient3878"
       gradientUnits="userSpaceOnUse"
       gradientTransform="matrix(0,0.65217386,-0.65197269,0,60.983142,-8.0584671)" />
    <linearGradient
       id="linearGradient3878">
      <stop
         id="stop3880"
         style="stop-color:#ffffff;stop-opacity:1"
         offset="0" />
      <stop
         id="stop3882"
         style="stop-color:#ffffff;stop-opacity:0.23529412"
         offset="0.07692312" />
      <stop
         id="stop3884"
         style="stop-color:#ffffff;stop-opacity:0.15686275"
         offset="0.92307693" />
      <stop
         id="stop3886"
         style="stop-color:#ffffff;stop-opacity:0.39215687"
         offset="1" />
    </linearGradient>
    <linearGradient
       x1="79.457138"
       y1="22.857172"
       x2="79.457138"
       y2="50.057175"
       id="linearGradient3355"
       xlink:href="#linearGradient4220-7"
       gradientUnits="userSpaceOnUse"
       gradientTransform="matrix(0.87690624,0,0,0.87690624,-36.325998,-7.4256571)" />
    <linearGradient
       id="linearGradient4220-7">
      <stop
         id="stop4222-7"
         style="stop-color:#7a8498;stop-opacity:1"
         offset="0" />
      <stop
         id="stop4224-0"
         style="stop-color:#34405c;stop-opacity:1"
         offset="1" />
    </linearGradient>
    <linearGradient
       x1="32.139999"
       y1="29.5"
       x2="65.260002"
       y2="29.5"
       id="linearGradient3358"
       xlink:href="#linearGradient3688-464-309"
       gradientUnits="userSpaceOnUse"
       gradientTransform="matrix(0,-0.93703138,0.9372054,0,16.913492,66.727553)" />
    <linearGradient
       y2="609.50507"
       x2="302.85715"
       y1="366.64789"
       x1="302.85715"
       gradientTransform="matrix(0.04372487,0,0,0.01647059,0.19658512,21.294422)"
       gradientUnits="userSpaceOnUse"
       id="linearGradient97184"
       xlink:href="#linearGradient5048-7-7-5" />
    <radialGradient
       r="117.14286"
       fy="486.64789"
       fx="605.71429"
       cy="486.64789"
       cx="605.71429"
       gradientTransform="matrix(0.04372487,0,0,0.01647059,0.20519206,21.294422)"
       gradientUnits="userSpaceOnUse"
       id="radialGradient97186"
       xlink:href="#linearGradient5060-6-6-5" />
    <radialGradient
       r="117.14286"
       fy="486.64789"
       fx="605.71429"
       cy="486.64789"
       cx="605.71429"
       gradientTransform="matrix(-0.04372487,0,0,0.01647059,31.794815,21.294422)"
       gradientUnits="userSpaceOnUse"
       id="radialGradient97188"
       xlink:href="#linearGradient5060-6-6-5" />
    <radialGradient
       r="19.99999"
       fy="8.4497671"
       fx="4.5993023"
       cy="8.4497671"
       cx="4.5993023"
       gradientTransform="matrix(0,1.7760367,-2.1794488,-5.3739133e-8,34.415917,-7.6340915)"
       gradientUnits="userSpaceOnUse"
       id="radialGradient97190"
       xlink:href="#linearGradient2867-449-88-871-390-598-476-591-434-148-57-177-8" />
    <linearGradient
       y2="-61.256123"
       x2="19.874987"
       y1="38.245197"
       x1="19.874987"
       gradientTransform="matrix(-0.29999995,0,0,0.29999995,16.258887,19.300002)"
       gradientUnits="userSpaceOnUse"
       id="linearGradient97192"
       xlink:href="#linearGradient3707-319-631-407-1-846-5-4-5" />
    <linearGradient
       y2="-61.256123"
       x2="19.874987"
       y1="38.245197"
       x1="19.874987"
       gradientTransform="matrix(-0.29999995,0,0,0.29999995,22.258887,19.300002)"
       gradientUnits="userSpaceOnUse"
       id="linearGradient97194"
       xlink:href="#linearGradient3707-319-631-407-1-846-5-4-5-6" />
    <linearGradient
       y2="-61.256123"
       x2="19.874987"
       y1="38.245197"
       x1="19.874987"
       gradientTransform="matrix(-0.29999995,0,0,0.29999995,28.258887,19.300002)"
       gradientUnits="userSpaceOnUse"
       id="linearGradient97196"
       xlink:href="#linearGradient3707-319-631-407-1-846-5-4-5-4" />
    <linearGradient
       y2="-61.256123"
       x2="19.874987"
       y1="38.245197"
       x1="19.874987"
       gradientTransform="matrix(-0.29999995,0,0,0.29999995,34.258887,19.300002)"
       gradientUnits="userSpaceOnUse"
       id="linearGradient97198"
       xlink:href="#linearGradient3707-319-631-407-1-846-5-4-5-44" />
    <linearGradient
       y2="43"
       x2="23.99999"
       y1="4.999989"
       x1="23.99999"
       gradientTransform="matrix(0.72972972,0,0,0.62162164,-1.5135104,2.0810873)"
       gradientUnits="userSpaceOnUse"
       id="linearGradient97200"
       xlink:href="#linearGradient3924" />
    <clipPath
       id="clipPath97202"
       clipPathUnits="userSpaceOnUse">
      <circle
         r="7.5999999"
         cy="21.818609"
         cx="14.991283"
         id="circle97204"
         style="opacity:1;fill:#be0505;fill-opacity:1;stroke:none;stroke-width:3.70842028;stroke-linejoin:round;stroke-miterlimit:4;stroke-dasharray:none;stroke-opacity:1" />
    </clipPath>
  </defs>
  <metadata
     id="metadata4359">
    <rdf:RDF>
      <cc:Work
         rdf:about="">
        <dc:format>image/svg+xml</dc:format>
        <dc:type
           rdf:resource="http://purl.org/dc/dcmitype/StillImage" />
        <dc:title />
      </cc:Work>
    </rdf:RDF>
  </metadata>
  <rect
     width="21.11286"
     height="4.0000005"
     x="5.4435763"
     y="26.333334"
     id="rect2512-9-5"
     style="display:inline;overflow:visible;visibility:visible;opacity:0.40206185;fill:url(#linearGradient4352);fill-opacity:1;fill-rule:nonzero;stroke:none;stroke-width:1;marker:none" />
  <path
     d="m 26.556432,26.333467 c 0,0 0,3.999779 0,3.999779 C 28.808154,30.340773 32,29.437099 32,28.333099 c 0,-1.104 -2.512752,-1.999632 -5.443568,-1.999632 z"
     id="path2514-7-4"
     style="display:inline;overflow:visible;visibility:visible;opacity:0.40206185;fill:url(#radialGradient2913);fill-opacity:1;fill-rule:nonzero;stroke:none;stroke-width:1;marker:none" />
  <path
     d="m 5.4435678,26.333467 c 0,0 0,3.999779 0,3.999779 C 3.1918461,30.340773 0,29.437099 0,28.333099 c 0,-1.104 2.5127521,-1.999632 5.4435678,-1.999632 z"
     id="path2516-8-9"
     style="display:inline;overflow:visible;visibility:visible;opacity:0.40206185;fill:url(#radialGradient2910);fill-opacity:1;fill-rule:nonzero;stroke:none;stroke-width:1;marker:none" />
  <rect
     width="29"
     height="26"
     rx="2"
     ry="2.0799999"
     x="1.5"
     y="2.5"
     id="rect5505"
     style="color:#000000;display:inline;overflow:visible;visibility:visible;fill:url(#radialGradient3166-9);fill-opacity:1;fill-rule:nonzero;stroke:none;stroke-width:1;stroke-linecap:round;stroke-linejoin:round;stroke-miterlimit:4;stroke-dasharray:none;stroke-dashoffset:0;stroke-opacity:1;marker:none;enable-background:accumulate" />
  <path
     d="m 5.5,24.5 c -0.554,0 -1,0.446 -1,1 l 0,2 23,0 0,-2 c 0,-0.554 -0.446,-1 -1,-1 z"
     id="path4306"
     style="opacity:0.7;fill:#ffffff;fill-opacity:0.58823529;stroke:#ffffff;stroke-width:0.99999994px;stroke-linecap:butt;stroke-linejoin:miter;stroke-opacity:1" />
  <path
     d="m 9.118401,21.000001 -4.2368038,0 C 4.3931925,21.000001 4,21.393194 4,21.881598 l 0,4.236805 C 4,26.606808 4.3931925,27 4.8815972,27 L 9.118401,27 C 9.606807,27 10,26.606808 10,26.118403 l 0,-4.236805 C 10,21.393194 9.606807,21.000001 9.118401,21.000001 Z"
     id="path3184"
     style="color:#000000;display:inline;overflow:visible;visibility:visible;opacity:0.3;fill:url(#linearGradient4257);fill-opacity:1;fill-rule:nonzero;stroke:none;stroke-width:1;marker:none;enable-background:accumulate" />
  <path
     d="m 8.206706,22.492713 -2.4134109,0 c -0.1665219,0 -0.3005814,0.13406 -0.3005814,0.300581 l 0,2.413411 c 0,0.166522 0.1340595,0.300581 0.3005814,0.300581 l 2.4134109,0 c 0.1665209,0 0.3005805,-0.134059 0.3005805,-0.300581 l 0,-2.413411 c 0,-0.166521 -0.1340596,-0.300581 -0.3005805,-0.300581 z"
     id="path3176"
     style="color:#000000;display:inline;overflow:visible;visibility:visible;fill:#f7f7f7;fill-opacity:1;fill-rule:nonzero;stroke:#ffffff;stroke-width:0.98542714;stroke-linecap:butt;stroke-linejoin:miter;stroke-miterlimit:4;stroke-dashoffset:0;stroke-opacity:1;marker:none;enable-background:accumulate" />
  <path
     d="m 15.118401,21.000001 -4.236804,0 C 10.393193,21.000001 10,21.393194 10,21.881598 l 0,4.236805 C 10,26.606808 10.393193,27 10.881597,27 l 4.236804,0 C 15.606807,27 16,26.606808 16,26.118403 l 0,-4.236805 c 0,-0.488404 -0.393193,-0.881597 -0.881599,-0.881597 z"
     id="path3184-5"
     style="color:#000000;display:inline;overflow:visible;visibility:visible;opacity:0.3;fill:url(#linearGradient4255);fill-opacity:1;fill-rule:nonzero;stroke:none;stroke-width:1;marker:none;enable-background:accumulate" />
  <path
     d="m 14.206706,22.492713 -2.413411,0 c -0.166522,0 -0.300581,0.13406 -0.300581,0.300581 l 0,2.413411 c 0,0.166522 0.134059,0.300581 0.300581,0.300581 l 2.413411,0 c 0.166521,0 0.300581,-0.134059 0.300581,-0.300581 l 0,-2.413411 c 0,-0.166521 -0.13406,-0.300581 -0.300581,-0.300581 z"
     id="path3176-9"
     style="color:#000000;display:inline;overflow:visible;visibility:visible;fill:#f7f7f7;fill-opacity:1;fill-rule:nonzero;stroke:#ffffff;stroke-width:0.98542714;stroke-linecap:butt;stroke-linejoin:miter;stroke-miterlimit:4;stroke-dashoffset:0;stroke-opacity:1;marker:none;enable-background:accumulate" />
  <path
     d="m 21.118401,21.000001 -4.236804,0 C 16.393193,21.000001 16,21.393194 16,21.881598 l 0,4.236805 C 16,26.606808 16.393193,27 16.881597,27 l 4.236804,0 C 21.606807,27 22,26.606808 22,26.118403 l 0,-4.236805 c 0,-0.488404 -0.393193,-0.881597 -0.881599,-0.881597 z"
     id="path3184-0"
     style="color:#000000;display:inline;overflow:visible;visibility:visible;opacity:0.3;fill:url(#linearGradient4253);fill-opacity:1;fill-rule:nonzero;stroke:none;stroke-width:1;marker:none;enable-background:accumulate" />
  <path
     d="m 20.206706,22.492713 -2.413411,0 c -0.166522,0 -0.300581,0.13406 -0.300581,0.300581 l 0,2.413411 c 0,0.166522 0.134059,0.300581 0.300581,0.300581 l 2.413411,0 c 0.166521,0 0.300581,-0.134059 0.300581,-0.300581 l 0,-2.413411 c 0,-0.166521 -0.13406,-0.300581 -0.300581,-0.300581 z"
     id="path3176-4"
     style="color:#000000;display:inline;overflow:visible;visibility:visible;fill:#f7f7f7;fill-opacity:1;fill-rule:nonzero;stroke:#ffffff;stroke-width:0.98542714;stroke-linecap:butt;stroke-linejoin:miter;stroke-miterlimit:4;stroke-dashoffset:0;stroke-opacity:1;marker:none;enable-background:accumulate" />
  <path
     d="m 27.118401,21.000001 -4.236804,0 C 22.393193,21.000001 22,21.393194 22,21.881598 l 0,4.236805 C 22,26.606808 22.393193,27 22.881597,27 l 4.236804,0 C 27.606807,27 28,26.606808 28,26.118403 l 0,-4.236805 c 0,-0.488404 -0.393193,-0.881597 -0.881599,-0.881597 z"
     id="path3184-7"
     style="color:#000000;display:inline;overflow:visible;visibility:visible;opacity:0.3;fill:url(#linearGradient4251);fill-opacity:1;fill-rule:nonzero;stroke:none;stroke-width:1;marker:none;enable-background:accumulate" />
  <path
     d="m 26.206706,22.492713 -2.413411,0 c -0.166522,0 -0.300581,0.13406 -0.300581,0.300581 l 0,2.413411 c 0,0.166522 0.134059,0.300581 0.300581,0.300581 l 2.413411,0 c 0.166521,0 0.300581,-0.134059 0.300581,-0.300581 l 0,-2.413411 c 0,-0.166521 -0.13406,-0.300581 -0.300581,-0.300581 z"
     id="path3176-5"
     style="color:#000000;display:inline;overflow:visible;visibility:visible;fill:#f7f7f7;fill-opacity:1;fill-rule:nonzero;stroke:#ffffff;stroke-width:0.98542714;stroke-linecap:butt;stroke-linejoin:miter;stroke-miterlimit:4;stroke-dashoffset:0;stroke-opacity:1;marker:none;enable-background:accumulate" />
  <rect
     width="29"
     height="26"
     rx="2"
     ry="2.0799999"
     x="1.5"
     y="2.5"
     id="rect5505-1"
     style="color:#000000;clip-rule:nonzero;display:inline;overflow:visible;visibility:visible;opacity:0.5;isolation:auto;mix-blend-mode:normal;color-interpolation:sRGB;color-interpolation-filters:linearRGB;solid-color:#000000;solid-opacity:1;fill:#000000;fill-opacity:0;fill-rule:nonzero;stroke:#00537d;stroke-width:1;stroke-linecap:round;stroke-linejoin:round;stroke-miterlimit:4;stroke-dasharray:none;stroke-dashoffset:0;stroke-opacity:1;marker:none;color-rendering:auto;image-rendering:auto;shape-rendering:auto;text-rendering:auto;enable-background:accumulate" />
  <rect
     width="26.999998"
     height="24"
     rx="1"
     ry="1.0434783"
     x="2.5"
     y="3.5000002"
     id="rect6741-7"
     style="opacity:0.5;fill:none;stroke:url(#linearGradient3141);stroke-width:0.99999994;stroke-linecap:round;stroke-linejoin:round;stroke-miterlimit:4;stroke-dasharray:none;stroke-dashoffset:0;stroke-opacity:1" />
  <g
     clip-path="url(#clipPath97202)"
     id="g97098"
     transform="matrix(1.25,0,0,1.25,0.76089518,-7.7732623)">
    <rect
       width="21.11286"
       height="4.0000005"
       x="5.4435763"
       y="27.333334"
       id="rect97100"
       style="display:inline;overflow:visible;visibility:visible;opacity:0.40206185;fill:url(#linearGradient97184);fill-opacity:1;fill-rule:nonzero;stroke:none;stroke-width:1;marker:none" />
    <path
       d="m 26.556432,27.333467 c 0,0 0,3.999779 0,3.999779 C 28.808154,31.340773 32,30.437099 32,29.333099 c 0,-1.104 -2.512752,-1.999632 -5.443568,-1.999632 z"
       id="path97102"
       style="display:inline;overflow:visible;visibility:visible;opacity:0.40206185;fill:url(#radialGradient97186);fill-opacity:1;fill-rule:nonzero;stroke:none;stroke-width:1;marker:none" />
    <path
       d="m 5.4435678,27.333467 c 0,0 0,3.999779 0,3.999779 C 3.1918461,31.340773 0,30.437099 0,29.333099 c 0,-1.104 2.5127521,-1.999632 5.4435678,-1.999632 z"
       id="path97104"
       style="display:inline;overflow:visible;visibility:visible;opacity:0.40206185;fill:url(#radialGradient97188);fill-opacity:1;fill-rule:nonzero;stroke:none;stroke-width:1;marker:none" />
    <rect
       width="29"
       height="25"
       rx="2"
       ry="2"
       x="1.5"
       y="4.5"
       id="rect97106"
       style="color:#000000;display:inline;overflow:visible;visibility:visible;fill:url(#radialGradient97190);fill-opacity:1;fill-rule:nonzero;stroke:none;stroke-width:1;stroke-linecap:round;stroke-linejoin:round;stroke-miterlimit:4;stroke-dasharray:none;stroke-dashoffset:0;stroke-opacity:1;marker:none;enable-background:accumulate" />
    <path
       d="m 5.5,25.5 c -0.554,0 -1,0.446 -1,1 l 0,2 23,0 0,-2 c 0,-0.554 -0.446,-1 -1,-1 z"
       id="path97108"
       style="opacity:0.7;fill:#ffffff;fill-opacity:0.58823529;stroke:#ffffff;stroke-width:0.99999994px;stroke-linecap:butt;stroke-linejoin:miter;stroke-opacity:1" />
    <path
       d="m 9.118401,22.000001 -4.2368038,0 C 4.3931925,22.000001 4,22.393194 4,22.881598 l 0,4.236805 C 4,27.606808 4.3931925,28 4.8815972,28 L 9.118401,28 C 9.606807,28 10,27.606808 10,27.118403 l 0,-4.236805 C 10,22.393194 9.606807,22.000001 9.118401,22.000001 Z"
       id="path97110"
       style="color:#000000;display:inline;overflow:visible;visibility:visible;opacity:0.3;fill:url(#linearGradient97192);fill-opacity:1;fill-rule:nonzero;stroke:none;stroke-width:1;marker:none;enable-background:accumulate" />
    <path
       d="m 8.206706,23.492713 -2.4134109,0 c -0.1665219,0 -0.3005814,0.13406 -0.3005814,0.300581 l 0,2.413411 c 0,0.166522 0.1340595,0.300581 0.3005814,0.300581 l 2.4134109,0 c 0.1665209,0 0.3005805,-0.134059 0.3005805,-0.300581 l 0,-2.413411 c 0,-0.166521 -0.1340596,-0.300581 -0.3005805,-0.300581 z"
       id="path97112"
       style="color:#000000;display:inline;overflow:visible;visibility:visible;fill:#f7f7f7;fill-opacity:1;fill-rule:nonzero;stroke:#ffffff;stroke-width:0.98542714;stroke-linecap:butt;stroke-linejoin:miter;stroke-miterlimit:4;stroke-dashoffset:0;stroke-opacity:1;marker:none;enable-background:accumulate" />
    <path
       d="m 15.118401,22.000001 -4.236804,0 C 10.393193,22.000001 10,22.393194 10,22.881598 l 0,4.236805 C 10,27.606808 10.393193,28 10.881597,28 l 4.236804,0 C 15.606807,28 16,27.606808 16,27.118403 l 0,-4.236805 c 0,-0.488404 -0.393193,-0.881597 -0.881599,-0.881597 z"
       id="path97114"
       style="color:#000000;display:inline;overflow:visible;visibility:visible;opacity:0.3;fill:url(#linearGradient97194);fill-opacity:1;fill-rule:nonzero;stroke:none;stroke-width:1;marker:none;enable-background:accumulate" />
    <path
       d="m 14.206706,23.492713 -2.413411,0 c -0.166522,0 -0.300581,0.13406 -0.300581,0.300581 l 0,2.413411 c 0,0.166522 0.134059,0.300581 0.300581,0.300581 l 2.413411,0 c 0.166521,0 0.300581,-0.134059 0.300581,-0.300581 l 0,-2.413411 c 0,-0.166521 -0.13406,-0.300581 -0.300581,-0.300581 z"
       id="path97116"
       style="color:#000000;display:inline;overflow:visible;visibility:visible;fill:#f7f7f7;fill-opacity:1;fill-rule:nonzero;stroke:#ffffff;stroke-width:0.98542714;stroke-linecap:butt;stroke-linejoin:miter;stroke-miterlimit:4;stroke-dashoffset:0;stroke-opacity:1;marker:none;enable-background:accumulate" />
    <path
       d="m 21.118401,22.000001 -4.236804,0 C 16.393193,22.000001 16,22.393194 16,22.881598 l 0,4.236805 C 16,27.606808 16.393193,28 16.881597,28 l 4.236804,0 C 21.606807,28 22,27.606808 22,27.118403 l 0,-4.236805 c 0,-0.488404 -0.393193,-0.881597 -0.881599,-0.881597 z"
       id="path97118"
       style="color:#000000;display:inline;overflow:visible;visibility:visible;opacity:0.3;fill:url(#linearGradient97196);fill-opacity:1;fill-rule:nonzero;stroke:none;stroke-width:1;marker:none;enable-background:accumulate" />
    <path
       d="m 20.206706,23.492713 -2.413411,0 c -0.166522,0 -0.300581,0.13406 -0.300581,0.300581 l 0,2.413411 c 0,0.166522 0.134059,0.300581 0.300581,0.300581 l 2.413411,0 c 0.166521,0 0.300581,-0.134059 0.300581,-0.300581 l 0,-2.413411 c 0,-0.166521 -0.13406,-0.300581 -0.300581,-0.300581 z"
       id="path97120"
       style="color:#000000;display:inline;overflow:visible;visibility:visible;fill:#f7f7f7;fill-opacity:1;fill-rule:nonzero;stroke:#ffffff;stroke-width:0.98542714;stroke-linecap:butt;stroke-linejoin:miter;stroke-miterlimit:4;stroke-dashoffset:0;stroke-opacity:1;marker:none;enable-background:accumulate" />
    <path
       d="m 27.118401,22.000001 -4.236804,0 C 22.393193,22.000001 22,22.393194 22,22.881598 l 0,4.236805 C 22,27.606808 22.393193,28 22.881597,28 l 4.236804,0 C 27.606807,28 28,27.606808 28,27.118403 l 0,-4.236805 c 0,-0.488404 -0.393193,-0.881597 -0.881599,-0.881597 z"
       id="path97122"
       style="color:#000000;display:inline;overflow:visible;visibility:visible;opacity:0.3;fill:url(#linearGradient97198);fill-opacity:1;fill-rule:nonzero;stroke:none;stroke-width:1;marker:none;enable-background:accumulate" />
    <path
       d="m 26.206706,23.492713 -2.413411,0 c -0.166522,0 -0.300581,0.13406 -0.300581,0.300581 l 0,2.413411 c 0,0.166522 0.134059,0.300581 0.300581,0.300581 l 2.413411,0 c 0.166521,0 0.300581,-0.134059 0.300581,-0.300581 l 0,-2.413411 c 0,-0.166521 -0.13406,-0.300581 -0.300581,-0.300581 z"
       id="path97124"
       style="color:#000000;display:inline;overflow:visible;visibility:visible;fill:#f7f7f7;fill-opacity:1;fill-rule:nonzero;stroke:#ffffff;stroke-width:0.98542714;stroke-linecap:butt;stroke-linejoin:miter;stroke-miterlimit:4;stroke-dashoffset:0;stroke-opacity:1;marker:none;enable-background:accumulate" />
    <rect
       width="29"
       height="25"
       rx="2"
       ry="2"
       x="1.5"
       y="4.5"
       id="rect97126"
       style="color:#000000;clip-rule:nonzero;display:inline;overflow:visible;visibility:visible;opacity:0.5;isolation:auto;mix-blend-mode:normal;color-interpolation:sRGB;color-interpolation-filters:linearRGB;solid-color:#000000;solid-opacity:1;fill:#000000;fill-opacity:0;fill-rule:nonzero;stroke:#00537d;stroke-width:1;stroke-linecap:round;stroke-linejoin:round;stroke-miterlimit:4;stroke-dasharray:none;stroke-dashoffset:0;stroke-opacity:1;marker:none;color-rendering:auto;image-rendering:auto;shape-rendering:auto;text-rendering:auto;enable-background:accumulate" />
    <rect
       width="26.999998"
       height="23"
       rx="1"
       ry="1"
       x="2.5"
       y="5.5"
       id="rect97128"
       style="opacity:0.5;fill:none;stroke:url(#linearGradient97200);stroke-width:0.99999994;stroke-linecap:round;stroke-linejoin:round;stroke-miterlimit:4;stroke-dasharray:none;stroke-dashoffset:0;stroke-opacity:1" />
  </g>
  <g
     transform="translate(-14,-5.542423)"
     id="g97064">
    <path
       style="display:inline;opacity:0.15;fill:none;stroke:url(#linearGradient3358);stroke-width:1;stroke-miterlimit:4;stroke-dasharray:none;stroke-opacity:1"
       id="path8105"
       d="m 33.354392,12.042423 c 6.903564,0 12.499995,5.596441 12.499995,12.5 0,6.903559 -5.596431,12.5 -12.499995,12.5 -6.903565,0 -12.499996,-5.596441 -12.499996,-12.5 0,-6.903559 5.596431,-12.5 12.499996,-12.5 z" />
    <path
       style="color:#000000;display:inline;overflow:visible;visibility:visible;fill:url(#linearGradient3355);fill-opacity:1;fill-rule:nonzero;stroke:none;stroke-width:0.79069769;marker:none;enable-background:accumulate"
       d="m 33.685486,13.048233 a 11.5,11.5 0 0 0 -11.835937,11.49609 11.5,11.5 0 0 0 23,0 11.5,11.5 0 0 0 -11.164063,-11.49609 z m -0.333984,2.99414 c 4.709,0 8.5,3.791 8.5,8.5 0,4.709 -3.791,8.5 -8.5,8.5 -4.709,0 -8.5,-3.791 -8.5,-8.5 0,-4.709 3.791,-8.5 8.5,-8.5 z"
       id="path4218" />
    <path
       style="display:inline;opacity:0.3;fill:none;stroke:#000000;stroke-width:0.99999982;stroke-miterlimit:4;stroke-dasharray:none;stroke-opacity:1"
       id="path7624"
       d="m 44.850462,24.544643 a 11.499999,11.497725 0 0 1 -22.99999,0 11.5,11.497726 0 1 1 22.99999,0 z" />
    <path
       style="display:inline;opacity:0.3;fill:none;stroke:url(#linearGradient3351);stroke-width:0.99999994;stroke-miterlimit:4;stroke-dasharray:none;stroke-opacity:1"
       id="path7681"
       d="m 33.350862,35.042423 a 10.49676,10.5 0 1 1 0,-21 10.496761,10.5 0 0 1 0,21 z" />
    <rect
       style="color:#000000;display:inline;overflow:visible;visibility:visible;opacity:0.4;fill:url(#radialGradient3343);fill-opacity:1;fill-rule:nonzero;stroke:none;stroke-width:0.99999994;marker:none;enable-background:accumulate"
       id="rect12723"
       y="16.042496"
       x="24.850891"
       ry="25"
       rx="25"
       height="17"
       width="17" />
    <path
       style="display:inline;opacity:0.3;fill:none;stroke:#000000;stroke-width:1.00000012;stroke-miterlimit:4;stroke-dasharray:none;stroke-opacity:1"
       id="path8113"
       d="m 41.850862,24.546203 a 8.5,8.4992244 0 0 1 -17,0 8.5,8.4992243 0 1 1 17,0 z" />
    <path
       style="display:inline;opacity:0.15;fill:none;stroke:url(#linearGradient3339);stroke-width:0.99999994;stroke-miterlimit:4;stroke-dasharray:none;stroke-opacity:1"
       id="path8123"
       d="m 33.352472,32.042503 a 7.5000001,7.5000001 0 0 0 0,-15 7.5000001,7.5000001 0 1 0 0,15 z" />
    <path
       style="display:inline;opacity:0.07999998;fill:none;stroke:url(#linearGradient3336);stroke-width:1.00000012;stroke-miterlimit:4;stroke-dasharray:none;stroke-opacity:1"
       id="path8127"
       d="m 33.353142,31.042503 a 6.5,6.5 0 0 0 0,-13 6.5,6.5 0 1 0 0,13 z" />
    <rect
       style="color:#000000;display:inline;overflow:visible;visibility:visible;opacity:0.5;fill:url(#linearGradient3333);fill-opacity:1;fill-rule:nonzero;stroke:none;stroke-width:0.99999994;marker:none;enable-background:accumulate"
       id="rect12733"
       transform="rotate(90)"
       y="-37.351257"
       x="17.542374"
       ry="25"
       rx="25"
       height="8"
       width="7" />
    <path
       d="m 33.352472,32.042503 a 7.5000001,7.5000001 0 0 0 0,-15 7.5000001,7.5000001 0 1 0 0,15 z"
       id="path46707"
       style="display:inline;opacity:0.5;fill:url(#radialGradient46715);fill-opacity:1;stroke:#ffffff;stroke-width:0.99999994;stroke-miterlimit:4;stroke-dasharray:none;stroke-opacity:0.52314812" />
  </g>
</svg>
