<?xml version="1.0" encoding="UTF-8" standalone="no"?>
<svg
   xmlns:dc="http://purl.org/dc/elements/1.1/"
   xmlns:cc="http://creativecommons.org/ns#"
   xmlns:rdf="http://www.w3.org/1999/02/22-rdf-syntax-ns#"
   xmlns:svg="http://www.w3.org/2000/svg"
   xmlns="http://www.w3.org/2000/svg"
   xmlns:xlink="http://www.w3.org/1999/xlink"
   id="svg4121"
   height="32"
   width="32"
   version="1.1">
  <defs
     id="defs4123">
    <linearGradient
       id="linearGradient4806-9">
      <stop
         offset="0"
         style="stop-color:#ffffff;stop-opacity:1"
         id="stop4808-49" />
      <stop
         offset="0.42447853"
         style="stop-color:#ffffff;stop-opacity:0.23529412"
         id="stop4810-05" />
      <stop
         offset="0.82089913"
         style="stop-color:#ffffff;stop-opacity:0.15686275"
         id="stop4812-6" />
      <stop
         offset="1"
         style="stop-color:#ffffff;stop-opacity:0.39215687"
         id="stop4814-7" />
    </linearGradient>
    <linearGradient
       id="linearGradient3820-7-2-2">
      <stop
         offset="0"
         style="stop-color:#3d3d3d;stop-opacity:1"
         id="stop3822-2-6-36" />
      <stop
         offset="0.5"
         style="stop-color:#686868;stop-opacity:0.49803922"
         id="stop3864-8-7-6" />
      <stop
         offset="1"
         style="stop-color:#686868;stop-opacity:0"
         id="stop3824-1-2-4" />
    </linearGradient>
    <linearGradient
       gradientTransform="matrix(1.1022033,0,0,1.1022038,-63.55275,-14.715001)"
       gradientUnits="userSpaceOnUse"
       xlink:href="#linearGradient4806-9"
       id="linearGradient3024"
       y2="40.495617"
       x2="71.204407"
       y1="15.369057"
       x1="71.204407" />
    <radialGradient
       gradientTransform="matrix(0.17524541,0,0,0.05575992,-1.37681,18.119145)"
       gradientUnits="userSpaceOnUse"
       xlink:href="#linearGradient3820-7-2-2"
       id="radialGradient3034"
       fy="186.17059"
       fx="99.157013"
       r="62.769119"
       cy="186.17059"
       cx="99.157013" />
    <radialGradient
       gradientTransform="matrix(0,1.2316483,-1.625754,0,18.486966,-28.721977)"
       gradientUnits="userSpaceOnUse"
       id="radialGradient3093-0-3-6-6"
       r="20.396999"
       cy="3.99"
       cx="23.896">
      <stop
         offset="0"
         style="stop-color:#ffffff;stop-opacity:1"
         id="stop3244-9-33-7-0-9" />
      <stop
         offset="0.26238"
         style="stop-color:#dddddd;stop-opacity:1"
         id="stop3246-3-5-0-8-5" />
      <stop
         offset="0.66093999"
         style="stop-color:#abacae;stop-opacity:1"
         id="stop3248-1-7-8-8-1" />
      <stop
         offset="1"
         style="stop-color:#89898b;stop-opacity:1"
         id="stop3250-9-3-0-5-1" />
    </radialGradient>
    <radialGradient
       gradientTransform="matrix(0,2.0431009,-2.6968569,0,26.760726,-47.62282)"
       gradientUnits="userSpaceOnUse"
       xlink:href="#radialGradient3093-0-3-6-6"
       id="radialGradient3412"
       fy="3.99"
       fx="23.896"
       r="20.396999"
       cy="3.99"
       cx="23.896" />
  </defs>
  <metadata
     id="metadata4126">
    <rdf:RDF>
      <cc:Work
         rdf:about="">
        <dc:format>image/svg+xml</dc:format>
        <dc:type
           rdf:resource="http://purl.org/dc/dcmitype/StillImage" />
        <dc:title />
      </cc:Work>
    </rdf:RDF>
  </metadata>
  <path
     style="fill:url(#radialGradient3034);fill-opacity:1;stroke:none"
     id="path3818-0-2"
     d="m 27.000001,28.499999 a 11,3.4999999 0 1 1 -21.9999996,0 11,3.4999999 0 1 1 21.9999996,0 z" />
  <path
     style="color:#000000;fill:url(#radialGradient3412);fill-opacity:1;fill-rule:nonzero;stroke:none;stroke-width:0.99999994;marker:none;visibility:visible;display:inline;overflow:visible;enable-background:accumulate"
     id="path2555-7-2"
     d="M 16,1.5000005 C 7.999402,1.5000005 1.5,7.9993995 1.5,16 1.5,24.0006 7.999402,30.500002 16,30.5 24.000598,30.5 30.500007,24.000599 30.5,16 30.5,7.9993995 24.000598,1.5000005 16,1.5000005 z" />
  <path
     style="opacity:0.3;color:#000000;fill:none;stroke:#000000;stroke-width:1;stroke-linecap:butt;stroke-linejoin:miter;stroke-miterlimit:4;stroke-opacity:1;stroke-dasharray:none;stroke-dashoffset:0;marker:none;visibility:visible;display:inline;overflow:visible;enable-background:accumulate"
     id="path2555-7-1-7"
     d="M 16,1.5 C 7.9994,1.5 1.5,7.999399 1.5,15.999999 1.5,24.0006 7.9994,30.500003 16,30.5 24.0006,30.5 30.50001,24.0006 30.5,15.999999 30.5,7.999399 24.0006,1.5 16,1.5 z" />
  <path
     style="opacity:0.8;color:#000000;fill:none;stroke:url(#linearGradient3024);stroke-width:0.99999994;stroke-linecap:round;stroke-linejoin:round;stroke-miterlimit:4;stroke-opacity:1;stroke-dasharray:none;stroke-dashoffset:0;marker:none;visibility:visible;display:inline;overflow:visible;enable-background:accumulate"
     id="path3421"
     d="M 29.5,16 C 29.5,23.455845 23.45583,29.5 16,29.5 8.54417,29.5 2.5,23.455845 2.5,16 2.5,8.544157 8.54417,2.5 16,2.5 23.45583,2.5 29.5,8.544157 29.5,16 z" />
  <g
     id="g4286"
     transform="translate(8,9)"
     style="fill:#ffffff;fill-opacity:0.58431373">
    <g
       transform="translate(-293.0002,-170)"
       style="display:inline;fill:#ffffff;fill-opacity:0.58431373"
       label="status"
       id="g4288" />
    <g
       transform="translate(-293.0002,-170)"
       style="display:inline;fill:#ffffff;fill-opacity:0.58431373"
       id="g4290" />
    <g
       transform="translate(-293.0002,-170)"
       style="display:inline;fill:#ffffff;fill-opacity:0.58431373"
       id="g4292" />
    <g
       transform="translate(-293.0002,-170)"
       id="g4294"
       style="fill:#ffffff;fill-opacity:0.58431373" />
    <g
       transform="translate(-293.0002,-170)"
       style="display:inline;fill:#ffffff;fill-opacity:0.58431373"
       id="g4296" />
    <g
       transform="translate(-293.0002,-170)"
       style="display:inline;fill:#ffffff;fill-opacity:0.58431373"
       id="g4298" />
    <g
       transform="translate(-293.0002,-170)"
       style="display:inline;fill:#ffffff;fill-opacity:0.58431373"
       id="g4300">
      <path
         style="color:#000000;font-style:normal;font-variant:normal;font-weight:normal;font-stretch:normal;font-size:medium;line-height:normal;font-family:Sans;-inkscape-font-specification:Sans;text-indent:0;text-align:start;text-decoration:none;text-decoration-line:none;letter-spacing:normal;word-spacing:normal;text-transform:none;direction:ltr;block-progression:tb;writing-mode:lr-tb;baseline-shift:baseline;text-anchor:start;display:block;overflow:visible;visibility:visible;fill:#ffffff;fill-opacity:0.58431373;fill-rule:nonzero;stroke:none;stroke-width:0.99999994;marker:none;enable-background:accumulate"
         id="path4302"
         d="m 300.0002,171 c 0,0.53125 0,1.0625 0,1.59375 -0.73915,0.21303 -1.45816,0.48865 -2.125,0.875 -0.38485,-0.35443 -0.75742,-0.72152 -1.125,-1.09375 -0.45833,0.45833 -0.91667,0.91667 -1.375,1.375 0.37225,0.36756 0.73934,0.74013 1.09375,1.125 -0.38654,0.66676 -0.66178,1.38589 -0.875,2.125 -0.53125,0 -1.0625,0 -1.59375,0 0,0.66667 0,1.33333 0,2 0.53125,0 1.0625,0 1.59375,0 0.21303,0.73915 0.48865,1.45816 0.875,2.125 -0.35443,0.38485 -0.72152,0.75742 -1.09375,1.125 0.45833,0.45833 0.91667,0.91667 1.375,1.375 0.36756,-0.37225 0.74013,-0.73934 1.125,-1.09375 0.66676,0.38654 1.38589,0.66178 2.125,0.875 0,0.53125 0,1.0625 0,1.59375 0.66667,0 1.33333,0 2,0 0,-0.53125 0,-1.0625 0,-1.59375 0.73915,-0.21303 1.45816,-0.48865 2.125,-0.875 0.38485,0.35443 0.75742,0.72152 1.125,1.09375 0.45833,-0.45833 0.91667,-0.91667 1.375,-1.375 -0.37225,-0.36756 -0.73934,-0.74013 -1.09375,-1.125 0.38654,-0.66676 0.66178,-1.38589 0.875,-2.125 0.53125,0 1.0625,0 1.59375,0 0,-0.66667 0,-1.33333 0,-2 -0.53125,0 -1.0625,0 -1.59375,0 -0.21303,-0.73915 -0.48865,-1.45816 -0.875,-2.125 0.35443,-0.38485 0.72152,-0.75742 1.09375,-1.125 -0.45833,-0.45833 -0.91667,-0.91667 -1.375,-1.375 -0.36756,0.37225 -0.74013,0.73934 -1.125,1.09375 -0.66676,-0.38654 -1.38589,-0.66178 -2.125,-0.875 0,-0.53125 0,-1.0625 0,-1.59375 -0.66667,0 -1.33333,0 -2,0 z m 1,4.5625 c 1.44226,-0.0478 2.67514,1.39104 2.40946,2.8091 -0.17311,1.42909 -1.77502,2.42691 -3.13494,1.95646 -1.38477,-0.38389 -2.13402,-2.11088 -1.47195,-3.38556 0.39086,-0.83168 1.27761,-1.39091 2.19743,-1.38 z" />
    </g>
  </g>
  <g
     style="fill:#323232;fill-opacity:0.58431375"
     transform="translate(8,8)"
     id="g3476">
    <g
       id="layer9"
       label="status"
       style="display:inline;fill:#323232;fill-opacity:0.58431375"
       transform="translate(-293.0002,-170)" />
    <g
       id="layer10"
       style="display:inline;fill:#323232;fill-opacity:0.58431375"
       transform="translate(-293.0002,-170)" />
    <g
       id="layer13"
       style="display:inline;fill:#323232;fill-opacity:0.58431375"
       transform="translate(-293.0002,-170)" />
    <g
       style="fill:#323232;fill-opacity:0.58431375"
       id="layer14"
       transform="translate(-293.0002,-170)" />
    <g
       id="layer15-4"
       style="display:inline;fill:#323232;fill-opacity:0.58431375"
       transform="translate(-293.0002,-170)" />
    <g
       id="g71291"
       style="display:inline;fill:#323232;fill-opacity:0.58431375"
       transform="translate(-293.0002,-170)" />
    <g
       id="layer12"
       style="display:inline;fill:#323232;fill-opacity:0.58431375"
       transform="translate(-293.0002,-170)">
      <path
         d="m 300.0002,171 c 0,0.53125 0,1.0625 0,1.59375 -0.73915,0.21303 -1.45816,0.48865 -2.125,0.875 -0.38485,-0.35443 -0.75742,-0.72152 -1.125,-1.09375 -0.45833,0.45833 -0.91667,0.91667 -1.375,1.375 0.37225,0.36756 0.73934,0.74013 1.09375,1.125 -0.38654,0.66676 -0.66178,1.38589 -0.875,2.125 -0.53125,0 -1.0625,0 -1.59375,0 0,0.66667 0,1.33333 0,2 0.53125,0 1.0625,0 1.59375,0 0.21303,0.73915 0.48865,1.45816 0.875,2.125 -0.35443,0.38485 -0.72152,0.75742 -1.09375,1.125 0.45833,0.45833 0.91667,0.91667 1.375,1.375 0.36756,-0.37225 0.74013,-0.73934 1.125,-1.09375 0.66676,0.38654 1.38589,0.66178 2.125,0.875 0,0.53125 0,1.0625 0,1.59375 0.66667,0 1.33333,0 2,0 0,-0.53125 0,-1.0625 0,-1.59375 0.73915,-0.21303 1.45816,-0.48865 2.125,-0.875 0.38485,0.35443 0.75742,0.72152 1.125,1.09375 0.45833,-0.45833 0.91667,-0.91667 1.375,-1.375 -0.37225,-0.36756 -0.73934,-0.74013 -1.09375,-1.125 0.38654,-0.66676 0.66178,-1.38589 0.875,-2.125 0.53125,0 1.0625,0 1.59375,0 0,-0.66667 0,-1.33333 0,-2 -0.53125,0 -1.0625,0 -1.59375,0 -0.21303,-0.73915 -0.48865,-1.45816 -0.875,-2.125 0.35443,-0.38485 0.72152,-0.75742 1.09375,-1.125 -0.45833,-0.45833 -0.91667,-0.91667 -1.375,-1.375 -0.36756,0.37225 -0.74013,0.73934 -1.125,1.09375 -0.66676,-0.38654 -1.38589,-0.66178 -2.125,-0.875 0,-0.53125 0,-1.0625 0,-1.59375 -0.66667,0 -1.33333,0 -2,0 z m 1,4.5625 c 1.44226,-0.0478 2.67514,1.39104 2.40946,2.8091 -0.17311,1.42909 -1.77502,2.42691 -3.13494,1.95646 -1.38477,-0.38389 -2.13402,-2.11088 -1.47195,-3.38556 0.39086,-0.83168 1.27761,-1.39091 2.19743,-1.38 z"
         id="path14681"
         style="color:#000000;font-style:normal;font-variant:normal;font-weight:normal;font-stretch:normal;font-size:medium;line-height:normal;font-family:Sans;-inkscape-font-specification:Sans;text-indent:0;text-align:start;text-decoration:none;text-decoration-line:none;letter-spacing:normal;word-spacing:normal;text-transform:none;direction:ltr;block-progression:tb;writing-mode:lr-tb;baseline-shift:baseline;text-anchor:start;display:block;overflow:visible;visibility:visible;fill:#323232;fill-opacity:0.58431375;fill-rule:nonzero;stroke:none;stroke-width:0.99999994;marker:none;enable-background:accumulate" />
    </g>
  </g>
</svg>
