<?xml version="1.0" encoding="UTF-8" standalone="no"?>
<svg
   xmlns:dc="http://purl.org/dc/elements/1.1/"
   xmlns:cc="http://creativecommons.org/ns#"
   xmlns:rdf="http://www.w3.org/1999/02/22-rdf-syntax-ns#"
   xmlns:svg="http://www.w3.org/2000/svg"
   xmlns="http://www.w3.org/2000/svg"
   xmlns:xlink="http://www.w3.org/1999/xlink"
   id="svg11300"
   height="48"
   width="48"
   version="1.1">
  <metadata
     id="metadata101">
    <rdf:RDF>
      <cc:Work
         rdf:about="">
        <dc:format>image/svg+xml</dc:format>
        <dc:type
           rdf:resource="http://purl.org/dc/dcmitype/StillImage" />
      </cc:Work>
    </rdf:RDF>
  </metadata>
  <defs
     id="defs3">
    <linearGradient
       id="linearGradient4909">
      <stop
         offset="0"
         style="stop-color:#747474;stop-opacity:1"
         id="stop4911" />
      <stop
         offset="0.47842374"
         style="stop-color:#b0b0b0;stop-opacity:1"
         id="stop4913" />
      <stop
         offset="1"
         style="stop-color:#3f3f3f;stop-opacity:1"
         id="stop4915" />
    </linearGradient>
    <linearGradient
       id="linearGradient4877">
      <stop
         offset="0"
         style="stop-color:#747474;stop-opacity:1"
         id="stop4879" />
      <stop
         offset="0.45348784"
         style="stop-color:#ffffff;stop-opacity:1"
         id="stop4881" />
      <stop
         offset="1"
         style="stop-color:#3f3f3f;stop-opacity:1"
         id="stop4883" />
    </linearGradient>
    <linearGradient
       id="linearGradient7622">
      <stop
         offset="0"
         style="stop-color:#ffffff;stop-opacity:1"
         id="stop7624" />
      <stop
         offset="1"
         style="stop-color:#ffffff;stop-opacity:0"
         id="stop7626" />
    </linearGradient>
    <linearGradient
       id="linearGradient14973">
      <stop
         offset="0"
         style="stop-color:#747474;stop-opacity:1"
         id="stop14975" />
      <stop
         offset="0.62068963"
         style="stop-color:#b0b0b0;stop-opacity:1"
         id="stop14977" />
      <stop
         offset="1"
         style="stop-color:#3f3f3f;stop-opacity:1"
         id="stop14979" />
    </linearGradient>
    <linearGradient
       id="linearGradient14861">
      <stop
         offset="0"
         style="stop-color:#ffffff;stop-opacity:1"
         id="stop14863" />
      <stop
         offset="1"
         style="stop-color:#ffffff;stop-opacity:0"
         id="stop14865" />
    </linearGradient>
    <linearGradient
       id="linearGradient6215">
      <stop
         offset="0"
         style="stop-color:#cfb900;stop-opacity:1"
         id="stop6217" />
      <stop
         offset="0.20999999"
         style="stop-color:#e2d44d;stop-opacity:1"
         id="stop6219" />
      <stop
         offset="0.83999997"
         style="stop-color:#9a8b00;stop-opacity:1"
         id="stop6221" />
      <stop
         offset="1"
         style="stop-color:#cfb900;stop-opacity:1"
         id="stop6223" />
    </linearGradient>
    <linearGradient
       id="linearGradient3437">
      <stop
         offset="0"
         style="stop-color:#000000;stop-opacity:1"
         id="stop3439" />
      <stop
         offset="1"
         style="stop-color:#000000;stop-opacity:0"
         id="stop3441" />
    </linearGradient>
    <linearGradient
       id="linearGradient14780-7">
      <stop
         offset="0"
         style="stop-color:#d3ba00;stop-opacity:1"
         id="stop14782-0" />
      <stop
         offset="1"
         style="stop-color:#d3ba00;stop-opacity:0"
         id="stop14784-4" />
    </linearGradient>
    <linearGradient
       id="linearGradient14981-4">
      <stop
         offset="0"
         style="stop-color:#628430;stop-opacity:1"
         id="stop14983-1" />
      <stop
         offset="1"
         style="stop-color:#364d17;stop-opacity:1"
         id="stop14985-7" />
    </linearGradient>
    <linearGradient
       id="linearGradient7067-5">
      <stop
         offset="0"
         style="stop-color:#ffffff;stop-opacity:1"
         id="stop7069-9" />
      <stop
         offset="1"
         style="stop-color:#ffffff;stop-opacity:0"
         id="stop7071-3" />
    </linearGradient>
    <linearGradient
       id="linearGradient2372-9">
      <stop
         offset="0"
         style="stop-color:#ffffff;stop-opacity:1"
         id="stop2374-9" />
      <stop
         offset="1"
         style="stop-color:#ffffff;stop-opacity:0.34482759"
         id="stop2376-4" />
    </linearGradient>
    <linearGradient
       id="linearGradient3668-5">
      <stop
         offset="0"
         style="stop-color:#ffffff;stop-opacity:1"
         id="stop3670-7" />
      <stop
         offset="1"
         style="stop-color:#ffffff;stop-opacity:0"
         id="stop3672-4" />
    </linearGradient>
    <radialGradient
       gradientTransform="matrix(0.68315419,-0.12185712,0.02398557,0.64784268,14.798649,0.82991814)"
       gradientUnits="userSpaceOnUse"
       xlink:href="#linearGradient7067-5"
       id="radialGradient3290"
       fy="37.45607"
       fx="14.68769"
       r="5.7384715"
       cy="41.058823"
       cx="17.058823" />
    <linearGradient
       gradientTransform="matrix(0.23013199,0,0,0.23039255,24.749521,-23.778572)"
       gradientUnits="userSpaceOnUse"
       xlink:href="#linearGradient2372-9"
       id="linearGradient3293"
       y2="125.39074"
       x2="26.256771"
       y1="137.53885"
       x1="28.503141" />
    <radialGradient
       gradientTransform="matrix(0.7193066,-0.11623586,0.01570024,0.6700801,27.047508,-2.1361773)"
       gradientUnits="userSpaceOnUse"
       xlink:href="#linearGradient3668-5"
       id="radialGradient3296"
       fy="37.841019"
       fx="14.757765"
       r="5.7384715"
       cy="41.058823"
       cx="17.058823" />
    <linearGradient
       gradientTransform="matrix(0.31763863,0,0,0.23039255,35.626256,-25.882396)"
       gradientUnits="userSpaceOnUse"
       xlink:href="#linearGradient2372-9"
       id="linearGradient3299"
       y2="125.39074"
       x2="26.256771"
       y1="144.11652"
       x1="28.739122" />
    <radialGradient
       gradientTransform="matrix(0.81572503,0,0,0.12745709,3.051938,38.526095)"
       gradientUnits="userSpaceOnUse"
       xlink:href="#linearGradient3437"
       id="radialGradient2951"
       fy="46.869949"
       fx="24.45439"
       r="19.61445"
       cy="46.869949"
       cx="24.45439" />
    <linearGradient
       gradientTransform="translate(0,3)"
       gradientUnits="userSpaceOnUse"
       xlink:href="#linearGradient4877"
       id="linearGradient2957"
       y2="22.75"
       x2="51.449436"
       y1="22.75"
       x1="35.933823" />
    <linearGradient
       gradientTransform="translate(0,3)"
       gradientUnits="userSpaceOnUse"
       xlink:href="#linearGradient14973"
       id="linearGradient2960"
       y2="22.75"
       x2="47.499687"
       y1="22.75"
       x1="38.999687" />
    <radialGradient
       gradientTransform="matrix(1.9989253,0.08328855,-0.05263072,1.2631372,-3.5130513,4.083257)"
       gradientUnits="userSpaceOnUse"
       xlink:href="#linearGradient7622"
       id="radialGradient2966"
       fy="9.1704912"
       fx="4"
       r="19.000311"
       cy="9.1704912"
       cx="4" />
    <linearGradient
       gradientTransform="matrix(0,0.66666668,-1,0,29,20.666664)"
       gradientUnits="userSpaceOnUse"
       xlink:href="#linearGradient6215"
       id="linearGradient2985"
       y2="11.5"
       x2="4.712738"
       y1="11.5"
       x1="12.647367" />
    <linearGradient
       gradientTransform="matrix(0,0.66666668,-1,0,29,11.666667)"
       gradientUnits="userSpaceOnUse"
       xlink:href="#linearGradient6215"
       id="linearGradient3010"
       y2="19.5"
       x2="4.3283887"
       y1="19.5"
       x1="8" />
    <linearGradient
       gradientTransform="matrix(-0.66666668,0,0,1,41,-1)"
       gradientUnits="userSpaceOnUse"
       xlink:href="#linearGradient6215"
       id="linearGradient3019"
       y2="19.5"
       x2="27"
       y1="19.5"
       x1="24" />
    <linearGradient
       gradientTransform="matrix(0.66666668,0,0,1,2.6666666,-1)"
       gradientUnits="userSpaceOnUse"
       xlink:href="#linearGradient6215"
       id="linearGradient3030"
       y2="19.5"
       x2="4.3283887"
       y1="19.5"
       x1="8" />
    <linearGradient
       gradientTransform="matrix(0.934742,0,0,1.14936,0.518753,-4.859611)"
       gradientUnits="userSpaceOnUse"
       xlink:href="#linearGradient14861"
       id="linearGradient3033"
       y2="31.347067"
       x2="18.968426"
       y1="20.165941"
       x1="16.964844" />
    <linearGradient
       gradientTransform="matrix(1.984375,0,0,1,3.09375,-1.013595)"
       gradientUnits="userSpaceOnUse"
       xlink:href="#linearGradient14780-7"
       id="linearGradient3050"
       y2="39.266895"
       x2="6.2376504"
       y1="42.890816"
       x1="6.2209711" />
    <radialGradient
       gradientTransform="matrix(2.3160736,0.01430413,-0.01016957,1.6466216,-11.68798,-4.4984166)"
       gradientUnits="userSpaceOnUse"
       xlink:href="#linearGradient14981-4"
       id="radialGradient3058"
       fy="15.407109"
       fx="9"
       r="19.999861"
       cy="15.407109"
       cx="9" />
    <linearGradient
       gradientTransform="matrix(1.1612985,0,0,1.1339575,-5.8594808,1.6171654)"
       gradientUnits="userSpaceOnUse"
       xlink:href="#linearGradient4877"
       id="linearGradient3061"
       y2="20.018223"
       x2="42.4007"
       y1="15.04982"
       x1="42.365673" />
    <linearGradient
       gradientTransform="matrix(1.1612985,0,0,1.1339575,-5.8594808,1.6171654)"
       gradientUnits="userSpaceOnUse"
       xlink:href="#linearGradient4909"
       id="linearGradient3063"
       y2="20.990494"
       x2="43.063614"
       y1="13.900771"
       x1="43.161167" />
    <linearGradient
       gradientTransform="matrix(1.1612985,0,0,1.1339575,-5.8594808,8.6171654)"
       gradientUnits="userSpaceOnUse"
       xlink:href="#linearGradient4877"
       id="linearGradient3066"
       y2="20.018223"
       x2="42.4007"
       y1="15.04982"
       x1="42.365673" />
    <linearGradient
       gradientTransform="matrix(1.1612985,0,0,1.1339575,-5.8594808,8.6171654)"
       gradientUnits="userSpaceOnUse"
       xlink:href="#linearGradient4909"
       id="linearGradient3068"
       y2="20.990494"
       x2="43.063614"
       y1="13.900771"
       x1="43.161167" />
  </defs>
  <rect
     style="color:#000000;fill:url(#linearGradient3066);fill-opacity:1;fill-rule:nonzero;stroke:url(#linearGradient3068);stroke-width:0.5;stroke-linecap:round;stroke-linejoin:round;stroke-miterlimit:4;stroke-opacity:1;stroke-dasharray:none;stroke-dashoffset:0;marker:none;visibility:visible;display:block;overflow:visible"
     id="rect4923"
     y="26.25"
     x="39.25"
     ry="1"
     rx="1"
     height="4.5"
     width="5.5" />
  <rect
     style="color:#000000;fill:url(#linearGradient3061);fill-opacity:1;fill-rule:nonzero;stroke:url(#linearGradient3063);stroke-width:0.5;stroke-linecap:round;stroke-linejoin:round;stroke-miterlimit:4;stroke-opacity:1;stroke-dasharray:none;stroke-dashoffset:0;marker:none;visibility:visible;display:block;overflow:visible"
     id="rect15011"
     y="19.25"
     x="39.25"
     ry="1"
     rx="1"
     height="4.5"
     width="5.5" />
  <path
     style="color:#000000;fill:url(#radialGradient3058);fill-opacity:1;fill-rule:nonzero;stroke:#28390d;stroke-width:1.00000012;stroke-linecap:butt;stroke-linejoin:miter;stroke-miterlimit:4;stroke-opacity:1;stroke-dasharray:none;stroke-dashoffset:0;marker:none;visibility:visible;display:block;overflow:visible"
     id="rect14772"
     d="M 1.5010327,12.630244 1.50494,39.34988 c 0,0.07888 0.088802,0.150207 0.1867815,0.150207 l 10.8115995,0.01563 -0.0039,4.853272 c 0,0.07127 0.0224,0.126335 0.124282,0.12677 l 18.755678,-0.0078 c 0.09242,-0.0037 0.124281,-0.06374 0.124281,-0.12677 l 0.0039,-4.868897 8.992438,0.0078 0,-26.996617 -38.8746858,0 c -0.078447,0.0043 -0.132094,0.05255 -0.1242815,0.126769 z" />
  <path
     style="color:#000000;fill:none;stroke:#305526;stroke-width:0.5;stroke-linecap:butt;stroke-linejoin:miter;stroke-miterlimit:4;stroke-opacity:1;stroke-dasharray:none;stroke-dashoffset:0;marker:none;visibility:visible;display:block;overflow:visible"
     id="path14957"
     d="m 25,22.472233 0.06435,0.530944 2.424421,1.892154 0,4.603776 -17.058951,0 0,3.933282" />
  <path
     style="color:#000000;fill:none;stroke:#305526;stroke-width:0.5;stroke-linecap:butt;stroke-linejoin:miter;stroke-miterlimit:4;stroke-opacity:1;stroke-dasharray:none;stroke-dashoffset:0;marker:none;visibility:visible;display:block;overflow:visible"
     id="path14826"
     d="m 15.504442,41.961011 0.05485,-5.644978 1.90096,-2.791366 14.009422,0 2.044194,-2.024489 0.04419,-3.033634 -8.043116,-5.961334 8.110058,0.04703 -0.1875,-3.989742 -8.9375,0" />
  <path
     style="color:#000000;fill:none;stroke:#305526;stroke-width:0.5;stroke-linecap:butt;stroke-linejoin:miter;stroke-miterlimit:4;stroke-opacity:1;stroke-dasharray:none;stroke-dashoffset:0;marker:none;visibility:visible;display:block;overflow:visible"
     id="path14842"
     d="m 19.5,41.96101 0.05485,-5.780683 1.900958,-2.666463" />
  <path
     style="color:#000000;fill:none;stroke:#305526;stroke-width:0.5;stroke-linecap:butt;stroke-linejoin:miter;stroke-miterlimit:4;stroke-opacity:1;stroke-dasharray:none;stroke-dashoffset:0;marker:none;visibility:visible;display:block;overflow:visible"
     id="path14844"
     d="m 22.5,41.96101 0.05485,-5.780683 1.900958,-2.666463" />
  <path
     style="color:#000000;fill:none;stroke:#305526;stroke-width:0.5;stroke-linecap:butt;stroke-linejoin:miter;stroke-miterlimit:4;stroke-opacity:1;stroke-dasharray:none;stroke-dashoffset:0;marker:none;visibility:visible;display:block;overflow:visible"
     id="path14846"
     d="M 25.544196,41.96101 25.599042,36.180327 27.5,33.513864" />
  <path
     style="color:#000000;fill:url(#linearGradient3050);fill-opacity:1;fill-rule:nonzero;stroke:none;stroke-width:1;marker:none;visibility:visible;display:block;overflow:visible"
     id="path14796"
     d="M 15.71875,38.59375 C 15.153661,38.717979 15,39.257625 15,39.5 l 0,4.40625 2,0 L 17,39.5 c 0,-0.277 -0.200328,-0.90625 -1,-0.90625 -0.09801,0 -0.200523,-0.01775 -0.28125,0 z m 3,0 C 18.153661,38.717979 18,39.257625 18,39.5 l 0,4.40625 2,0 L 20,39.5 c 0,-0.277 -0.200328,-0.90625 -1,-0.90625 -0.09801,0 -0.200523,-0.01775 -0.28125,0 z m 3.03125,0 C 21.184911,38.717979 21,39.257625 21,39.5 l 0,4.40625 2,0 L 23,39.5 c 0,-0.277 -0.200328,-0.90625 -1,-0.90625 -0.09801,0 -0.169273,-0.01775 -0.25,0 z m 3,0 C 24.184911,38.717979 24,39.257625 24,39.5 l 0,4.40625 2,0 L 26,39.5 c 0,-0.277 -0.200328,-0.90625 -1,-0.90625 -0.09801,0 -0.169273,-0.01775 -0.25,0 z m 3,0 C 27.184911,38.717979 27,39.257625 27,39.5 l 0,4.40625 2,0 L 29,39.5 c 0,-0.277 -0.200328,-0.90625 -1,-0.90625 -0.09801,0 -0.169273,-0.01775 -0.25,0 z" />
  <path
     style="color:#000000;fill:none;stroke:#305526;stroke-width:0.5;stroke-linecap:butt;stroke-linejoin:miter;stroke-miterlimit:4;stroke-opacity:1;stroke-dasharray:none;stroke-dashoffset:0;marker:none;visibility:visible;display:block;overflow:visible"
     id="path14848"
     d="m 28.5,41.96101 0.05485,-5.780683 1.900958,-2.666463" />
  <path
     style="color:#000000;fill:none;stroke:#305526;stroke-width:0.5;stroke-linecap:butt;stroke-linejoin:miter;stroke-miterlimit:4;stroke-opacity:1;stroke-dasharray:none;stroke-dashoffset:0;marker:none;visibility:visible;display:block;overflow:visible"
     id="path15029"
     d="m 6.5,18.5 -2.96875,1.0625 0,1.875 0,10.0625 7,0.0625" />
  <rect
     style="color:#000000;fill:#555753;fill-opacity:1;fill-rule:nonzero;stroke:#2e3436;stroke-width:0.99999958;stroke-linecap:butt;stroke-linejoin:miter;stroke-miterlimit:4;stroke-opacity:1;stroke-dasharray:none;stroke-dashoffset:0;marker:none;visibility:visible;display:block;overflow:visible"
     id="rect14857"
     y="16.503517"
     x="7.4722195"
     ry="0.9419415"
     rx="0.94194132"
     height="7.9304557"
     width="16.055548" />
  <rect
     style="opacity:0.17045456;color:#000000;fill:none;stroke:url(#linearGradient3033);stroke-width:0.99999976;stroke-linecap:butt;stroke-linejoin:miter;stroke-miterlimit:4;stroke-opacity:1;stroke-dasharray:none;stroke-dashoffset:0;marker:none;visibility:visible;display:block;overflow:visible"
     id="rect14859"
     y="17.510822"
     x="8.416605"
     ry="0"
     rx="0"
     height="5.8817496"
     width="14.116029" />
  <path
     style="color:#000000;fill:none;stroke:#305526;stroke-width:0.5;stroke-linecap:butt;stroke-linejoin:miter;stroke-miterlimit:4;stroke-opacity:1;stroke-dasharray:none;stroke-dashoffset:0;marker:none;visibility:visible;display:block;overflow:visible"
     id="path15031"
     d="M 6.5,20.5 3.515625,21.5625" />
  <path
     style="color:#000000;fill:#98a332;fill-opacity:1;stroke:#305526;stroke-width:0.5;stroke-linecap:butt;stroke-linejoin:miter;stroke-miterlimit:4;stroke-opacity:1;stroke-dasharray:none;stroke-dashoffset:0;marker:none;visibility:visible;display:block;overflow:visible"
     id="path15033"
     d="M 6.5,22.5 3.5,24" />
  <path
     style="color:#000000;fill:url(#linearGradient3019);fill-opacity:1;fill-rule:nonzero;stroke:none;stroke-width:1;marker:none;visibility:visible;display:block;overflow:visible"
     id="rect14875"
     d="m 23,18 0,1 2,0 0,-1 -2,0 z m 0,2 0,1 2,0 0,-1 -2,0 z m 0,2 0,1 2,0 0,-1 -2,0 z" />
  <path
     style="color:#000000;fill:url(#linearGradient3010);fill-opacity:1;fill-rule:nonzero;stroke:none;stroke-width:1;marker:none;visibility:visible;display:block;overflow:visible"
     id="rect14901"
     d="m 9,15 0,2 1,0 0,-2 -1,0 z m 2,0 0,2 1,0 0,-2 -1,0 z m 2,0 0,2 1,0 0,-2 -1,0 z m 2,0 0,2 1,0 0,-2 -1,0 z m 2,0 0,2 1,0 0,-2 -1,0 z m 2,0 0,2 1,0 0,-2 -1,0 z m 2,0 0,2 1,0 0,-2 -1,0 z" />
  <path
     style="color:#000000;fill:none;stroke:#305526;stroke-width:0.5;stroke-linecap:butt;stroke-linejoin:miter;stroke-miterlimit:4;stroke-opacity:1;stroke-dasharray:none;stroke-dashoffset:0;marker:none;visibility:visible;display:block;overflow:visible"
     id="path14959"
     d="m 9.4575532,25.76 1.0606598,3.739107 1.944544,0 L 11.402097,25.76" />
  <path
     style="color:#000000;fill:none;stroke:#305526;stroke-width:0.5;stroke-linecap:butt;stroke-linejoin:miter;stroke-miterlimit:4;stroke-opacity:1;stroke-dasharray:none;stroke-dashoffset:0;marker:none;visibility:visible;display:block;overflow:visible"
     id="path14961"
     d="m 13.457553,25.76 1.06066,3.739107 1.944544,0 L 15.402097,25.76" />
  <path
     style="color:#000000;fill:none;stroke:#305526;stroke-width:0.5;stroke-linecap:butt;stroke-linejoin:miter;stroke-miterlimit:4;stroke-opacity:1;stroke-dasharray:none;stroke-dashoffset:0;marker:none;visibility:visible;display:block;overflow:visible"
     id="path14963"
     d="m 17.457553,25.86 1.06066,3.639107 1.944544,0 L 19.402097,25.86" />
  <path
     style="color:#000000;fill:none;stroke:#305526;stroke-width:0.5;stroke-linecap:butt;stroke-linejoin:miter;stroke-miterlimit:4;stroke-opacity:1;stroke-dasharray:none;stroke-dashoffset:0;marker:none;visibility:visible;display:block;overflow:visible"
     id="path14965"
     d="m 21.457553,25.682 1.06066,3.817107" />
  <path
     style="color:#000000;fill:url(#linearGradient2985);fill-opacity:1;fill-rule:nonzero;stroke:none;stroke-width:1;marker:none;visibility:visible;display:block;overflow:visible"
     id="rect14929"
     d="m 9,24 0,2 1,0 0,-2 -1,0 z m 2,0 0,2 1,0 0,-2 -1,0 z m 2,0 0,2 1,0 0,-2 -1,0 z m 2,0 0,2 1,0 0,-2 -1,0 z m 2,0 0,2 1,0 0,-2 -1,0 z m 2,0 0,2 1,0 0,-2 -1,0 z m 2,0 0,2 1,0 0,-2 -1,0 z" />
  <path
     style="opacity:0.4;color:#000000;fill:none;stroke:url(#radialGradient2966);stroke-width:1.0000006;stroke-linecap:butt;stroke-linejoin:miter;stroke-miterlimit:4;stroke-opacity:1;stroke-dasharray:none;stroke-dashoffset:0;marker:none;visibility:visible;display:block;overflow:visible"
     id="path14989"
     d="m 2.5012312,38.501619 10.9981128,-5.6e-5 0.01105,4.98312 17.000996,-0.0024 -0.0029,-4.987296 8.99151,0.0027 c 0.004,-4.09e-4 0,-24.994109 0,-24.994109 l -36.9953427,-0.0022 c 0.00404,8.338625 -0.0035,25.00025 -0.0035,25.00025 l 7.39e-5,-9e-6 z" />
  <path
     style="color:#000000;fill:none;stroke:url(#linearGradient2960);stroke-width:3;stroke-linecap:square;stroke-linejoin:round;stroke-miterlimit:4;stroke-opacity:1;stroke-dasharray:none;stroke-dashoffset:0;marker:none;visibility:visible;display:block;overflow:visible"
     id="path15001"
     d="m 40.499689,45 0,-38.5 5.5,0" />
  <path
     style="color:#000000;fill:none;stroke:url(#linearGradient2957);stroke-width:2;stroke-linecap:square;stroke-linejoin:round;stroke-miterlimit:4;stroke-opacity:1;stroke-dasharray:none;stroke-dashoffset:0;marker:none;visibility:visible;display:block;overflow:visible"
     id="path15003"
     d="m 40.499689,45 0,-38.5 5.5,0" />
  <path
     style="color:#000000;fill:#477ec5;fill-opacity:1;fill-rule:nonzero;stroke:#334560;stroke-width:0.5;stroke-linecap:round;stroke-linejoin:round;stroke-miterlimit:4;stroke-opacity:1;stroke-dasharray:none;stroke-dashoffset:0;marker:none;visibility:visible;display:block;overflow:visible"
     id="path15005"
     d="m 35.485699,18.000007 a 1.4856964,1.4856964 0 1 1 -2.971392,0 1.4856964,1.4856964 0 1 1 2.971392,0 z" />
  <path
     style="color:#000000;fill:#477ec5;fill-opacity:1;fill-rule:nonzero;stroke:#334560;stroke-width:0.5;stroke-linecap:round;stroke-linejoin:round;stroke-miterlimit:4;stroke-opacity:1;stroke-dasharray:none;stroke-dashoffset:0;marker:none;visibility:visible;display:block;overflow:visible"
     id="path15007"
     d="m 35.485699,22.985697 a 1.4856964,1.4856964 0 1 1 -2.971392,0 1.4856964,1.4856964 0 1 1 2.971392,0 z" />
  <path
     style="color:#000000;fill:#477ec5;fill-opacity:1;fill-rule:nonzero;stroke:#334560;stroke-width:0.5;stroke-linecap:round;stroke-linejoin:round;stroke-miterlimit:4;stroke-opacity:1;stroke-dasharray:none;stroke-dashoffset:0;marker:none;visibility:visible;display:block;overflow:visible"
     id="path15009"
     d="m 35.485699,28.014304 a 1.4856964,1.4856964 0 1 1 -2.971392,0 1.4856964,1.4856964 0 1 1 2.971392,0 z" />
  <path
     style="opacity:0.45;fill:url(#radialGradient2951);fill-opacity:1;stroke:none"
     id="path2983"
     d="M 39,44.499999 C 39,45.880713 31.836558,47 23,47 14.163439,47 7,45.880713 7,44.499999 7,43.119287 14.163439,42 23,42 c 8.836558,0 16,1.119287 16,2.499999 z" />
  <path
     style="fill:#6a9ab8;fill-opacity:1;stroke:#2f5371;stroke-width:1.00000012;stroke-linecap:round;stroke-linejoin:round;stroke-miterlimit:4;stroke-opacity:1;stroke-dasharray:none"
     id="path3406"
     d="m 43.249509,2.5011205 c -4.281846,0.682425 -8.575548,1.295279 -12.854035,1.9951357 -1.164518,0.582411 -0.747806,2.061595 -0.822837,3.1050167 -1e-6,4.5144261 0,9.0288541 0,13.5432811 -2.989902,-0.664117 -6.440524,1.660678 -6.466088,4.818689 -0.134616,2.028017 1.828741,3.708429 3.803895,3.5227 2.677392,-0.136845 4.876234,-2.72166 4.589556,-5.481694 -1e-6,-4.514918 0,-9.733437 0,-14.2483531 3.531124,-0.507439 7.469018,-1.065543 11,-1.573941 -2e-6,3.4804011 0,7.6644051 0,11.1448091 -2.865041,-0.822601 -6.474407,1.063113 -6.949161,4.077642 -0.396968,1.7765 0.848645,3.562052 2.550074,4.069766 C 41.285801,28.514641 44.875626,25.445904 44.5,22.16429 44.4913,16.008926 44.52682,9.8535469 44.5,3.6982025 44.42516,3.0863695 43.918174,2.4701841 43.249509,2.5011205 z" />
  <path
     style="opacity:0.4;fill:url(#linearGradient3299);fill-opacity:1;fill-rule:evenodd;stroke:none"
     id="path3996-9"
     d="M 43.00801,19.648016 43.05035,7.9114779 c 0.44614,-0.0578 0.0685,-0.0093 0.670099,-0.09587 0.0081,2.1922681 0.01129,3.6688351 0.01129,11.9484441 0,0.06161 -0.259835,-0.03092 -0.723739,-0.116032 l 3e-6,0 z" />
  <path
     style="opacity:0.6;fill:url(#radialGradient3296);fill-opacity:1;stroke:none"
     id="path2716-1"
     d="m 44.090386,22.693461 c 0,2.091875 -1.848044,4.101181 -4.127723,4.487912 -2.279675,0.38673 -4.127719,-0.995562 -4.127719,-3.087436 0,-2.091875 1.848044,-4.101183 4.127719,-4.487914 2.279679,-0.38673 4.127723,0.995563 4.127723,3.087438 z" />
  <path
     style="opacity:0.4;fill:url(#linearGradient3293);fill-opacity:1;fill-rule:evenodd;stroke:none"
     id="path2720-9"
     d="M 30,21.858177 30,5.8956012 c 0,0 0.08338,-0.8857 0.837768,-0.888753 0.06556,0.113136 12.727381,-2.0473477 12.727381,-2.0473477 0,0 0.484543,1.2566368 -4.991113,2.0404995 C 30.780238,6.115713 31,6.698241 31,7.5 c 0,2.3649167 0,6.31049 0,14.9215 -0.167574,-0.142514 -0.663902,-0.478212 -1,-0.563323 l 0,0 z" />
  <path
     style="opacity:0.6;fill:url(#radialGradient3290);fill-opacity:1;stroke:none"
     id="path2712-6"
     d="m 31.357535,24.673572 c 0,2.0233 -1.75516,3.96674 -3.92026,4.340793 -2.165102,0.374054 -3.920262,-0.962926 -3.920262,-2.986227 0,-2.023301 1.75516,-3.966741 3.920262,-4.340795 2.1651,-0.374053 3.92026,0.962927 3.92026,2.986229 z" />
  <path
     style="color:#000000;fill:url(#linearGradient3030);fill-opacity:1;fill-rule:nonzero;stroke:none;stroke-width:1;marker:none;visibility:visible;display:block;overflow:visible"
     id="rect14869"
     d="m 6,18 0,1 2,0 0,-1 -2,0 z m 0,2 0,1 2,0 0,-1 -2,0 z m 0,2 0,1 2,0 0,-1 -2,0 z" />
</svg>
