<?xml version="1.0" encoding="UTF-8" standalone="no"?>
<svg
   xmlns:dc="http://purl.org/dc/elements/1.1/"
   xmlns:cc="http://creativecommons.org/ns#"
   xmlns:rdf="http://www.w3.org/1999/02/22-rdf-syntax-ns#"
   xmlns:svg="http://www.w3.org/2000/svg"
   xmlns="http://www.w3.org/2000/svg"
   xmlns:xlink="http://www.w3.org/1999/xlink"
   version="1.1"
   id="svg7087"
   height="48"
   width="48">
  <defs
     id="defs7089">
    <linearGradient
       id="linearGradient6307">
      <stop
         id="stop6309"
         offset="0"
         style="stop-color:#cc0000;stop-opacity:1;" />
      <stop
         id="stop6311"
         offset="1"
         style="stop-color:#cc0000;stop-opacity:0;" />
    </linearGradient>
    <linearGradient
       gradientTransform="matrix(0.55555558,0,0,0.58490571,5.6666659,431.71651)"
       y2="991.36218"
       x2="33"
       y1="1045.3622"
       x1="33"
       gradientUnits="userSpaceOnUse"
       id="linearGradient6430"
       xlink:href="#linearGradient6420" />
    <linearGradient
       id="linearGradient6420">
      <stop
         id="stop6422"
         offset="0"
         style="stop-color:#000000;stop-opacity:1;" />
      <stop
         id="stop6424"
         offset="1"
         style="stop-color:#000000;stop-opacity:0;" />
    </linearGradient>
    <linearGradient
       y2="42.728077"
       x2="16.80644"
       y1="20.620281"
       x1="16.80644"
       gradientTransform="matrix(1.2484283,0,0,1.6645713,3.6183622,974.13831)"
       gradientUnits="userSpaceOnUse"
       id="linearGradient4939"
       xlink:href="#linearGradient4035" />
    <linearGradient
       id="linearGradient4035">
      <stop
         offset="0"
         style="stop-color:#ffffff;stop-opacity:1"
         id="stop4037" />
      <stop
         offset="0.05555556"
         style="stop-color:#ffffff;stop-opacity:0.23529412"
         id="stop4039" />
      <stop
         offset="0.94444442"
         style="stop-color:#ffffff;stop-opacity:0.15686275"
         id="stop4041" />
      <stop
         offset="1"
         style="stop-color:#ffffff;stop-opacity:0.39215687"
         id="stop4043" />
    </linearGradient>
    <radialGradient
       xlink:href="#linearGradient2867-449-88-871-390-598-476-591-434-148-57-177-8-3-3-6-4-8-8-8-5-7"
       id="radialGradient5299"
       gradientUnits="userSpaceOnUse"
       gradientTransform="matrix(0,8.9058797,-8.3440446,0,107.70052,926.61288)"
       cx="7.1183534"
       cy="9.9571075"
       fx="7.1183534"
       fy="9.9571075"
       r="12.671875" />
    <linearGradient
       id="linearGradient2867-449-88-871-390-598-476-591-434-148-57-177-8-3-3-6-4-8-8-8-5-7">
      <stop
         offset="0"
         style="stop-color:#505050;stop-opacity:1"
         id="stop3750-1-0-7-6-6-1-3-9-3-9" />
      <stop
         offset="0.26238"
         style="stop-color:#2b2b2b;stop-opacity:1"
         id="stop3752-3-7-4-0-32-8-923-0-7-0" />
      <stop
         offset="0.704952"
         style="stop-color:#0a0a0a;stop-opacity:1"
         id="stop3754-1-8-5-2-7-6-7-1-9-1" />
      <stop
         offset="1"
         style="stop-color:#000000;stop-opacity:1"
         id="stop3756-1-6-2-6-6-1-96-6-0-1" />
    </linearGradient>
    <linearGradient
       y2="42.728077"
       x2="16.80644"
       y1="20.620281"
       x1="16.80644"
       gradientTransform="matrix(1.5258568,0,0,1.9419998,-0.91089018,965.35098)"
       gradientUnits="userSpaceOnUse"
       id="linearGradient4610"
       xlink:href="#linearGradient4035" />
    <linearGradient
       gradientUnits="userSpaceOnUse"
       y2="991.36218"
       x2="33"
       y1="1045.3622"
       x1="33"
       id="linearGradient6426"
       xlink:href="#linearGradient6420"
       gradientTransform="matrix(0.68888889,0,0,0.75471665,1.2666663,258.28733)" />
    <linearGradient
       gradientUnits="userSpaceOnUse"
       y2="1048.3622"
       x2="33"
       y1="988.36218"
       x1="33"
       id="linearGradient4899"
       xlink:href="#linearGradient3994-617-9-9"
       gradientTransform="matrix(0.68627451,0,0,0.74576271,1.3529409,267.40572)" />
    <linearGradient
       id="linearGradient3994-617-9-9">
      <stop
         offset="0"
         style="stop-color:#f0f0f0;stop-opacity:1"
         id="stop4324-9-7" />
      <stop
         offset="0.08552461"
         style="stop-color:#d7d7d8;stop-opacity:1"
         id="stop2860-4-4" />
      <stop
         offset="0.92166406"
         style="stop-color:#b2b2b3;stop-opacity:1"
         id="stop2862-5-9" />
      <stop
         offset="1"
         style="stop-color:#979798;stop-opacity:1"
         id="stop4326-1-1" />
    </linearGradient>
    <linearGradient
       id="linearGradient3688-166-749-654">
      <stop
         offset="0"
         style="stop-color:#181818;stop-opacity:1"
         id="stop3088" />
      <stop
         offset="1"
         style="stop-color:#181818;stop-opacity:0"
         id="stop3090" />
    </linearGradient>
    <linearGradient
       id="linearGradient3688-464-309-604">
      <stop
         offset="0"
         style="stop-color:#181818;stop-opacity:1"
         id="stop3094" />
      <stop
         offset="1"
         style="stop-color:#181818;stop-opacity:0"
         id="stop3096" />
    </linearGradient>
    <linearGradient
       id="linearGradient3702-501-757-795">
      <stop
         offset="0"
         style="stop-color:#181818;stop-opacity:0"
         id="stop3100" />
      <stop
         offset="0.5"
         style="stop-color:#181818;stop-opacity:1"
         id="stop3102" />
      <stop
         offset="1"
         style="stop-color:#181818;stop-opacity:0"
         id="stop3104" />
    </linearGradient>
    <linearGradient
       y2="39.999443"
       x2="25.058096"
       y1="47.027729"
       x1="25.058096"
       gradientTransform="matrix(1.0714286,0,0,0.57142849,-1.7857052,1023.5051)"
       gradientUnits="userSpaceOnUse"
       id="linearGradient10158"
       xlink:href="#linearGradient3702-501-757-795" />
    <radialGradient
       r="2.5"
       fy="43.5"
       fx="4.9929786"
       cy="43.5"
       cx="4.9929786"
       gradientTransform="matrix(1.9774219,0,0,0.79999996,-18.814371,-1083.1623)"
       gradientUnits="userSpaceOnUse"
       id="radialGradient10161"
       xlink:href="#linearGradient3688-464-309-604" />
    <radialGradient
       r="2.5"
       fy="43.5"
       fx="4.9964824"
       cy="43.5"
       cx="4.9964824"
       gradientTransform="matrix(2.0037839,2.1079247e-7,-5.1366217e-8,0.80000616,28.988131,1013.562)"
       gradientUnits="userSpaceOnUse"
       id="radialGradient10164"
       xlink:href="#linearGradient3688-166-749-654" />
    <linearGradient
       id="linearGradient3600-4">
      <stop
         id="stop3602-7"
         style="stop-color:#f4f4f4;stop-opacity:1"
         offset="0" />
      <stop
         id="stop3604-6"
         style="stop-color:#dbdbdb;stop-opacity:1"
         offset="1" />
    </linearGradient>
    <linearGradient
       id="linearGradient3977">
      <stop
         id="stop3979"
         style="stop-color:#ffffff;stop-opacity:1"
         offset="0" />
      <stop
         id="stop3981"
         style="stop-color:#ffffff;stop-opacity:0.23529412"
         offset="0.03626217" />
      <stop
         id="stop3983"
         style="stop-color:#ffffff;stop-opacity:0.15686275"
         offset="0.95056331" />
      <stop
         id="stop3985"
         style="stop-color:#ffffff;stop-opacity:0.39215687"
         offset="1" />
    </linearGradient>
    <linearGradient
       id="linearGradient3104-5-8">
      <stop
         id="stop3106-2-4"
         style="stop-color:#aaaaaa;stop-opacity:1"
         offset="0" />
      <stop
         id="stop3108-5-5"
         style="stop-color:#c8c8c8;stop-opacity:1"
         offset="1" />
    </linearGradient>
    <linearGradient
       y2="3.3638515"
       x2="22.004084"
       y1="47.813133"
       x1="22.004084"
       gradientTransform="matrix(0.66858377,0,0,0.67036989,7.3203809,1009.0539)"
       gradientUnits="userSpaceOnUse"
       id="linearGradient11036"
       xlink:href="#linearGradient3104-5-8" />
    <linearGradient
       y2="43"
       x2="23.99999"
       y1="5.5641499"
       x1="23.99999"
       gradientTransform="matrix(0.56756757,0,0,0.75675671,10.378382,1008.7018)"
       gradientUnits="userSpaceOnUse"
       id="linearGradient11040"
       xlink:href="#linearGradient3977" />
    <linearGradient
       y2="47.013336"
       x2="25.132275"
       y1="0.98520643"
       x1="25.132275"
       gradientTransform="matrix(0.62856997,0,0,0.63012397,8.9143197,1010.7744)"
       gradientUnits="userSpaceOnUse"
       id="linearGradient11043"
       xlink:href="#linearGradient3600-4" />
    <linearGradient
       y2="1015.3622"
       x2="32"
       y1="1017.8702"
       x1="32"
       spreadMethod="reflect"
       gradientTransform="matrix(0.68181818,0,0,1.399999,1.4999997,-398.14376)"
       gradientUnits="userSpaceOnUse"
       id="linearGradient11058"
       xlink:href="#linearGradient6307" />
  </defs>
  <metadata
     id="metadata7092">
    <rdf:RDF>
      <cc:Work
         rdf:about="">
        <dc:format>image/svg+xml</dc:format>
        <dc:type
           rdf:resource="http://purl.org/dc/dcmitype/StillImage" />
        <dc:title />
      </cc:Work>
    </rdf:RDF>
  </metadata>
  <g
     transform="translate(0,-1004.3622)"
     id="layer1">
    <g
       id="g10676">
      <rect
         style="opacity:0.4;fill:url(#radialGradient10164);fill-opacity:1;stroke:none"
         id="rect2801"
         y="1046.3622"
         x="39"
         height="4"
         width="5" />
      <rect
         style="opacity:0.4;fill:url(#radialGradient10161);fill-opacity:1;stroke:none"
         id="rect3696"
         transform="scale(-1,-1)"
         y="-1050.3622"
         x="-9"
         height="4"
         width="5" />
      <rect
         style="opacity:0.4;fill:url(#linearGradient10158);fill-opacity:1;stroke:none"
         id="rect3700"
         y="1046.3622"
         x="9"
         height="4"
         width="30" />
    </g>
    <rect
       width="35"
       height="44"
       rx="1"
       ry="1"
       x="6.5"
       y="1004.8622"
       id="rect4897"
       style="fill:url(#linearGradient4899);stroke:none" />
    <rect
       style="opacity:0.35;fill:none;stroke:url(#linearGradient6426);stroke-width:1;stroke-opacity:1"
       id="rect6410"
       y="1006.8622"
       x="8.5"
       ry="0.99999994"
       rx="1"
       height="39.999981"
       width="31" />
    <rect
       style="opacity:0.5;fill:none;stroke:#000000;stroke-width:1;stroke-opacity:1"
       id="rect3993"
       y="1004.8622"
       x="6.5"
       ry="1"
       rx="1"
       height="44"
       width="35" />
    <rect
       style="fill:none;stroke:url(#linearGradient4610);stroke-width:1;stroke-linecap:round;stroke-linejoin:round;stroke-miterlimit:4;stroke-opacity:1;stroke-dasharray:none;stroke-dashoffset:0"
       id="rect6741-5-0-2-3"
       y="1005.8621"
       x="7.5"
       height="42"
       width="33" />
    <rect
       style="opacity:0.9;color:#000000;fill:url(#radialGradient5299);fill-opacity:1;fill-rule:nonzero;stroke:none;stroke-width:0.99999994;marker:none;visibility:visible;display:inline;overflow:visible;enable-background:accumulate"
       id="rect5505-21-3-8-5-2"
       y="1007.8623"
       x="9.5"
       height="38"
       width="29" />
    <rect
       width="29"
       height="38"
       x="9.5"
       y="1007.8622"
       id="rect4935"
       style="opacity:0.7;fill:none;stroke:#000000;stroke-width:1;stroke-linejoin:round;stroke-opacity:1" />
    <rect
       width="27"
       height="36"
       x="10.5"
       y="1008.8622"
       id="rect4937"
       style="opacity:0.3;fill:none;stroke:url(#linearGradient4939);stroke-width:1.00000012;stroke-linecap:round;stroke-linejoin:round;stroke-miterlimit:4;stroke-opacity:1;stroke-dasharray:none;stroke-dashoffset:0" />
    <rect
       width="25"
       height="31"
       rx="1"
       ry="1"
       x="11.5"
       y="1011.8622"
       id="rect6428"
       style="opacity:0.15;fill:none;stroke:url(#linearGradient6430);stroke-width:0.99999988;stroke-opacity:1" />
    <path
       style="fill:url(#linearGradient11043);fill-opacity:1;stroke:none;display:inline"
       id="path4160-3"
       d="m 13,1012.364 c 5.041316,0 21.999973,0 21.999973,0 L 35,1041.3622 c 0,0 -14.666666,0 -22,0 0,-9.6667 0,-19.3333 0,-29 z" />
    <path
       style="fill:none;stroke:url(#linearGradient11040);stroke-width:0.99999994;stroke-linecap:round;stroke-linejoin:round;stroke-miterlimit:4;stroke-opacity:1;stroke-dasharray:none;stroke-dashoffset:0"
       id="rect6741-1-8"
       d="m 34.5,1040.864 -21,0 0,-28 21,0 z" />
    <path
       style="opacity:0.3;fill:none;stroke:#000000;stroke-width:0.99992186;stroke-linecap:butt;stroke-linejoin:round;stroke-miterlimit:4;stroke-opacity:1;stroke-dasharray:none;stroke-dashoffset:0;display:inline"
       id="path4160-3-4"
       d="m 12.499961,1011.864 c 5.270482,0 23.000037,0 23.000037,0 l 2.8e-5,29.9982 c 0,0 -15.333376,0 -23.000065,0 0,-10 0,-20 0,-30 z" />
    <path
       style="fill:none;stroke:url(#linearGradient11036);stroke-width:0.99999994px;stroke-linecap:butt;stroke-linejoin:miter;stroke-opacity:1"
       id="path3475-0"
       d="m 16,1016.9299 1.566993,0 z m 1.796819,0 1.462527,0 z m 1.692353,0 1.295381,0 z m 1.504313,0 0.564117,0 z m 0.793943,0 1.253595,0 z m 1.504313,0 3.301133,0 z m 3.510065,0 2.528083,0 z m 2.737015,0 0.77305,0 z M 16,1018.8517 l 2.06843,0 z m 2.277364,0 3.384705,0 z m 3.593637,0 1.650566,0 z m 1.859499,0 1.546099,0 z m 1.755032,0 1.316274,0 z m 1.525206,0 2.068432,0.021 z m 2.25647,0.021 3.363813,0 z M 16,1020.8622 l 2.862374,0 z m 3.0922,0 3.0922,0 z m 3.301132,0 1.232701,0 z m 1.441634,0 2.904161,0 z m 3.092199,0 1.984859,0 z m 2.214684,0 0.793944,0 z m 1.002876,0 0.438758,0 z m 0.668584,0 1.232701,0 z m -14.813309,2 1.065556,0 z m 1.399847,0 3.948823,0 z m -1.399847,3 2.632548,0 z m 2.841481,0 2.820588,0 z m 3.02952,0 1.086449,0 z m 1.295381,0 2.653442,0 z m 2.862374,0 3.342919,0 z m 3.572745,0 1.232701,0 z m -13.601501,2 2.862374,0 z m 3.0922,0 3.0922,0 z m 3.301132,0 1.232701,0 z m 1.441634,0 2.904161,0 z m 3.092199,0 1.984859,0 z m 2.214684,0 0.793944,0 z m 1.002876,0 0.438758,0 z m 0.668584,0 1.232701,0 z m -14.813309,2 2.44451,0 z m 2.716122,0 1.170021,0 z m 1.378954,0 0.58501,0 z m 0.814836,0 1.065555,0 z m 1.295381,0 1.086448,0 z m 1.295381,0 1.734139,0 z m 1.963965,0 2.25647,0 z m 2.465402,0 1.504314,0 z m 1.713247,0 0.376078,0 z M 16,1032.8517 l 2.06843,0 z m 2.277364,0 3.384705,0 z m 3.593637,0 1.650566,0 z m 1.859499,0 1.546099,0 z m 1.755032,0 1.316274,0 z m 1.525206,0 2.068432,0.021 z m 2.25647,0.021 3.363813,0 z M 16,1034.8622 l 2.590762,0 z m 2.820588,0 0.814836,0 z m 1.023769,0 1.859499,0 z m 2.06843,0 2.737016,0 z m 2.966842,0 1.859498,0 z m 2.047536,0 0.396972,0 z m 0.605905,0 2.360936,0 z m 2.611655,0 1.232702,0 z m -14.144725,2 2.590762,0 z m 2.820588,0 1.170021,0 z m 1.378953,0 1.838606,0 z m 2.047538,0 1.984858,0 z m 2.214684,0 0.793943,0 z m 1.002876,0 0.438758,0 z m 0.668584,0 1.232701,0 z" />
    <g
       transform="translate(0,7.0000784)"
       id="g11054">
      <rect
         y="1023.3621"
         x="9"
         height="6.9999948"
         width="30"
         id="rect5537"
         style="opacity:0.8;fill:url(#linearGradient11058);fill-opacity:1;stroke:none" />
      <rect
         style="opacity:0.8;fill:#ffffff;fill-opacity:1;stroke:none"
         id="rect3099"
         width="30"
         height="1"
         x="9"
         y="1026.3623" />
    </g>
  </g>
</svg>
