<?xml version="1.0" encoding="UTF-8" standalone="no"?>
<svg
   xmlns:dc="http://purl.org/dc/elements/1.1/"
   xmlns:cc="http://creativecommons.org/ns#"
   xmlns:rdf="http://www.w3.org/1999/02/22-rdf-syntax-ns#"
   xmlns:svg="http://www.w3.org/2000/svg"
   xmlns="http://www.w3.org/2000/svg"
   width="16"
   version="1.1"
   id="svg7384"
   height="16">
  <metadata
     id="metadata90">
    <rdf:RDF>
      <cc:Work
         rdf:about="">
        <dc:format>image/svg+xml</dc:format>
        <dc:type
           rdf:resource="http://purl.org/dc/dcmitype/StillImage" />
        <dc:title>elementary Symbolic Icon Theme</dc:title>
      </cc:Work>
    </rdf:RDF>
  </metadata>
  <title
     id="title9167">elementary Symbolic Icon Theme</title>
  <defs
     id="defs7386" />
  <g
     transform="translate(-413.0004,-128)"
     style="display:inline"
     label="status"
     id="layer9" />
  <g
     transform="translate(-413.0004,-128)"
     style="display:inline"
     id="layer10" />
  <g
     transform="translate(-413.0004,-128)"
     style="display:inline"
     id="layer13" />
  <g
     transform="translate(-413.0004,-128)"
     id="layer14" />
  <g
     transform="translate(-413.0004,-128)"
     style="display:inline"
     id="layer15" />
  <g
     transform="translate(-413.0004,-128)"
     style="display:inline"
     id="g71291" />
  <g
     transform="translate(-413.0004,-128)"
     style="display:inline"
     id="layer12">
    <path
       style="text-indent:0;text-transform:none;block-progression:tb;color:#000000;fill:#bebebe;stroke:none"
       id="path3869"
       d="m 420.487,128 c -4.1303,0 -7.4866,3.3563 -7.4866,7.4866 0,4.1303 3.3563,7.4866 7.4866,7.4866 4.1303,0 7.4866,-3.3563 7.4866,-7.4866 0,-4.1303 -3.3563,-7.4866 -7.4866,-7.4866 z m 0,1.9732 c 3.0494,0 5.5134,2.464 5.5134,5.5134 0,3.0494 -2.464,5.5134 -5.5134,5.5134 -3.0494,0 -5.5134,-2.464 -5.5134,-5.5134 0,-3.0494 2.464,-5.5134 5.5134,-5.5134 z" />
    <path
       style="text-indent:0;text-transform:none;block-progression:tb;color:#000000;fill:#bebebe;stroke:none"
       id="path4639"
       d="m 423.393,131.99 a 0.50005,0.50005 0 0 0 -0.25,0.15625 l -2.656,2.65 -1.656,-1.65 a 0.50005,0.50005 0 1 0 -0.6875,0.6875 l 2,2 a 0.50005,0.50005 0 0 0 0.6875,0 l 3,-3 a 0.50005,0.50005 0 0 0 -0.438,-0.85 z" />
  </g>
</svg>
