<?xml version="1.0" encoding="UTF-8" standalone="no"?>
<svg
   xmlns:dc="http://purl.org/dc/elements/1.1/"
   xmlns:cc="http://creativecommons.org/ns#"
   xmlns:rdf="http://www.w3.org/1999/02/22-rdf-syntax-ns#"
   xmlns:svg="http://www.w3.org/2000/svg"
   xmlns="http://www.w3.org/2000/svg"
   width="15.999892"
   version="1.1"
   id="svg7384"
   height="16">
  <metadata
     id="metadata90">
    <rdf:RDF>
      <cc:Work
         rdf:about="">
        <dc:format>image/svg+xml</dc:format>
        <dc:type
           rdf:resource="http://purl.org/dc/dcmitype/StillImage" />
        <dc:title>elementary Symbolic Icon Theme</dc:title>
      </cc:Work>
    </rdf:RDF>
  </metadata>
  <title
     id="title9167">elementary Symbolic Icon Theme</title>
  <defs
     id="defs7386" />
  <g
     transform="translate(-493.00031,1.99673)"
     style="display:inline"
     label="status"
     id="layer9" />
  <g
     transform="translate(-493.00031,1.99673)"
     style="display:inline"
     id="layer10" />
  <g
     transform="translate(-493.00031,1.99673)"
     style="display:inline"
     id="layer13" />
  <g
     transform="translate(-493.00031,1.99673)"
     id="layer14" />
  <g
     transform="translate(-493.00031,1.99673)"
     style="display:inline"
     id="layer15" />
  <g
     transform="translate(-252.00011,-565.00327)"
     style="display:inline"
     id="layer3" />
  <g
     transform="translate(-252.00011,-565.00327)"
     id="g41299" />
  <g
     transform="translate(-493.00031,1.99673)"
     style="display:inline"
     id="layer12">
    <path
       style="fill:#bebebe;fill-opacity:1;stroke:none;display:inline"
       id="path26815"
       d="m 505.0002,8.00327 0,1.99673 -2,0 0,1.99673 2,0 0,1.99673 2,0 0,-1.99673 2,0 0,-1.99673 -2,0 0,-1.99673 -2,0 z" />
    <path
       style="font-size:medium;font-style:normal;font-variant:normal;font-weight:normal;font-stretch:normal;text-indent:0;text-align:start;text-decoration:none;line-height:normal;letter-spacing:normal;word-spacing:normal;text-transform:none;direction:ltr;block-progression:tb;writing-mode:lr-tb;text-anchor:start;baseline-shift:baseline;color:#000000;fill:#bebebe;fill-opacity:1;stroke:none;stroke-width:1;marker:none;visibility:visible;display:inline;overflow:visible;enable-background:accumulate;font-family:Sans;-inkscape-font-specification:Sans"
       id="path26788"
       d="M 499.40625,2 A 0.50005,0.50005 0 0 0 499,2.5 l 0,2.5 -1.5,0 a 0.50005,0.50005 0 1 0 0,1 l 2,0 A 0.50005,0.50005 0 0 0 500,5.5 l 0,-3 A 0.50005,0.50005 0 0 0 499.40625,2 z" />
    <path
       style="font-size:xx-small;font-style:normal;font-variant:normal;font-weight:normal;font-stretch:normal;text-indent:0;text-align:start;text-decoration:none;line-height:normal;letter-spacing:normal;word-spacing:normal;text-transform:none;direction:ltr;block-progression:tb;writing-mode:lr-tb;text-anchor:start;baseline-shift:baseline;color:#000000;fill:#bebebe;fill-opacity:1;stroke:none;stroke-width:2.54545426;marker:none;visibility:visible;display:inline;overflow:visible;enable-background:accumulate;font-family:Sans;-inkscape-font-specification:Sans"
       id="path26792"
       d="m 499.50041,12.00327 c -3.57802,0 -6.5,-2.92199 -6.5,-6.5 0,-3.57801 2.92198,-6.5 6.5,-6.5 3.57798,0 6.5,2.92199 6.5,6.5 0,0.51565 -0.0727,1.01814 -0.1875,1.5 l -2.09375,0 c 0.1673,-0.47279 0.28124,-0.96704 0.28124,-1.5 0,-2.49712 -2.00288,-4.5 -4.49999,-4.5 -2.49714,0 -4.50001,2.00288 -4.50001,4.5 0,2.49713 2.00287,4.5 4.50001,4.5 0.9323,0 1.78949,-0.26937 2.5,-0.75 l 0,2.25 c -0.76791,0.32274 -1.61416,0.5 -2.5,0.5 z" />
  </g>
</svg>
