<?xml version="1.0" encoding="UTF-8" standalone="no"?>
<svg
   xmlns:dc="http://purl.org/dc/elements/1.1/"
   xmlns:cc="http://creativecommons.org/ns#"
   xmlns:rdf="http://www.w3.org/1999/02/22-rdf-syntax-ns#"
   xmlns:svg="http://www.w3.org/2000/svg"
   xmlns="http://www.w3.org/2000/svg"
   width="16.000004"
   version="1.1"
   id="svg7384"
   height="16.006945">
  <metadata
     id="metadata90">
    <rdf:RDF>
      <cc:Work
         rdf:about="">
        <dc:format>image/svg+xml</dc:format>
        <dc:type
           rdf:resource="http://purl.org/dc/dcmitype/StillImage" />
        <dc:title>elementary Symbolic Icon Theme</dc:title>
      </cc:Work>
    </rdf:RDF>
  </metadata>
  <title
     id="title9167">elementary Symbolic Icon Theme</title>
  <defs
     id="defs7386" />
  <g
     transform="translate(-333.0004,-7.9965278)"
     style="display:inline"
     label="status"
     id="layer9" />
  <g
     transform="translate(-333.0004,-7.9965278)"
     style="display:inline"
     id="layer10" />
  <g
     transform="translate(-333.0004,-7.9965278)"
     style="display:inline"
     id="layer13" />
  <g
     transform="translate(-333.0004,-7.9965278)"
     id="layer14" />
  <g
     transform="translate(-333.0004,-7.9965278)"
     style="display:inline"
     id="layer15" />
  <g
     transform="translate(-333.0004,-7.9965278)"
     style="display:inline"
     id="g71291" />
  <g
     transform="translate(-333.0004,-7.9965278)"
     style="display:inline"
     id="layer12">
    <path
       style="font-size:medium;font-style:normal;font-variant:normal;font-weight:normal;font-stretch:normal;text-indent:0;text-align:start;text-decoration:none;line-height:normal;letter-spacing:normal;word-spacing:normal;text-transform:none;direction:ltr;block-progression:tb;writing-mode:lr-tb;text-anchor:start;baseline-shift:baseline;color:#000000;fill:#bebebe;fill-opacity:1;stroke:none;stroke-width:1px;marker:none;visibility:visible;display:inline;overflow:visible;enable-background:accumulate;font-family:Sans;-inkscape-font-specification:Sans"
       id="path3076"
       d="m 336.9379,8.0034722 c -0.36035,0.046875 -0.9375,0.25 -0.9375,1 l 0,1.9999998 c 0,0 -1,0 -1,1 l 0,3 -1,0 c 0,0 -1,0 -1,1 l 0,5.5 c 0,0.5 0.5,0.5 0.5,0.5 l 0.5,0 c 0,1 1,1 1,1 0,0 0,1 1,1 l 10,0 c 1,0 1,-1 1,-1 0,0 1,0 1,-1 l 0.5,0 c 0.5,0 0.5,-0.419201 0.5,-0.5 l 0,-5.5 c 0,-1 -1,-1 -1,-1 l -1,0 0,-3 c 0,-1 -1,-1 -1,-1 l 0,-1.9999998 c 0,-1 -1,-1 -1.1875,-1 l -7.625,0 c -0.0469,0 -0.12988,-0.015625 -0.25,0 z m 0.0625,1 8,0 0,5.9999998 -8,0 0,-5.9999998 z m -2.4375,6.9999998 c 0.0615,-0.0088 0.0937,0 0.0937,0 l 1.34375,0 10,0 1.34375,0 c 0,0 0.65625,0 0.65625,0.5625 l 0,4.4375 -14,0 0,-4.4375 c 0,-0.421875 0.37793,-0.536133 0.5625,-0.5625 z m 1.4375,6 10,0 0,1 -10,0 0,-1 z" />
    <path
       style="opacity:0.5;fill:#bebebe;fill-opacity:1;stroke:none"
       id="path3850"
       d="m 336.0004,16.003472 0,4 10,0 0,-4 -10,0 z" />
  </g>
</svg>
