<?xml version="1.0" encoding="UTF-8" standalone="no"?>
<svg
   xmlns:dc="http://purl.org/dc/elements/1.1/"
   xmlns:cc="http://creativecommons.org/ns#"
   xmlns:rdf="http://www.w3.org/1999/02/22-rdf-syntax-ns#"
   xmlns:svg="http://www.w3.org/2000/svg"
   xmlns="http://www.w3.org/2000/svg"
   width="16"
   version="1.1"
   id="svg7384"
   height="16">
  <metadata
     id="metadata90">
    <rdf:RDF>
      <cc:Work
         rdf:about="">
        <dc:format>image/svg+xml</dc:format>
        <dc:type
           rdf:resource="http://purl.org/dc/dcmitype/StillImage" />
        <dc:title>elementary Symbolic Icon Theme</dc:title>
      </cc:Work>
    </rdf:RDF>
  </metadata>
  <title
     id="title9167">elementary Symbolic Icon Theme</title>
  <defs
     id="defs7386" />
  <g
     transform="translate(-553.00043,52)"
     style="display:inline"
     label="status"
     id="layer9" />
  <g
     transform="translate(-553.00043,52)"
     style="display:inline"
     id="layer10" />
  <g
     transform="translate(-553.00043,52)"
     style="display:inline"
     id="layer13" />
  <g
     transform="translate(-553.00043,52)"
     id="layer14" />
  <g
     transform="translate(-553.00043,52)"
     style="display:inline"
     id="layer15" />
  <g
     transform="translate(-553.00043,52)"
     style="display:inline"
     id="g71291" />
  <g
     transform="translate(-553.00043,52)"
     style="display:inline"
     id="layer12">
    <path
       style="color:#bebebe;fill:#bebebe;fill-opacity:1;fill-rule:nonzero;stroke:none;stroke-width:1;marker:none;visibility:visible;display:inline;overflow:visible;enable-background:accumulate"
       id="rect3058-3"
       d="m 555.5002,-50 c -0.277,0 -0.5,0.223 -0.5,0.5 l 0,0.5 -0.5,0 c -0.277,0 -0.5,0.223 -0.5,0.5 l 0,2 c 0,-0.277 0.223,-0.5 0.5,-0.5 l 13,0 c 0.277,0 0.5,0.223 0.5,0.5 l 0,-2 c 0,-0.277 -0.223,-0.5 -0.5,-0.5 l -6.5,0 0,-0.5 c 0,-0.277 -0.223,-0.5 -0.5,-0.5 z m -1,4 c -0.277,0 -0.5,0.223 -0.5,0.5 l 0,7 c 0,0.277 0.223,0.5 0.5,0.5 l 7.5,0 0,-4 2,0 0,-2 4,0 0,-1.5 c 0,-0.277 -0.223,-0.5 -0.5,-0.5 z" />
    <path
       style="fill:#bebebe;stroke:none"
       id="rect12294"
       d="m 565.0002,-43 0,2 -2,0 0,2 2,0 0,2 2,0 0,-2 2,0 0,-2 -2,0 0,-2 z" />
  </g>
</svg>
