<?xml version="1.0" encoding="UTF-8" standalone="no"?>
<svg
   xmlns:dc="http://purl.org/dc/elements/1.1/"
   xmlns:cc="http://creativecommons.org/ns#"
   xmlns:rdf="http://www.w3.org/1999/02/22-rdf-syntax-ns#"
   xmlns:svg="http://www.w3.org/2000/svg"
   xmlns="http://www.w3.org/2000/svg"
   width="16.00001"
   version="1.1"
   id="svg7384"
   height="15.999999">
  <metadata
     id="metadata90">
    <rdf:RDF>
      <cc:Work
         rdf:about="">
        <dc:format>image/svg+xml</dc:format>
        <dc:type
           rdf:resource="http://purl.org/dc/dcmitype/StillImage" />
        <dc:title>elementary Symbolic Icon Theme</dc:title>
      </cc:Work>
    </rdf:RDF>
  </metadata>
  <title
     id="title9167">elementary Symbolic Icon Theme</title>
  <defs
     id="defs7386" />
  <g
     transform="translate(-553.00039,12.000002)"
     style="display:inline"
     label="status"
     id="layer9" />
  <g
     transform="translate(-553.00039,12.000002)"
     style="display:inline"
     id="layer10" />
  <g
     transform="translate(-553.00039,12.000002)"
     style="display:inline"
     id="layer13" />
  <g
     transform="translate(-553.00039,12.000002)"
     id="layer14" />
  <g
     transform="translate(-553.00039,12.000002)"
     style="display:inline"
     id="layer15" />
  <g
     transform="translate(-553.00039,12.000002)"
     style="display:inline"
     id="g71291" />
  <g
     transform="translate(-553.00039,12.000002)"
     style="display:inline"
     id="layer12">
    <path
       style="font-size:xx-small;font-style:normal;font-variant:normal;font-weight:normal;font-stretch:normal;text-indent:0;text-align:start;text-decoration:none;line-height:normal;letter-spacing:normal;word-spacing:normal;text-transform:none;direction:ltr;block-progression:tb;writing-mode:lr-tb;text-anchor:start;baseline-shift:baseline;color:#000000;fill:#bebebe;fill-opacity:1;stroke:none;stroke-width:2;marker:none;visibility:visible;display:inline;overflow:visible;enable-background:accumulate;font-family:Sans;-inkscape-font-specification:Sans"
       id="path11643-3-2-9"
       d="m 559.00052,-11.95074 0,2 6,0 c 0.42816,0 1,0.61414 1,1 l 0,1 -5,0 c -0.91927,0 -1.7356,0.38396 -2.25,0.96875 -0.5144,0.58479 -0.75639,1.31063 -0.75,2.03125 0.006,0.72062 0.26893,1.45271 0.78125,2.03125 0.51232,0.57854 1.31047,0.96875 2.21875,0.96875 l 6,0 1,0 0,-1 0,-6 c 0,-1.63434 -1.3198,-3 -3,-3 l -6,0 z m 2,6 5,0 0,2 -5,0 c -0.39787,0 -0.56691,-0.10979 -0.71875,-0.28125 -0.15184,-0.17146 -0.27877,-0.43937 -0.28125,-0.71875 -0.002,-0.27938 0.10467,-0.55354 0.25,-0.71875 0.14533,-0.16521 0.32764,-0.28125 0.75,-0.28125 z" />
    <path
       style="font-size:medium;font-style:normal;font-variant:normal;font-weight:normal;font-stretch:normal;text-indent:0;text-align:start;text-decoration:none;line-height:normal;letter-spacing:normal;word-spacing:normal;text-transform:none;direction:ltr;block-progression:tb;writing-mode:lr-tb;text-anchor:start;color:#000000;fill:#bebebe;fill-opacity:1;stroke:none;stroke-width:2;marker:none;visibility:visible;display:inline;overflow:visible;enable-background:accumulate;font-family:Bitstream Vera Sans;-inkscape-font-specification:Bitstream Vera Sans"
       id="path4484"
       d="m 557.0004,3.00001 -1,-1e-5 c -0.26531,-3e-5 -0.53058,-0.0931 -0.71875,-0.28124 l -2,-2.00001 -0.28126,-0.28125 0,-0.87499 0.28126,-0.28126 2,-1.99999 c 0.18818,-0.18821 0.45347,-0.28121 0.71876,-0.28121 l 1,-1e-5 0,1 c 4e-5,0.26531 -0.0931,0.53059 -0.28121,0.71877 L 555.43794,5e-5 556.71919,1.2813 c 0.18815,0.18817 0.28125,0.45345 0.28125,0.71875 l 0,1 z" />
    <path
       style="font-size:medium;font-style:normal;font-variant:normal;font-weight:normal;font-stretch:normal;text-indent:0;text-align:start;text-decoration:none;line-height:normal;letter-spacing:normal;word-spacing:normal;text-transform:none;direction:ltr;block-progression:tb;writing-mode:lr-tb;text-anchor:start;baseline-shift:baseline;color:#000000;fill:#bebebe;fill-opacity:1;stroke:none;stroke-width:2;marker:none;visibility:visible;display:inline;overflow:visible;enable-background:accumulate;font-family:Sans;-inkscape-font-specification:Sans"
       id="path4486"
       d="m 555,-1 0,2 12.9375,0 0,-2 L 555,-1 z" />
  </g>
</svg>
