<?xml version="1.0" encoding="UTF-8" standalone="no"?>
<svg
   xmlns:dc="http://purl.org/dc/elements/1.1/"
   xmlns:cc="http://creativecommons.org/ns#"
   xmlns:rdf="http://www.w3.org/1999/02/22-rdf-syntax-ns#"
   xmlns:svg="http://www.w3.org/2000/svg"
   xmlns="http://www.w3.org/2000/svg"
   width="16.000004"
   version="1.1"
   id="svg7384"
   height="16">
  <metadata
     id="metadata90">
    <rdf:RDF>
      <cc:Work
         rdf:about="">
        <dc:format>image/svg+xml</dc:format>
        <dc:type
           rdf:resource="http://purl.org/dc/dcmitype/StillImage" />
        <dc:title>elementary Symbolic Icon Theme</dc:title>
      </cc:Work>
    </rdf:RDF>
  </metadata>
  <title
     id="title9167">elementary Symbolic Icon Theme</title>
  <defs
     id="defs7386" />
  <g
     transform="translate(-415.0004,-148)"
     style="display:inline"
     label="status"
     id="layer9" />
  <g
     transform="translate(-415.0004,-148)"
     style="display:inline"
     id="layer10" />
  <g
     transform="translate(-415.0004,-148)"
     style="display:inline"
     id="layer13" />
  <g
     transform="translate(-415.0004,-148)"
     id="layer14" />
  <g
     transform="translate(-415.0004,-148)"
     style="display:inline"
     id="layer15" />
  <g
     transform="translate(-415.0004,-148)"
     style="display:inline"
     id="g71291" />
  <g
     transform="translate(-415.0004,-148)"
     style="display:inline"
     id="layer12">
    <path
       style="color:#bebebe;fill:#bebebe;stroke:none"
       id="rect31984-0"
       d="m 418.0004,148 0,2 2,0 0,-2 -2,0 z m -3,3 0,2 11,0 0,11 2,0 0,-11 0,-2 -2,0 -11,0 z m 3,3 0,5 0,2 2,0 5,0 0,-2 -5,0 0,-5 -2,0 z m 11,5 0,2 2,0 0,-2 -2,0 z" />
  </g>
</svg>
