<?xml version="1.0" encoding="UTF-8" standalone="no"?>
<svg
   xmlns:dc="http://purl.org/dc/elements/1.1/"
   xmlns:cc="http://creativecommons.org/ns#"
   xmlns:rdf="http://www.w3.org/1999/02/22-rdf-syntax-ns#"
   xmlns:svg="http://www.w3.org/2000/svg"
   xmlns="http://www.w3.org/2000/svg"
   width="16"
   version="1.1"
   id="svg7384"
   height="16">
  <metadata
     id="metadata90">
    <rdf:RDF>
      <cc:Work
         rdf:about="">
        <dc:format>image/svg+xml</dc:format>
        <dc:type
           rdf:resource="http://purl.org/dc/dcmitype/StillImage" />
        <dc:title>elementary Symbolic Icon Theme</dc:title>
      </cc:Work>
    </rdf:RDF>
  </metadata>
  <title
     id="title9167">elementary Symbolic Icon Theme</title>
  <defs
     id="defs7386" />
  <g
     transform="translate(-435.0004,-148)"
     style="display:inline"
     label="status"
     id="layer9" />
  <g
     transform="translate(-435.0004,-148)"
     style="display:inline"
     id="layer10" />
  <g
     transform="translate(-435.0004,-148)"
     style="display:inline"
     id="layer13" />
  <g
     transform="translate(-435.0004,-148)"
     id="layer14" />
  <g
     transform="translate(-435.0004,-148)"
     style="display:inline"
     id="layer15" />
  <g
     transform="translate(-435.0004,-148)"
     style="display:inline"
     id="g71291" />
  <g
     transform="translate(-435.0004,-148)"
     style="display:inline"
     id="layer12">
    <path
       style="color:#bebebe;fill:#ef2929;fill-opacity:1;fill-rule:nonzero;stroke:none;stroke-width:1;marker:none;visibility:visible;display:inline;overflow:visible;enable-background:new"
       id="path3012"
       d="m 443.0004,152 c -2.20914,0 -4,1.79086 -4,4 0,0.35656 0.0687,0.70226 0.15625,1.03125 l 4.875,-4.875 C 443.70266,152.06872 443.35696,152 443.0004,152 z m 3.84375,2.96875 -4.875,4.875 c 0.32899,0.0875 0.67469,0.15625 1.03125,0.15625 2.20914,0 4,-1.79086 4,-4 0,-0.35656 -0.0687,-0.70226 -0.15625,-1.03125 z"
       class="error" />
    <path
       style="color:#000000;fill:#bebebe;fill-opacity:1;fill-rule:nonzero;stroke:none;stroke-width:1;marker:none;visibility:visible;display:inline;overflow:visible;enable-background:accumulate"
       id="path2986"
       d="m 448.65665,148.9375 -12.71875,12.71875 1.40625,1.40625 12.71875,-12.71875 -1.40625,-1.40625 z M 443.0004,150 c -3.31371,0 -6,2.68629 -6,6 0,0.92699 0.21838,1.81003 0.59375,2.59375 l 1.5625,-1.5625 c -0.0875,-0.32899 -0.15625,-0.67469 -0.15625,-1.03125 0,-2.20914 1.79086,-4 4,-4 0.35656,0 0.70226,0.0687 1.03125,0.15625 l 1.5625,-1.5625 C 444.81043,150.21838 443.92739,150 443.0004,150 z m 5.40625,3.40625 -1.5625,1.5625 c 0.0875,0.32899 0.15625,0.67469 0.15625,1.03125 0,2.20914 -1.79086,4 -4,4 -0.35656,0 -0.70226,-0.0687 -1.03125,-0.15625 l -1.5625,1.5625 c 0.78372,0.37537 1.66676,0.59375 2.59375,0.59375 3.31371,0 6,-2.68629 6,-6 0,-0.92699 -0.21838,-1.81003 -0.59375,-2.59375 z" />
  </g>
</svg>
