<?xml version="1.0" encoding="UTF-8" standalone="no"?>
<svg
   xmlns:dc="http://purl.org/dc/elements/1.1/"
   xmlns:cc="http://creativecommons.org/ns#"
   xmlns:rdf="http://www.w3.org/1999/02/22-rdf-syntax-ns#"
   xmlns:svg="http://www.w3.org/2000/svg"
   xmlns="http://www.w3.org/2000/svg"
   width="16"
   version="1.1"
   id="svg7384"
   height="16">
  <metadata
     id="metadata90">
    <rdf:RDF>
      <cc:Work
         rdf:about="">
        <dc:format>image/svg+xml</dc:format>
        <dc:type
           rdf:resource="http://purl.org/dc/dcmitype/StillImage" />
        <dc:title>elementary Symbolic Icon Theme</dc:title>
      </cc:Work>
    </rdf:RDF>
  </metadata>
  <title
     id="title9167">elementary Symbolic Icon Theme</title>
  <defs
     id="defs7386" />
  <g
     transform="translate(-273.0004,-148)"
     style="display:inline"
     label="status"
     id="layer9" />
  <g
     transform="translate(-273.0004,-148)"
     style="display:inline"
     id="layer10" />
  <g
     transform="translate(-273.0004,-148)"
     style="display:inline"
     id="layer13" />
  <g
     transform="translate(-273.0004,-148)"
     id="layer14" />
  <g
     transform="translate(-273.0004,-148)"
     style="display:inline"
     id="layer15" />
  <g
     transform="translate(-273.0004,-148)"
     style="display:inline"
     id="g71291" />
  <g
     transform="translate(-273.0004,-148)"
     style="display:inline"
     id="layer12">
    <path
       style="color:#000000;fill:#bebebe;fill-opacity:1;fill-rule:nonzero;stroke:none;stroke-width:1;marker:none;visibility:visible;display:inline;overflow:visible;enable-background:accumulate"
       id="path16851-6"
       d="m 275.5002,148 c -0.277,-1e-4 -0.5,0.223 -0.5,0.5 l 0,9 c 0,0.277 0.223,0.4999 0.5,0.5 l 11.002,0.004 c 0.277,1e-4 0.5,-0.223 0.5,-0.5 l 0,-9 c 0,-0.277 -0.223,-0.4999 -0.5,-0.5 z m 1.5,2 8.002,0.004 0,5 -8.002,-0.004 z" />
    <path
       style="fill:#bebebe;fill-opacity:1;stroke:none"
       id="path30256"
       d="m 278.0002,160 3,4 3,-4 z" />
  </g>
</svg>
