<?xml version="1.0" encoding="UTF-8" standalone="no"?>
<svg
   xmlns:dc="http://purl.org/dc/elements/1.1/"
   xmlns:cc="http://creativecommons.org/ns#"
   xmlns:rdf="http://www.w3.org/1999/02/22-rdf-syntax-ns#"
   xmlns:svg="http://www.w3.org/2000/svg"
   xmlns="http://www.w3.org/2000/svg"
   width="16.000132"
   version="1.1"
   id="svg7384"
   height="16.01819">
  <metadata
     id="metadata90">
    <rdf:RDF>
      <cc:Work
         rdf:about="">
        <dc:format>image/svg+xml</dc:format>
        <dc:type
           rdf:resource="http://purl.org/dc/dcmitype/StillImage" />
        <dc:title>elementary Symbolic Icon Theme</dc:title>
      </cc:Work>
    </rdf:RDF>
  </metadata>
  <title
     id="title9167">elementary Symbolic Icon Theme</title>
  <defs
     id="defs7386" />
  <g
     transform="translate(-313.00034,-148)"
     style="display:inline"
     label="status"
     id="layer9" />
  <g
     transform="translate(-313.00034,-148)"
     style="display:inline"
     id="layer10" />
  <g
     transform="translate(-313.00034,-148)"
     style="display:inline"
     id="layer13" />
  <g
     transform="translate(-313.00034,-148)"
     id="layer14" />
  <g
     transform="translate(-313.00034,-148)"
     style="display:inline"
     id="layer15" />
  <g
     transform="translate(-313.00034,-148)"
     style="display:inline"
     id="g71291" />
  <g
     transform="translate(-313.00034,-148)"
     style="display:inline"
     id="layer12">
    <path
       style="font-size:medium;font-style:normal;font-variant:normal;font-weight:normal;font-stretch:normal;text-indent:0;text-align:start;text-decoration:none;line-height:normal;letter-spacing:normal;word-spacing:normal;text-transform:none;direction:ltr;block-progression:tb;writing-mode:lr-tb;text-anchor:start;baseline-shift:baseline;color:#000000;fill:#bebebe;fill-opacity:1;stroke:none;stroke-width:2;marker:none;visibility:visible;display:inline;overflow:visible;enable-background:accumulate;font-family:Sans;-inkscape-font-specification:Sans"
       id="path7493"
       d="m 317,148 0,2 6,0 c 0.42816,0 1,0.61414 1,1 l 0,1 -5,0 c -0.91927,0 -1.7356,0.38396 -2.25,0.96875 -0.5144,0.58479 -0.75639,1.31063 -0.75,2.03125 0.006,0.72062 0.26893,1.45271 0.78125,2.03125 C 317.29357,157.60979 318.09172,158 319,158 l 6,0 1,0 0,-1 0,-6 c 0,-1.63434 -1.3198,-3 -3,-3 l -6,0 z m 2,6 5,0 0,2 -5,0 c -0.39787,0 -0.56691,-0.10979 -0.71875,-0.28125 C 318.12941,155.54729 318.00248,155.27938 318,155 c -0.002,-0.27938 0.10467,-0.55354 0.25,-0.71875 C 318.39533,154.11604 318.57764,154 319,154 z" />
    <path
       style="fill:#bebebe;fill-opacity:1;stroke:none;display:inline"
       id="path30282"
       d="m 318.0004,160.01819 3,4 3,-4 z" />
  </g>
</svg>
