<?xml version="1.0" encoding="UTF-8" standalone="no"?>
<svg
   xmlns:dc="http://purl.org/dc/elements/1.1/"
   xmlns:cc="http://creativecommons.org/ns#"
   xmlns:rdf="http://www.w3.org/1999/02/22-rdf-syntax-ns#"
   xmlns:svg="http://www.w3.org/2000/svg"
   xmlns="http://www.w3.org/2000/svg"
   width="16"
   version="1.1"
   id="svg7384"
   height="16">
  <metadata
     id="metadata90">
    <rdf:RDF>
      <cc:Work
         rdf:about="">
        <dc:format>image/svg+xml</dc:format>
        <dc:type
           rdf:resource="http://purl.org/dc/dcmitype/StillImage" />
        <dc:title>elementary Symbolic Icon Theme</dc:title>
      </cc:Work>
    </rdf:RDF>
  </metadata>
  <title
     id="title9167">elementary Symbolic Icon Theme</title>
  <defs
     id="defs7386" />
  <g
     transform="translate(-573.0004,12)"
     style="display:inline"
     label="status"
     id="layer9" />
  <g
     transform="translate(-573.0004,12)"
     style="display:inline"
     id="layer10" />
  <g
     transform="translate(-573.0004,12)"
     style="display:inline"
     id="layer13" />
  <g
     transform="translate(-573.0004,12)"
     id="layer14" />
  <g
     transform="translate(-573.0004,12)"
     style="display:inline"
     id="layer15" />
  <g
     transform="translate(-573.0004,12)"
     style="display:inline"
     id="g71291" />
  <g
     transform="translate(-573.0004,12)"
     style="display:inline"
     id="layer12">
    <path
       style="font-size:medium;font-style:normal;font-variant:normal;font-weight:normal;font-stretch:normal;text-indent:0;text-align:start;text-decoration:none;line-height:normal;letter-spacing:normal;word-spacing:normal;text-transform:none;direction:ltr;block-progression:tb;writing-mode:lr-tb;text-anchor:start;color:#000000;fill:#bebebe;fill-opacity:1;stroke:none;stroke-width:1.99999976;marker:none;visibility:visible;display:inline;overflow:visible;enable-background:accumulate;font-family:Bitstream Vera Sans;-inkscape-font-specification:Bitstream Vera Sans"
       id="path35600-1"
       d="m 574.78113,-10.280821 a 1.0000999,1.0000318 0 0 0 -0.40625,1.7811331 l 5,3.9997225 0.625,0.4999691 0.625,-0.4999691 5,-3.9997225 a 1.0004905,1.0004223 0 1 0 -1.25,-1.5623991 l -4.375,3.499763 -4.375,-3.499763 a 1.0000999,1.0000318 0 0 0 -0.84375,-0.218734 z" />
    <path
       style="font-size:medium;font-style:normal;font-variant:normal;font-weight:normal;font-stretch:normal;text-indent:0;text-align:start;text-decoration:none;line-height:normal;letter-spacing:normal;word-spacing:normal;text-transform:none;direction:ltr;block-progression:tb;writing-mode:lr-tb;text-anchor:start;color:#000000;fill:#bebebe;fill-opacity:1;stroke:none;stroke-width:2;marker:none;visibility:visible;display:inline;overflow:visible;enable-background:accumulate;font-family:Bitstream Vera Sans;-inkscape-font-specification:Bitstream Vera Sans"
       id="rect35604-4"
       d="m 573.81304,-10.999246 c -0.4584,0.08753 -0.82073,0.533367 -0.8125,0.9999285 l 0,8.99939315 c 5e-5,0.52354248 0.47641,0.999878604367 1,0.999928170049 l 5.99986,0 0,-1.999866220049 -4.99986,0 0,-6.999517 10,0 -1.4e-4,3.9997226 2,0 1.4e-4,-4.9996607 c -5e-5,-0.5235425 -0.47642,-0.9998785 -1,-0.9999285 l -12,0 c -0.0312,-9.91e-4 -0.0625,-9.91e-4 -0.0937,0 -0.0312,-9.91e-4 -0.0625,-9.91e-4 -0.0937,0 z" />
    <path
       style="color:#bebebe;fill:#f57900;fill-opacity:1;fill-rule:nonzero;stroke:none;stroke-width:2;marker:none;visibility:visible;display:inline;overflow:visible"
       id="path10898-2-9"
       d="m 581.8754,-3.9308125 c -0.49245,0 -0.875,0.3792369 -0.875,0.8673994 l 0,6.1957103 c 0,0.4881625 0.38255,0.8673995 0.875,0.8673995 l 6.25,0 c 0.49245,0 0.875,-0.379237 0.875,-0.8673995 l 0,-6.1957103 c 0,-0.4881625 -0.38255,-0.8673994 -0.875,-0.8673994 l -6.25,0 z m 2.125,0.9913136 2,0 0,3.9652546 -2,0 0,-3.9652546 z m 0,4.9565683 2,0 0,0.9913136 -2,0 0,-0.9913136 z"
       class="warning" />
  </g>
</svg>
