<?xml version="1.0" encoding="UTF-8" standalone="no"?>
<svg
   xmlns:dc="http://purl.org/dc/elements/1.1/"
   xmlns:cc="http://creativecommons.org/ns#"
   xmlns:rdf="http://www.w3.org/1999/02/22-rdf-syntax-ns#"
   xmlns:svg="http://www.w3.org/2000/svg"
   xmlns="http://www.w3.org/2000/svg"
   width="16.000002"
   version="1.1"
   id="svg7384"
   height="16">
  <metadata
     id="metadata90">
    <rdf:RDF>
      <cc:Work
         rdf:about="">
        <dc:format>image/svg+xml</dc:format>
        <dc:type
           rdf:resource="http://purl.org/dc/dcmitype/StillImage" />
        <dc:title>elementary Symbolic Icon Theme</dc:title>
      </cc:Work>
    </rdf:RDF>
  </metadata>
  <title
     id="title9167">elementary Symbolic Icon Theme</title>
  <defs
     id="defs7386" />
  <g
     transform="translate(-573.0004,52)"
     style="display:inline"
     label="status"
     id="layer9" />
  <g
     transform="translate(-573.0004,52)"
     style="display:inline"
     id="layer10" />
  <g
     transform="translate(-573.0004,52)"
     style="display:inline"
     id="layer13" />
  <g
     transform="translate(-573.0004,52)"
     id="layer14" />
  <g
     transform="translate(-573.0004,52)"
     style="display:inline"
     id="layer15" />
  <g
     transform="translate(-573.0004,52)"
     style="display:inline"
     id="g71291" />
  <g
     transform="translate(-573.0004,52)"
     style="display:inline"
     id="layer12">
    <path
       style="fill:#bebebe;fill-opacity:1;stroke:none"
       id="path8268-0"
       d="m 575.5004,-49 c -1.385,0 -2.5,1.11499 -2.5,2.5 l 0,5 c 0,1.385 1.115,2.5 2.5,2.5 l 7.0625,0 c 1.38501,0 2.48022,-1.11514 2.5,-2.5 l 0,-2.375 3.9375,-3.125 -4,0 c -0.23235,-1.14125 -1.22562,-2 -2.4375,-2 z m -0.5,5 8,0 0,1 -8,0 z m 0,2 5,0 0,1 -5,0 z" />
  </g>
</svg>
