<?xml version="1.0" encoding="UTF-8" standalone="no"?>
<svg
   xmlns:dc="http://purl.org/dc/elements/1.1/"
   xmlns:cc="http://creativecommons.org/ns#"
   xmlns:rdf="http://www.w3.org/1999/02/22-rdf-syntax-ns#"
   xmlns:svg="http://www.w3.org/2000/svg"
   xmlns="http://www.w3.org/2000/svg"
   width="16"
   version="1.1"
   id="svg7384"
   height="16">
  <metadata
     id="metadata90">
    <rdf:RDF>
      <cc:Work
         rdf:about="">
        <dc:format>image/svg+xml</dc:format>
        <dc:type
           rdf:resource="http://purl.org/dc/dcmitype/StillImage" />
        <dc:title>elementary Symbolic Icon Theme</dc:title>
      </cc:Work>
    </rdf:RDF>
  </metadata>
  <title
     id="title9167">elementary Symbolic Icon Theme</title>
  <defs
     id="defs7386" />
  <g
     transform="translate(-393.00061,-88)"
     style="display:inline"
     label="status"
     id="layer9" />
  <g
     transform="translate(-393.00061,-88)"
     style="display:inline"
     id="layer10" />
  <g
     transform="translate(-393.00061,-88)"
     style="display:inline"
     id="layer13" />
  <g
     transform="translate(-393.00061,-88)"
     id="layer14" />
  <g
     transform="translate(-393.00061,-88)"
     style="display:inline"
     id="layer15" />
  <g
     transform="translate(-393.00061,-88)"
     style="display:inline"
     id="g71291" />
  <g
     transform="translate(-393.00061,-88)"
     style="display:inline"
     id="layer12">
    <path
       style="color:#000000;fill:#bebebe;fill-opacity:1;fill-rule:nonzero;stroke:none;stroke-width:1;marker:none;visibility:visible;display:inline;overflow:visible;enable-background:accumulate"
       id="rect5375"
       d="m 398.50061,90 c -1.4533,0.5019 -1.25317,1.37659 -2.5,2 l -1,0 c -1.108,0 -2,0.892 -2,2 l 0,6 c 0,1.108 0.892,2 2,2 l 12,0 c 1.108,0 2,-0.892 2,-2 l 0,-6 c 0,-1.108 -0.892,-2 -2,-2 l -1,0 c -1.24683,-0.62341 -1.0467,-1.4981 -2.5,-2 l -5,0 z m 2.5,3.5 c 1.65685,0 3,1.34315 3,3 0,1.65685 -1.34315,3 -3,3 -1.65685,0 -3,-1.34315 -3,-3 0,-1.65685 1.34315,-3 3,-3 z" />
  </g>
</svg>
