<?xml version="1.0" encoding="UTF-8" standalone="no"?>
<svg
   xmlns:dc="http://purl.org/dc/elements/1.1/"
   xmlns:cc="http://creativecommons.org/ns#"
   xmlns:rdf="http://www.w3.org/1999/02/22-rdf-syntax-ns#"
   xmlns:svg="http://www.w3.org/2000/svg"
   xmlns="http://www.w3.org/2000/svg"
   width="16"
   version="1.1"
   id="svg7384"
   height="16">
  <metadata
     id="metadata90">
    <rdf:RDF>
      <cc:Work
         rdf:about="">
        <dc:format>image/svg+xml</dc:format>
        <dc:type
           rdf:resource="http://purl.org/dc/dcmitype/StillImage" />
        <dc:title>elementary Symbolic Icon Theme</dc:title>
      </cc:Work>
    </rdf:RDF>
  </metadata>
  <title
     id="title9167">elementary Symbolic Icon Theme</title>
  <defs
     id="defs7386" />
  <g
     transform="translate(-433.00021,-108)"
     style="display:inline"
     label="status"
     id="layer9" />
  <g
     transform="translate(-433.00021,-108)"
     style="display:inline"
     id="layer10" />
  <g
     transform="translate(-433.00021,-108)"
     style="display:inline"
     id="layer13" />
  <g
     transform="translate(-433.00021,-108)"
     id="layer14" />
  <g
     transform="translate(-433.00021,-108)"
     style="display:inline"
     id="layer15" />
  <g
     transform="translate(-433.00021,-108)"
     style="display:inline"
     id="g71291" />
  <g
     transform="translate(-433.00021,-108)"
     style="display:inline"
     id="layer12">
    <path
       style="font-size:medium;font-style:normal;font-variant:normal;font-weight:normal;font-stretch:normal;text-indent:0;text-align:start;text-decoration:none;line-height:normal;letter-spacing:normal;word-spacing:normal;text-transform:none;direction:ltr;block-progression:tb;writing-mode:lr-tb;text-anchor:start;baseline-shift:baseline;color:#bebebe;fill:#bebebe;fill-opacity:1;stroke:none;stroke-width:1.99999988;marker:none;visibility:visible;display:inline;overflow:visible;enable-background:accumulate;font-family:Sans;-inkscape-font-specification:Sans"
       id="rect7352-7-94"
       d="m 434.0002,108 0,1 0,11 0,1 1,0 9,0 1,0 0,-1 0,-11 0,-1 -1,0 -9,0 z m 1,1 9,0 0,11 -9,0 z" />
    <path
       style="font-size:medium;font-style:normal;font-variant:normal;font-weight:normal;font-stretch:normal;text-indent:0;text-align:start;text-decoration:none;line-height:normal;letter-spacing:normal;word-spacing:normal;text-transform:none;direction:ltr;block-progression:tb;writing-mode:lr-tb;text-anchor:start;baseline-shift:baseline;color:#bebebe;fill:#bebebe;fill-opacity:1;stroke:none;stroke-width:2;marker:none;visibility:visible;display:inline;overflow:visible;enable-background:accumulate;font-family:Sans;-inkscape-font-specification:Sans"
       id="rect7352-7-9-6"
       d="m 446.0004,110.99988 -2e-4,1.00012 1,0 0,11 -9,0 0,-1 -0.9998,-1.2e-4 0,2 11,0 0,-13 z" />
    <path
       style="opacity:0.35;fill:#bebebe;fill-opacity:1;stroke:none;display:inline"
       id="rect30443-4"
       d="m 436.0002,110 0,1 7,0 0,-1 z m 0,2 0,1 7,0 0,-1 z m 0,2 0,1 7,0 0,-1 z m 0,2 0,1 4,0 0,-1 z" />
  </g>
</svg>
