<?xml version="1.0" encoding="UTF-8" standalone="no"?>
<svg
   xmlns:dc="http://purl.org/dc/elements/1.1/"
   xmlns:cc="http://creativecommons.org/ns#"
   xmlns:rdf="http://www.w3.org/1999/02/22-rdf-syntax-ns#"
   xmlns:svg="http://www.w3.org/2000/svg"
   xmlns="http://www.w3.org/2000/svg"
   xmlns:xlink="http://www.w3.org/1999/xlink"
   id="svg4330"
   height="64"
   width="64"
   version="1.1">
  <defs
     id="defs4332">
    <linearGradient
       gradientTransform="matrix(1.4324324,0,0,1.4362832,-2.378381,-2.4707781)"
       gradientUnits="userSpaceOnUse"
       xlink:href="#linearGradient3924-2-2-5-8"
       id="linearGradient3052"
       y2="43"
       x2="23.99999"
       y1="4.999989"
       x1="23.99999" />
    <linearGradient
       id="linearGradient3924-2-2-5-8">
      <stop
         offset="0"
         style="stop-color:#ffffff;stop-opacity:1"
         id="stop3926-9-4-9-6" />
      <stop
         offset="0.06316455"
         style="stop-color:#ffffff;stop-opacity:0.23529412"
         id="stop3928-9-8-6-5" />
      <stop
         offset="0.95056331"
         style="stop-color:#ffffff;stop-opacity:0.15686275"
         id="stop3930-3-5-1-7" />
      <stop
         offset="1"
         style="stop-color:#ffffff;stop-opacity:0.39215687"
         id="stop3932-8-0-4-8" />
    </linearGradient>
    <radialGradient
       gradientTransform="matrix(-3.8284309e-7,10.25894,-12.231812,-4.531743e-7,155.42109,-93.853147)"
       gradientUnits="userSpaceOnUse"
       xlink:href="#linearGradient3846"
       id="radialGradient3055"
       fy="10.008418"
       fx="6.0838208"
       r="12.671875"
       cy="10.008418"
       cx="6.6140509" />
    <radialGradient
       gradientTransform="matrix(2.003784,0,0,1.4,27.98813,-17.4)"
       gradientUnits="userSpaceOnUse"
       xlink:href="#linearGradient3688-166-749-4-0-3-8"
       id="radialGradient3337-2-2"
       fy="43.5"
       fx="4.9929786"
       r="2.5"
       cy="43.5"
       cx="4.9929786" />
    <linearGradient
       id="linearGradient3688-166-749-4-0-3-8">
      <stop
         offset="0"
         style="stop-color:#181818;stop-opacity:1"
         id="stop2883-4-0-1-8" />
      <stop
         offset="1"
         style="stop-color:#181818;stop-opacity:0"
         id="stop2885-9-2-9-6" />
    </linearGradient>
    <radialGradient
       gradientTransform="matrix(2.003784,0,0,1.4,-20.01187,-104.4)"
       gradientUnits="userSpaceOnUse"
       xlink:href="#linearGradient3688-464-309-9-2-4-2"
       id="radialGradient3339-1-4"
       fy="43.5"
       fx="4.9929786"
       r="2.5"
       cy="43.5"
       cx="4.9929786" />
    <linearGradient
       id="linearGradient3688-464-309-9-2-4-2">
      <stop
         offset="0"
         style="stop-color:#181818;stop-opacity:1"
         id="stop2889-7-9-6-9" />
      <stop
         offset="1"
         style="stop-color:#181818;stop-opacity:0"
         id="stop2891-6-6-1-7" />
    </linearGradient>
    <linearGradient
       id="linearGradient3702-501-757-8-4-1-1">
      <stop
         offset="0"
         style="stop-color:#181818;stop-opacity:0"
         id="stop2895-8-9-9-1" />
      <stop
         offset="0.5"
         style="stop-color:#181818;stop-opacity:1"
         id="stop2897-7-8-7-7" />
      <stop
         offset="1"
         style="stop-color:#181818;stop-opacity:0"
         id="stop2899-4-5-1-5" />
    </linearGradient>
    <linearGradient
       gradientUnits="userSpaceOnUse"
       xlink:href="#linearGradient3702-501-757-8-4-1-1"
       id="linearGradient4328"
       y2="39.999443"
       x2="25.058096"
       y1="47.027729"
       x1="25.058096" />
    <linearGradient
       id="linearGradient3846">
      <stop
         offset="0"
         style="stop-color:#fff3cb;stop-opacity:1"
         id="stop3848" />
      <stop
         offset="0.26238"
         style="stop-color:#fdde76;stop-opacity:1"
         id="stop3850" />
      <stop
         offset="0.66093999"
         style="stop-color:#f9c440;stop-opacity:1"
         id="stop3852" />
      <stop
         offset="1"
         style="stop-color:#e48b20;stop-opacity:1"
         id="stop3854" />
    </linearGradient>
  </defs>
  <metadata
     id="metadata4335">
    <rdf:RDF>
      <cc:Work
         rdf:about="">
        <dc:format>image/svg+xml</dc:format>
        <dc:type
           rdf:resource="http://purl.org/dc/dcmitype/StillImage" />
        <dc:title />
      </cc:Work>
    </rdf:RDF>
  </metadata>
  <g
     transform="matrix(1.5789502,0,0,0.7142857,-5.894751,27.928572)"
     id="g3712-8-2-4-4"
     style="opacity:0.6">
    <rect
       width="5"
       height="7"
       x="38"
       y="40"
       id="rect2801-5-5-7-9"
       style="fill:url(#radialGradient3337-2-2);fill-opacity:1;stroke:none" />
    <rect
       width="5"
       height="7"
       x="-10"
       y="-47"
       transform="scale(-1,-1)"
       id="rect3696-3-0-3-7"
       style="fill:url(#radialGradient3339-1-4);fill-opacity:1;stroke:none" />
    <rect
       width="28"
       height="7.0000005"
       x="10"
       y="40"
       id="rect3700-5-6-8-4"
       style="fill:url(#linearGradient4328);fill-opacity:1;stroke:none" />
  </g>
  <rect
     width="55"
     height="55"
     rx="3"
     ry="3"
     x="4.4999986"
     y="4.5000019"
     id="rect5505-21-3-8-5-2"
     style="color:#000000;display:inline;overflow:visible;visibility:visible;fill:url(#radialGradient3055);fill-opacity:1;fill-rule:nonzero;stroke:none;stroke-width:0.99999994;marker:none;enable-background:accumulate" />
  <rect
     width="53"
     height="53.142479"
     rx="2"
     ry="2"
     x="5.4999986"
     y="5.4287739"
     id="rect6741-5-0-2-3"
     style="opacity:0.5;fill:none;stroke:url(#linearGradient3052);stroke-width:1;stroke-linecap:round;stroke-linejoin:round;stroke-miterlimit:4;stroke-dasharray:none;stroke-dashoffset:0;stroke-opacity:1" />
  <rect
     width="55"
     height="55"
     rx="3"
     ry="3"
     x="4.4999986"
     y="4.5000019"
     id="rect5505-21-3-8-9-1-1"
     style="color:#000000;display:inline;overflow:visible;visibility:visible;opacity:0.5;fill:none;stroke:#915f00;stroke-width:1;stroke-linecap:round;stroke-linejoin:round;stroke-miterlimit:4;stroke-dasharray:none;stroke-dashoffset:0;stroke-opacity:1;marker:none;enable-background:accumulate" />
  <path
     style="opacity:0.2;fill:#ffffff;fill-opacity:1;stroke:none;stroke-width:4;stroke-linecap:round;stroke-linejoin:round;stroke-miterlimit:4;stroke-dasharray:none;stroke-dashoffset:0;stroke-opacity:1"
     d="m 26.023776,15 c -2.20914,0 -4,1.790861 -4,4 0,2.209139 1.79086,4 4,4 2.20914,0 4,-1.790861 4,-4 0,-2.209139 -1.79086,-4 -4,-4 z m -2,10 c -1.33333,0 -2.27527,0.81422 -2.64453,1.552734 -0.28542,0.570828 -0.32692,1.022422 -0.33789,1.244141 l -3.97461,11.916016 c -0.4572,1.315056 1.57188,1.923779 1.91406,0.574218 l 3.04297,-8.810547 0,8.523438 0,10.5 c 0,0.831 0.669,1.5 1.5,1.5 0.831,0 1.5,-0.669 1.5,-1.5 l 0,-10.5 2,0 0,10.5 c 0,0.831 0.669,1.5 1.5,1.5 0.831,0 1.5,-0.669 1.5,-1.5 l 0,-17 0,-3.037109 3.08594,6.943359 c 0.0864,0.194904 0.23286,0.35709 0.41797,0.462891 l 3.49804,1.998047 0,4.132812 0,7 c 0,0.554 0.446,1 1,1 0.554,0 1,-0.446 1,-1 l 0,-5 2.00782,0 0,5 c 0,0.554 0.446,1 1,1 0.554,0 1,-0.446 1,-1 l -0.01,0 0,-10.464844 3.44531,2.296875 c 1.11512,0.768929 2.24805,-0.930458 1.10937,-1.664062 l -4.5,-3 C 42.914196,38.058458 42.721196,38.000014 42.523776,38 l -4.73438,0 -2.98437,-1.705078 -3.80469,-8.560547 c -0.0188,-0.253845 -0.0724,-0.66244 -0.33203,-1.181641 C 30.299046,25.81422 29.357106,25 28.023776,25 Z m 16,5 c -1.65685,0 -3,1.343146 -3,3 0,1.656854 1.34315,3 3,3 1.65685,0 3,-1.343146 3,-3 0,-1.656854 -1.34315,-3 -3,-3 z"
     id="path8186" />
  <path
     id="path22702"
     d="m 26.023776,14 c -2.20914,0 -4,1.790861 -4,4 0,2.209139 1.79086,4 4,4 2.20914,0 4,-1.790861 4,-4 0,-2.209139 -1.79086,-4 -4,-4 z m -2,10 c -1.33333,0 -2.27527,0.81422 -2.64453,1.552734 -0.28542,0.570828 -0.32692,1.022422 -0.33789,1.244141 l -3.97461,11.916016 c -0.4572,1.315056 1.57188,1.923779 1.91406,0.574218 l 3.04297,-8.810547 0,8.523438 0,10.5 c 0,0.831 0.669,1.5 1.5,1.5 0.831,0 1.5,-0.669 1.5,-1.5 l 0,-10.5 2,0 0,10.5 c 0,0.831 0.669,1.5 1.5,1.5 0.831,0 1.5,-0.669 1.5,-1.5 l 0,-17 0,-3.037109 3.08594,6.943359 c 0.0864,0.194904 0.23286,0.35709 0.41797,0.462891 l 3.49804,1.998047 0,4.132812 0,7 c 0,0.554 0.446,1 1,1 0.554,0 1,-0.446 1,-1 l 0,-5 2.00782,0 0,5 c 0,0.554 0.446,1 1,1 0.554,0 1,-0.446 1,-1 l -0.01,0 0,-10.464844 3.44531,2.296875 c 1.11512,0.768929 2.24805,-0.930458 1.10937,-1.664062 l -4.5,-3 C 42.914196,37.058458 42.721196,37.000014 42.523776,37 l -4.73438,0 -2.98437,-1.705078 -3.80469,-8.560547 c -0.0188,-0.253845 -0.0724,-0.66244 -0.33203,-1.181641 C 30.299046,24.81422 29.357106,24 28.023776,24 Z m 16,5 c -1.65685,0 -3,1.343146 -3,3 0,1.656854 1.34315,3 3,3 1.65685,0 3,-1.343146 3,-3 0,-1.656854 -1.34315,-3 -3,-3 z"
     style="opacity:1;fill:#333333;fill-opacity:1;stroke:none;stroke-width:4;stroke-linecap:round;stroke-linejoin:round;stroke-miterlimit:4;stroke-dasharray:none;stroke-dashoffset:0;stroke-opacity:1" />
</svg>
