<?xml version="1.0" encoding="UTF-8" standalone="no"?>
<svg
   xmlns:dc="http://purl.org/dc/elements/1.1/"
   xmlns:cc="http://creativecommons.org/ns#"
   xmlns:rdf="http://www.w3.org/1999/02/22-rdf-syntax-ns#"
   xmlns:svg="http://www.w3.org/2000/svg"
   xmlns="http://www.w3.org/2000/svg"
   xmlns:xlink="http://www.w3.org/1999/xlink"
   id="svg4524"
   height="16"
   width="16"
   version="1.1">
  <defs
     id="defs4526">
    <linearGradient
       id="linearGradient2867-449-88-871-390-598-476-591-434-148-57-177-641-289-620-227-114-444-680-744-4-1-5">
      <stop
         offset="0"
         style="stop-color:#737373;stop-opacity:1"
         id="stop5430-5-0-9" />
      <stop
         offset="0.26238"
         style="stop-color:#636363;stop-opacity:1"
         id="stop5432-2-0-0" />
      <stop
         offset="0.704952"
         style="stop-color:#4b4b4b;stop-opacity:1"
         id="stop5434-9-6-8" />
      <stop
         offset="1"
         style="stop-color:#3f3f3f;stop-opacity:1"
         id="stop5436-2-7-0" />
    </linearGradient>
    <radialGradient
       r="8"
       fy="3"
       fx="12"
       cy="3"
       cx="12"
       gradientTransform="matrix(1.5646867e-7,3.7500001,-3.8749999,1.625e-7,20.624999,-46)"
       gradientUnits="userSpaceOnUse"
       id="radialGradient4419"
       xlink:href="#linearGradient2867-449-88-871-390-598-476-591-434-148-57-177-641-289-620-227-114-444-680-744-4-1-5" />
    <clipPath
       id="clipPath4477"
       clipPathUnits="userSpaceOnUse">
      <path
         style="fill:url(#radialGradient4481);fill-opacity:1;fill-rule:evenodd;stroke:none;stroke-width:1px;stroke-linecap:butt;stroke-linejoin:miter;stroke-opacity:1"
         d="M 7,1 C 6.446,1 6,1.446 6,2 L 6,6 2,6 C 1.446,6 1,6.446 1,7 l 0,2 c 0,0.554 0.446,1 1,1 l 4,0 0,4 c 0,0.554 0.446,1 1,1 l 2,0 c 0.554,0 1,-0.446 1,-1 l 0,-4 4,0 c 0.554,0 1,-0.446 1,-1 L 15,7 C 15,6.446 14.554,6 14,6 L 10,6 10,2 C 10,1.446 9.554,1 9,1 L 7,1 Z"
         id="path4479" />
    </clipPath>
    <radialGradient
       r="8"
       fy="3"
       fx="12"
       cy="3"
       cx="12"
       gradientTransform="matrix(1.5646867e-7,3.7500001,-3.8749999,1.625e-7,20.624999,-46)"
       gradientUnits="userSpaceOnUse"
       id="radialGradient4481"
       xlink:href="#linearGradient2867-449-88-871-390-598-476-591-434-148-57-177-641-289-620-227-114-444-680-744-4-1-5" />
  </defs>
  <metadata
     id="metadata4529">
    <rdf:RDF>
      <cc:Work
         rdf:about="">
        <dc:format>image/svg+xml</dc:format>
        <dc:type
           rdf:resource="http://purl.org/dc/dcmitype/StillImage" />
        <dc:title />
      </cc:Work>
    </rdf:RDF>
  </metadata>
  <path
     id="path4197"
     d="M 7 2 C 6.446 2 6 2.446 6 3 L 6 7 L 2 7 C 1.446 7 1 7.446 1 8 L 1 10 C 1 10.554 1.446 11 2 11 L 6 11 L 6 15 C 6 15.554 6.446 16 7 16 L 9 16 C 9.554 16 10 15.554 10 15 L 10 11 L 14 11 C 14.554 11 15 10.554 15 10 L 15 8 C 15 7.446 14.554 7 14 7 L 10 7 L 10 3 C 10 2.446 9.554 2 9 2 L 7 2 z "
     clip-path="none"
     style="opacity:0.35;fill:#ffffff;fill-opacity:1;fill-rule:evenodd;stroke:none;stroke-width:1px;stroke-linecap:butt;stroke-linejoin:miter;stroke-opacity:1" />
  <path
     id="path4417"
     d="M 7 1 C 6.446 1 6 1.446 6 2 L 6 6 L 2 6 C 1.446 6 1 6.446 1 7 L 1 9 C 1 9.554 1.446 10 2 10 L 6 10 L 6 14 C 6 14.554 6.446 15 7 15 L 9 15 C 9.554 15 10 14.554 10 14 L 10 10 L 14 10 C 14.554 10 15 9.554 15 9 L 15 7 C 15 6.446 14.554 6 14 6 L 10 6 L 10 2 C 10 1.446 9.554 1 9 1 L 7 1 z "
     style="fill:url(#radialGradient4419);fill-opacity:1;fill-rule:evenodd;stroke:none;stroke-width:1px;stroke-linecap:butt;stroke-linejoin:miter;stroke-opacity:1" />
  <path
     id="path4173"
     d="M 7 1 C 6.446 1 6 1.446 6 2 L 6 6 L 2 6 C 1.446 6 1 6.446 1 7 L 1 9 C 1 9.554 1.446 10 2 10 L 6 10 L 6 14 C 6 14.554 6.446 15 7 15 L 9 15 C 9.554 15 10 14.554 10 14 L 10 10 L 14 10 C 14.554 10 15 9.554 15 9 L 15 7 C 15 6.446 14.554 6 14 6 L 10 6 L 10 2 C 10 1.446 9.554 1 9 1 L 7 1 z "
     clip-path="url(#clipPath4477)"
     style="opacity:0.1;fill:none;fill-opacity:1;fill-rule:evenodd;stroke:#000000;stroke-width:2;stroke-linecap:butt;stroke-linejoin:miter;stroke-miterlimit:4;stroke-dasharray:none;stroke-opacity:1" />
</svg>
