<?xml version="1.0" encoding="UTF-8" standalone="no"?>
<svg
   xmlns:dc="http://purl.org/dc/elements/1.1/"
   xmlns:cc="http://creativecommons.org/ns#"
   xmlns:rdf="http://www.w3.org/1999/02/22-rdf-syntax-ns#"
   xmlns:svg="http://www.w3.org/2000/svg"
   xmlns="http://www.w3.org/2000/svg"
   xmlns:xlink="http://www.w3.org/1999/xlink"
   id="svg5157"
   height="128"
   width="128"
   version="1.1">
  <defs
     id="defs5159">
    <linearGradient
       id="linearGradient3820-7-2-8-6">
      <stop
         offset="0"
         style="stop-color:#3d3d3d;stop-opacity:1"
         id="stop3822-2-6-5-0" />
      <stop
         offset="0.5"
         style="stop-color:#686868;stop-opacity:0.49803922"
         id="stop3864-8-7-4-1" />
      <stop
         offset="1"
         style="stop-color:#686868;stop-opacity:0"
         id="stop3824-1-2-6-7" />
    </linearGradient>
    <linearGradient
       id="linearGradient2867-449-88-871-390-598-476-591-434-148-57-177-3-8">
      <stop
         offset="0"
         style="stop-color:#90dbec;stop-opacity:1"
         id="stop3750-8-9" />
      <stop
         offset="0.26238"
         style="stop-color:#42baea;stop-opacity:1"
         id="stop3752-3-2" />
      <stop
         offset="0.704952"
         style="stop-color:#3689e6;stop-opacity:1"
         id="stop3754-7-2" />
      <stop
         offset="1"
         style="stop-color:#2b63a0;stop-opacity:1"
         id="stop3756-9-3" />
    </linearGradient>
    <linearGradient
       id="linearGradient4806">
      <stop
         id="stop4808"
         style="stop-color:#ffffff;stop-opacity:1"
         offset="0" />
      <stop
         id="stop4810"
         style="stop-color:#ffffff;stop-opacity:0.23529412"
         offset="0.42447853" />
      <stop
         id="stop4812"
         style="stop-color:#ffffff;stop-opacity:0.15686275"
         offset="0.82089913" />
      <stop
         id="stop4814"
         style="stop-color:#ffffff;stop-opacity:0.39215687"
         offset="1" />
    </linearGradient>
    <linearGradient
       y2="40.495617"
       x2="71.204407"
       y1="15.369057"
       x1="71.204407"
       gradientTransform="matrix(4.16388,0,0,4.16388,-236.03265,-50.036246)"
       gradientUnits="userSpaceOnUse"
       id="linearGradient3118"
       xlink:href="#linearGradient4806" />
    <radialGradient
       r="62.769119"
       fy="186.17059"
       fx="99.157013"
       cy="186.17059"
       cx="99.157013"
       gradientTransform="matrix(0.6869404,0,0,0.21461693,-4.02174,68.573331)"
       gradientUnits="userSpaceOnUse"
       id="radialGradient3163"
       xlink:href="#linearGradient3820-7-2-8-6" />
    <radialGradient
       gradientTransform="matrix(0,12.682933,-13.417029,-3.4520992e-7,177.87107,-40.511778)"
       gradientUnits="userSpaceOnUse"
       xlink:href="#linearGradient2867-449-88-871-390-598-476-591-434-148-57-177-3-8"
       id="radialGradient3328"
       fy="8.4497671"
       fx="1.1978998"
       r="19.99999"
       cy="8.4497671"
       cx="1.1978998" />
  </defs>
  <metadata
     id="metadata5162">
    <rdf:RDF>
      <cc:Work
         rdf:about="">
        <dc:format>image/svg+xml</dc:format>
        <dc:type
           rdf:resource="http://purl.org/dc/dcmitype/StillImage" />
        <dc:title />
      </cc:Work>
    </rdf:RDF>
  </metadata>
  <path
     d="m 107.21186,108.52868 a 43.118644,13.471312 0 1 1 -86.237286,0 43.118644,13.471312 0 1 1 86.237286,0 z"
     id="path3818-0-5-0"
     style="fill:url(#radialGradient3163);fill-opacity:1;stroke:none" />
  <path
     d="m 64.500004,13.998173 c -28.691806,0 -52.000006,23.308191 -52.000006,52.000001 0,28.691809 23.3082,52.000016 52.000006,52.000016 28.691796,0 52.000026,-23.308207 51.999996,-52.000016 0,-28.69181 -23.3082,-52.000001 -51.999996,-52.000001 z"
     id="path2555-9"
     style="color:#000000;display:inline;overflow:visible;visibility:visible;fill:url(#radialGradient3328);fill-opacity:1;fill-rule:nonzero;stroke:none;stroke-width:1;marker:none;enable-background:accumulate" />
  <path
     d="m 64.5,13.998179 c -28.691806,0 -52.000001,23.308189 -52.000001,51.999997 0,28.691808 23.308195,52.000014 52.000001,52.000004 28.691802,0 52.00002,-23.308196 52,-52.000004 0,-28.691808 -23.308198,-51.999997 -52,-51.999997 z"
     id="path2555-7-1"
     style="opacity:0.5;color:#000000;fill:#000000;fill-opacity:0;fill-rule:nonzero;stroke:#00537d;stroke-width:1;stroke-linecap:round;stroke-linejoin:round;stroke-miterlimit:4;stroke-opacity:1;stroke-dasharray:none;stroke-dashoffset:0;marker:none;visibility:visible;display:inline;overflow:visible;enable-background:accumulate;clip-rule:nonzero;isolation:auto;mix-blend-mode:normal;color-interpolation:sRGB;color-interpolation-filters:linearRGB;solid-color:#000000;solid-opacity:1;filter-blend-mode:normal;filter-gaussianBlur-deviation:0;color-rendering:auto;image-rendering:auto;shape-rendering:auto;text-rendering:auto" />
  <path
     d="m 115.5,65.998181 c 0,28.166516 -22.833502,50.999989 -51.000026,50.999989 -28.166487,0 -50.999973,-22.833473 -50.999973,-50.999989 0,-28.166517 22.833486,-50.999991 50.999973,-50.999991 28.166524,0 51.000026,22.833474 51.000026,50.999991 z"
     id="path3019"
     style="opacity:0.5;color:#000000;fill:none;stroke:url(#linearGradient3118);stroke-width:1;stroke-linecap:round;stroke-linejoin:round;stroke-miterlimit:4;stroke-opacity:1;stroke-dasharray:none;stroke-dashoffset:0;marker:none;visibility:visible;display:inline;overflow:visible;enable-background:accumulate" />
  <path
     d="m 64.5,27.994141 c -21.530702,0 -39.005859,17.475165 -39.005859,39.005859 0,21.530742 17.475159,39.00586 39.005859,39.00586 21.530692,0 39.00586,-17.475118 39.00586,-39.00586 0,-21.530694 -17.475166,-39.005859 -39.00586,-39.005859 z m 0,5.177734 c 15.369973,0 28.304271,10.254373 32.429688,24.275391 -3.48279,7.058554 -8.372468,13.42749 -14.322266,18.580078 -2.907258,2.517684 -6.05894,4.740449 -9.507813,6.294922 -3.444923,1.552693 -7.214351,2.423742 -10.925781,2.210937 -2.159344,-0.123823 -4.252398,-0.726479 -6.238281,-1.570312 6.211353,-3.620144 11.858669,-8.212624 16.53125,-13.685547 3.358165,-3.933376 6.353599,-8.457019 7.519531,-13.658203 0.583653,-2.603648 0.686247,-5.344127 0.132813,-7.994141 -0.554411,-2.654667 -1.780542,-5.193623 -3.664063,-7.197266 -1.83988,-1.95721 -4.232969,-3.328346 -6.794922,-4.035156 -2.558559,-0.705868 -5.257716,-0.754375 -7.835937,-0.283203 -5.153767,0.941855 -9.679264,3.907639 -13.283203,7.539063 -6.355808,6.404276 -10.297359,15.431379 -9.570313,24.503906 0.363398,4.534711 1.881633,8.992253 4.498047,12.740234 0.286821,0.410846 0.623389,0.779715 0.935547,1.169922 -2.940948,0.945251 -5.948641,1.670198 -9.003906,2.117188 C 32.417362,79.139608 30.671875,73.28509 30.671875,67 30.671875,48.305982 45.805982,33.171875 64.5,33.171875 Z m 0.21875,7.039063 c 2.246418,0.003 4.505626,0.689443 6.263672,2.017578 1.584835,1.197289 2.784056,2.925698 3.46289,4.833984 0.680591,1.913208 0.861709,4.017777 0.625,6.074219 -0.474351,4.120988 -2.578172,7.992111 -5.1875,11.421875 -4.62668,6.081427 -10.79429,10.966343 -17.660156,14.386718 -0.476525,0.237391 -0.965786,0.457802 -1.453125,0.681641 -1.241374,-1.166762 -2.379465,-2.450181 -3.21289,-3.925781 C 45.600724,72.23813 44.935924,68.069821 45.322266,64.039062 45.709346,60.000667 47.103763,56.065934 49,52.394531 c 2.195215,-4.250263 5.156695,-8.193708 9.189453,-10.417969 2.012627,-1.110051 4.276453,-1.768676 6.529297,-1.765624 z M 98.222656,65.4375 c 0.02455,0.52365 0.105469,1.032872 0.105469,1.5625 0,18.694013 -15.134105,33.82813 -33.828125,33.82812 -9.90934,0 -18.715916,-4.351971 -24.902344,-11.134761 3.237108,-0.833588 6.415572,-1.886094 9.480469,-3.214843 1.555677,1.120447 3.21022,2.115549 5.007813,2.804687 5.733864,2.198236 12.172149,1.869012 17.892578,-0.111328 5.70961,-1.976581 10.723882,-5.503323 15.070312,-9.566406 4.414665,-4.126925 8.083232,-8.976133 11.173828,-14.167969 z"
     id="path3492"
     style="color:#000000;clip-rule:nonzero;display:inline;overflow:visible;visibility:visible;opacity:0.05;isolation:auto;mix-blend-mode:normal;color-interpolation:sRGB;color-interpolation-filters:linearRGB;solid-color:#000000;solid-opacity:1;fill:#000000;fill-opacity:1;fill-rule:nonzero;stroke:none;stroke-width:1;stroke-linecap:butt;stroke-linejoin:miter;stroke-miterlimit:4;stroke-dasharray:none;stroke-dashoffset:0;stroke-opacity:1;marker:none;color-rendering:auto;image-rendering:auto;shape-rendering:auto;text-rendering:auto;enable-background:accumulate;filter-blend-mode:normal;filter-gaussianBlur-deviation:0" />
  <path
     d="m 64.500001,28.99998 c -20.986823,0 -38.000002,17.013184 -38.000002,37.999999 C 26.499999,87.986844 43.513178,105 64.500001,105 85.486816,105 102.5,87.986844 102.5,66.999979 102.5,46.013164 85.486816,28.99998 64.500001,28.99998 Z m 0,3.166666 c 15.955873,0 29.406156,10.728476 33.531041,25.365 -3.552762,7.327959 -8.608091,13.925718 -14.764584,19.257306 -2.957507,2.5612 -6.186507,4.844448 -9.753334,6.452085 -3.566826,1.607637 -7.49007,2.519794 -11.396039,2.295835 -2.934635,-0.168281 -5.833577,-0.985786 -8.403545,-2.410624 6.810881,-3.690595 12.956215,-8.611255 17.986671,-14.503352 3.301887,-3.867458 6.190784,-8.262698 7.30312,-13.224792 0.556169,-2.481044 0.650419,-5.079412 0.130627,-7.568334 -0.519795,-2.488919 -1.670566,-4.860753 -3.41208,-6.713333 -1.701358,-1.809855 -3.934845,-3.091879 -6.329376,-3.752499 -2.394531,-0.660615 -4.942733,-0.711768 -7.386252,-0.265213 -4.887035,0.89311 -9.250268,3.733369 -12.74979,7.259579 -6.168415,6.215455 -9.981795,14.98558 -9.282294,23.714379 0.349749,4.364395 1.812321,8.653008 4.318543,12.243141 0.559424,0.801326 1.174437,1.564649 1.832707,2.287917 -3.651029,1.277749 -7.431371,2.187298 -11.265414,2.699582 -3.291791,-5.319049 -5.193337,-11.588417 -5.193337,-18.303351 0,-19.237919 15.595417,-34.833334 34.833336,-34.833334 z m 0.221667,7.037918 c 2.448643,0.0033 4.913927,0.744616 6.86771,2.220623 1.76026,1.329817 3.064564,3.221695 3.803953,5.300207 0.739395,2.078513 0.929149,4.335661 0.67688,6.527293 -0.504544,4.383277 -2.715782,8.403084 -5.387293,11.914583 -4.730245,6.217555 -11.017698,11.193946 -18.010417,14.677516 -0.715761,0.35657 -1.442865,0.695483 -2.173126,1.021252 -1.521561,-1.331504 -2.825706,-2.910799 -3.819791,-4.670852 -2.077175,-3.677736 -2.762166,-8.046514 -2.359168,-12.25104 0.403003,-4.204517 1.845889,-8.256782 3.784168,-12.009584 2.247347,-4.351198 5.310672,-8.472722 9.598958,-10.837919 2.144144,-1.182589 4.569478,-1.895396 7.018126,-1.892079 z m 34.298959,23.132497 c 0.204085,1.525383 0.312708,3.081684 0.312708,4.662918 0,19.237914 -15.595413,34.833351 -34.833334,34.833351 -10.804211,0 -20.460182,-4.91847 -26.849374,-12.638959 3.943592,-0.895692 7.797971,-2.182228 11.494996,-3.81979 1.616742,1.231279 3.402234,2.241126 5.300209,2.968747 5.465797,2.095465 11.671302,1.792256 17.202921,-0.122721 5.531614,-1.914961 10.436914,-5.352144 14.713122,-9.349583 5.094076,-4.762053 9.389051,-10.374913 12.658752,-16.533975 z"
     id="path2993-9"
     style="color:#000000;clip-rule:nonzero;display:inline;overflow:visible;visibility:visible;opacity:0.15;isolation:auto;mix-blend-mode:normal;color-interpolation:sRGB;color-interpolation-filters:linearRGB;solid-color:#000000;solid-opacity:1;fill:#000000;fill-opacity:1;fill-rule:nonzero;stroke:none;stroke-width:1;stroke-linecap:butt;stroke-linejoin:miter;stroke-miterlimit:4;stroke-dasharray:none;stroke-dashoffset:0;stroke-opacity:1;marker:none;color-rendering:auto;image-rendering:auto;shape-rendering:auto;text-rendering:auto;enable-background:accumulate" />
  <path
     d="m 64.500001,27.999982 c -20.986823,0 -38.000002,17.013184 -38.000002,37.999999 C 26.499999,86.986846 43.513178,104 64.500001,104 85.486816,104 102.5,86.986846 102.5,65.999981 102.5,45.013166 85.486816,27.999982 64.500001,27.999982 Z m 0,3.166666 c 15.955873,0 29.406156,10.728476 33.531041,25.365 -3.552762,7.327959 -8.608091,13.925718 -14.764584,19.257306 -2.957507,2.5612 -6.186507,4.844448 -9.753334,6.452085 -3.566826,1.607637 -7.49007,2.519794 -11.396039,2.295835 C 59.18245,84.368593 56.283508,83.551088 53.71354,82.12625 60.524421,78.435655 66.669755,73.514995 71.700211,67.622898 75.002098,63.75544 77.890995,59.3602 79.003331,54.398106 79.5595,51.917062 79.65375,49.318694 79.133958,46.829772 78.614163,44.340853 77.463392,41.969019 75.721878,40.116439 74.02052,38.306584 71.787033,37.02456 69.392502,36.36394 66.997971,35.703325 64.449769,35.652172 62.00625,36.098727 c -4.887035,0.89311 -9.250268,3.733369 -12.74979,7.259579 -6.168415,6.215455 -9.981795,14.98558 -9.282294,23.714379 0.349749,4.364395 1.812321,8.653008 4.318543,12.243141 0.559424,0.801326 1.174437,1.564649 1.832707,2.287917 -3.651029,1.277749 -7.431371,2.187298 -11.265414,2.699582 -3.291791,-5.319049 -5.193337,-11.588417 -5.193337,-18.303351 0,-19.237919 15.595417,-34.833334 34.833336,-34.833334 z m 0.221667,7.037918 c 2.448643,0.0033 4.913927,0.744616 6.86771,2.220623 1.76026,1.329817 3.064564,3.221695 3.803953,5.300207 0.739395,2.078513 0.929149,4.335661 0.67688,6.527293 -0.504544,4.383277 -2.715782,8.403084 -5.387293,11.914583 -4.730245,6.217555 -11.017698,11.193946 -18.010417,14.677516 -0.715761,0.35657 -1.442865,0.695483 -2.173126,1.021252 -1.521561,-1.331504 -2.825706,-2.910799 -3.819791,-4.670852 -2.077175,-3.677736 -2.762166,-8.046514 -2.359168,-12.25104 0.403003,-4.204517 1.845889,-8.256782 3.784168,-12.009584 2.247347,-4.351198 5.310672,-8.472722 9.598958,-10.837919 2.144144,-1.182589 4.569478,-1.895396 7.018126,-1.892079 z m 34.298959,23.132497 c 0.204085,1.525383 0.312708,3.081684 0.312708,4.662918 0,19.237914 -15.595413,34.833349 -34.833334,34.833349 -10.804211,0 -20.460182,-4.918468 -26.849374,-12.638957 3.943592,-0.895692 7.797971,-2.182228 11.494996,-3.81979 1.616742,1.231279 3.402234,2.241126 5.300209,2.968747 5.465797,2.095465 11.671302,1.792256 17.202921,-0.122721 5.531614,-1.914961 10.436914,-5.352144 14.713122,-9.349583 5.094076,-4.762053 9.389051,-10.374913 12.658752,-16.533975 z"
     id="path2993"
     style="color:#000000;display:inline;overflow:visible;visibility:visible;fill:#ffffff;fill-opacity:1;fill-rule:nonzero;stroke:none;stroke-width:1;marker:none;enable-background:accumulate" />
</svg>
