<?xml version="1.0" encoding="UTF-8" standalone="no"?>
<svg
   xmlns:dc="http://purl.org/dc/elements/1.1/"
   xmlns:cc="http://creativecommons.org/ns#"
   xmlns:rdf="http://www.w3.org/1999/02/22-rdf-syntax-ns#"
   xmlns:svg="http://www.w3.org/2000/svg"
   xmlns="http://www.w3.org/2000/svg"
   xmlns:xlink="http://www.w3.org/1999/xlink"
   id="svg3695"
   height="32"
   width="32"
   version="1.0">
  <metadata
     id="metadata182300">
    <rdf:RDF>
      <cc:Work
         rdf:about="">
        <dc:format>image/svg+xml</dc:format>
        <dc:type
           rdf:resource="http://purl.org/dc/dcmitype/StillImage" />
      </cc:Work>
    </rdf:RDF>
  </metadata>
  <defs
     id="defs3697">
    <linearGradient
       id="linearGradient5060">
      <stop
         offset="0"
         style="stop-color:#000000;stop-opacity:1"
         id="stop5062" />
      <stop
         offset="1"
         style="stop-color:#000000;stop-opacity:0"
         id="stop5064" />
    </linearGradient>
    <linearGradient
       id="linearGradient3384">
      <stop
         offset="0"
         style="stop-color:#6e6e6e;stop-opacity:1"
         id="stop3386" />
      <stop
         offset="1"
         style="stop-color:#9f9fa1;stop-opacity:1"
         id="stop3388" />
    </linearGradient>
    <linearGradient
       id="linearGradient2793-2-0-403">
      <stop
         offset="0"
         style="stop-color:#8d909a;stop-opacity:1"
         id="stop4645" />
      <stop
         offset="1"
         style="stop-color:#d9d9d9;stop-opacity:1"
         id="stop4647" />
    </linearGradient>
    <linearGradient
       id="linearGradient3254-8-457">
      <stop
         offset="0"
         style="stop-color:#ffffff;stop-opacity:1"
         id="stop4669" />
      <stop
         offset="1"
         style="stop-color:#ffffff;stop-opacity:0"
         id="stop4671" />
    </linearGradient>
    <linearGradient
       id="linearGradient3254-3-182">
      <stop
         offset="0"
         style="stop-color:#ffffff;stop-opacity:1"
         id="stop4663" />
      <stop
         offset="1"
         style="stop-color:#ffffff;stop-opacity:0"
         id="stop4665" />
    </linearGradient>
    <linearGradient
       id="linearGradient3205">
      <stop
         offset="0"
         style="stop-color:#000000;stop-opacity:1"
         id="stop3207" />
      <stop
         offset="1"
         style="stop-color:#000000;stop-opacity:0"
         id="stop3209" />
    </linearGradient>
    <linearGradient
       gradientTransform="matrix(0.6666667,0.21091925,0,0.57251968,-4.0702042e-7,0.47718506)"
       gradientUnits="userSpaceOnUse"
       xlink:href="#linearGradient3205"
       id="linearGradient3276"
       y2="43"
       x2="24"
       y1="13.506023"
       x1="24" />
    <linearGradient
       gradientTransform="matrix(0.6,0,0,0.80165718,3.2000001,-2.3168104)"
       gradientUnits="userSpaceOnUse"
       xlink:href="#linearGradient3254-3-182"
       id="linearGradient3279"
       y2="34.173542"
       x2="17.125"
       y1="20.230709"
       x1="12.25" />
    <linearGradient
       gradientTransform="matrix(0.7699092,0,0,1.1582727,-2.0928818,-16.25177)"
       gradientUnits="userSpaceOnUse"
       xlink:href="#linearGradient3254-8-457"
       id="linearGradient3282"
       y2="39.850574"
       x2="23.5"
       y1="10.996204"
       x1="23.5" />
    <radialGradient
       spreadMethod="pad"
       gradientTransform="matrix(0,1.1069038,-1.0780626,0,32.26335,-12.342314)"
       gradientUnits="userSpaceOnUse"
       xlink:href="#linearGradient3254-8-457"
       id="radialGradient3293"
       fy="21.029308"
       fx="19.308081"
       r="14.500172"
       cy="21.029308"
       cx="19.308081" />
    <linearGradient
       spreadMethod="reflect"
       gradientTransform="matrix(0.7916706,0,0,0.90797956,-1.0209181,-6.2731423)"
       gradientUnits="userSpaceOnUse"
       xlink:href="#linearGradient2793-2-0-403"
       id="linearGradient3296"
       y2="26.410894"
       x2="21.514704"
       y1="26.410894"
       x1="11.93083" />
    <linearGradient
       gradientTransform="matrix(0.6551678,0,0,0.59740255,0.2759722,3.9156154)"
       gradientUnits="userSpaceOnUse"
       xlink:href="#linearGradient3384"
       id="linearGradient3298"
       y2="5.5"
       x2="31.048019"
       y1="45"
       x1="31.048019" />
    <radialGradient
       gradientTransform="matrix(0.23215216,0,0,0.10552366,1.4411771,15.601359)"
       gradientUnits="userSpaceOnUse"
       xlink:href="#linearGradient5060"
       id="radialGradient3301"
       fy="108.02493"
       fx="62.71241"
       r="47.38271"
       cy="108.02493"
       cx="62.71241" />
    <linearGradient
       gradientTransform="matrix(0.6666665,0.02810133,0,0.61022648,-0.1666624,1.9627336)"
       gradientUnits="userSpaceOnUse"
       xlink:href="#linearGradient3205"
       id="linearGradient3311"
       y2="45"
       x2="24"
       y1="15.502284"
       x1="24" />
    <linearGradient
       gradientTransform="matrix(0.6666665,0.02810133,0,0.61022648,0.166672,1.9627336)"
       gradientUnits="userSpaceOnUse"
       xlink:href="#linearGradient3205"
       id="linearGradient3313"
       y2="45"
       x2="24"
       y1="15.502284"
       x1="24" />
    <linearGradient
       id="linearGradient4404-5-5-1">
      <stop
         offset="0"
         style="stop-color:#ffffff;stop-opacity:1"
         id="stop4406-9-1-0" />
      <stop
         offset="0.09090912"
         style="stop-color:#ffffff;stop-opacity:0.23529412"
         id="stop4408-7-4-4" />
      <stop
         offset="0.81818187"
         style="stop-color:#ffffff;stop-opacity:0.15686275"
         id="stop4410-6-4-0" />
      <stop
         offset="1"
         style="stop-color:#ffffff;stop-opacity:0.39215687"
         id="stop4412-1-5-5" />
    </linearGradient>
    <linearGradient
       id="linearGradient4238-0">
      <stop
         id="stop4240-2"
         style="stop-color:#8d909a;stop-opacity:1"
         offset="0" />
      <stop
         id="stop4242-27"
         style="stop-color:#e5e5e5;stop-opacity:1"
         offset="1" />
    </linearGradient>
    <linearGradient
       y2="43"
       x2="24"
       y1="13.506023"
       x1="24"
       gradientTransform="matrix(0.6666667,0.21091925,0,0.57251969,-4.0702042e-7,0.45360242)"
       gradientUnits="userSpaceOnUse"
       id="linearGradient3072"
       xlink:href="#linearGradient3205" />
    <linearGradient
       y2="26.410894"
       x2="19.314434"
       y1="26.410894"
       x1="34.613369"
       spreadMethod="reflect"
       gradientTransform="matrix(0.45754817,0,0,0.47298439,-1.837284,-3.6558699)"
       gradientUnits="userSpaceOnUse"
       id="linearGradient3081"
       xlink:href="#linearGradient4238-0" />
    <linearGradient
       y2="28.903023"
       x2="32.180862"
       y1="13.828948"
       x1="32.180862"
       gradientTransform="matrix(0.72972969,0,0,0.72972969,3.516668,-7.0913942)"
       gradientUnits="userSpaceOnUse"
       id="linearGradient3083"
       xlink:href="#linearGradient4404-5-5-1" />
  </defs>
  <path
     style="fill:url(#radialGradient3301);fill-opacity:1;fill-rule:evenodd;stroke:none;stroke-width:1.05496335;marker:none;visibility:visible;display:inline;overflow:visible"
     id="path12941"
     d="m 27,27.000551 c -6.71e-4,2.76121 -4.925342,4.999451 -11,4.999451 -6.0746591,0 -10.9993299,-2.238241 -11,-4.999451 C 4.9993299,24.238911 9.9243939,22 16,22 c 6.075605,0 11.00067,2.238911 11,5.000551 z" />
  <path
     style="fill:url(#linearGradient3296);fill-opacity:1;fill-rule:nonzero;stroke:url(#linearGradient3298);stroke-width:0.99999994;stroke-opacity:1;marker:none;visibility:visible;display:inline;overflow:visible"
     id="path2230"
     d="m 6.4999538,7.500031 0,19.116883 c 0,1.754217 2.8878293,3.883117 9.5000462,3.883117 6.612218,0 9.500047,-2.1289 9.500047,-3.883117 l 0,-19.116883 c 0,0 -19.0000932,0 -19.0000932,0 z" />
  <path
     style="opacity:0.4;fill:url(#radialGradient3293);fill-opacity:1;fill-rule:nonzero;stroke:none;stroke-width:0.99999994;marker:none;stroke-opacity:1;visibility:visible;display:inline;overflow:visible"
     id="path3212"
     d="M 6.8276505,5.7818069 L 6.8276505,26.215538 C 6.8276505,28.075668 10.936863,30.170455 16,30.170453 C 21.063138,30.170453 25.17235,28.075668 25.17235,26.215538 L 25.17235,5.7818069 C 25.17235,5.7818069 6.8276505,5.7818069 6.8276505,5.7818069 z" />
  <path
     style="opacity:0.15;fill:none;stroke:url(#linearGradient3282);stroke-width:1;stroke-linecap:round;stroke-linejoin:round;stroke-miterlimit:4;stroke-opacity:1;stroke-dasharray:none;stroke-dashoffset:0;marker:none;visibility:visible;display:inline;overflow:visible"
     id="path2206"
     d="m 7.5,8.5 c 0,0 0,16.77835 0,18.104318 C 7.5,28.202735 11.325092,29.5 15.999984,29.5 20.674878,29.5 24.5,28.202735 24.5,26.604318 24.5,25.377459 24.5,8.5 24.5,8.5 z" />
  <path
     style="opacity:0.2;fill:url(#linearGradient3279);fill-opacity:1;fill-rule:nonzero;stroke:none;stroke-width:1;marker:none;visibility:visible;display:inline;overflow:visible"
     id="rect3244"
     d="M 11,11.000147 14,11.509853 14,30 11,29.348654 11,11.000147 z" />
  <path
     style="opacity:0.15;fill:url(#linearGradient3276);fill-opacity:1;fill-rule:nonzero;stroke:none;stroke-width:0.99992186;marker:none;visibility:visible;display:inline;overflow:visible;enable-background:accumulate"
     id="path3305"
     d="m 9,11.057059 c 0.5540001,0.175274 0.9999995,0.699395 0.9999995,1.175158 l 0,15.168323 C 9.9999995,27.876304 9.5540001,28.118216 9,27.942942 8.446,27.767667 8,27.243547 8,26.767783 L 8,11.59946 c 0,-0.475764 0.446,-0.717675 1,-0.542401 z" />
  <path
     style="opacity:0.15;fill:url(#linearGradient3072);fill-opacity:1;fill-rule:nonzero;stroke:none;stroke-width:0.99992186;marker:none;visibility:visible;display:inline;overflow:visible;enable-background:accumulate"
     id="path3287"
     d="M 23.000001,10.892071 C 22.446,11.067346 22,11.591466 22,12.06723 l 0,15.168324 c 0,0.475764 0.446,0.717675 1.000001,0.542399 C 23.554,27.602681 24,27.07856 24,26.602796 l 0,-15.168324 c 0,-0.475764 -0.446,-0.717675 -0.999999,-0.542401 z" />
  <path
     style="opacity:0.3;fill:url(#linearGradient3311);fill-opacity:1;fill-rule:nonzero;stroke:none;stroke-width:0.99992186;marker:none;visibility:visible;display:inline;overflow:visible;enable-background:accumulate"
     id="path3309"
     d="m 13.5,12.000997 c 0.554,0.02335 1,0.450394 1,0.957492 l 0,16.167326 c 0,0.507099 -0.446,0.896541 -1,0.873186 -0.553999,-0.02335 -1,-0.450392 -1,-0.95749 l 0,-16.167327 c 0,-0.507097 0.446001,-0.89654 1,-0.873187 z" />
  <path
     style="opacity:0.3;fill:url(#linearGradient3313);fill-opacity:1;fill-rule:nonzero;stroke:none;stroke-width:0.99992186;marker:none;visibility:visible;display:inline;overflow:visible;enable-background:accumulate"
     id="path3293"
     d="m 18.5,12.000997 c -0.553999,0.02335 -1,0.450394 -1,0.957492 l 0,16.167326 c 0,0.507099 0.446001,0.896541 1,0.873186 0.553999,-0.02335 1,-0.450392 1,-0.95749 l 0,-16.167327 c 0,-0.507097 -0.446001,-0.89654 -1,-0.873187 z" />
  <path
     transform="matrix(1.6580311,0,0,1.382716,2.735751,1.9691358)"
     d="m 8,1.46875 c -1.7572026,0 -3.3544793,0.2196475 -4.46875,0.5625 -0.5571353,0.1714263 -0.9846671,0.3694792 -1.25,0.5625 C 2.0159171,2.7867708 1.96875,2.9230812 1.96875,3 l 0,2 c 0,0.076919 0.047167,0.2132292 0.3125,0.40625 0.2653329,0.1930208 0.6928647,0.3910737 1.25,0.5625 1.1142707,0.3428525 2.7115474,0.5625 4.46875,0.5625 1.7572027,0 3.354479,-0.2196475 4.46875,-0.5625 0.557135,-0.1714263 0.984667,-0.3694792 1.25,-0.5625 C 13.984083,5.2132292 14.03125,5.0769189 14.03125,5 l 0,-2 c 0,-0.076919 -0.04717,-0.2132292 -0.3125,-0.40625 -0.265333,-0.1930208 -0.692865,-0.3910737 -1.25,-0.5625 C 11.354479,1.6883975 9.7572027,1.46875 8,1.46875 z"
     id="path5418"
     style="color:#000000;fill:url(#linearGradient3081);fill-opacity:1;fill-rule:nonzero;stroke:none;stroke-width:1.03944016;marker:none;visibility:visible;display:inline;overflow:visible;enable-background:accumulate" />
  <path
     id="path5019-9"
     d="m 15.999997,3.4999998 c -5.798989,0 -10.5,1.1939066 -10.5,2.6666667 l 0,2.6666666 c 0,1.4727599 4.701011,2.6666669 10.5,2.6666669 5.798989,0 10.5,-1.193907 10.5,-2.6666669 l 0,-2.6666666 c 0,-1.4727601 -4.701011,-2.6666667 -10.5,-2.6666667 z"
     style="opacity:0.5;color:#000000;fill:none;stroke:#161b28;stroke-width:0.99999988;stroke-linecap:butt;stroke-linejoin:miter;stroke-miterlimit:4;stroke-opacity:1;stroke-dasharray:none;stroke-dashoffset:0;marker:none;visibility:visible;display:inline;overflow:visible;enable-background:accumulate" />
  <path
     transform="matrix(1.3571429,0,0,-0.57142859,-19.285713,8.5000001)"
     d="m 33,3.5 a 7,3.5 0 1 1 -14,0 7,3.5 0 1 1 14,0 z"
     id="path4564-1-6"
     style="opacity:0.7;color:#000000;fill:none;stroke:url(#linearGradient3083);stroke-width:1.13554978;stroke-linecap:round;stroke-linejoin:round;stroke-miterlimit:4;stroke-opacity:1;stroke-dasharray:none;stroke-dashoffset:0;marker:none;visibility:visible;display:inline;overflow:visible;enable-background:accumulate" />
  <path
     id="rect4167-4"
     d="M 13,3.5 C 12.723,3.5 12.5,3.7973333 12.5,4.1666667 12.5,5.7222223 12.5,7.5 12.5,7.5 l 2,0 0,-1.3333333 3,0 0,1.3333333 2,0 0,-3.3333333 C 19.5,3.7973333 19.277,3.5 19,3.5 z"
     style="color:#000000;fill:#dcdcdd;fill-opacity:1;fill-rule:nonzero;stroke:none;stroke-width:1.01884639;marker:none;visibility:visible;display:inline;overflow:visible;enable-background:accumulate" />
  <path
     id="rect4167"
     d="m 13,3.5000002 c -0.277,0 -0.5,0.2973333 -0.5,0.6666667 0,1.5555557 0,3.3333335 0,3.3333335 l 2,0 L 14.5,6 l 3,0 0,1.5000004 2,0 0,-3.3333335 C 19.5,3.7973335 19.277,3.5000002 19,3.5000002 z"
     style="opacity:0.3;color:#000000;fill:none;stroke:#161b28;stroke-width:0.99999994;stroke-linecap:butt;stroke-linejoin:miter;stroke-miterlimit:4;stroke-opacity:1;stroke-dasharray:none;stroke-dashoffset:0;marker:none;visibility:visible;display:inline;overflow:visible;enable-background:accumulate" />
</svg>
