<?xml version="1.0" encoding="UTF-8" standalone="no"?>
<svg
   xmlns:dc="http://purl.org/dc/elements/1.1/"
   xmlns:cc="http://creativecommons.org/ns#"
   xmlns:rdf="http://www.w3.org/1999/02/22-rdf-syntax-ns#"
   xmlns:svg="http://www.w3.org/2000/svg"
   xmlns="http://www.w3.org/2000/svg"
   xmlns:xlink="http://www.w3.org/1999/xlink"
   version="1.1"
   width="128"
   height="128"
   id="svg5157">
  <defs
     id="defs5159">
    <linearGradient
       id="linearGradient3820-7-2-8-6">
      <stop
         id="stop3822-2-6-5-0"
         style="stop-color:#3d3d3d;stop-opacity:1"
         offset="0" />
      <stop
         id="stop3864-8-7-4-1"
         style="stop-color:#686868;stop-opacity:0.49803922"
         offset="0.5" />
      <stop
         id="stop3824-1-2-6-7"
         style="stop-color:#686868;stop-opacity:0"
         offset="1" />
    </linearGradient>
    <linearGradient
       id="linearGradient4806">
      <stop
         offset="0"
         style="stop-color:#ffffff;stop-opacity:1"
         id="stop4808" />
      <stop
         offset="0.42447853"
         style="stop-color:#ffffff;stop-opacity:0.23529412"
         id="stop4810" />
      <stop
         offset="0.82089913"
         style="stop-color:#ffffff;stop-opacity:0.15686275"
         id="stop4812" />
      <stop
         offset="1"
         style="stop-color:#ffffff;stop-opacity:0.39215687"
         id="stop4814" />
    </linearGradient>
    <linearGradient
       xlink:href="#linearGradient4806"
       id="linearGradient3118"
       gradientUnits="userSpaceOnUse"
       gradientTransform="matrix(4.16388,0,0,4.16388,-236.03265,-50.036246)"
       x1="71.204407"
       y1="15.369057"
       x2="71.204407"
       y2="40.495617" />
    <radialGradient
       xlink:href="#linearGradient3820-7-2-8-6"
       id="radialGradient3163"
       gradientUnits="userSpaceOnUse"
       gradientTransform="matrix(0.6869404,0,0,0.21461693,-4.02174,68.573331)"
       cx="99.157013"
       cy="186.17059"
       fx="99.157013"
       fy="186.17059"
       r="62.769119" />
    <radialGradient
       xlink:href="#linearGradient3242-7-3-8-0-4-58-06"
       id="radialGradient3022"
       gradientUnits="userSpaceOnUse"
       gradientTransform="matrix(0,7.3851891,-9.7483181,0,103.39581,-164.58195)"
       cx="21.994528"
       cy="4.0384412"
       fx="21.994528"
       fy="4.0384412"
       r="20.397499" />
    <linearGradient
       id="linearGradient3242-7-3-8-0-4-58-06">
      <stop
         offset="0"
         style="stop-color:#cdf87e;stop-opacity:1"
         id="stop3244-5-8-5-6-4-3-8" />
      <stop
         offset="0.26238"
         style="stop-color:#a2e34f;stop-opacity:1"
         id="stop3246-9-5-1-5-3-0-7" />
      <stop
         offset="0.66093999"
         style="stop-color:#68b723;stop-opacity:1"
         id="stop3248-7-2-0-7-5-35-9" />
      <stop
         offset="1"
         style="stop-color:#1d7e0d;stop-opacity:1"
         id="stop3250-8-2-8-5-6-40-4" />
    </linearGradient>
  </defs>
  <metadata
     id="metadata5162">
    <rdf:RDF>
      <cc:Work
         rdf:about="">
        <dc:format>image/svg+xml</dc:format>
        <dc:type
           rdf:resource="http://purl.org/dc/dcmitype/StillImage" />
        <dc:title />
      </cc:Work>
    </rdf:RDF>
  </metadata>
  <path
     style="fill:url(#radialGradient3163);fill-opacity:1;stroke:none"
     id="path3818-0-5-0"
     d="m 107.21186,108.52868 a 43.118644,13.471312 0 1 1 -86.237286,0 43.118644,13.471312 0 1 1 86.237286,0 z" />
  <path
     style="fill:url(#radialGradient3022);fill-opacity:1;stroke:none;stroke-width:1.00365412;stroke-linecap:round;stroke-linejoin:round;stroke-miterlimit:4;stroke-dasharray:none;stroke-dashoffset:0;stroke-opacity:1"
     id="path2555-9"
     d="m 64.499999,13.99818 c -28.691804,0 -52.000005,23.308193 -52.000005,51.999998 0,28.69181 23.308201,52.000022 52.000005,52.000002 28.691797,0 52.000021,-23.308192 52.000001,-52.000002 C 116.5,37.306373 93.191796,13.99818 64.499999,13.99818 Z" />
  <path
     style="opacity:0.5;color:#000000;fill:none;fill-opacity:1;fill-rule:nonzero;stroke:#0f5a00;stroke-width:1;stroke-linecap:round;stroke-linejoin:round;stroke-miterlimit:4;stroke-opacity:1;stroke-dasharray:none;stroke-dashoffset:0;marker:none;visibility:visible;display:inline;overflow:visible;enable-background:accumulate;clip-rule:nonzero;isolation:auto;mix-blend-mode:normal;color-interpolation:sRGB;color-interpolation-filters:linearRGB;solid-color:#000000;solid-opacity:1;filter-blend-mode:normal;filter-gaussianBlur-deviation:0;color-rendering:auto;image-rendering:auto;shape-rendering:auto;text-rendering:auto"
     id="path2555-7-1"
     d="m 64.5,13.998179 c -28.691806,0 -52.000001,23.308189 -52.000001,51.999997 0,28.691808 23.308195,52.000014 52.000001,52.000004 28.691802,0 52.00002,-23.308196 52,-52.000004 0,-28.691808 -23.308198,-51.999997 -52,-51.999997 z" />
  <path
     style="opacity:0.7;color:#000000;fill:none;stroke:url(#linearGradient3118);stroke-width:1;stroke-linecap:round;stroke-linejoin:round;stroke-miterlimit:4;stroke-opacity:1;stroke-dasharray:none;stroke-dashoffset:0;marker:none;visibility:visible;display:inline;overflow:visible;enable-background:accumulate"
     id="path3019"
     d="m 115.5,65.998181 c 0,28.166516 -22.833502,50.999989 -51.000026,50.999989 -28.166487,0 -50.999973,-22.833473 -50.999973,-50.999989 0,-28.166517 22.833486,-50.999991 50.999973,-50.999991 28.166524,0 51.000026,22.833474 51.000026,50.999991 z" />
  <path
     style="color:#000000;clip-rule:nonzero;display:inline;overflow:visible;visibility:visible;opacity:0.15;isolation:auto;mix-blend-mode:normal;color-interpolation:sRGB;color-interpolation-filters:linearRGB;solid-color:#000000;solid-opacity:1;fill:#206612;fill-opacity:1;fill-rule:evenodd;stroke:none;stroke-width:1;stroke-linecap:butt;stroke-linejoin:miter;stroke-miterlimit:4;stroke-dasharray:none;stroke-dashoffset:0;stroke-opacity:1;marker:none;color-rendering:auto;image-rendering:auto;shape-rendering:auto;text-rendering:auto;enable-background:accumulate;filter-blend-mode:normal;filter-gaussianBlur-deviation:0"
     id="path4306"
     d="M 57.5,36.957031 A 1.0440321,1.0440321 0 0 0 56.457031,38 l 0,21.958984 -21.457031,0 a 1.0440321,1.0440321 0 0 0 -1.042969,1.042969 l 0,12 A 1.0440321,1.0440321 0 0 0 35,74.044922 l 21.457031,0 0,21.955078 A 1.0440321,1.0440321 0 0 0 57.5,97.042969 l 13,0 A 1.0440321,1.0440321 0 0 0 71.542969,96 l 0,-21.955078 21.457031,0 a 1.0440321,1.0440321 0 0 0 1.042969,-1.042969 l 0,-12 A 1.0440321,1.0440321 0 0 0 93,59.958984 l -21.457031,0 0,-21.958984 A 1.0440321,1.0440321 0 0 0 70.5,36.957031 l -13,0 z" />
  <path
     d="m 57.500003,38.000001 0,23.001819 -22.500003,0 0,12 22.500003,0 0,22.99818 13,0 0,-22.99818 22.499997,0 0,-12 -22.499997,0 0,-23.001819 z"
     id="rect3007-2"
     style="color:#000000;display:inline;overflow:visible;visibility:visible;fill:#206612;fill-opacity:1;fill-rule:evenodd;stroke:none;stroke-width:1;marker:none;enable-background:accumulate;clip-rule:nonzero;opacity:0.3;isolation:auto;mix-blend-mode:normal;color-interpolation:sRGB;color-interpolation-filters:linearRGB;solid-color:#000000;solid-opacity:1;stroke-linecap:butt;stroke-linejoin:miter;stroke-miterlimit:4;stroke-dasharray:none;stroke-dashoffset:0;stroke-opacity:1;filter-blend-mode:normal;filter-gaussianBlur-deviation:0;color-rendering:auto;image-rendering:auto;shape-rendering:auto;text-rendering:auto" />
  <path
     d="M 57.500003,36.998181 57.500003,60 35,60 l 0,12 22.500003,0 0,22.99818 13,0 0,-22.99818 L 93,72 l 0,-12 -22.499997,0 0,-23.001819 z"
     id="rect3007"
     style="color:#000000;display:inline;overflow:visible;visibility:visible;fill:#ffffff;fill-opacity:1;fill-rule:evenodd;stroke:none;stroke-width:1;marker:none;enable-background:accumulate" />
</svg>
