<?xml version="1.0" encoding="UTF-8" standalone="no"?>
<svg
   xmlns:dc="http://purl.org/dc/elements/1.1/"
   xmlns:cc="http://creativecommons.org/ns#"
   xmlns:rdf="http://www.w3.org/1999/02/22-rdf-syntax-ns#"
   xmlns:svg="http://www.w3.org/2000/svg"
   xmlns="http://www.w3.org/2000/svg"
   width="16"
   version="1.1"
   id="svg7384"
   height="16.000193">
  <metadata
     id="metadata90">
    <rdf:RDF>
      <cc:Work
         rdf:about="">
        <dc:format>image/svg+xml</dc:format>
        <dc:type
           rdf:resource="http://purl.org/dc/dcmitype/StillImage" />
        <dc:title>elementary Symbolic Icon Theme</dc:title>
      </cc:Work>
    </rdf:RDF>
  </metadata>
  <title
     id="title9167">elementary Symbolic Icon Theme</title>
  <defs
     id="defs7386" />
  <g
     transform="translate(-773.0039,318)"
     style="display:inline"
     id="layer9" />
  <g
     transform="translate(-773.0039,318)"
     style="display:inline"
     id="layer10" />
  <g
     transform="translate(-773.0039,318)"
     id="layer11" />
  <g
     transform="translate(-773.0039,318)"
     style="display:inline"
     id="layer13" />
  <g
     transform="translate(-773.0039,318)"
     id="layer14" />
  <g
     transform="translate(-773.0039,318)"
     style="display:inline"
     id="layer15" />
  <g
     transform="translate(-773.0039,318)"
     style="display:inline"
     id="g71291" />
  <g
     transform="translate(-773.0039,318)"
     style="display:inline"
     id="g4953">
    <path
       style="fill:#bebebe;fill-opacity:1;fill-rule:evenodd;stroke:none;display:inline;enable-background:new"
       id="rect7157"
       d="m 781.00078,-310 c -3.99844,0 -5.99766,3 -5.99766,6 l -1.74932,0 c -0.2499,0 -0.2499,0.15712 -0.2499,0.25 l 0,1.5 c 0,0.25 0.13814,0.25 0.2499,0.25 l 15.49396,0 c 0.19535,0.006 0.2499,-0.12948 0.2499,-0.25 l 0,-1.5 c 0.0212,-0.14605 0,-0.25 -0.2499,-0.25 l -1.74932,0 c 0,-3 -1.99922,-6 -5.99766,-6 z m 0,3 c 2.3501,0 2.99883,1.76177 2.99883,3 l -5.99766,0 c 0,-1.19769 0.70253,-3 2.99883,-3 z" />
    <path
       style="font-size:medium;font-style:normal;font-variant:normal;font-weight:normal;font-stretch:normal;text-indent:0;text-align:start;text-decoration:none;line-height:normal;letter-spacing:normal;word-spacing:normal;text-transform:none;direction:ltr;block-progression:tb;writing-mode:lr-tb;text-anchor:start;color:#000000;fill:#bebebe;fill-opacity:1;fill-rule:nonzero;stroke:none;stroke-width:3;marker:none;visibility:visible;display:inline;overflow:visible;enable-background:accumulate;font-family:Sans;-inkscape-font-specification:Sans"
       id="path3908-6"
       d="m 787.99281,-317.40017 c -0.28315,-0.24009 -0.6238,-0.41924 -0.96653,-0.5613 l -0.0217,2.23198 c -0.005,0.45867 -0.4519,0.72949 -1.00572,0.72949 l -0.99961,0 c -0.55376,-0.007 -1.00306,-0.30935 -0.9986,-0.76802 L 784.02235,-318 c -0.34541,0.13322 -0.68945,0.3036 -0.9772,0.53638 -1.37728,1.11412 -1.39514,2.94888 -0.0399,4.09805 0.28315,0.24009 0.6238,0.41924 0.96652,0.56131 0.0278,0.0113 0.0278,2.05426 0.0278,2.05426 1.48949,0.75 2.35093,1.75 2.99883,2.75 l 0,-4.74827 c 0.3454,-0.13322 0.66671,-0.32107 0.95447,-0.55384 1.37727,-1.11412 1.39514,-2.94889 0.0399,-4.09806 z" />
  </g>
  <g
     transform="translate(-773.0039,318)"
     style="display:inline"
     id="layer12" />
</svg>
