<?xml version="1.0" encoding="UTF-8" standalone="no"?>
<svg
   xmlns:dc="http://purl.org/dc/elements/1.1/"
   xmlns:cc="http://creativecommons.org/ns#"
   xmlns:rdf="http://www.w3.org/1999/02/22-rdf-syntax-ns#"
   xmlns:svg="http://www.w3.org/2000/svg"
   xmlns="http://www.w3.org/2000/svg"
   width="16.000002"
   version="1.1"
   id="svg7384"
   height="16.000919">
  <metadata
     id="metadata90">
    <rdf:RDF>
      <cc:Work
         rdf:about="">
        <dc:format>image/svg+xml</dc:format>
        <dc:type
           rdf:resource="http://purl.org/dc/dcmitype/StillImage" />
        <dc:title>elementary Symbolic Icon Theme</dc:title>
      </cc:Work>
    </rdf:RDF>
  </metadata>
  <title
     id="title9167">elementary Symbolic Icon Theme</title>
  <defs
     id="defs7386" />
  <g
     transform="translate(-313.0004,232.00092)"
     style="display:inline"
     id="layer9" />
  <g
     transform="translate(-313.0004,232.00092)"
     style="display:inline"
     id="layer10">
    <path
       style="fill:#bebebe;fill-opacity:1;stroke:none"
       id="path10296"
       d="m 320.96899,-232.00092 c -3.30546,0 -6.02387,3.00835 -5.96859,5.71875 0.0616,3.02218 0.93359,4.69547 1.125,5.28125 1.5831,0 -0.125,0 1.4005,0 -1.16149,-2.29152 -1.04906,-5.1562 -1.04906,-5.1562 0,-2.37255 2.00665,-4.31249 4.49215,-4.3125 2.48549,0 4.49978,1.92062 4.49214,4.375 -0.0234,1.67413 -0.17168,2.28358 -1.00523,4.8125 l 1.57068,0 c 0.2245,-0.64458 0.97382,-2.06546 0.97382,-4.90625 0,-2.8298 -2.72596,-5.8125 -6.03141,-5.8125 z" />
    <rect
       y="-304.3942"
       x="-243.96681"
       width="3.1448481"
       transform="matrix(-0.96317422,-0.26887809,-0.3026725,0.95309462,0,0)"
       style="fill:#bebebe;fill-opacity:1;stroke:none"
       ry="1.8614891"
       rx="1.8617905"
       id="rect10298"
       height="5.1319256" />
    <rect
       y="-131.65269"
       x="368.35071"
       width="3.1448481"
       transform="matrix(0.96317422,-0.26887809,0.3026725,0.95309462,0,0)"
       style="fill:#bebebe;fill-opacity:1;stroke:none"
       ry="1.8614891"
       rx="1.8617905"
       id="rect10300"
       height="5.1319256" />
    <rect
       y="-219"
       x="321.01144"
       width="2"
       style="color:#000000;fill:#bebebe;fill-opacity:1;fill-rule:nonzero;stroke:none;stroke-width:1;marker:none;visibility:visible;display:inline;overflow:visible;enable-background:accumulate"
       ry="1"
       rx="0.9921875"
       id="rect10302"
       height="2" />
    <path
       style="font-size:medium;font-style:normal;font-variant:normal;font-weight:normal;font-stretch:normal;text-indent:0;text-align:start;text-decoration:none;line-height:normal;letter-spacing:normal;word-spacing:normal;text-transform:none;direction:ltr;block-progression:tb;writing-mode:lr-tb;text-anchor:start;baseline-shift:baseline;color:#000000;fill:#bebebe;fill-opacity:1;stroke:none;stroke-width:1px;marker:none;visibility:visible;display:inline;overflow:visible;enable-background:accumulate;font-family:Sans;-inkscape-font-specification:Sans"
       id="path10304"
       d="m 325.59375,-222.59375 a 0.50005,0.50005 0 0 0 -0.0625,0.96875 l 1.46875,0.53125 -0.0312,1.75 c -0.005,0.53205 -0.13589,0.86771 -0.3125,1.0625 -0.17661,0.19479 -0.40189,0.28125 -0.71875,0.28125 l -3.90625,0 a 0.50005,0.50005 0 1 0 0,1 l 3.90625,0 c 0.54756,0 1.09267,-0.21022 1.46875,-0.625 0.37608,-0.41478 0.556,-1.00902 0.5625,-1.71875 l 0.0312,-2.09375 0,-0.34375 -0.3125,-0.125 -1.78125,-0.65625 a 0.50005,0.50005 0 0 0 -0.3125,-0.0312 z" />
  </g>
  <g
     transform="translate(-313.0004,232.00092)"
     id="layer11" />
  <g
     transform="translate(-313.0004,232.00092)"
     style="display:inline"
     id="layer13" />
  <g
     transform="translate(-313.0004,232.00092)"
     id="layer14" />
  <g
     transform="translate(-313.0004,232.00092)"
     style="display:inline"
     id="layer15" />
  <g
     transform="translate(-313.0004,232.00092)"
     style="display:inline"
     id="g71291" />
  <g
     transform="translate(-313.0004,232.00092)"
     style="display:inline"
     id="g4953" />
  <g
     transform="translate(-313.0004,232.00092)"
     style="display:inline"
     id="layer12" />
</svg>
