<?xml version="1.0" encoding="UTF-8" standalone="no"?>
<svg
   xmlns:dc="http://purl.org/dc/elements/1.1/"
   xmlns:cc="http://creativecommons.org/ns#"
   xmlns:rdf="http://www.w3.org/1999/02/22-rdf-syntax-ns#"
   xmlns:svg="http://www.w3.org/2000/svg"
   xmlns="http://www.w3.org/2000/svg"
   width="16.014242"
   version="1.1"
   id="svg7384"
   height="16.014242">
  <metadata
     id="metadata90">
    <rdf:RDF>
      <cc:Work
         rdf:about="">
        <dc:format>image/svg+xml</dc:format>
        <dc:type
           rdf:resource="http://purl.org/dc/dcmitype/StillImage" />
        <dc:title>elementary Symbolic Icon Theme</dc:title>
      </cc:Work>
    </rdf:RDF>
  </metadata>
  <title
     id="title9167">elementary Symbolic Icon Theme</title>
  <defs
     id="defs7386" />
  <g
     transform="translate(-533.0002,252)"
     style="display:inline"
     id="layer9" />
  <g
     transform="translate(-533.0002,252)"
     style="display:inline"
     id="layer10">
    <path
       style="font-size:medium;font-style:normal;font-variant:normal;font-weight:normal;font-stretch:normal;text-indent:0;text-align:start;text-decoration:none;line-height:normal;letter-spacing:normal;word-spacing:normal;text-transform:none;direction:ltr;block-progression:tb;writing-mode:lr-tb;text-anchor:start;baseline-shift:baseline;color:#000000;fill:#bebebe;fill-opacity:1;stroke:none;stroke-width:2;marker:none;visibility:visible;display:inline;overflow:visible;enable-background:accumulate;font-family:Sans;-inkscape-font-specification:Sans"
       id="path4781"
       d="M 545.90625,-251 A 1.0001,1.0001 0 0 0 545,-250 l 0,13 a 1.0001,1.0001 0 1 0 2,0 l 0,-12 1,0 a 1.0001,1.0001 0 1 0 0,-2 l -2,0 a 1.0001,1.0001 0 0 0 -0.0937,0 z" />
    <path
       style="font-size:medium;font-style:normal;font-variant:normal;font-weight:normal;font-stretch:normal;text-indent:0;text-align:start;text-decoration:none;line-height:normal;letter-spacing:normal;word-spacing:normal;text-transform:none;direction:ltr;block-progression:tb;writing-mode:lr-tb;text-anchor:start;baseline-shift:baseline;color:#000000;fill:#bebebe;fill-opacity:1;stroke:none;stroke-width:1;marker:none;visibility:visible;display:inline;overflow:visible;enable-background:new;font-family:Sans;-inkscape-font-specification:Sans"
       id="rect5551"
       d="m 546,-246 0,0.5 0,2 0,0.5 0.5,0 2,0 0.5,0 0,-0.5 0,-2 0,-0.5 -0.5,0 -2,0 -0.5,0 z m 1,1 1,0 0,1 -1,0 0,-1 z" />
    <path
       style="font-size:medium;font-style:normal;font-variant:normal;font-weight:normal;font-stretch:normal;text-indent:0;text-align:start;text-decoration:none;line-height:normal;letter-spacing:normal;word-spacing:normal;text-transform:none;direction:ltr;block-progression:tb;writing-mode:lr-tb;text-anchor:start;baseline-shift:baseline;color:#000000;fill:#bebebe;fill-opacity:1;stroke:none;stroke-width:1;marker:none;visibility:visible;display:inline;overflow:visible;enable-background:new;font-family:Sans;-inkscape-font-specification:Sans"
       id="rect5551-4"
       d="m 546,-242 0,0.5 0,2 0,0.5 0.5,0 2,0 0.5,0 0,-0.5 0,-2 0,-0.5 -0.5,0 -2,0 -0.5,0 z m 1,1 1,0 0,1 -1,0 0,-1 z" />
    <path
       style="font-size:medium;font-style:normal;font-variant:normal;font-weight:normal;font-stretch:normal;text-indent:0;text-align:start;text-decoration:none;line-height:normal;letter-spacing:normal;word-spacing:normal;text-transform:none;direction:ltr;block-progression:tb;writing-mode:lr-tb;text-anchor:start;baseline-shift:baseline;color:#000000;fill:#bebebe;fill-opacity:1;stroke:none;stroke-width:2;marker:none;visibility:visible;display:inline;overflow:visible;enable-background:accumulate;font-family:Sans;-inkscape-font-specification:Sans"
       id="path5571"
       d="m 533,-248 0,1 0,10 0,1 1,0 8,0 1,0 0,-1 0,-1 1,0 0,-2 -1,0 -1,0 -1,0 0,1 0,1 -6,0 0,-8 2,0 1,0 0,-2 -1,0 -3,0 -1,0 z" />
    <path
       style="fill:#bebebe;fill-opacity:1;stroke:none;display:inline"
       id="rect3818-0"
       d="m 539.0002,-251 5.0002,4 -3.0002,0 0,4.53124 -2,0 z" />
    <path
       transform="matrix(0.41157264,0,0,0.4202381,537.03417,-336.49717)"
       style="fill:#bebebe;fill-opacity:1;stroke:none;display:inline"
       id="path3822-1"
       d="m 9.625,223.6875 a 6.0625,5.9375 0 1 1 -12.125,0 6.0625,5.9375 0 1 1 12.125,0 z" />
  </g>
  <g
     transform="translate(-533.0002,252)"
     id="layer11" />
  <g
     transform="translate(-533.0002,252)"
     style="display:inline"
     id="layer13" />
  <g
     transform="translate(-533.0002,252)"
     id="layer14" />
  <g
     transform="translate(-533.0002,252)"
     style="display:inline"
     id="layer15" />
  <g
     transform="translate(-533.0002,252)"
     style="display:inline"
     id="g71291" />
  <g
     transform="translate(-533.0002,252)"
     style="display:inline"
     id="g4953" />
  <g
     transform="translate(-533.0002,252)"
     style="display:inline"
     id="layer12" />
</svg>
