<?xml version="1.0" encoding="UTF-8" standalone="no"?>
<svg
   xmlns:dc="http://purl.org/dc/elements/1.1/"
   xmlns:cc="http://creativecommons.org/ns#"
   xmlns:rdf="http://www.w3.org/1999/02/22-rdf-syntax-ns#"
   xmlns:svg="http://www.w3.org/2000/svg"
   xmlns="http://www.w3.org/2000/svg"
   width="16.000004"
   version="1.1"
   id="svg7384"
   height="16">
  <metadata
     id="metadata90">
    <rdf:RDF>
      <cc:Work
         rdf:about="">
        <dc:format>image/svg+xml</dc:format>
        <dc:type
           rdf:resource="http://purl.org/dc/dcmitype/StillImage" />
        <dc:title>elementary Symbolic Icon Theme</dc:title>
      </cc:Work>
    </rdf:RDF>
  </metadata>
  <title
     id="title9167">elementary Symbolic Icon Theme</title>
  <defs
     id="defs7386" />
  <g
     transform="translate(-333.03181,232)"
     style="display:inline"
     id="layer9" />
  <g
     transform="translate(-333.03181,232)"
     style="display:inline"
     id="layer10">
    <path
       style="fill:#bebebe;fill-opacity:1;stroke:none"
       id="rect9405"
       d="m 334.02985,-227 c -0.55291,0 -0.99804,0.5231 -0.99804,1.15625 l 0,4.5625 c 0,0.63314 0.41568,1.28125 0.96859,1.28125 l 1,0 c 0,0.63315 0.47458,1 1.02749,1 l 0.99607,0 c 0.55291,0 0.97644,-0.36685 0.97644,-1 l 5.98822,0 c 0,0.63315 0.46672,1 1.01963,1 l 0.99411,0 c 0.55291,0 0.99804,-0.36685 0.99804,-1 l 1.00196,0 c 0.55292,0 0.99804,-0.64811 0.99804,-1.28125 l 0,-4.5625 c 0,-0.63315 -0.44512,-1.15625 -0.99804,-1.15625 z m 0.49902,1.19211 c 0.2756,0 0.49902,0.92718 0.49902,2.30789 0,1.38071 -0.22342,2.23803 -0.49902,2.23803 -0.2756,0 -0.49902,-0.85732 -0.49902,-2.23803 0,-1.38071 0.22342,-2.30789 0.49902,-2.30789 z m 1.99607,-1.8e-4 c 0.2756,0 0.49902,1.11929 0.49902,2.5 0,1.38071 -0.25828,2.04082 -0.53388,2.04082 -0.2756,0 -0.46416,-0.85204 -0.46416,-2.23275 0,-1.38071 0.22342,-2.30807 0.49902,-2.30807 z m 1.96121,0 c 0.2756,0 0.53388,0.92736 0.53388,2.30807 0,1.38071 -0.22342,2.23275 -0.49902,2.23275 -0.27559,0 -0.49901,-0.85204 -0.49901,-2.23275 0,-1.38071 0.18856,-2.30807 0.46415,-2.30807 z M 345.50727,-226 c 1.378,0 2.49509,1.11929 2.49509,2.5 0,1.38071 -1.11709,2.5 -2.49509,2.5 -1.378,0 -2.49509,-1.11929 -2.49509,-2.5 0,-1.38071 1.11709,-2.5 2.49509,-2.5 z" />
    <path
       transform="matrix(0.75,0,0,0.75,440.7504,-417)"
       style="fill:#bebebe;fill-opacity:1;stroke:none"
       id="path9418"
       d="m -125,258 a 2,2 0 1 1 -4,0 2,2 0 1 1 4,0 z" />
  </g>
  <g
     transform="translate(-333.03181,232)"
     id="layer11" />
  <g
     transform="translate(-333.03181,232)"
     style="display:inline"
     id="layer13" />
  <g
     transform="translate(-333.03181,232)"
     id="layer14" />
  <g
     transform="translate(-333.03181,232)"
     style="display:inline"
     id="layer15" />
  <g
     transform="translate(-333.03181,232)"
     style="display:inline"
     id="g71291" />
  <g
     transform="translate(-333.03181,232)"
     style="display:inline"
     id="g4953" />
  <g
     transform="translate(-333.03181,232)"
     style="display:inline"
     id="layer12" />
</svg>
