<?xml version="1.0" encoding="UTF-8" standalone="no"?>
<svg
   xmlns:dc="http://purl.org/dc/elements/1.1/"
   xmlns:cc="http://creativecommons.org/ns#"
   xmlns:rdf="http://www.w3.org/1999/02/22-rdf-syntax-ns#"
   xmlns:svg="http://www.w3.org/2000/svg"
   xmlns="http://www.w3.org/2000/svg"
   width="16"
   version="1.1"
   id="svg7384"
   height="16">
  <metadata
     id="metadata90">
    <rdf:RDF>
      <cc:Work
         rdf:about="">
        <dc:format>image/svg+xml</dc:format>
        <dc:type
           rdf:resource="http://purl.org/dc/dcmitype/StillImage" />
        <dc:title>elementary Symbolic Icon Theme</dc:title>
      </cc:Work>
    </rdf:RDF>
  </metadata>
  <title
     id="title9167">elementary Symbolic Icon Theme</title>
  <defs
     id="defs7386" />
  <g
     transform="translate(-553.0004,252)"
     style="display:inline"
     id="layer9" />
  <g
     transform="translate(-553.0004,252)"
     style="display:inline"
     id="layer10">
    <path
       style="fill:#bebebe;fill-opacity:1;fill-rule:nonzero;stroke:none"
       id="path3789"
       d="m 556.15665,-248 c -1.74549,0 -3.15625,1.79086 -3.15625,4 0,2.20914 1.41076,4 3.15625,4 1.74549,0 3.15625,-1.79086 3.15625,-4 0,-2.20914 -1.41076,-4 -3.15625,-4 z m -0.15625,2 1,0 0,1 1,0 0,1 -1,0 0,1 -1,0 0,-1 -1,0 0,-1 1,0 0,-1 z" />
    <path
       style="fill:#bebebe;fill-opacity:1;fill-rule:nonzero;stroke:none"
       id="path3793"
       d="m 565.84415,-248 c -1.74549,0 -3.15625,1.79086 -3.15625,4 0,2.20914 1.41076,4 3.15625,4 1.74549,0 3.15625,-1.79086 3.15625,-4 0,-2.20914 -1.41076,-4 -3.15625,-4 z m -1.34375,1.5 c 0.55228,0 1,0.44772 1,1 0,0.55228 -0.44772,1 -1,1 -0.55228,0 -1,-0.44772 -1,-1 0,-0.55228 0.44772,-1 1,-1 z m 2,2 c 0.55228,0 1,0.44772 1,1 0,0.55228 -0.44772,1 -1,1 -0.55228,0 -1,-0.44772 -1,-1 0,-0.55228 0.44772,-1 1,-1 z" />
    <path
       style="fill:#bebebe;fill-opacity:1;fill-rule:nonzero;stroke:none"
       id="rect3791"
       d="m 556.0004,-248 0,2 1,0 0,1 1,0 0,1 -1,0 0,1 -1,0 0,1 10,0 -0.0926,-0.61304 c -0.29201,-0.17461 -0.62963,-0.53434 -0.62963,-0.89931 0,-0.36496 0.35614,-0.78025 0.64815,-0.95486 L 566.0004,-248 z m 8.5,1.5 c 0.55228,0 1,0.44772 1,1 0,0.55228 -0.44772,1 -1,1 -0.55228,0 -1,-0.44772 -1,-1 0,-0.55228 0.44772,-1 1,-1 z" />
  </g>
  <g
     transform="translate(-553.0004,252)"
     id="layer11" />
  <g
     transform="translate(-553.0004,252)"
     style="display:inline"
     id="layer13" />
  <g
     transform="translate(-553.0004,252)"
     id="layer14" />
  <g
     transform="translate(-553.0004,252)"
     style="display:inline"
     id="layer15" />
  <g
     transform="translate(-553.0004,252)"
     style="display:inline"
     id="g71291" />
  <g
     transform="translate(-553.0004,252)"
     style="display:inline"
     id="g4953" />
  <g
     transform="translate(-553.0004,252)"
     style="display:inline"
     id="layer12" />
</svg>
