<?xml version="1.0" encoding="UTF-8" standalone="no"?>
<svg
   xmlns:dc="http://purl.org/dc/elements/1.1/"
   xmlns:cc="http://creativecommons.org/ns#"
   xmlns:rdf="http://www.w3.org/1999/02/22-rdf-syntax-ns#"
   xmlns:svg="http://www.w3.org/2000/svg"
   xmlns="http://www.w3.org/2000/svg"
   width="16.000002"
   version="1.1"
   id="svg7384"
   height="16">
  <metadata
     id="metadata90">
    <rdf:RDF>
      <cc:Work
         rdf:about="">
        <dc:format>image/svg+xml</dc:format>
        <dc:type
           rdf:resource="http://purl.org/dc/dcmitype/StillImage" />
        <dc:title>elementary Symbolic Icon Theme</dc:title>
      </cc:Work>
    </rdf:RDF>
  </metadata>
  <title
     id="title9167">elementary Symbolic Icon Theme</title>
  <defs
     id="defs7386" />
  <g
     transform="translate(-333.0004,212)"
     style="display:inline"
     id="layer9" />
  <g
     transform="translate(-333.0004,212)"
     style="display:inline"
     id="layer10">
    <g
       transform="translate(272.0002,-679)"
       id="g40649" />
    <path
       style="font-size:xx-small;font-style:normal;font-variant:normal;font-weight:normal;font-stretch:normal;text-indent:0;text-align:start;text-decoration:none;line-height:normal;letter-spacing:normal;word-spacing:normal;text-transform:none;direction:ltr;block-progression:tb;writing-mode:lr-tb;text-anchor:start;baseline-shift:baseline;color:#bebebe;fill:#bebebe;fill-opacity:1;stroke:none;stroke-width:1.99999964;marker:none;visibility:visible;display:inline;overflow:visible;enable-background:accumulate;font-family:sans-serif;-inkscape-font-specification:sans-serif"
       id="rect2860"
       d="m 335.96915,-211 c -1.07534,0 -1.96875,0.89341 -1.96875,1.96875 l 0,9.03125 0,0.4375 0.3125,0.28125 1.6875,1.6875 0,-11.40625 10,0 0,10 -2,0 0,2 2.03125,0 c 1.07534,0 1.96875,-0.89341 1.96875,-1.96875 l 0,-10.0625 c 0,-1.07534 -0.89341,-1.96875 -1.96875,-1.96875 z" />
    <path
       style="color:#bebebe;fill:#bebebe;fill-opacity:1;stroke:none;stroke-width:1.99999964;marker:none;visibility:visible;display:inline;overflow:visible;enable-background:accumulate"
       id="rect2880"
       d="m 338.0004,-203 c -0.554,0 -1,0.446 -1,1 l 0,4 c 0,0.554 0.446,1 1,1 l 4,0 c 0.554,0 1,-0.446 1,-1 l 0,-4 c 0,-0.554 -0.446,-1 -1,-1 l -4,0 z m 0,1 2,0 0,4 -2,0 0,-4 z" />
  </g>
  <g
     transform="translate(-333.0004,212)"
     id="layer11" />
  <g
     transform="translate(-333.0004,212)"
     style="display:inline"
     id="layer13" />
  <g
     transform="translate(-333.0004,212)"
     id="layer14" />
  <g
     transform="translate(-333.0004,212)"
     style="display:inline"
     id="layer15" />
  <g
     transform="translate(-333.0004,212)"
     style="display:inline"
     id="g71291" />
  <g
     transform="translate(-333.0004,212)"
     style="display:inline"
     id="g4953" />
  <g
     transform="translate(-333.0004,212)"
     style="display:inline"
     id="layer12" />
</svg>
