<?xml version="1.0" encoding="UTF-8" standalone="no"?>
<svg
   xmlns:dc="http://purl.org/dc/elements/1.1/"
   xmlns:cc="http://creativecommons.org/ns#"
   xmlns:rdf="http://www.w3.org/1999/02/22-rdf-syntax-ns#"
   xmlns:svg="http://www.w3.org/2000/svg"
   xmlns="http://www.w3.org/2000/svg"
   width="16.000002"
   version="1.1"
   id="svg7384"
   height="16">
  <metadata
     id="metadata90">
    <rdf:RDF>
      <cc:Work
         rdf:about="">
        <dc:format>image/svg+xml</dc:format>
        <dc:type
           rdf:resource="http://purl.org/dc/dcmitype/StillImage" />
        <dc:title>elementary Symbolic Icon Theme</dc:title>
      </cc:Work>
    </rdf:RDF>
  </metadata>
  <title
     id="title9167">elementary Symbolic Icon Theme</title>
  <defs
     id="defs7386" />
  <g
     transform="translate(-353.0004,232)"
     style="display:inline"
     label="status"
     id="layer9" />
  <g
     transform="translate(-353.0004,232)"
     style="display:inline"
     id="layer10">
    <g
       transform="matrix(1,0,0,-1,292.0002,251)"
       id="g9439" />
    <path
       style="fill:#bebebe;fill-opacity:1;stroke:none"
       id="rect9463"
       d="m 365.0004,-222 -2e-4,-8 c -5e-5,-2 -2,-2 -2,-2 l -4,0 c 0,0 -2.00005,0 -2,2 l 2e-4,8 z" />
    <path
       style="fill:#bebebe;fill-opacity:1;stroke:none"
       id="rect9466"
       d="m 358.00042,-217 0,-4 5.99998,0 0,4 -5.99998,0 z m 0.99998,-1 1.00002,0 0,-1 -1.00002,0 0,1 z m 3,0 1.00002,0 0,-1 -1.00002,0 0,1 z" />
  </g>
  <g
     transform="translate(-353.0004,232)"
     style="display:inline"
     id="layer13" />
  <g
     transform="translate(-353.0004,232)"
     id="layer14" />
  <g
     transform="translate(-353.0004,232)"
     style="display:inline"
     id="layer15" />
  <g
     transform="translate(-353.0004,232)"
     style="display:inline"
     id="g71291" />
  <g
     transform="translate(-353.0004,232)"
     style="display:inline"
     id="layer12" />
</svg>
