<?xml version="1.0" encoding="UTF-8" standalone="no"?>
<svg
   xmlns:dc="http://purl.org/dc/elements/1.1/"
   xmlns:cc="http://creativecommons.org/ns#"
   xmlns:rdf="http://www.w3.org/1999/02/22-rdf-syntax-ns#"
   xmlns:svg="http://www.w3.org/2000/svg"
   xmlns="http://www.w3.org/2000/svg"
   width="16"
   version="1.1"
   id="svg7384"
   height="16">
  <metadata
     id="metadata90">
    <rdf:RDF>
      <cc:Work
         rdf:about="">
        <dc:format>image/svg+xml</dc:format>
        <dc:type
           rdf:resource="http://purl.org/dc/dcmitype/StillImage" />
        <dc:title>elementary Symbolic Icon Theme</dc:title>
      </cc:Work>
    </rdf:RDF>
  </metadata>
  <title
     id="title9167">elementary Symbolic Icon Theme</title>
  <defs
     id="defs7386" />
  <g
     transform="translate(-513.00043,231.00338)"
     style="display:inline"
     label="status"
     id="layer9" />
  <g
     transform="translate(-513.00043,231.00338)"
     style="display:inline"
     id="layer10">
    <path
       style="fill:#bebebe;fill-opacity:1;stroke:none"
       id="path7007"
       d="m 516.0002,-230 c 0,0 -2,0 -2,2 l 0,11 c 0,0.554 0.446,1 1,1 l 12,0 c 0.554,0 1,-0.446 1,-1 l 0,-11 c 0,0 0,-2 -2,-2 l -10,0 z m 0,1 c -0.277,0 -0.538,0.1005 -0.71875,0.28125 C 515.4622,-228.8995 515.7232,-229 516.0002,-229 z m 10,0 c 0.277,0 0.538,0.1005 0.71875,0.28125 C 526.5382,-228.8995 526.2772,-229 526.0002,-229 z m -10,1 1,0 0,3 8,0 0,-3 1,0 0,10 -10,0 0,-10 z" />
  </g>
  <g
     transform="translate(-513.00043,231.00338)"
     style="display:inline"
     id="layer13" />
  <g
     transform="translate(-513.00043,231.00338)"
     id="layer14" />
  <g
     transform="translate(-513.00043,231.00338)"
     style="display:inline"
     id="layer15" />
  <g
     transform="translate(-513.00043,231.00338)"
     style="display:inline"
     id="g71291" />
  <g
     transform="translate(-513.00043,231.00338)"
     style="display:inline"
     id="layer12" />
</svg>
