<?xml version="1.0" encoding="UTF-8" standalone="no"?>
<svg
   xmlns:dc="http://purl.org/dc/elements/1.1/"
   xmlns:cc="http://creativecommons.org/ns#"
   xmlns:rdf="http://www.w3.org/1999/02/22-rdf-syntax-ns#"
   xmlns:svg="http://www.w3.org/2000/svg"
   xmlns="http://www.w3.org/2000/svg"
   width="16.0002"
   version="1.1"
   id="svg7384"
   height="16">
  <metadata
     id="metadata90">
    <rdf:RDF>
      <cc:Work
         rdf:about="">
        <dc:format>image/svg+xml</dc:format>
        <dc:type
           rdf:resource="http://purl.org/dc/dcmitype/StillImage" />
        <dc:title>elementary Symbolic Icon Theme</dc:title>
      </cc:Work>
    </rdf:RDF>
  </metadata>
  <title
     id="title9167">elementary Symbolic Icon Theme</title>
  <defs
     id="defs7386" />
  <g
     transform="translate(-453.0002,212)"
     style="display:inline"
     id="layer9" />
  <g
     transform="translate(-453.0002,212)"
     style="display:inline"
     id="layer10">
    <path
       style="fill:#bebebe;fill-opacity:1;stroke:none"
       id="path27183"
       d="m 455.5004,-209 c -1.385,0 -2.5,1.115 -2.5,2.5 l 0,6 c 0,1.385 1.115,2.5 2.5,2.5 l 11,0 c 1.385,0 2.5,-1.115 2.5,-2.5 l 0,-6 c 0,-1.385 -1.115,-2.5 -2.5,-2.5 l -11,0 z m 2,3 c 1.37479,0 2.5,1.12521 2.5,2.5 0,0.56453 -0.21241,1.08026 -0.53125,1.5 l 3.0625,0 c -0.31884,-0.41974 -0.53125,-0.93547 -0.53125,-1.5 0,-1.37479 1.12521,-2.5 2.5,-2.5 1.37479,0 2.5,1.12521 2.5,2.5 0,1.37479 -1.12521,2.5 -2.5,2.5 l -0.5,0 -6,0 -0.5,0 c -1.37479,0 -2.5,-1.12521 -2.5,-2.5 0,-1.37479 1.12521,-2.5 2.5,-2.5 z m 0,1 c -0.83435,0 -1.5,0.66565 -1.5,1.5 0,0.83435 0.66565,1.5 1.5,1.5 0.83435,0 1.5,-0.66565 1.5,-1.5 0,-0.83435 -0.66565,-1.5 -1.5,-1.5 z m 7,0 c -0.83435,0 -1.5,0.66565 -1.5,1.5 0,0.83435 0.66565,1.5 1.5,1.5 0.83435,0 1.5,-0.66565 1.5,-1.5 0,-0.83435 -0.66565,-1.5 -1.5,-1.5 z" />
  </g>
  <g
     transform="translate(-453.0002,212)"
     id="layer11" />
  <g
     transform="translate(-453.0002,212)"
     style="display:inline"
     id="layer13" />
  <g
     transform="translate(-453.0002,212)"
     id="layer14" />
  <g
     transform="translate(-453.0002,212)"
     style="display:inline"
     id="layer15" />
  <g
     transform="translate(-453.0002,212)"
     style="display:inline"
     id="g71291" />
  <g
     transform="translate(-453.0002,212)"
     style="display:inline"
     id="g4953" />
  <g
     transform="translate(-453.0002,212)"
     style="display:inline"
     id="layer12" />
</svg>
