<?xml version="1.0" encoding="UTF-8" standalone="no"?>
<svg
   xmlns:dc="http://purl.org/dc/elements/1.1/"
   xmlns:cc="http://creativecommons.org/ns#"
   xmlns:rdf="http://www.w3.org/1999/02/22-rdf-syntax-ns#"
   xmlns:svg="http://www.w3.org/2000/svg"
   xmlns="http://www.w3.org/2000/svg"
   width="16"
   version="1.1"
   id="svg7384"
   height="16">
  <metadata
     id="metadata90">
    <rdf:RDF>
      <cc:Work
         rdf:about="">
        <dc:format>image/svg+xml</dc:format>
        <dc:type
           rdf:resource="http://purl.org/dc/dcmitype/StillImage" />
        <dc:title>elementary Symbolic Icon Theme</dc:title>
      </cc:Work>
    </rdf:RDF>
  </metadata>
  <title
     id="title9167">elementary Symbolic Icon Theme</title>
  <defs
     id="defs7386" />
  <g
     transform="translate(-473.0004,232)"
     style="display:inline"
     id="layer9" />
  <g
     transform="translate(-473.0004,232)"
     style="display:inline"
     id="layer10">
    <path
       style="fill:#bebebe;fill-opacity:1;stroke:none"
       id="path27207"
       d="m 476.6254,-228.99242 c -1.45425,0 -2.625,1.03817 -2.625,2.49242 l 0,7.875 c 0,1.45425 1.17075,2.625 2.625,2.625 l 8.75,0 c 1.45425,0 2.625,-1.17075 2.625,-2.625 l 0,-7.875 c 0,-1.45425 -1.17075,-2.49242 -2.625,-2.49242 z m 0.875,0.99242 7,0 c 2.00417,0.53702 1.9805,6.85657 0,8 l -7,0 c -2.31899,-1.57669 -1.58576,-7.08446 0,-8 z m 7.52285,11.04907 -1.0457,0 0,-1.04571 1.0457,0 z" />
    <path
       transform="translate(473.0004,-562)"
       style="color:#000000;fill:#bebebe;fill-opacity:1;stroke:none;stroke-width:1;marker:none;visibility:visible;display:inline;overflow:visible;enable-background:new"
       id="path27232"
       d="m 6,331 a 1,1 0 1 1 -2,0 1,1 0 1 1 2,0 z" />
    <path
       transform="translate(478.98871,-562)"
       style="color:#000000;fill:#bebebe;fill-opacity:1;stroke:none;stroke-width:1;marker:none;visibility:visible;display:inline;overflow:visible;enable-background:new"
       id="path27234"
       d="m 6,331 a 1,1 0 1 1 -2,0 1,1 0 1 1 2,0 z" />
    <path
       style="font-size:medium;font-style:normal;font-variant:normal;font-weight:normal;font-stretch:normal;text-indent:0;text-align:start;text-decoration:none;line-height:normal;letter-spacing:normal;word-spacing:normal;text-transform:none;direction:ltr;block-progression:tb;writing-mode:lr-tb;text-anchor:start;baseline-shift:baseline;color:#000000;fill:#bebebe;fill-opacity:1;stroke:none;stroke-width:1;marker:none;visibility:visible;display:inline;overflow:visible;enable-background:new;font-family:Sans;-inkscape-font-specification:Sans"
       id="path27236"
       d="m 478.34375,-231.34375 -0.6875,0.6875 2.46875,2.5 0.125,0.15625 0.21875,0 1.09375,0 0.21875,-0.0312 0.125,-0.125 2.4375,-2.5 -0.6875,-0.6875 -2.34375,2.34375 -0.65625,0 -2.3125,-2.34375 z" />
  </g>
  <g
     transform="translate(-473.0004,232)"
     id="layer11" />
  <g
     transform="translate(-473.0004,232)"
     style="display:inline"
     id="layer13" />
  <g
     transform="translate(-473.0004,232)"
     id="layer14" />
  <g
     transform="translate(-473.0004,232)"
     style="display:inline"
     id="layer15" />
  <g
     transform="translate(-473.0004,232)"
     style="display:inline"
     id="g71291" />
  <g
     transform="translate(-473.0004,232)"
     style="display:inline"
     id="g4953" />
  <g
     transform="translate(-473.0004,232)"
     style="display:inline"
     id="layer12" />
</svg>
