<?xml version="1.0" encoding="UTF-8" standalone="no"?>
<svg
   xmlns:dc="http://purl.org/dc/elements/1.1/"
   xmlns:cc="http://creativecommons.org/ns#"
   xmlns:rdf="http://www.w3.org/1999/02/22-rdf-syntax-ns#"
   xmlns:svg="http://www.w3.org/2000/svg"
   xmlns="http://www.w3.org/2000/svg"
   width="16"
   version="1.1"
   id="svg7384"
   height="16">
  <metadata
     id="metadata90">
    <rdf:RDF>
      <cc:Work
         rdf:about="">
        <dc:format>image/svg+xml</dc:format>
        <dc:type
           rdf:resource="http://purl.org/dc/dcmitype/StillImage" />
        <dc:title>elementary Symbolic Icon Theme</dc:title>
      </cc:Work>
    </rdf:RDF>
  </metadata>
  <title
     id="title9167">elementary Symbolic Icon Theme</title>
  <defs
     id="defs7386" />
  <g
     transform="translate(-493.00021,212)"
     style="display:inline"
     label="status"
     id="layer9" />
  <g
     transform="translate(-493.00021,212)"
     style="display:inline"
     id="layer10">
    <path
       style="font-size:medium;font-style:normal;font-variant:normal;font-weight:normal;font-stretch:normal;text-indent:0;text-align:start;text-decoration:none;line-height:normal;letter-spacing:normal;word-spacing:normal;text-transform:none;direction:ltr;block-progression:tb;writing-mode:lr-tb;text-anchor:start;baseline-shift:baseline;color:#bebebe;fill:#bebebe;fill-opacity:1;stroke:none;stroke-width:1.99999988;marker:none;visibility:visible;display:inline;overflow:visible;enable-background:accumulate;font-family:Sans;-inkscape-font-specification:Sans"
       id="rect27244"
       d="m 497.1877,-212 c -1.2016,0 -2.1875,0.98758 -2.1875,2.1875 l 0,11.625 c 0,1.19992 0.9859,2.1875 2.1875,2.1875 l 7.625,0 c 1.2016,0 2.1875,-0.98758 2.1875,-2.1875 l 0,-11.625 c 0,-1.19992 -0.9859,-2.1875 -2.1875,-2.1875 l -7.625,0 z m 0,2 7.625,0 c 0.1238,0 0.1875,0.0566 0.1875,0.1875 l 0,11.625 c 0,0.1309 -0.0637,0.1875 -0.1875,0.1875 l -7.625,0 c -0.1238,0 -0.1875,-0.0566 -0.1875,-0.1875 l 0,-11.625 c 0,-0.1309 0.0637,-0.1875 0.1875,-0.1875 z" />
    <path
       style="color:#000000;fill:#bebebe;fill-opacity:1;fill-rule:nonzero;stroke:none;stroke-width:1;marker:none;visibility:visible;display:inline;overflow:visible;enable-background:new"
       id="rect27278"
       d="m 498.0002,-209 0,1 1,0 0,-1 z m 2,0 0,1 3,0 1,0 0,-1 z m 3,1 -5,5.9375 3,0.0625 -2,4 5,-6 -3,0 z" />
  </g>
  <g
     transform="translate(-493.00021,212)"
     style="display:inline"
     id="layer13" />
  <g
     transform="translate(-493.00021,212)"
     id="layer14" />
  <g
     transform="translate(-493.00021,212)"
     style="display:inline"
     id="layer15" />
  <g
     transform="translate(-493.00021,212)"
     style="display:inline"
     id="g71291" />
  <g
     transform="translate(-493.00021,212)"
     style="display:inline"
     id="layer12" />
</svg>
