<?xml version="1.0" encoding="UTF-8" standalone="no"?>
<svg
   xmlns:dc="http://purl.org/dc/elements/1.1/"
   xmlns:cc="http://creativecommons.org/ns#"
   xmlns:rdf="http://www.w3.org/1999/02/22-rdf-syntax-ns#"
   xmlns:svg="http://www.w3.org/2000/svg"
   xmlns="http://www.w3.org/2000/svg"
   xmlns:xlink="http://www.w3.org/1999/xlink"
   id="svg4011"
   height="32"
   width="32"
   version="1.1">
  <defs
     id="defs4013">
    <linearGradient
       gradientTransform="matrix(0.56756757,0,0,0.72972971,2.378382,-2.5135061)"
       gradientUnits="userSpaceOnUse"
       xlink:href="#linearGradient3977"
       id="linearGradient3119"
       y2="43"
       x2="23.99999"
       y1="5.5641499"
       x1="23.99999" />
    <linearGradient
       id="linearGradient3977">
      <stop
         offset="0"
         style="stop-color:#ffffff;stop-opacity:1"
         id="stop3979" />
      <stop
         offset="0.03626217"
         style="stop-color:#ffffff;stop-opacity:0.23529412"
         id="stop3981" />
      <stop
         offset="0.95056331"
         style="stop-color:#ffffff;stop-opacity:0.15686275"
         id="stop3983" />
      <stop
         offset="1"
         style="stop-color:#ffffff;stop-opacity:0.39215687"
         id="stop3985" />
    </linearGradient>
    <radialGradient
       gradientTransform="matrix(-1.0624208e-7,4.3506752,-5.3177267,-1.3059556e-7,68.942118,-39.41615)"
       gradientUnits="userSpaceOnUse"
       xlink:href="#linearGradient2867-449-88-871-390-598-476-591-434-148-57-177-8-3-4"
       id="radialGradient3947"
       fy="9.9571075"
       fx="7.2758255"
       r="12.671875"
       cy="9.9571075"
       cx="7.8060555" />
    <linearGradient
       id="linearGradient2867-449-88-871-390-598-476-591-434-148-57-177-8-3-4">
      <stop
         offset="0"
         style="stop-color:#ffcd7d;stop-opacity:1"
         id="stop3750-1-0-7" />
      <stop
         offset="0.26238"
         style="stop-color:#fc8f36;stop-opacity:1"
         id="stop3752-3-7-6" />
      <stop
         offset="0.704952"
         style="stop-color:#e23a0e;stop-opacity:1"
         id="stop3754-1-8-5" />
      <stop
         offset="1"
         style="stop-color:#ac441f;stop-opacity:1"
         id="stop3756-1-6-6" />
    </linearGradient>
    <linearGradient
       gradientTransform="matrix(0.65714134,0,0,0.65900698,0.2286005,0.1720367)"
       gradientUnits="userSpaceOnUse"
       xlink:href="#linearGradient4039"
       id="linearGradient3949"
       y2="0.91790956"
       x2="25"
       y1="47.935162"
       x1="25" />
    <linearGradient
       id="linearGradient4039">
      <stop
         offset="0"
         style="stop-color:#ba3d12;stop-opacity:1"
         id="stop4041" />
      <stop
         offset="1"
         style="stop-color:#db6737;stop-opacity:1"
         id="stop4043" />
    </linearGradient>
    <radialGradient
       gradientTransform="matrix(0.01566318,0,0,0.00823529,17.610433,25.980565)"
       gradientUnits="userSpaceOnUse"
       xlink:href="#linearGradient5060"
       id="radialGradient3045"
       fy="486.64789"
       fx="605.71429"
       r="117.14286"
       cy="486.64789"
       cx="605.71429" />
    <linearGradient
       id="linearGradient5060">
      <stop
         offset="0"
         style="stop-color:#000000;stop-opacity:1"
         id="stop5062" />
      <stop
         offset="1"
         style="stop-color:#000000;stop-opacity:0"
         id="stop5064" />
    </linearGradient>
    <radialGradient
       gradientTransform="matrix(-0.01566318,0,0,0.00823529,14.389566,25.980565)"
       gradientUnits="userSpaceOnUse"
       xlink:href="#linearGradient5060"
       id="radialGradient3048"
       fy="486.64789"
       fx="605.71429"
       r="117.14286"
       cy="486.64789"
       cx="605.71429" />
    <linearGradient
       id="linearGradient5048">
      <stop
         offset="0"
         style="stop-color:#000000;stop-opacity:0"
         id="stop5050" />
      <stop
         offset="0.5"
         style="stop-color:#000000;stop-opacity:1"
         id="stop5056" />
      <stop
         offset="1"
         style="stop-color:#000000;stop-opacity:0"
         id="stop5052" />
    </linearGradient>
    <linearGradient
       gradientTransform="matrix(0.04576928,0,0,0.00823529,-0.5423243,25.980548)"
       gradientUnits="userSpaceOnUse"
       xlink:href="#linearGradient5048"
       id="linearGradient4009"
       y2="609.50507"
       x2="302.85715"
       y1="366.64789"
       x1="302.85715" />
  </defs>
  <metadata
     id="metadata4016">
    <rdf:RDF>
      <cc:Work
         rdf:about="">
        <dc:format>image/svg+xml</dc:format>
        <dc:type
           rdf:resource="http://purl.org/dc/dcmitype/StillImage" />
        <dc:title />
      </cc:Work>
    </rdf:RDF>
  </metadata>
  <g
     id="layer1">
    <rect
       style="opacity:0.15;fill:url(#linearGradient4009);fill-opacity:1;fill-rule:nonzero;stroke:none;stroke-width:1;marker:none;visibility:visible;display:inline;overflow:visible"
       id="rect2879"
       y="29"
       x="4.9499893"
       height="2"
       width="22.100021" />
    <path
       style="opacity:0.15;fill:url(#radialGradient3048);fill-opacity:1;fill-rule:nonzero;stroke:none;stroke-width:1;marker:none;visibility:visible;display:inline;overflow:visible"
       id="path2881"
       d="m 4.9499887,29.000086 c 0,0 0,1.99989 0,1.99989 -0.806615,0.0038 -1.950002,-0.448074 -1.950002,-1.000074 0,-0.552 0.900121,-0.999816 1.950002,-0.999816 z" />
    <path
       style="opacity:0.15;fill:url(#radialGradient3045);fill-opacity:1;fill-rule:nonzero;stroke:none;stroke-width:1;marker:none;visibility:visible;display:inline;overflow:visible"
       id="path2883"
       d="m 27.050011,29.000086 c 0,0 0,1.99989 0,1.99989 0.806614,0.0038 1.950002,-0.448074 1.950002,-1.000074 0,-0.552 -0.900122,-0.999816 -1.950002,-0.999816 z" />
    <path
       style="color:#000000;fill:url(#radialGradient3947);fill-opacity:1;fill-rule:nonzero;stroke:url(#linearGradient3949);stroke-width:1;stroke-linecap:butt;stroke-linejoin:round;stroke-miterlimit:4;stroke-opacity:1;stroke-dasharray:none;stroke-dashoffset:0;marker:none;visibility:visible;display:inline;overflow:visible;enable-background:accumulate"
       id="path4160"
       d="m 4.4999935,0.499998 c 5.270467,0 22.9999725,0.00185 22.9999725,0.00185 l 2.8e-5,28.998154 c 0,0 -15.333333,0 -23.0000005,0 0,-9.666667 0,-19.333334 0,-29 z" />
    <path
       style="opacity:0.5;fill:none;stroke:url(#linearGradient3119);stroke-width:0.99999994;stroke-linecap:round;stroke-linejoin:round;stroke-miterlimit:4;stroke-opacity:1;stroke-dasharray:none;stroke-dashoffset:0"
       id="rect6741-1"
       d="m 26.5,28.5 -21,0 0,-26.9999998 21,0 z" />
    <path
       style="color:#000000;fill:#ffffff;fill-opacity:1;fill-rule:nonzero;stroke:none;stroke-width:1;marker:none;visibility:visible;display:inline;overflow:visible;enable-background:accumulate"
       id="rect3029"
       d="m 19.616785,10.926829 c 0,-0.20577 0.03111,-0.375657 0.09332,-0.509663 0.06221,-0.138771 0.145958,-0.248839 0.251243,-0.330205 0.110067,-0.08613 0.236884,-0.145948 0.380454,-0.179459 0.14835,-0.03349 0.30388,-0.05024 0.466591,-0.05025 0.162708,1.1e-5 0.315845,0.01676 0.459415,0.05025 0.143565,0.03351 0.267989,0.09333 0.373274,0.179459 0.110065,0.08136 0.196206,0.191434 0.258421,0.330205 0.06699,0.134006 0.100494,0.303893 0.100497,0.509663 -3e-6,0.201004 -0.0335,0.370891 -0.100497,0.509663 -0.06221,0.138791 -0.148356,0.251252 -0.258421,0.337382 -0.105285,0.08136 -0.22971,0.141184 -0.373274,0.179459 -0.14357,0.03351 -0.296707,0.05026 -0.459415,0.05025 -0.162711,10e-6 -0.318241,-0.01674 -0.466591,-0.05025 -0.143569,-0.03827 -0.270387,-0.0981 -0.380454,-0.179459 -0.105285,-0.08613 -0.189031,-0.198591 -0.251243,-0.337382 -0.06221,-0.138772 -0.09332,-0.308659 -0.09332,-0.509663 m 2.148409,10.066171 -2,0.007 0,-7.992975 2,-0.01405 0,8.007025 m -5.457629,0 -0.717836,-2 -3.617891,0 -0.725013,2 L 9,21 l 3.409718,-10 2.720596,0 3.424076,10 -2.246825,0 m -1.234677,-4 c -0.43979,-1.805688 -0.925129,-2.864431 -1.307694,-4.5 -0.392262,1.714026 -0.879795,3.021523 -1.254981,4.5 l 2.562672,0" />
  </g>
</svg>
