<?xml version="1.0" encoding="UTF-8" standalone="no"?>
<svg
   xmlns:dc="http://purl.org/dc/elements/1.1/"
   xmlns:cc="http://creativecommons.org/ns#"
   xmlns:rdf="http://www.w3.org/1999/02/22-rdf-syntax-ns#"
   xmlns:svg="http://www.w3.org/2000/svg"
   xmlns="http://www.w3.org/2000/svg"
   xmlns:xlink="http://www.w3.org/1999/xlink"
   id="svg2440"
   height="24"
   width="24"
   version="1.0">
  <metadata
     id="metadata62">
    <rdf:RDF>
      <cc:Work
         rdf:about="">
        <dc:format>image/svg+xml</dc:format>
        <dc:type
           rdf:resource="http://purl.org/dc/dcmitype/StillImage" />
      </cc:Work>
    </rdf:RDF>
  </metadata>
  <defs
     id="defs2442">
    <linearGradient
       id="linearGradient3844-9-5-84">
      <stop
         offset="0"
         style="stop-color:#a6a6a6;stop-opacity:1"
         id="stop4693" />
      <stop
         offset="1"
         style="stop-color:#e8e8e8;stop-opacity:1"
         id="stop4695" />
    </linearGradient>
    <linearGradient
       id="linearGradient3858-1-3-594">
      <stop
         offset="0"
         style="stop-color:#a0a0a0;stop-opacity:1"
         id="stop4687" />
      <stop
         offset="1"
         style="stop-color:#646464;stop-opacity:1"
         id="stop4689" />
    </linearGradient>
    <linearGradient
       id="linearGradient2793-2-0-669">
      <stop
         offset="0"
         style="stop-color:#878787;stop-opacity:1"
         id="stop4681" />
      <stop
         offset="1"
         style="stop-color:#d9d9d9;stop-opacity:1"
         id="stop4683" />
    </linearGradient>
    <linearGradient
       id="linearGradient4126-65-434-2-3-659">
      <stop
         offset="0"
         style="stop-color:#000000;stop-opacity:1"
         id="stop4675" />
      <stop
         offset="1"
         style="stop-color:#000000;stop-opacity:0"
         id="stop4677" />
    </linearGradient>
    <linearGradient
       id="linearGradient3254-8-457">
      <stop
         offset="0"
         style="stop-color:#ffffff;stop-opacity:1"
         id="stop4669" />
      <stop
         offset="1"
         style="stop-color:#ffffff;stop-opacity:0"
         id="stop4671" />
    </linearGradient>
    <linearGradient
       id="linearGradient3254-3-182">
      <stop
         offset="0"
         style="stop-color:#ffffff;stop-opacity:1"
         id="stop4663" />
      <stop
         offset="1"
         style="stop-color:#ffffff;stop-opacity:0"
         id="stop4665" />
    </linearGradient>
    <linearGradient
       id="linearGradient3355-273">
      <stop
         offset="0"
         style="stop-color:#e1e1e1;stop-opacity:1"
         id="stop4657" />
      <stop
         offset="1"
         style="stop-color:#a6a6a6;stop-opacity:1"
         id="stop4659" />
    </linearGradient>
    <linearGradient
       id="linearGradient3844-342">
      <stop
         offset="0"
         style="stop-color:#a6a6a6;stop-opacity:1"
         id="stop4651" />
      <stop
         offset="1"
         style="stop-color:#e8e8e8;stop-opacity:1"
         id="stop4653" />
    </linearGradient>
    <linearGradient
       id="linearGradient2793-2-0-403">
      <stop
         offset="0"
         style="stop-color:#878787;stop-opacity:1"
         id="stop4645" />
      <stop
         offset="1"
         style="stop-color:#d9d9d9;stop-opacity:1"
         id="stop4647" />
    </linearGradient>
    <linearGradient
       id="linearGradient3578-995-735-4-566-885-385-488-812-692-100-298-982-943">
      <stop
         offset="0"
         style="stop-color:#115984;stop-opacity:1"
         id="stop4639" />
      <stop
         offset="1"
         style="stop-color:#5498c5;stop-opacity:1"
         id="stop4641" />
    </linearGradient>
    <linearGradient
       id="linearGradient3280-373">
      <stop
         offset="0"
         style="stop-color:#000000;stop-opacity:1"
         id="stop4633" />
      <stop
         offset="1"
         style="stop-color:#000000;stop-opacity:0"
         id="stop4635" />
    </linearGradient>
    <linearGradient
       gradientTransform="matrix(0.4075989,0,0,0.6785656,2.4214149,-5.3033374)"
       gradientUnits="userSpaceOnUse"
       xlink:href="#linearGradient3254-8-457"
       id="linearGradient2516"
       y2="39.850574"
       x2="23.5"
       y1="10.996204"
       x1="23.5" />
    <linearGradient
       gradientTransform="matrix(0.4,0,0,0.6814085,2.7999998,-5.4692878)"
       gradientUnits="userSpaceOnUse"
       xlink:href="#linearGradient3254-3-182"
       id="linearGradient2519"
       y2="34.173542"
       x2="17.125"
       y1="20.230709"
       x1="12.25" />
    <linearGradient
       gradientTransform="matrix(0.4403594,0,0,0.5010049,1.4359203,0.2434683)"
       gradientUnits="userSpaceOnUse"
       xlink:href="#linearGradient3844-342"
       id="linearGradient2522"
       y2="2"
       x2="17.242607"
       y1="11.001462"
       x1="17.242607" />
    <linearGradient
       gradientTransform="matrix(0.4403594,0,0,0.5010049,1.4359203,0.2434683)"
       gradientUnits="userSpaceOnUse"
       xlink:href="#linearGradient3355-273"
       id="linearGradient2524"
       y2="5.6033387"
       x2="23.999979"
       y1="9.3726854"
       x1="23.999979" />
    <linearGradient
       spreadMethod="reflect"
       gradientTransform="matrix(0.4583182,0,0,0.6637017,2.1461486,-5.4645623)"
       gradientUnits="userSpaceOnUse"
       xlink:href="#linearGradient2793-2-0-403"
       id="linearGradient2528"
       y2="19.125"
       x2="12.894042"
       y1="19.125"
       x1="21.55463" />
    <linearGradient
       spreadMethod="reflect"
       gradientTransform="matrix(0.4583292,0,0,0.5667032,2.1459219,-0.451626)"
       gradientUnits="userSpaceOnUse"
       xlink:href="#linearGradient3578-995-735-4-566-885-385-488-812-692-100-298-982-943"
       id="linearGradient2531"
       y2="28.375"
       x2="13.014573"
       y1="28.375"
       x1="21.51227" />
    <radialGradient
       gradientTransform="matrix(0.5848567,0,0,0.2506527,-0.483028,17.45953)"
       gradientUnits="userSpaceOnUse"
       xlink:href="#linearGradient3280-373"
       id="radialGradient2534"
       fy="14.125"
       fx="21.34375"
       r="11.96875"
       cy="14.125"
       cx="21.34375" />
    <linearGradient
       spreadMethod="reflect"
       gradientTransform="matrix(0.09959249,0,0,0.04876598,1.6478907,1.6592329)"
       gradientUnits="userSpaceOnUse"
       xlink:href="#linearGradient3844-9-5-84"
       id="linearGradient2724"
       y2="-24.582239"
       x2="102.30806"
       y1="-2.3925467"
       x1="102.30806" />
    <linearGradient
       gradientTransform="matrix(0.09959249,0,0,0.04876598,1.6478907,1.6592329)"
       gradientUnits="userSpaceOnUse"
       xlink:href="#linearGradient3844-9-5-84"
       id="linearGradient2726"
       y2="-2.3757858"
       x2="109.95628"
       y1="-24.91135"
       x1="109.95628" />
    <linearGradient
       spreadMethod="reflect"
       gradientTransform="matrix(0.09909102,0,0,0.09146798,1.6971541,4.7986665)"
       gradientUnits="userSpaceOnUse"
       xlink:href="#linearGradient2793-2-0-669"
       id="linearGradient2729"
       y2="-7.6656942"
       x2="89.423676"
       y1="-7.6656942"
       x1="103.95014" />
    <linearGradient
       gradientTransform="matrix(0.2164343,0,0,0.2115915,-8.381213,-1.2227236)"
       gradientUnits="userSpaceOnUse"
       xlink:href="#linearGradient3858-1-3-594"
       id="linearGradient2731"
       y2="27.54611"
       x2="89.01844"
       y1="22.536863"
       x1="89.01844" />
    <radialGradient
       gradientTransform="matrix(0.175,0,0,0.08147595,7.8250006,-1.0742239)"
       gradientUnits="userSpaceOnUse"
       xlink:href="#linearGradient4126-65-434-2-3-659"
       id="radialGradient2734"
       fy="40"
       fx="23.857143"
       r="17.142857"
       cy="40"
       cx="23.857143" />
  </defs>
  <g
     id="layer1">
    <path
       style="opacity:0.7;fill:url(#radialGradient2534);fill-opacity:1;fill-rule:nonzero;stroke:none;stroke-width:1;marker:none;visibility:visible;display:inline;overflow:visible"
       id="path3278"
       d="M 19,20.999999 C 19,22.656854 15.865993,24 12,24 8.1340068,24 5.0000002,22.656854 5.0000002,20.999999 5.0000002,19.343145 8.1340068,18 12,18 c 3.865993,0 7,1.343145 7,2.999999 z" />
    <path
       style="fill:url(#linearGradient2531);fill-opacity:1;fill-rule:nonzero;stroke:#2b719c;stroke-width:1;stroke-opacity:1;marker:none;visibility:visible;display:inline;overflow:visible"
       id="path2230"
       d="M 11.312506,5.4987585 C 8.6010392,5.6214601 6.5000498,6.4714819 6.5000498,7.4822198 l 0,13.0341742 c 0,1.094872 2.4639772,1.983463 5.4999502,1.983463 3.035972,0 5.49995,-0.888591 5.49995,-1.983463 l 0,-13.0341742 c 0,-1.0948719 -2.463977,-1.9834613 -5.49995,-1.9834613 -0.16603,0 -0.324676,-0.00521 -0.486975,0 -0.06575,0.0021 -0.135444,-0.00295 -0.200519,0 l 0,0 z" />
    <path
       style="fill:url(#linearGradient2528);fill-opacity:1;fill-rule:nonzero;stroke:none;stroke-width:1;marker:none;visibility:visible;display:inline;overflow:visible"
       id="path2232"
       d="M 11.513028,1.5043061 C 8.7076415,1.6096467 6.500173,2.6151136 6.500173,3.8272619 l 0,4.3140614 c 0,1.2822727 2.4639178,2.3229567 5.499817,2.3229557 3.035901,0 5.49982,-1.040683 5.49982,-2.3229557 l 0,-4.3140614 c 0,-1.282273 -2.463919,-2.3229558 -5.49982,-2.3229558 -0.166025,0 -0.324667,-0.00611 -0.486962,0 l 0,0 z" />
    <path
       style="fill:none;stroke:#9f9f9f;stroke-width:1;stroke-linecap:butt;stroke-linejoin:round;stroke-miterlimit:4;stroke-opacity:1;stroke-dasharray:none;stroke-dashoffset:0;marker:none;visibility:visible;display:inline;overflow:visible"
       id="path2219"
       d="m 6.5001714,3.7848197 0,4.8869214 m 10.9996366,0 0,-4.8869214" />
    <path
       style="fill:url(#linearGradient2522);fill-opacity:1;fill-rule:nonzero;stroke:url(#linearGradient2524);stroke-width:0.98388958;stroke-linecap:round;stroke-linejoin:round;stroke-miterlimit:4;stroke-opacity:1;stroke-dasharray:none;stroke-dashoffset:0;marker:none;visibility:visible;display:inline;overflow:visible"
       id="path3164"
       d="m 17.512591,3.5000001 c 0,1.1090183 -2.46604,2.0080551 -5.508055,2.0080551 -3.0420151,0 -5.5080556,-0.8990368 -5.5080556,-2.0080551 0,-1.1090185 2.4660405,-2.0080553 5.5080556,-2.0080553 3.042015,0 5.508055,0.8990368 5.508055,2.0080553 l 0,0 z" />
    <path
       style="opacity:0.2;fill:url(#linearGradient2519);fill-opacity:1;fill-rule:nonzero;stroke:none;stroke-width:1;marker:none;visibility:visible;display:inline;overflow:visible"
       id="rect3244"
       d="M 8,5 10,5.4332503 10,22 8,21.446354 8,5 8,5 z" />
    <path
       style="opacity:0.15;fill:none;stroke:url(#linearGradient2516);stroke-width:0.99999982;stroke-linecap:round;stroke-linejoin:round;stroke-miterlimit:4;stroke-opacity:1;stroke-dasharray:none;stroke-dashoffset:0;marker:none;visibility:visible;display:inline;overflow:visible"
       id="path2206"
       d="m 7.4999996,4.0031678 c 0,0.7754731 0,15.0236102 0,15.8004202 0,0.93642 2.0250482,1.696413 4.4999924,1.696413 2.474943,0 4.500007,-0.759993 4.500007,-1.696413 0,-0.718747 0,-15.0816727 0,-15.8004202 0,-0.7823671 -2.026387,-1.5158754 -4.500007,-1.503001 -2.473621,0.012874 -4.4999924,0.7242295 -4.4999924,1.503001 z" />
    <path
       style="opacity:0.2;fill:url(#radialGradient2734);fill-opacity:1;fill-rule:nonzero;stroke:none;stroke-width:2.47287893;marker:none;visibility:visible;display:block;overflow:visible"
       id="path9139"
       d="m 15,2.1848151 c 0,0.7713932 -1.343146,1.3967309 -3,1.3967309 -1.656854,0 -2.9999999,-0.6253377 -2.9999999,-1.3967309 0,-0.7713932 1.3431459,-1.39673098 2.9999999,-1.39673098 1.656854,0 3,0.62533778 3,1.39673098 l 0,0 z" />
    <path
       style="fill:url(#linearGradient2729);fill-opacity:1;stroke:url(#linearGradient2731);stroke-width:0.99999982;stroke-miterlimit:4;stroke-opacity:1;stroke-dasharray:none"
       id="path3878"
       d="m 14.484549,3.5621743 c 0,0.5176803 -1.11436,0.937826 -2.487409,0.937826 -1.373052,0 -2.4874128,-0.4201457 -2.4874128,-0.937826 0,-2.5232163 -0.3040295,-3.04205765 2.4874128,-3.06158072 2.85537,-0.0201503 2.487409,0.46220226 2.487409,3.06158072 z" />
    <path
       style="fill:url(#linearGradient2724);fill-opacity:1;stroke:url(#linearGradient2726);stroke-width:0.9999997;stroke-miterlimit:4;stroke-opacity:1;stroke-dasharray:none"
       id="path3880"
       d="m 14.5,0.99999983 c 0,0.27614247 -1.119288,0.50000047 -2.499999,0.50000047 -1.380713,0 -2.5000011,-0.223858 -2.5000011,-0.50000047 0,-0.27614185 1.1192881,-0.49999989 2.5000011,-0.49999989 1.380711,0 2.499999,0.22385804 2.499999,0.49999989 l 0,0 z" />
  </g>
</svg>
