<?xml version="1.0" encoding="UTF-8" standalone="no"?>
<svg
   xmlns:dc="http://purl.org/dc/elements/1.1/"
   xmlns:cc="http://creativecommons.org/ns#"
   xmlns:rdf="http://www.w3.org/1999/02/22-rdf-syntax-ns#"
   xmlns:svg="http://www.w3.org/2000/svg"
   xmlns="http://www.w3.org/2000/svg"
   width="16"
   version="1.1"
   id="svg7384"
   height="16">
  <metadata
     id="metadata90">
    <rdf:RDF>
      <cc:Work
         rdf:about="">
        <dc:format>image/svg+xml</dc:format>
        <dc:type
           rdf:resource="http://purl.org/dc/dcmitype/StillImage" />
        <dc:title>elementary Symbolic Icon Theme</dc:title>
      </cc:Work>
    </rdf:RDF>
  </metadata>
  <title
     id="title9167">elementary Symbolic Icon Theme</title>
  <defs
     id="defs7386" />
  <g
     transform="translate(-733.0004,398)"
     style="display:inline"
     id="layer9" />
  <g
     transform="translate(-733.0004,398)"
     style="display:inline"
     id="layer10" />
  <g
     transform="translate(-733.0004,398)"
     id="layer11" />
  <g
     transform="translate(-733.0004,398)"
     style="display:inline"
     id="layer13" />
  <g
     transform="translate(-733.0004,398)"
     id="layer14" />
  <g
     transform="translate(-733.0004,398)"
     style="display:inline"
     id="layer15">
    <path
       style="fill:#bebebe;fill-opacity:1;fill-rule:evenodd;stroke:none;display:inline"
       id="path74"
       d="m 741.03602,-396.99998 c -3.83886,0 -6.94167,3.1349 -6.94167,7 0,3.8651 3.10281,7 6.94167,7 3.83885,0 6.97083,-3.1349 6.97083,-7 0,-0.38885 -0.0561,-0.76591 -0.11667,-1.1375 l -6.43347,5.76353 -4.05327,-4.05506 2.12561,-2.08587 1.92855,2.05936 5.06175,-4.86113 c -1.27228,-1.63682 -3.25894,-2.68333 -5.48333,-2.68333 z" />
  </g>
  <g
     transform="translate(-733.0004,398)"
     style="display:inline"
     id="g71291" />
  <g
     transform="translate(-733.0004,398)"
     style="display:inline"
     id="g4953" />
  <g
     transform="translate(-733.0004,398)"
     style="display:inline"
     id="layer12" />
</svg>
