<?xml version="1.0" encoding="UTF-8" standalone="no"?>
<svg
   xmlns:dc="http://purl.org/dc/elements/1.1/"
   xmlns:cc="http://creativecommons.org/ns#"
   xmlns:rdf="http://www.w3.org/1999/02/22-rdf-syntax-ns#"
   xmlns:svg="http://www.w3.org/2000/svg"
   xmlns="http://www.w3.org/2000/svg"
   width="16"
   version="1.1"
   id="svg7384"
   height="16">
  <metadata
     id="metadata90">
    <rdf:RDF>
      <cc:Work
         rdf:about="">
        <dc:format>image/svg+xml</dc:format>
        <dc:type
           rdf:resource="http://purl.org/dc/dcmitype/StillImage" />
        <dc:title>elementary Symbolic Icon Theme</dc:title>
      </cc:Work>
    </rdf:RDF>
  </metadata>
  <title
     id="title9167">elementary Symbolic Icon Theme</title>
  <defs
     id="defs7386" />
  <g
     transform="translate(-753.00043,398)"
     style="display:inline"
     id="layer9" />
  <g
     transform="translate(-753.00043,398)"
     style="display:inline"
     id="layer10" />
  <g
     transform="translate(-753.00043,398)"
     style="display:inline"
     id="layer13" />
  <g
     transform="translate(-753.00043,398)"
     id="layer14" />
  <g
     transform="translate(-753.00043,398)"
     style="display:inline"
     id="layer15">
    <path
       style="color:#000000;fill:#bebebe;fill-opacity:1;fill-rule:nonzero;stroke:none;stroke-width:1;marker:none;visibility:visible;display:block;overflow:visible;enable-background:new"
       id="path3809"
       d="m 761.00045,-396 c -2.97562,0 -5.43327,2.15859 -5.90625,5 l 2.0625,0 c 0.44467,-1.72431 1.98056,-3 3.84375,-3 1.10807,0 2.09664,0.45908 2.8125,1.1875 l -1.8125,1.8125 2.84375,0 2.0625,0 0.0937,0 0,-5 -1.75,1.75 c -1.08259,-1.0846 -2.59239,-1.75 -4.25,-1.75 z m -6,7 0,5 1.75,-1.75 c 1.08259,1.0846 2.59239,1.75 4.25,1.75 2.97562,0 5.43327,-2.15859 5.90625,-5 l -2.0625,0 c -0.44467,1.72431 -1.98056,3 -3.84375,3 -1.10807,0 -2.09664,-0.45908 -2.8125,-1.1875 l 1.8125,-1.8125 -2.84375,0 -2.0625,0 -0.0937,0 z" />
  </g>
  <g
     transform="translate(-753.00043,398)"
     style="display:inline"
     id="g71291" />
  <g
     transform="translate(-753.00043,398)"
     style="display:inline"
     id="g4953" />
  <g
     transform="translate(-753.00043,398)"
     style="display:inline"
     id="layer12" />
</svg>
