<?xml version="1.0" encoding="UTF-8" standalone="no"?>
<svg
   xmlns:dc="http://purl.org/dc/elements/1.1/"
   xmlns:cc="http://creativecommons.org/ns#"
   xmlns:rdf="http://www.w3.org/1999/02/22-rdf-syntax-ns#"
   xmlns:svg="http://www.w3.org/2000/svg"
   xmlns="http://www.w3.org/2000/svg"
   width="16"
   version="1.1"
   id="svg7384"
   height="16">
  <metadata
     id="metadata90">
    <rdf:RDF>
      <cc:Work
         rdf:about="">
        <dc:format>image/svg+xml</dc:format>
        <dc:type
           rdf:resource="http://purl.org/dc/dcmitype/StillImage" />
        <dc:title>elementary Symbolic Icon Theme</dc:title>
      </cc:Work>
    </rdf:RDF>
  </metadata>
  <title
     id="title9167">elementary Symbolic Icon Theme</title>
  <defs
     id="defs7386" />
  <g
     transform="translate(-713.0004,398)"
     style="display:inline"
     id="layer9" />
  <g
     transform="translate(-713.0004,398)"
     style="display:inline"
     id="layer10" />
  <g
     transform="translate(-713.0004,398)"
     id="layer11" />
  <g
     transform="translate(-713.0004,398)"
     style="display:inline"
     id="layer13" />
  <g
     transform="translate(-713.0004,398)"
     id="layer14" />
  <g
     transform="translate(-713.0004,398)"
     style="display:inline"
     id="layer15">
    <path
       style="fill:#bebebe;fill-opacity:1;stroke:none"
       id="path35543"
       d="m 721.0004,-397 c -3.86599,0 -7,3.13401 -7,7 0,3.86599 3.13401,7 7,7 3.86599,0 7,-3.13401 7,-7 0,-3.86599 -3.13401,-7 -7,-7 z m -0.0937,1.96875 A 1.0001,1.0001 0 0 1 722.0004,-394 l 0,5 a 1.0001,1.0001 0 1 1 -2,0 l 0,-5 a 1.0001,1.0001 0 0 1 0.78125,-1 1.0001,1.0001 0 0 1 0.125,-0.0313 z M 721.0004,-387 c 0.55228,0 1,0.44772 1,1 0,0.55228 -0.44772,1 -1,1 -0.55228,0 -1,-0.44772 -1,-1 0,-0.55228 0.44772,-1 1,-1 z" />
  </g>
  <g
     transform="translate(-713.0004,398)"
     style="display:inline"
     id="g71291" />
  <g
     transform="translate(-713.0004,398)"
     style="display:inline"
     id="g4953" />
  <g
     transform="translate(-713.0004,398)"
     style="display:inline"
     id="layer12" />
</svg>
