<?xml version="1.0" encoding="UTF-8" standalone="no"?>
<svg
   xmlns:dc="http://purl.org/dc/elements/1.1/"
   xmlns:cc="http://creativecommons.org/ns#"
   xmlns:rdf="http://www.w3.org/1999/02/22-rdf-syntax-ns#"
   xmlns:svg="http://www.w3.org/2000/svg"
   xmlns="http://www.w3.org/2000/svg"
   width="16"
   version="1.1"
   id="svg7384"
   height="16">
  <metadata
     id="metadata90">
    <rdf:RDF>
      <cc:Work
         rdf:about="">
        <dc:format>image/svg+xml</dc:format>
        <dc:type
           rdf:resource="http://purl.org/dc/dcmitype/StillImage" />
        <dc:title>elementary Symbolic Icon Theme</dc:title>
      </cc:Work>
    </rdf:RDF>
  </metadata>
  <title
     id="title9167">elementary Symbolic Icon Theme</title>
  <defs
     id="defs7386" />
  <g
     transform="translate(-813.0002,477.99988)"
     style="display:inline"
     id="layer9" />
  <g
     transform="translate(-813.0002,477.99988)"
     style="display:inline"
     id="layer10" />
  <g
     transform="translate(-813.0002,477.99988)"
     id="layer11" />
  <g
     transform="translate(-813.0002,477.99988)"
     style="display:inline"
     id="layer13" />
  <g
     transform="translate(-813.0002,477.99988)"
     id="layer14">
    <path
       transform="matrix(1.0000007,0,0,0.61803426,493.93767,-526.06521)"
       style="color:#000000;fill:#bebebe;fill-opacity:1;fill-rule:nonzero;stroke:none;stroke-width:1.69602728;marker:none;visibility:visible;display:inline;overflow:visible;enable-background:new"
       id="path4983"
       d="m 325.0625,97.1875 a 2,3.236068 0 1 1 -4,0 2,3.236068 0 1 1 4,0 z" />
    <path
       style="color:#000000;fill:#bebebe;fill-opacity:1;fill-rule:nonzero;stroke:none;stroke-width:1.33333492;marker:none;visibility:visible;display:inline;overflow:visible;enable-background:new"
       id="path5814"
       d="m 815.0004,-476 0,1 c 0,0.55016 0.45347,1 1,1 4.97056,0 9,4.02944 9,9 0,0.55016 0.45347,1 1,1 l 1,0 0,-1 c 0,-6.07513 -4.92487,-11 -11,-11 l -1,0 z m 0,4 0,1 c 0,0.55016 0.45347,1 1,1 2.76143,0 5,2.23857 5,5 0,0.55016 0.45347,1 1,1 l 1,0 0,-1 c 0,-3.866 -3.134,-7 -7,-7 l -1,0 z" />
  </g>
  <g
     transform="translate(-813.0002,477.99988)"
     style="display:inline"
     id="layer15" />
  <g
     transform="translate(-813.0002,477.99988)"
     style="display:inline"
     id="g71291" />
  <g
     transform="translate(-813.0002,477.99988)"
     style="display:inline"
     id="g4953" />
  <g
     transform="translate(-813.0002,477.99988)"
     style="display:inline"
     id="layer12" />
</svg>
