<?xml version="1.0" encoding="UTF-8" standalone="no"?>
<svg
   xmlns:dc="http://purl.org/dc/elements/1.1/"
   xmlns:cc="http://creativecommons.org/ns#"
   xmlns:rdf="http://www.w3.org/1999/02/22-rdf-syntax-ns#"
   xmlns:svg="http://www.w3.org/2000/svg"
   xmlns="http://www.w3.org/2000/svg"
   width="15.999999"
   version="1.1"
   id="svg7384"
   height="16">
  <metadata
     id="metadata90">
    <rdf:RDF>
      <cc:Work
         rdf:about="">
        <dc:format>image/svg+xml</dc:format>
        <dc:type
           rdf:resource="http://purl.org/dc/dcmitype/StillImage" />
        <dc:title>elementary Symbolic Icon Theme</dc:title>
      </cc:Work>
    </rdf:RDF>
  </metadata>
  <title
     id="title9167">elementary Symbolic Icon Theme</title>
  <defs
     id="defs7386" />
  <g
     transform="translate(-753.0004,478)"
     style="display:inline"
     label="status"
     id="layer9" />
  <g
     transform="translate(-753.0004,478)"
     style="display:inline"
     id="layer10" />
  <g
     transform="translate(-753.0004,478)"
     style="display:inline"
     id="layer13" />
  <g
     transform="translate(-753.0004,478)"
     id="layer14">
    <path
       style="font-size:medium;font-style:normal;font-variant:normal;font-weight:normal;font-stretch:normal;text-indent:0;text-align:start;text-decoration:none;line-height:normal;letter-spacing:normal;word-spacing:normal;text-transform:none;direction:ltr;block-progression:tb;writing-mode:lr-tb;text-anchor:start;baseline-shift:baseline;color:#000000;fill:#bebebe;fill-opacity:1;stroke:none;stroke-width:1.99999988;marker:none;visibility:visible;display:inline;overflow:visible;enable-background:accumulate;font-family:Sans;-inkscape-font-specification:Sans"
       id="path1234-2"
       d="m 755.0002,-476 c -0.52358,5e-5 -0.99995,0.47642 -1,1 l 0,10 c 5e-5,0.52358 0.47642,0.99995 1,1 l 3,0 0,-1 -3,0 0,-10 13,0 0,10 -2,0 0,1 2,0 c 0.51929,0 1,-0.43513 1,-1 l 0,-10 c 7.5e-4,-0.46663 -0.43709,-1.00022 -1,-1 l -13,0 z" />
    <path
       style="fill:#bebebe;fill-opacity:1;fill-rule:nonzero;stroke:none"
       id="path4136-5"
       d="m 764.99959,-469.93709 a 3,3 0 0 1 -5.99868,0 3,3 0 1 1 5.99868,0 z" />
    <path
       style="fill:#bebebe;fill-opacity:1;fill-rule:evenodd;stroke:none"
       id="path3655-4-1"
       d="m 761.00057,-469 -2.00025,7 1,0 2.00018,-2 1.99983,2 0.99999,0 -1.99987,-7" />
  </g>
  <g
     transform="translate(-753.0004,478)"
     style="display:inline"
     id="layer15" />
  <g
     transform="translate(-753.0004,478)"
     style="display:inline"
     id="g71291" />
  <g
     transform="translate(-753.0004,478)"
     style="display:inline"
     id="g4953" />
  <g
     transform="translate(-753.0004,478)"
     style="display:inline"
     id="layer12" />
</svg>
