<?xml version="1.0" encoding="UTF-8" standalone="no"?>
<svg
   xmlns:dc="http://purl.org/dc/elements/1.1/"
   xmlns:cc="http://creativecommons.org/ns#"
   xmlns:rdf="http://www.w3.org/1999/02/22-rdf-syntax-ns#"
   xmlns:svg="http://www.w3.org/2000/svg"
   xmlns="http://www.w3.org/2000/svg"
   width="16"
   version="1.1"
   id="svg7384"
   height="16">
  <metadata
     id="metadata90">
    <rdf:RDF>
      <cc:Work
         rdf:about="">
        <dc:format>image/svg+xml</dc:format>
        <dc:type
           rdf:resource="http://purl.org/dc/dcmitype/StillImage" />
        <dc:title>elementary Symbolic Icon Theme</dc:title>
      </cc:Work>
    </rdf:RDF>
  </metadata>
  <title
     id="title9167">elementary Symbolic Icon Theme</title>
  <defs
     id="defs7386" />
  <g
     transform="translate(-733.00018,458)"
     style="display:inline"
     label="status"
     id="layer9" />
  <g
     transform="translate(-733.00018,458)"
     style="display:inline"
     id="layer10" />
  <g
     transform="translate(-733.00018,458)"
     style="display:inline"
     id="layer13" />
  <g
     transform="translate(-733.00018,458)"
     id="layer14">
    <path
       style="color:#bebebe;fill:#bebebe;fill-opacity:1;fill-rule:nonzero;stroke:none;stroke-width:1;marker:none;visibility:visible;display:inline;overflow:visible;enable-background:accumulate"
       id="path13823"
       d="m 736.00018,-458 c -0.554,0 -1,0.446 -1,1 l 0,14 c 0,0.554 0.446,1 1,1 l 10,0 c 0.554,0 1,-0.446 1,-1 l 0,-10 c 0,-0.554 -4.446,-5 -5,-5 z m 0.5,1 5.5,0 0,4 4,0 0,9.5 c 0,0.277 -0.223,0.5 -0.5,0.5 l -9,0 c -0.277,0 -0.5,-0.223 -0.5,-0.5 l 0,-13 c 0,-0.277 0.223,-0.5 0.5,-0.5 z" />
    <path
       style="color:#000000;fill:#bebebe;fill-opacity:1;fill-rule:nonzero;stroke:none;stroke-width:1;marker:none;visibility:visible;display:inline;overflow:visible;enable-background:accumulate"
       id="rect35768"
       d="m 737.0002,-455 0,1 1,0 0,-1 -1,0 z m 2,0 0,1 1,0 0,-1 -1,0 z m -2,2 0,1 1,0 0,-1 -1,0 z m 2,0 0,1 1,0 0,-1 -1,0 z m -2,6 0,1 1,0 0,-1 -1,0 z m 2,0 0,1 1,0 0,-1 -1,0 z m 2,0 0,1 1,0 0,-1 -1,0 z m 2,0 0,1 1,0 0,-1 -1,0 z m -6,2 0,1 1,0 0,-1 -1,0 z m 2,0 0,1 1,0 0,-1 -1,0 z m 2,0 0,1 1,0 0,-1 -1,0 z m 2,0 0,1 1,0 0,-1 -1,0 z" />
    <path
       style="color:#000000;fill:#bebebe;fill-opacity:1;fill-rule:nonzero;stroke:none;stroke-width:1;marker:none;visibility:visible;display:inline;overflow:visible;enable-background:accumulate"
       id="path35786"
       d="m 737.0003,-447.98874 6.99992,0 0,-1.01126 -1.71352,-2.55124 -1.78644,2.04687 -1.71352,-1.0625 L 737.0003,-449 z" />
  </g>
  <g
     transform="translate(-733.00018,458)"
     style="display:inline"
     id="layer15" />
  <g
     transform="translate(-733.00018,458)"
     style="display:inline"
     id="g71291" />
  <g
     transform="translate(-733.00018,458)"
     style="display:inline"
     id="g4953" />
  <g
     transform="translate(-733.00018,458)"
     style="display:inline"
     id="layer12" />
</svg>
