<?xml version="1.0" encoding="UTF-8" standalone="no"?>
<svg
   xmlns:dc="http://purl.org/dc/elements/1.1/"
   xmlns:cc="http://creativecommons.org/ns#"
   xmlns:rdf="http://www.w3.org/1999/02/22-rdf-syntax-ns#"
   xmlns:svg="http://www.w3.org/2000/svg"
   xmlns="http://www.w3.org/2000/svg"
   width="16"
   version="1.1"
   id="svg7384"
   height="16">
  <metadata
     id="metadata90">
    <rdf:RDF>
      <cc:Work
         rdf:about="">
        <dc:format>image/svg+xml</dc:format>
        <dc:type
           rdf:resource="http://purl.org/dc/dcmitype/StillImage" />
        <dc:title>elementary Symbolic Icon Theme</dc:title>
      </cc:Work>
    </rdf:RDF>
  </metadata>
  <title
     id="title9167">elementary Symbolic Icon Theme</title>
  <defs
     id="defs7386" />
  <g
     transform="translate(-793.0004,478)"
     style="display:inline"
     id="layer9" />
  <g
     transform="translate(-793.0004,478)"
     style="display:inline"
     id="layer10" />
  <g
     transform="translate(-793.0004,478)"
     id="layer11" />
  <g
     transform="translate(-793.0004,478)"
     style="display:inline"
     id="layer13" />
  <g
     transform="translate(-793.0004,478)"
     id="layer14">
    <path
       style="font-size:medium;font-style:normal;font-variant:normal;font-weight:normal;font-stretch:normal;text-indent:0;text-align:start;text-decoration:none;line-height:normal;letter-spacing:normal;word-spacing:normal;text-transform:none;direction:ltr;block-progression:tb;writing-mode:lr-tb;text-anchor:start;baseline-shift:baseline;color:#000000;fill:#bebebe;fill-opacity:1;stroke:none;stroke-width:2;marker:none;visibility:visible;display:inline;overflow:visible;enable-background:new;font-family:Sans;-inkscape-font-specification:Sans"
       id="rect27790"
       d="m 795.0004,-478 c -1.05237,0 -2,0.84508 -2,1.9375 l 0,11.125 c 0,1.09242 0.94763,1.9375 2,1.9375 l 11,0 c 1.05237,0 2,-0.84508 2,-1.9375 l 0,-11.125 c 0,-1.09242 -0.94763,-1.9375 -2,-1.9375 l -11,0 z m 0,5 3.03125,0 0,2 -3.03125,0 0,-2 z m 4.03125,0 2.96875,0 0,2 -2.96875,0 0,-2 z m 3.96875,0 3,0 0,2 -3,0 0,-2 z m -8,3 3.03125,0 0,2 -3.03125,0 0,-2 z m 4.03125,0 2.96875,0 0,2 -2.96875,0 0,-2 z m 3.96875,0 3,0 0,2 -3,0 0,-2 z m -8,3 3.03125,0 0,2 -3.03125,0 0,-2 z m 4.03125,0 2.96875,0 0,2 -2.96875,0 0,-2 z m 3.96875,0 3,0 0,2 -3,0 0,-2 z" />
    <rect
       y="-470"
       x="803.00043"
       width="2.9999993"
       style="opacity:0.35;color:#000000;fill:#bebebe;fill-opacity:1;stroke:none;stroke-width:1;marker:none;visibility:visible;display:inline;overflow:visible;enable-background:accumulate"
       id="rect27810"
       height="1.9999993" />
  </g>
  <g
     transform="translate(-793.0004,478)"
     style="display:inline"
     id="layer15" />
  <g
     transform="translate(-793.0004,478)"
     style="display:inline"
     id="g71291" />
  <g
     transform="translate(-793.0004,478)"
     style="display:inline"
     id="g4953" />
  <g
     transform="translate(-793.0004,478)"
     style="display:inline"
     id="layer12" />
</svg>
