<?xml version="1.0" encoding="UTF-8" standalone="no"?>
<svg
   xmlns:dc="http://purl.org/dc/elements/1.1/"
   xmlns:cc="http://creativecommons.org/ns#"
   xmlns:rdf="http://www.w3.org/1999/02/22-rdf-syntax-ns#"
   xmlns:svg="http://www.w3.org/2000/svg"
   xmlns="http://www.w3.org/2000/svg"
   xmlns:xlink="http://www.w3.org/1999/xlink"
   id="svg3085"
   height="24"
   width="24"
   version="1.1">
  <defs
     id="defs3087">
    <linearGradient
       gradientTransform="matrix(0.48571482,0,0,0.477213,-0.305596,-8.326798)"
       gradientUnits="userSpaceOnUse"
       xlink:href="#linearGradient3104-5"
       id="linearGradient3031"
       y2="3.3638515"
       x2="22.004084"
       y1="47.813133"
       x1="22.004084" />
    <linearGradient
       id="linearGradient3104-5">
      <stop
         offset="0"
         style="stop-color:#aaaaaa;stop-opacity:1"
         id="stop3106-2" />
      <stop
         offset="1"
         style="stop-color:#c8c8c8;stop-opacity:1"
         id="stop3108-5" />
    </linearGradient>
    <linearGradient
       gradientTransform="matrix(0.40540511,0,0,0.51351351,2.2696871,-8.3243195)"
       gradientUnits="userSpaceOnUse"
       xlink:href="#linearGradient3977"
       id="linearGradient3013"
       y2="43"
       x2="23.99999"
       y1="5.5641499"
       x1="23.99999" />
    <linearGradient
       id="linearGradient3977">
      <stop
         offset="0"
         style="stop-color:#ffffff;stop-opacity:1"
         id="stop3979" />
      <stop
         offset="0.03626217"
         style="stop-color:#ffffff;stop-opacity:0.23529412"
         id="stop3981" />
      <stop
         offset="0.95056331"
         style="stop-color:#ffffff;stop-opacity:0.15686275"
         id="stop3983" />
      <stop
         offset="1"
         style="stop-color:#ffffff;stop-opacity:0.39215687"
         id="stop3985" />
    </linearGradient>
    <linearGradient
       gradientTransform="matrix(0.48571543,0,0,0.45629666,0.3428289,-7.6511383)"
       gradientUnits="userSpaceOnUse"
       xlink:href="#linearGradient3600-4"
       id="linearGradient3016"
       y2="47.013336"
       x2="25.132275"
       y1="0.98520643"
       x1="25.132275" />
    <linearGradient
       id="linearGradient3600-4">
      <stop
         offset="0"
         style="stop-color:#f4f4f4;stop-opacity:1"
         id="stop3602-7" />
      <stop
         offset="1"
         style="stop-color:#dbdbdb;stop-opacity:1"
         id="stop3604-6" />
    </linearGradient>
    <radialGradient
       gradientTransform="matrix(0.01204859,0,0,0.0082353,13.238793,10.980564)"
       gradientUnits="userSpaceOnUse"
       xlink:href="#linearGradient5060"
       id="radialGradient3021"
       fy="486.64789"
       fx="605.71429"
       r="117.14286"
       cy="486.64789"
       cx="605.71429" />
    <linearGradient
       id="linearGradient5060">
      <stop
         offset="0"
         style="stop-color:#000000;stop-opacity:1"
         id="stop5062" />
      <stop
         offset="1"
         style="stop-color:#000000;stop-opacity:0"
         id="stop5064" />
    </linearGradient>
    <radialGradient
       gradientTransform="matrix(-0.01204859,0,0,0.0082353,10.761206,10.980564)"
       gradientUnits="userSpaceOnUse"
       xlink:href="#linearGradient5060"
       id="radialGradient3024"
       fy="486.64789"
       fx="605.71429"
       r="117.14286"
       cy="486.64789"
       cx="605.71429" />
    <linearGradient
       id="linearGradient5048">
      <stop
         offset="0"
         style="stop-color:#000000;stop-opacity:0"
         id="stop5050" />
      <stop
         offset="0.5"
         style="stop-color:#000000;stop-opacity:1"
         id="stop5056" />
      <stop
         offset="1"
         style="stop-color:#000000;stop-opacity:0"
         id="stop5052" />
    </linearGradient>
    <linearGradient
       gradientTransform="matrix(0.0352071,0,0,0.0082353,-0.724852,10.980547)"
       gradientUnits="userSpaceOnUse"
       xlink:href="#linearGradient5048"
       id="linearGradient3083"
       y2="609.50507"
       x2="302.85715"
       y1="366.64789"
       x1="302.85715" />
    <linearGradient
       gradientTransform="matrix(0.78298232,0,0,0.78095643,-136.09264,-15.739386)"
       gradientUnits="userSpaceOnUse"
       xlink:href="#linearGradient3985-6-635-120-628-965"
       id="linearGradient3035"
       y2="24.519934"
       x2="182"
       y1="33"
       x1="182" />
    <linearGradient
       id="linearGradient3985-6-635-120-628-965">
      <stop
         offset="0"
         style="stop-color:#ffffff;stop-opacity:1"
         id="stop7116" />
      <stop
         offset="1"
         style="stop-color:#ffffff;stop-opacity:0"
         id="stop7118" />
    </linearGradient>
    <linearGradient
       gradientTransform="matrix(0.72378979,0,0,0.72378991,-125.19431,-14.257582)"
       gradientUnits="userSpaceOnUse"
       xlink:href="#linearGradient3985-746-156-539-972"
       id="linearGradient3038"
       y2="36.026299"
       x2="188"
       y1="17"
       x1="188" />
    <linearGradient
       id="linearGradient3985-746-156-539-972">
      <stop
         offset="0"
         style="stop-color:#ffffff;stop-opacity:1"
         id="stop7110" />
      <stop
         offset="1"
         style="stop-color:#ffffff;stop-opacity:0"
         id="stop7112" />
    </linearGradient>
  </defs>
  <metadata
     id="metadata3090">
    <rdf:RDF>
      <cc:Work
         rdf:about="">
        <dc:format>image/svg+xml</dc:format>
        <dc:type
           rdf:resource="http://purl.org/dc/dcmitype/StillImage" />
        <dc:title />
      </cc:Work>
    </rdf:RDF>
  </metadata>
  <g
     id="layer1"
     transform="translate(0,8)">
    <rect
       style="opacity:0.15;fill:url(#linearGradient3083);fill-opacity:1;fill-rule:nonzero;stroke:none;stroke-width:1;marker:none;visibility:visible;display:inline;overflow:visible"
       id="rect2879"
       y="14"
       x="3.5000007"
       height="2"
       width="16.999998" />
    <path
       style="opacity:0.15;fill:url(#radialGradient3024);fill-opacity:1;fill-rule:nonzero;stroke:none;stroke-width:1;marker:none;visibility:visible;display:inline;overflow:visible"
       id="path2881"
       d="m 3.4999999,14.000085 c 0,0 0,1.999891 0,1.999891 C 2.8795275,16.003776 2,15.551901 2,14.999901 2,14.447902 2.6924,14.000085 3.4999999,14.000085 z" />
    <path
       style="opacity:0.15;fill:url(#radialGradient3021);fill-opacity:1;fill-rule:nonzero;stroke:none;stroke-width:1;marker:none;visibility:visible;display:inline;overflow:visible"
       id="path2883"
       d="m 20.5,14.000085 c 0,0 0,1.999891 0,1.999891 0.620472,0.0038 1.5,-0.448075 1.5,-1.000075 0,-0.551999 -0.692402,-0.999816 -1.5,-0.999816 z" />
    <path
       style="fill:url(#linearGradient3016);fill-opacity:1;stroke:none;display:inline"
       id="path4160-3"
       d="m 3.4999601,-6.5000431 c 3.8955809,0 17.0000589,0.00136 17.0000589,0.00136 l 2.1e-5,20.9987161 c 0,0 -11.3333862,0 -17.0000799,0 0,-7.000018 0,-14.000035 0,-21.0000538 z" />
    <path
       style="fill:none;stroke:url(#linearGradient3013);stroke-width:1;stroke-linecap:round;stroke-linejoin:miter;stroke-miterlimit:4;stroke-opacity:1;stroke-dasharray:none;stroke-dashoffset:0"
       id="rect6741-1"
       d="m 19.5,13.5 -15.0000004,0 0,-19 L 19.5,-5.5 z" />
    <path
       style="opacity:0.3;fill:none;stroke:#000000;stroke-width:0.99992186;stroke-linecap:butt;stroke-linejoin:round;stroke-miterlimit:4;stroke-opacity:1;stroke-dasharray:none;stroke-dashoffset:0;display:inline"
       id="path4160-3-1"
       d="m 3.4999601,-6.5000431 c 3.8955809,0 17.0000589,0.00136 17.0000589,0.00136 l 2.1e-5,20.9987161 c 0,0 -11.3333862,0 -17.0000799,0 0,-7.000018 0,-14.000035 0,-21.0000538 z" />
    <path
       style="fill:none;stroke:url(#linearGradient3031);stroke-width:1px;stroke-linecap:butt;stroke-linejoin:miter;stroke-opacity:1"
       id="path3475"
       d="m 6,-2.5 1.138394,0 z m 1.305359,0 1.062501,0 z m 1.229466,0 0.941072,0 z m 1.092858,0 0.409822,0 z m 0.576786,0 0.910715,0 z m 1.092859,0 2.398216,0 z m 2.550002,0 1.83661,0 z m 1.988395,0 0.561608,0 z M 6,-1.5 l 1.775895,0 z m 1.973217,0 0.850001,0 z m 1.001787,0 0.425,0 z m 0.591965,0 0.774108,0 z m 0.941072,0 0.789287,0 z m 0.941072,0 1.259823,0 z m 1.426788,0 1.639287,0 z m 1.791073,0 1.092858,0 z m 1.244644,0 0.273215,0 z M 6,-0.5074564 l 1.502681,0 z m 1.654466,0 2.458932,0 z m 2.610718,0 1.199108,0 z m 1.350894,0 1.123215,0 z m 1.275001,0 0.956251,0 z m 1.108037,0 1.50268,0.014913 z m 1.639288,0.014913 2.443752,0 z M 6,0.5 l 2.079467,0 z m 2.246431,0 2.246431,0 z m 2.398217,0 0.895537,0 z m 1.047323,0 2.109824,0 z m 2.246431,0 1.441966,0 z m 1.60893,0 0.576787,0 z m 0.728572,0 0.318751,0 z m 0.485715,0 0.895537,0 z M 6,1.5 l 0.774108,0 z m 1.016966,0 2.868753,0 z M 6,3.492545 l 1.502681,0 z m 1.654466,0 2.458932,0 z m 2.610718,0 1.199108,0 z m 1.350894,0 1.123215,0 z m 1.275001,0 0.956251,0 z m 1.108037,0 1.50268,0.01491 z m 1.639288,0.01491 2.443752,0 z M 6,4.5 l 1.912502,0 z m 2.064288,0 2.04911,0 z m 2.200896,0 0.789286,0 z m 0.941072,0 1.927681,0 z m 2.079467,0 2.428574,0 z m 2.595538,0 0.895537,0 z M 6,5.5 l 2.079467,0 z m 2.246431,0 2.246431,0 z m 2.398217,0 0.895537,0 z m 1.047323,0 2.109824,0 z m 2.246431,0 1.441966,0 z m 1.60893,0 0.576787,0 z m 0.728572,0 0.318751,0 z m 0.485715,0 0.895537,0 z M 6,6.5 l 1.775895,0 z m 1.973217,0 0.850001,0 z m 1.001787,0 0.425,0 z m 0.591965,0 0.774108,0 z m 0.941072,0 0.789287,0 z m 0.941072,0 1.259823,0 z m 1.426788,0 1.639287,0 z m 1.791073,0 1.092858,0 z m 1.244644,0 0.273215,0 z M 6,8.492545 l 1.502681,0 z m 1.654466,0 2.458932,0 z m 2.610718,0 1.199108,0 z m 1.350894,0 1.123215,0 z m 1.275001,0 0.956251,0 z m 1.108037,0 1.50268,0.01491 z m 1.639288,0.01491 2.443752,0 z M 6,9.5 l 1.775895,0 z m 1.973217,0 0.850001,0 z m 1.001787,0 0.425,0 z m 0.591965,0 0.774108,0 z m 0.941072,0 0.789287,0 z m 0.941072,0 1.259823,0 z m 1.426788,0 1.639287,0 z m 1.791073,0 1.092858,0 z m 1.244644,0 0.273215,0 z M 6,10.5 l 1.882145,0 z m 2.04911,0 0.591965,0 z m 0.743751,0 1.350894,0 z m 1.50268,0 1.988395,0 z m 2.155359,0 1.350895,0 z m 1.487502,0 0.288393,0 z m 0.440179,0 1.71518,0 z m 1.897323,0 0.895537,0 z M 6,11.5 l 1.882145,0 z m 2.04911,0 0.850001,0 z m 1.001787,0 1.335715,0 z m 1.487501,0 1.441966,0 z m 1.60893,0 0.576787,0 z m 0.728573,0 0.31875,0 z m 0.485715,0 0.895536,0 z" />
    <path
       style="fill:#81d72c;fill-opacity:0.58823529;fill-rule:evenodd;stroke:#4e9a06;stroke-width:1;stroke-linecap:butt;stroke-linejoin:round;stroke-miterlimit:4;stroke-opacity:1;stroke-dasharray:none"
       id="path3410"
       d="m 1.532046,-3.540421 16,15.999999 -16,0 z m 2.999941,8.499999 0,4.5 5,0 z" />
    <path
       style="opacity:0.5;fill:none;stroke:url(#linearGradient3038);stroke-width:0.99999994px;stroke-linecap:butt;stroke-linejoin:miter;stroke-opacity:1"
       id="path3981"
       d="m 2.531987,-1.142631 c 0,4.267344 0,8.334864 0,12.602209 4.267342,0 8.334869,0 12.60221,0 0,0 -12.60221,-12.602209 -12.60221,-12.602209 z" />
    <path
       style="opacity:0.5;fill:none;stroke:url(#linearGradient3035);stroke-width:0.99999988px;stroke-linecap:butt;stroke-linejoin:miter;stroke-opacity:1"
       id="path3981-5"
       d="m 3.531987,3.784525 0,6.675053 7,0" />
    <path
       style="opacity:0.3;fill:none;stroke:#85f619;stroke-width:1px;stroke-linecap:square;stroke-linejoin:miter;stroke-opacity:1"
       id="path3853"
       d="m 3.5,13.5 13.999723,0" />
  </g>
</svg>
