<?xml version="1.0" encoding="UTF-8" standalone="no"?>
<svg
   xmlns:dc="http://purl.org/dc/elements/1.1/"
   xmlns:cc="http://creativecommons.org/ns#"
   xmlns:rdf="http://www.w3.org/1999/02/22-rdf-syntax-ns#"
   xmlns:svg="http://www.w3.org/2000/svg"
   xmlns="http://www.w3.org/2000/svg"
   xmlns:xlink="http://www.w3.org/1999/xlink"
   id="svg3082"
   height="48"
   width="48"
   version="1.1">
  <metadata
     id="metadata59">
    <rdf:RDF>
      <cc:Work
         rdf:about="">
        <dc:format>image/svg+xml</dc:format>
        <dc:type
           rdf:resource="http://purl.org/dc/dcmitype/StillImage" />
      </cc:Work>
    </rdf:RDF>
  </metadata>
  <defs
     id="defs3084">
    <linearGradient
       x1="83.239998"
       y1="42.457001"
       x2="83.239998"
       y2="57.610001"
       id="linearGradient4197"
       gradientUnits="userSpaceOnUse"
       gradientTransform="matrix(0.40394,0,0,0.42567,4.5497,-4.793)">
      <stop
         id="stop4199"
         style="stop-color:#e5e5e5;stop-opacity:1"
         offset="0" />
      <stop
         id="stop4201"
         style="stop-color:#d4d4d4;stop-opacity:1"
         offset="1" />
    </linearGradient>
    <linearGradient
       id="linearGradient5060">
      <stop
         offset="0"
         style="stop-color:#000000;stop-opacity:1"
         id="stop5062" />
      <stop
         offset="1"
         style="stop-color:#000000;stop-opacity:0"
         id="stop5064" />
    </linearGradient>
    <linearGradient
       gradientTransform="matrix(0.06285403,0,0,0.02470595,1.282209,31.441341)"
       gradientUnits="userSpaceOnUse"
       id="linearGradient5557"
       y2="609.51001"
       x2="302.85999"
       y1="366.64999"
       x1="302.85999">
      <stop
         offset="0"
         style="stop-color:#000000;stop-opacity:0"
         id="stop5050" />
      <stop
         offset="0.5"
         style="stop-color:#000000;stop-opacity:1"
         id="stop5056" />
      <stop
         offset="1"
         style="stop-color:#000000;stop-opacity:0"
         id="stop5052" />
    </linearGradient>
    <radialGradient
       gradientTransform="matrix(0.06285403,0,0,0.02470595,1.295802,31.441341)"
       gradientUnits="userSpaceOnUse"
       xlink:href="#linearGradient5060"
       id="radialGradient5559"
       r="117.14"
       cy="486.64999"
       cx="605.71002" />
    <radialGradient
       gradientTransform="matrix(-0.06285403,0,0,0.02470595,46.704578,31.441341)"
       gradientUnits="userSpaceOnUse"
       xlink:href="#linearGradient5060"
       id="radialGradient5561"
       r="117.14"
       cy="486.64999"
       cx="605.71002" />
    <linearGradient
       gradientTransform="matrix(1.0526,0,0,1.0741,-1.2632,-0.96296)"
       gradientUnits="userSpaceOnUse"
       id="linearGradient2884"
       y2="40"
       x2="24"
       y1="13"
       x1="24">
      <stop
         offset="0"
         style="stop-color:#ffffff;stop-opacity:0.94117999"
         id="stop6459" />
      <stop
         offset="1"
         style="stop-color:#ffffff;stop-opacity:0.70587999"
         id="stop6461" />
    </linearGradient>
    <linearGradient
       gradientTransform="matrix(1.3226,0,0,1.2414,-9.0645,-5.2931)"
       gradientUnits="userSpaceOnUse"
       id="linearGradient2887"
       y2="38.096584"
       x2="15.926584"
       y1="9.9026098"
       x1="15.926584">
      <stop
         offset="0"
         style="stop-color:#ffffff;stop-opacity:1"
         id="stop3317" />
      <stop
         id="stop4238"
         style="stop-color:#ffffff;stop-opacity:0"
         offset="0.02223206" />
      <stop
         offset="1"
         style="stop-color:#ffffff;stop-opacity:0"
         id="stop4240" />
      <stop
         offset="1"
         style="stop-color:#ffffff;stop-opacity:0.71518987"
         id="stop3319" />
    </linearGradient>
    <linearGradient
       gradientTransform="matrix(0.40394,0,0,0.42567,4.5497,-4.793)"
       gradientUnits="userSpaceOnUse"
       id="linearGradient3805"
       y2="57.610001"
       x2="83.239998"
       y1="42.457001"
       x1="83.239998">
      <stop
         offset="0"
         style="stop-color:#ffffff;stop-opacity:1"
         id="stop3127" />
      <stop
         offset="1"
         style="stop-color:#e1e1e1;stop-opacity:1"
         id="stop3129" />
    </linearGradient>
    <linearGradient
       gradientTransform="translate(5.993,2.0000005)"
       gradientUnits="userSpaceOnUse"
       xlink:href="#linearGradient3104"
       id="linearGradient3843"
       y2="0.27636999"
       x2="25.497999"
       y1="44.638"
       x1="25.497999" />
    <linearGradient
       id="linearGradient3104">
      <stop
         offset="0"
         style="stop-color:#aaaaaa;stop-opacity:1"
         id="stop3106" />
      <stop
         offset="1"
         style="stop-color:#c8c8c8;stop-opacity:1"
         id="stop3108" />
    </linearGradient>
    <linearGradient
       gradientTransform="translate(5.993,2.0000005)"
       gradientUnits="userSpaceOnUse"
       xlink:href="#linearGradient3104"
       id="linearGradient2927"
       y2="0.25938001"
       x2="18.386"
       y1="44.960999"
       x1="18.386" />
    <linearGradient
       gradientUnits="userSpaceOnUse"
       y2="12.6375"
       x2="24.7125"
       y1="6.21875"
       x1="24.668751"
       id="linearGradient4195"
       xlink:href="#linearGradient4197" />
    <linearGradient
       y2="57.610001"
       x2="83.239998"
       y1="42.457001"
       x1="83.239998"
       gradientTransform="matrix(0.40394,0,0,0.42567,4.5497,-2.793)"
       gradientUnits="userSpaceOnUse"
       id="linearGradient4243"
       xlink:href="#linearGradient3805" />
  </defs>
  <rect
     width="30.348637"
     height="6.0000691"
     x="8.8240576"
     y="40.499771"
     id="rect4173"
     style="opacity:0.23612982;fill:url(#linearGradient5557);stroke-linejoin:round;stroke-linecap:round" />
  <path
     d="m 39.174509,40.500021 0,5.999693 c 3.23672,0.01129 7.825037,-1.344233 7.825037,-3.000286 0,-1.656052 -3.612113,-2.999407 -7.825037,-2.999407 z"
     id="path5058"
     style="opacity:0.23612982;fill:url(#radialGradient5559);stroke-linecap:round;stroke-linejoin:round" />
  <path
     d="m 8.8240585,40.500021 0,5.999693 c -3.2367199,0.01129 -7.825037,-1.344233 -7.825037,-3.000286 0,-1.656052 3.6121132,-2.999407 7.825037,-2.999407 z"
     id="path5018"
     style="opacity:0.23612982;fill:url(#radialGradient5561);stroke-linecap:round;stroke-linejoin:round" />
  <rect
     style="fill:url(#linearGradient4195);stroke:#000000;fill-opacity:1;stroke-opacity:0.29113925;stroke-linejoin:round;stroke-linecap:round"
     id="rect1887"
     y="5.5"
     x="2.5"
     ry="2"
     rx="2"
     height="38"
     width="43" />
  <path
     id="rect6287"
     d="m 3,14 0,27 c 0,2 2,2 2,2 l 38,0 c 2,0 2,-2 2,-2 l 0,-27 z"
     style="fill:url(#linearGradient2884);stroke-linecap:round;stroke-linejoin:round" />
  <path
     style="fill:#4aadea;fill-opacity:1;fill-rule:evenodd;stroke:#4e80a9;stroke-linecap:round;stroke-linejoin:round;stroke-opacity:0.69620254"
     id="path3835"
     d="m 8.537496,25.499985 3.955685,0.04323 c 0,0 1.093277,0 1.050048,0.907809 l 10e-7,4.054695 c 0.04323,1.037496 -0.920361,0.994267 -0.920361,0.994267 l -4.2796709,0 c 0,0 -0.9296551,0.08646 -0.8431971,-0.951038 l -9e-7,-4.249905 c 0,0 0.043229,-0.842286 1.0374959,-0.799057 z" />
  <path
     style="fill:#4aadea;fill-opacity:1;fill-rule:evenodd;stroke:#276ba4;stroke-width:0.96923;stroke-linecap:round;stroke-linejoin:round;stroke-opacity:0.69620254"
     id="path3833"
     d="m 32.515,28.499985 c 0,1.6645 -1.3509,3.0154 -3.0154,3.0154 -1.6645,0 -3.0154,-1.3509 -3.0154,-3.0154 0,-1.6645 1.3509,-3.0154 3.0154,-3.0154 1.6645,0 3.0154,1.3509 3.0154,3.0154 z" />
  <path
     style="fill:#ffffff;fill-rule:evenodd;stroke:url(#linearGradient2927);stroke-linecap:round;stroke-linejoin:round"
     id="path3831"
     d="m 18.862,16.502 22.276,0 c 0.75449,0 1.3619,0.66284 1.3619,1.4862 l 0,3.0261 c 0,0.82335 -0.6074,1.4862 -1.3619,1.4862 l -22.276,0 c -0.755,0 -1.362,-0.663 -1.362,-1.486 l 0,-3.0261 c 0,-0.82335 0.6074,-1.4862 1.3619,-1.4862 z" />
  <path
     style="fill:url(#linearGradient4243);fill-rule:evenodd;stroke:url(#linearGradient3843);stroke-linecap:round;stroke-linejoin:round"
     id="rect3618"
     d="m 34.5,16.5 0,5.9946 6.2399,0 c 0.97615,0 1.7546,-0.82033 1.7546,-1.849 l 0,-2.2833 c 0,-1.0287 -0.77845,-1.8623 -1.7546,-1.8623 z" />
  <path
     d="m 8.5402462,33.470799 3.9529348,0.02919 c 0,0 1.079784,0.0016 1.036005,0.978024 l 0.01404,4.027709 c 0.04323,1.037496 -0.920361,0.994267 -0.920361,0.994267 l -4.2796709,0 c 0,0 -0.9010191,-0.04378 -0.8577901,-1.041346 l 0.014592,-4.159597 c 0,0 -0.026986,-0.871472 1.0402461,-0.828243 z"
     id="path4262"
     style="fill:#ffffff;fill-opacity:1;fill-rule:evenodd;stroke:#b5b5b5;stroke-linecap:round;stroke-linejoin:round;stroke-opacity:1" />
  <path
     style="fill:#ffffff;fill-rule:evenodd;stroke:#b5b5b5;stroke-width:0.96923;stroke-linecap:round;stroke-linejoin:round;stroke-opacity:1"
     id="path3734"
     d="m 32.515,36.5 c 0,1.6645 -1.3509,3.0154 -3.0154,3.0154 -1.6645,0 -3.0154,-1.3509 -3.0154,-3.0154 0,-1.6645 1.3509,-3.0154 3.0154,-3.0154 1.6645,0 3.0154,1.3509 3.0154,3.0154 z" />
  <path
     id="path4230"
     d="m 37,19 1,2 1,0 1,-2 z"
     style="fill:#777777;fill-opacity:1;fill-rule:evenodd;stroke:none;stroke-width:1px;stroke-linecap:round;stroke-linejoin:round;stroke-opacity:1" />
  <path
     id="path4232"
     d="m 8.278122,28.221863 1.56771,2 3.048962,-3.789588"
     style="fill:none;fill-rule:evenodd;stroke:#ffffff;stroke-width:1px;stroke-linecap:round;stroke-linejoin:round;stroke-opacity:1" />
  <path
     id="rect4236"
     d="m 3,13 42,0 0,1 -42,0 z"
     style="opacity:0.15;fill:#000000;fill-opacity:1;stroke:none;stroke-linecap:round;stroke-linejoin:round;stroke-opacity:1" />
  <rect
     style="opacity:0.7;fill:none;stroke:url(#linearGradient2887);stroke-linejoin:round;stroke-linecap:round"
     id="rect2779"
     y="6.5"
     x="3.5"
     ry="1"
     rx="1"
     height="36"
     width="41" />
  <path
     style="fill:none;fill-rule:evenodd;stroke:#ffffff;stroke-width:1px;stroke-linecap:round;stroke-linejoin:round;stroke-opacity:1"
     d="m 27.518748,28.259359 1.56771,2 3.048962,-3.789588"
     id="path4245" />
  <path
     id="path4264"
     d="M 5.0000048,8 8,11"
     style="fill:none;fill-rule:evenodd;stroke:#8a8a8a;stroke-width:1px;stroke-linecap:butt;stroke-linejoin:miter;stroke-opacity:1" />
  <path
     style="fill:none;fill-rule:evenodd;stroke:#8a8a8a;stroke-width:1px;stroke-linecap:butt;stroke-linejoin:miter;stroke-opacity:1"
     d="M 8,8 5.0000048,11"
     id="path4266" />
  <path
     id="path4268"
     d="m 43,8 -2.999995,3"
     style="fill:none;fill-rule:evenodd;stroke:#8a8a8a;stroke-width:1px;stroke-linecap:butt;stroke-linejoin:miter;stroke-opacity:1" />
  <path
     id="rect4270"
     d="m 15,9 3,0 0,1 -3,0 z"
     style="opacity:0.7;fill:#858585;fill-opacity:1;stroke:none;stroke-linecap:round;stroke-linejoin:round;stroke-opacity:1" />
  <path
     id="rect4272"
     d="m 15,10 3,0 0,1 -3,0 z"
     style="opacity:0.25;fill:#ffffff;fill-opacity:1;stroke:none;stroke-linecap:round;stroke-linejoin:round;stroke-opacity:1" />
  <path
     style="opacity:0.7;fill:#858585;fill-opacity:1;stroke:none;stroke-linecap:round;stroke-linejoin:round;stroke-opacity:1"
     d="m 19,9 9,0 0,1 -9,0 z"
     id="path4276" />
  <path
     style="opacity:0.25;fill:#ffffff;fill-opacity:1;stroke:none;stroke-linecap:round;stroke-linejoin:round;stroke-opacity:1"
     d="m 19,10 9,0 0,1 -9,0 z"
     id="path4278" />
  <path
     id="path4280"
     d="m 29,9 5,0 0,1 -5,0 z"
     style="opacity:0.7;fill:#858585;fill-opacity:1;stroke:none;stroke-linecap:round;stroke-linejoin:round;stroke-opacity:1" />
  <path
     id="path4282"
     d="m 29,10 5,0 0,1 -5,0 z"
     style="opacity:0.25;fill:#ffffff;fill-opacity:1;stroke:none;stroke-linecap:round;stroke-linejoin:round;stroke-opacity:1" />
</svg>
