<?xml version="1.0" encoding="UTF-8" standalone="no"?>
<svg
   xmlns:dc="http://purl.org/dc/elements/1.1/"
   xmlns:cc="http://creativecommons.org/ns#"
   xmlns:rdf="http://www.w3.org/1999/02/22-rdf-syntax-ns#"
   xmlns:svg="http://www.w3.org/2000/svg"
   xmlns="http://www.w3.org/2000/svg"
   xmlns:xlink="http://www.w3.org/1999/xlink"
   id="svg3992"
   height="48"
   width="48"
   version="1.1">
  <defs
     id="defs3994">
    <linearGradient
       gradientTransform="translate(3.7e-6,1.00001)"
       gradientUnits="userSpaceOnUse"
       xlink:href="#linearGradient3924-9"
       id="linearGradient3036"
       y2="43"
       x2="23.99999"
       y1="4.999989"
       x1="23.99999" />
    <linearGradient
       id="linearGradient3924-9">
      <stop
         offset="0"
         style="stop-color:#ffffff;stop-opacity:1"
         id="stop3926-2" />
      <stop
         offset="0.06316455"
         style="stop-color:#ffffff;stop-opacity:0.23529412"
         id="stop3928-2" />
      <stop
         offset="0.95056331"
         style="stop-color:#ffffff;stop-opacity:0.15686275"
         id="stop3930-6" />
      <stop
         offset="1"
         style="stop-color:#ffffff;stop-opacity:0.39215687"
         id="stop3932-1" />
    </linearGradient>
    <linearGradient
       gradientTransform="matrix(0.82498024,0,0,1.3012336,4.1618797,-1.4329212)"
       gradientUnits="userSpaceOnUse"
       xlink:href="#linearGradient8265-821-176-38-919-66-249-7-7-6"
       id="linearGradient3049"
       y2="21.718878"
       x2="14.840995"
       y1="5.9108939"
       x1="12.455326" />
    <linearGradient
       id="linearGradient8265-821-176-38-919-66-249-7-7-6">
      <stop
         offset="0"
         style="stop-color:#999999;stop-opacity:0.9112426"
         id="stop2687-1-9-9" />
      <stop
         offset="1"
         style="stop-color:#515151;stop-opacity:0.64497042"
         id="stop2689-5-4-2" />
    </linearGradient>
    <radialGradient
       gradientTransform="matrix(3.9416817,-6.5239132e-8,-3.8156188e-8,1.7523153,-70.276667,29.216477)"
       gradientUnits="userSpaceOnUse"
       xlink:href="#linearGradient2867-449-88-871-390-598-476-591-434-148-57-177-1"
       id="radialGradient3052"
       fy="10.763836"
       fx="23.917908"
       r="19.99999"
       cy="10.763836"
       cx="23.917908" />
    <linearGradient
       id="linearGradient2867-449-88-871-390-598-476-591-434-148-57-177-1">
      <stop
         offset="0"
         style="stop-color:#6a6a6a;stop-opacity:1"
         id="stop3752-9" />
      <stop
         offset="0.704952"
         style="stop-color:#303030;stop-opacity:1"
         id="stop3754-4" />
      <stop
         offset="1"
         style="stop-color:#212121;stop-opacity:1"
         id="stop3756-7" />
    </linearGradient>
    <linearGradient
       gradientTransform="translate(1.2e-6,1)"
       gradientUnits="userSpaceOnUse"
       xlink:href="#linearGradient3707-319-631-407-324-84-4-00"
       id="linearGradient3054"
       y2="4.2405367"
       x2="7.7971067"
       y1="44.293171"
       x1="7.7971067" />
    <linearGradient
       id="linearGradient3707-319-631-407-324-84-4-00">
      <stop
         offset="0"
         style="stop-color:#252525;stop-opacity:1"
         id="stop3760-5-17-2" />
      <stop
         offset="1"
         style="stop-color:#464646;stop-opacity:1"
         id="stop3762-0-1-9" />
    </linearGradient>
    <radialGradient
       gradientTransform="matrix(2.003784,0,0,1.4,27.98813,-17.4)"
       gradientUnits="userSpaceOnUse"
       xlink:href="#linearGradient3688-166-749"
       id="radialGradient3013"
       fy="43.5"
       fx="4.9929786"
       r="2.5"
       cy="43.5"
       cx="4.9929786" />
    <linearGradient
       id="linearGradient3688-166-749">
      <stop
         offset="0"
         style="stop-color:#181818;stop-opacity:1"
         id="stop2883" />
      <stop
         offset="1"
         style="stop-color:#181818;stop-opacity:0"
         id="stop2885" />
    </linearGradient>
    <radialGradient
       gradientTransform="matrix(2.003784,0,0,1.4,-20.01187,-104.4)"
       gradientUnits="userSpaceOnUse"
       xlink:href="#linearGradient3688-464-309"
       id="radialGradient3015"
       fy="43.5"
       fx="4.9929786"
       r="2.5"
       cy="43.5"
       cx="4.9929786" />
    <linearGradient
       id="linearGradient3688-464-309">
      <stop
         offset="0"
         style="stop-color:#181818;stop-opacity:1"
         id="stop2889" />
      <stop
         offset="1"
         style="stop-color:#181818;stop-opacity:0"
         id="stop2891" />
    </linearGradient>
    <linearGradient
       id="linearGradient3702-501-757">
      <stop
         offset="0"
         style="stop-color:#181818;stop-opacity:0"
         id="stop2895" />
      <stop
         offset="0.5"
         style="stop-color:#181818;stop-opacity:1"
         id="stop2897" />
      <stop
         offset="1"
         style="stop-color:#181818;stop-opacity:0"
         id="stop2899" />
    </linearGradient>
    <linearGradient
       gradientUnits="userSpaceOnUse"
       xlink:href="#linearGradient3702-501-757"
       id="linearGradient3990"
       y2="39.999443"
       x2="25.058096"
       y1="47.027729"
       x1="25.058096" />
  </defs>
  <metadata
     id="metadata3997">
    <rdf:RDF>
      <cc:Work
         rdf:about="">
        <dc:format>image/svg+xml</dc:format>
        <dc:type
           rdf:resource="http://purl.org/dc/dcmitype/StillImage" />
        <dc:title />
      </cc:Work>
    </rdf:RDF>
  </metadata>
  <g
     id="layer1">
    <g
       style="opacity:0.4"
       id="g3712"
       transform="matrix(1.1578952,0,0,0.57142859,-3.789484,19.142856)">
      <rect
         style="fill:url(#radialGradient3013);fill-opacity:1;stroke:none"
         id="rect2801"
         y="40"
         x="38"
         height="7"
         width="5" />
      <rect
         style="fill:url(#radialGradient3015);fill-opacity:1;stroke:none"
         id="rect3696"
         transform="scale(-1,-1)"
         y="-47"
         x="-10"
         height="7"
         width="5" />
      <rect
         style="fill:url(#linearGradient3990);fill-opacity:1;stroke:none"
         id="rect3700"
         y="40"
         x="10"
         height="7.0000005"
         width="28" />
    </g>
    <rect
       style="color:#000000;fill:url(#radialGradient3052);fill-opacity:1;fill-rule:nonzero;stroke:url(#linearGradient3054);stroke-width:1;stroke-linecap:round;stroke-linejoin:round;stroke-miterlimit:4;stroke-opacity:1;stroke-dasharray:none;stroke-dashoffset:0;marker:none;visibility:visible;display:inline;overflow:visible;enable-background:accumulate"
       id="rect5505-21"
       y="5.5"
       x="4.5"
       ry="2"
       rx="2"
       height="39"
       width="39" />
    <path
       style="fill:url(#linearGradient3049);fill-opacity:1;fill-rule:evenodd;stroke:none"
       id="path3333-5"
       d="M 6.2169167,6 C 5.5377266,6 5,6.9124652 5,7.8 L 5.0126445,30 C 6.1058123,29.975834 42.170261,21.153092 43,20.728709 L 43,7.8 C 43,7.1215957 42.468817,6 41.88071,6 L 6.2169214,6 z" />
    <rect
       style="opacity:0.5;fill:none;stroke:url(#linearGradient3036);stroke-width:1;stroke-linecap:round;stroke-linejoin:round;stroke-miterlimit:4;stroke-opacity:1;stroke-dasharray:none;stroke-dashoffset:0"
       id="rect6741-1"
       y="6.5"
       x="5.5"
       ry="1"
       rx="1"
       height="37"
       width="37" />
    <path
       style="color:#000000;fill:#333333;fill-opacity:1;stroke:none;stroke-width:1;marker:none;visibility:visible;display:inline;overflow:visible;enable-background:accumulate"
       id="rect3828-3"
       d="m 24,10 0,4 1,0 0,-4 -1,0 z m -12,1 0,1 2,0 0,-1 -2,0 z m 2,1 0,4 1,0 0,-4 -1,0 z m 0,4 -2,0 0,1 2,0 0,-1 z m -2,0 0,-4 -1,0 0,4 1,0 z m 22,-5 0,1 1,0 0,4 -1,0 0,1 3,0 0,-1 -1,0 0,-4 0,-1 -2,0 z m -10,6 0,4 1,0 0,-4 -1,0 z m -16,6 0,8 2,0 0,-8 -2,0 z m 16,1 0,4 1,0 0,-4 -1,0 z m -8,6 0,2 2,0 0,-2 -2,0 z m 8,1 0,4 1,0 0,-4 -1,0 z m 14,0 0,8 2,0 0,-8 -2,0 z m -14,7 0,4 1,0 0,-4 -1,0 z" />
    <path
       style="color:#000000;fill:#ffffff;fill-opacity:1;stroke:none;stroke-width:1;marker:none;visibility:visible;display:inline;overflow:visible;enable-background:accumulate"
       id="rect3828"
       d="m 24,9 0,4 1,0 0,-4 -1,0 z m -12,1 0,1 2,0 0,-1 -2,0 z m 2,1 0,4 1,0 0,-4 -1,0 z m 0,4 -2,0 0,1 2,0 0,-1 z m -2,0 0,-4 -1,0 0,4 1,0 z m 22,-5 0,1 1,0 0,4 -1,0 0,1 3,0 0,-1 -1,0 0,-4 0,-1 -2,0 z m -10,6 0,4 1,0 0,-4 -1,0 z m -16,6 0,8 2,0 0,-8 -2,0 z m 16,1 0,4 1,0 0,-4 -1,0 z m -8,6 0,2 2,0 0,-2 -2,0 z m 8,1 0,4 1,0 0,-4 -1,0 z m 14,0 0,8 2,0 0,-8 -2,0 z m -14,7 0,4 1,0 0,-4 -1,0 z" />
  </g>
</svg>
