<?xml version="1.0" encoding="UTF-8" standalone="no"?>
<svg
   xmlns:dc="http://purl.org/dc/elements/1.1/"
   xmlns:cc="http://creativecommons.org/ns#"
   xmlns:rdf="http://www.w3.org/1999/02/22-rdf-syntax-ns#"
   xmlns:svg="http://www.w3.org/2000/svg"
   xmlns="http://www.w3.org/2000/svg"
   xmlns:xlink="http://www.w3.org/1999/xlink"
   id="svg4279"
   height="48"
   width="48"
   version="1.1">
  <defs
     id="defs4281">
    <linearGradient
       gradientTransform="matrix(1.5920714,0,0,1.5920721,-90.909525,-20.366112)"
       gradientUnits="userSpaceOnUse"
       xlink:href="#linearGradient4806-9"
       id="linearGradient3221"
       y2="40.495617"
       x2="71.204407"
       y1="15.369057"
       x1="71.204407" />
    <linearGradient
       id="linearGradient4806-9">
      <stop
         offset="0"
         style="stop-color:#ffffff;stop-opacity:1"
         id="stop4808-49" />
      <stop
         offset="0.42447853"
         style="stop-color:#ffffff;stop-opacity:0.23529412"
         id="stop4810-05" />
      <stop
         offset="0.82089913"
         style="stop-color:#ffffff;stop-opacity:0.15686275"
         id="stop4812-6" />
      <stop
         offset="1"
         style="stop-color:#ffffff;stop-opacity:0.39215687"
         id="stop4814-7" />
    </linearGradient>
    <radialGradient
       gradientTransform="matrix(0.02179243,2.7391193,-3.3986844,0.02703961,50.409819,0.62621056)"
       gradientUnits="userSpaceOnUse"
       xlink:href="#radialGradient3093-0-3-6-6"
       id="radialGradient3228"
       fy="7.493156"
       fx="2.6180596"
       r="19.99999"
       cy="7.493156"
       cx="2.6180596" />
    <linearGradient
       id="linearGradient3820-7-2-2">
      <stop
         offset="0"
         style="stop-color:#3d3d3d;stop-opacity:1"
         id="stop3822-2-6-36" />
      <stop
         offset="0.5"
         style="stop-color:#686868;stop-opacity:0.49803922"
         id="stop3864-8-7-6" />
      <stop
         offset="1"
         style="stop-color:#686868;stop-opacity:0"
         id="stop3824-1-2-4" />
    </linearGradient>
    <radialGradient
       gradientTransform="matrix(0.23897101,0,0,0.07603625,0.30434835,28.071012)"
       gradientUnits="userSpaceOnUse"
       xlink:href="#linearGradient3820-7-2-2"
       id="radialGradient4277"
       fy="186.17059"
       fx="99.157013"
       r="62.769119"
       cy="186.17059"
       cx="99.157013" />
    <radialGradient
       gradientTransform="matrix(0,1.2316483,-1.625754,0,18.486966,-28.721977)"
       gradientUnits="userSpaceOnUse"
       id="radialGradient3093-0-3-6-6"
       r="20.396999"
       cy="3.99"
       cx="23.896">
      <stop
         offset="0"
         style="stop-color:#ffffff;stop-opacity:1"
         id="stop3244-9-33-7-0-9" />
      <stop
         offset="0.26238"
         style="stop-color:#dddddd;stop-opacity:1"
         id="stop3246-3-5-0-8-5" />
      <stop
         offset="0.66093999"
         style="stop-color:#abacae;stop-opacity:1"
         id="stop3248-1-7-8-8-1" />
      <stop
         offset="1"
         style="stop-color:#89898b;stop-opacity:1"
         id="stop3250-9-3-0-5-1" />
    </radialGradient>
  </defs>
  <metadata
     id="metadata4284">
    <rdf:RDF>
      <cc:Work
         rdf:about="">
        <dc:format>image/svg+xml</dc:format>
        <dc:type
           rdf:resource="http://purl.org/dc/dcmitype/StillImage" />
        <dc:title />
      </cc:Work>
    </rdf:RDF>
  </metadata>
  <path
     d="m 39,42.226722 a 15,4.7727271 0 1 1 -29.9999998,0 15,4.7727271 0 1 1 29.9999998,0 z"
     id="path3818-0-2"
     style="fill:url(#radialGradient4277);fill-opacity:1;stroke:none" />
  <path
     d="M 24,3.5 C 12.688808,3.5 3.5,12.688807 3.5,24 3.5,35.311192 12.688808,44.500003 24,44.5 35.311191,44.5 44.500007,35.311192 44.5,24 44.5,12.688807 35.311191,3.5 24,3.5 Z"
     id="path2555-7-65"
     style="color:#000000;display:inline;overflow:visible;visibility:visible;fill:url(#radialGradient3228);fill-opacity:1;fill-rule:nonzero;stroke:none;stroke-width:1;marker:none;enable-background:accumulate" />
  <path
     d="M 24,3.5 C 12.688807,3.5 3.5,12.688805 3.5,23.999998 3.5,35.311193 12.688807,44.500004 24,44.5 35.311193,44.5 44.500014,35.311193 44.5,23.999998 44.5,12.688805 35.311193,3.5 24,3.5 Z"
     id="path2555-7-1-7"
     style="color:#000000;display:inline;overflow:visible;visibility:visible;opacity:0.3;fill:none;stroke:#000000;stroke-width:0.99999994;stroke-linecap:round;stroke-linejoin:round;stroke-miterlimit:4;stroke-dasharray:none;stroke-dashoffset:0;stroke-opacity:1;marker:none;enable-background:accumulate" />
  <g
     style="fill:#ffffff;fill-opacity:1;opacity:0.35"
     transform="matrix(1.5714286,0,0,1.5714286,11.428571,12.428571)"
     id="g3476">
    <g
       id="layer9"
       label="status"
       style="display:inline;fill:#ffffff;fill-opacity:1"
       transform="translate(-293.0002,-170)" />
    <g
       id="layer10"
       style="display:inline;fill:#ffffff;fill-opacity:1"
       transform="translate(-293.0002,-170)" />
    <g
       id="layer13"
       style="display:inline;fill:#ffffff;fill-opacity:1"
       transform="translate(-293.0002,-170)" />
    <g
       style="fill:#ffffff;fill-opacity:1"
       id="layer14"
       transform="translate(-293.0002,-170)" />
    <g
       id="layer15-4"
       style="display:inline;fill:#ffffff;fill-opacity:1"
       transform="translate(-293.0002,-170)" />
    <g
       id="g71291"
       style="display:inline;fill:#ffffff;fill-opacity:1"
       transform="translate(-293.0002,-170)" />
    <g
       id="layer12"
       style="display:inline;fill:#ffffff;fill-opacity:1"
       transform="translate(-293.0002,-170)">
      <path
         d="m 300.09112,171.63637 c 0,0.48295 0,0.96591 0,1.44886 -0.67196,0.19366 -1.3256,0.44423 -1.93182,0.79546 -0.34987,-0.32221 -0.68857,-0.65593 -1.02273,-0.99432 -0.41666,0.41666 -0.83334,0.83333 -1.25,1.25 0.33841,0.33414 0.67213,0.67284 0.99432,1.02272 -0.3514,0.60615 -0.60162,1.2599 -0.79546,1.93182 -0.48295,0 -0.96591,0 -1.44886,0 0,0.60607 0,1.21212 0,1.81818 0.48295,0 0.96591,0 1.44886,0 0.19367,0.67196 0.44423,1.3256 0.79546,1.93182 -0.32221,0.34987 -0.65593,0.68857 -0.99432,1.02273 0.41666,0.41666 0.83334,0.83334 1.25,1.25 0.33415,-0.33841 0.67285,-0.67213 1.02273,-0.99432 0.60614,0.3514 1.2599,0.60162 1.93182,0.79546 0,0.48295 0,0.96591 0,1.44886 0.60606,0 1.21211,0 1.81818,0 0,-0.48295 0,-0.96591 0,-1.44886 0.67195,-0.19367 1.3256,-0.44423 1.93182,-0.79546 0.34986,0.32221 0.68856,0.65593 1.02272,0.99432 0.41667,-0.41666 0.83334,-0.83334 1.25,-1.25 -0.33841,-0.33415 -0.67212,-0.67285 -0.99432,-1.02273 0.3514,-0.60614 0.60162,-1.2599 0.79546,-1.93182 0.48295,0 0.96591,0 1.44886,0 0,-0.60606 0,-1.21211 0,-1.81818 -0.48295,0 -0.96591,0 -1.44886,0 -0.19366,-0.67195 -0.44423,-1.3256 -0.79546,-1.93182 0.32221,-0.34986 0.65593,-0.68856 0.99432,-1.02272 -0.41666,-0.41667 -0.83333,-0.83334 -1.25,-1.25 -0.33414,0.33841 -0.67284,0.67212 -1.02272,0.99432 -0.60615,-0.3514 -1.2599,-0.60162 -1.93182,-0.79546 0,-0.48295 0,-0.96591 0,-1.44886 -0.60607,0 -1.21212,0 -1.81818,0 z m 0.90909,4.14772 c 1.31114,-0.0434 2.43194,1.26459 2.19041,2.55373 -0.15737,1.29917 -1.61365,2.20628 -2.84994,1.7786 -1.25888,-0.34899 -1.94002,-1.91898 -1.33814,-3.07778 0.35533,-0.75607 1.16147,-1.26446 1.99767,-1.25455 z"
         id="path14681"
         style="color:#000000;font-style:normal;font-variant:normal;font-weight:normal;font-stretch:normal;font-size:medium;line-height:normal;font-family:Sans;-inkscape-font-specification:Sans;text-indent:0;text-align:start;text-decoration:none;text-decoration-line:none;letter-spacing:normal;word-spacing:normal;text-transform:none;direction:ltr;block-progression:tb;writing-mode:lr-tb;baseline-shift:baseline;text-anchor:start;display:block;overflow:visible;visibility:visible;fill:#ffffff;fill-opacity:1;fill-rule:nonzero;stroke:none;stroke-width:0.99999994;marker:none;enable-background:accumulate" />
    </g>
  </g>
  <path
     d="m 43.499999,23.999999 c 0,10.769554 -8.730468,19.5 -19.5,19.5 -10.769532,0 -19.4999991,-8.730446 -19.4999991,-19.5 C 4.4999999,13.230449 13.230467,4.5 23.999999,4.5 c 10.769532,0 19.5,8.730449 19.5,19.499999 z"
     id="path3421"
     style="color:#000000;display:inline;overflow:visible;visibility:visible;fill:none;stroke:url(#linearGradient3221);stroke-width:0.99999994;stroke-linecap:round;stroke-linejoin:round;stroke-miterlimit:4;stroke-dasharray:none;stroke-dashoffset:0;stroke-opacity:1;marker:none;enable-background:accumulate;opacity:0.6" />
  <g
     id="g4334"
     transform="matrix(1.5714286,0,0,1.5714286,11.428571,11.428571)"
     style="fill:#323232;fill-opacity:0.58431373">
    <g
       transform="translate(-293.0002,-170)"
       style="display:inline;fill:#323232;fill-opacity:0.58431373"
       label="status"
       id="g4336" />
    <g
       transform="translate(-293.0002,-170)"
       style="display:inline;fill:#323232;fill-opacity:0.58431373"
       id="g4338" />
    <g
       transform="translate(-293.0002,-170)"
       style="display:inline;fill:#323232;fill-opacity:0.58431373"
       id="g4340" />
    <g
       transform="translate(-293.0002,-170)"
       id="g4342"
       style="fill:#323232;fill-opacity:0.58431373" />
    <g
       transform="translate(-293.0002,-170)"
       style="display:inline;fill:#323232;fill-opacity:0.58431373"
       id="g4344" />
    <g
       transform="translate(-293.0002,-170)"
       style="display:inline;fill:#323232;fill-opacity:0.58431373"
       id="g4346" />
    <g
       transform="translate(-293.0002,-170)"
       style="display:inline;fill:#323232;fill-opacity:0.58431373"
       id="g4348">
      <path
         style="color:#000000;font-style:normal;font-variant:normal;font-weight:normal;font-stretch:normal;font-size:medium;line-height:normal;font-family:Sans;-inkscape-font-specification:Sans;text-indent:0;text-align:start;text-decoration:none;text-decoration-line:none;letter-spacing:normal;word-spacing:normal;text-transform:none;direction:ltr;block-progression:tb;writing-mode:lr-tb;baseline-shift:baseline;text-anchor:start;display:block;overflow:visible;visibility:visible;fill:#323232;fill-opacity:0.58431373;fill-rule:nonzero;stroke:none;stroke-width:0.99999994;marker:none;enable-background:accumulate"
         id="path4350"
         d="m 300.09112,171.63637 c 0,0.48295 0,0.96591 0,1.44886 -0.67196,0.19366 -1.3256,0.44423 -1.93182,0.79546 -0.34987,-0.32221 -0.68857,-0.65593 -1.02273,-0.99432 -0.41666,0.41666 -0.83334,0.83333 -1.25,1.25 0.33841,0.33414 0.67213,0.67284 0.99432,1.02272 -0.3514,0.60615 -0.60162,1.2599 -0.79546,1.93182 -0.48295,0 -0.96591,0 -1.44886,0 0,0.60607 0,1.21212 0,1.81818 0.48295,0 0.96591,0 1.44886,0 0.19367,0.67196 0.44423,1.3256 0.79546,1.93182 -0.32221,0.34987 -0.65593,0.68857 -0.99432,1.02273 0.41666,0.41666 0.83334,0.83334 1.25,1.25 0.33415,-0.33841 0.67285,-0.67213 1.02273,-0.99432 0.60614,0.3514 1.2599,0.60162 1.93182,0.79546 0,0.48295 0,0.96591 0,1.44886 0.60606,0 1.21211,0 1.81818,0 0,-0.48295 0,-0.96591 0,-1.44886 0.67195,-0.19367 1.3256,-0.44423 1.93182,-0.79546 0.34986,0.32221 0.68856,0.65593 1.02272,0.99432 0.41667,-0.41666 0.83334,-0.83334 1.25,-1.25 -0.33841,-0.33415 -0.67212,-0.67285 -0.99432,-1.02273 0.3514,-0.60614 0.60162,-1.2599 0.79546,-1.93182 0.48295,0 0.96591,0 1.44886,0 0,-0.60606 0,-1.21211 0,-1.81818 -0.48295,0 -0.96591,0 -1.44886,0 -0.19366,-0.67195 -0.44423,-1.3256 -0.79546,-1.93182 0.32221,-0.34986 0.65593,-0.68856 0.99432,-1.02272 -0.41666,-0.41667 -0.83333,-0.83334 -1.25,-1.25 -0.33414,0.33841 -0.67284,0.67212 -1.02272,0.99432 -0.60615,-0.3514 -1.2599,-0.60162 -1.93182,-0.79546 0,-0.48295 0,-0.96591 0,-1.44886 -0.60607,0 -1.21212,0 -1.81818,0 z m 0.90909,4.14772 c 1.31114,-0.0434 2.43194,1.26459 2.19041,2.55373 -0.15737,1.29917 -1.61365,2.20628 -2.84994,1.7786 -1.25888,-0.34899 -1.94002,-1.91898 -1.33814,-3.07778 0.35533,-0.75607 1.16147,-1.26446 1.99767,-1.25455 z" />
    </g>
  </g>
</svg>
