<?xml version="1.0" encoding="UTF-8" standalone="no"?>
<svg
   xmlns:osb="http://www.openswatchbook.org/uri/2009/osb"
   xmlns:dc="http://purl.org/dc/elements/1.1/"
   xmlns:cc="http://creativecommons.org/ns#"
   xmlns:rdf="http://www.w3.org/1999/02/22-rdf-syntax-ns#"
   xmlns:svg="http://www.w3.org/2000/svg"
   xmlns="http://www.w3.org/2000/svg"
   xmlns:xlink="http://www.w3.org/1999/xlink"
   version="1.1"
   width="48"
   height="48"
   id="svg4460">
  <defs
     id="defs4462">
    <linearGradient
       id="linearGradient4259">
      <stop
         style="stop-color:#ffffff;stop-opacity:1;"
         offset="0"
         id="stop4261" />
      <stop
         style="stop-color:#ffffff;stop-opacity:0;"
         offset="1"
         id="stop4263" />
    </linearGradient>
    <linearGradient
       x1="37.5"
       y1="23"
       x2="49.089928"
       y2="23.172663"
       id="linearGradient4340"
       xlink:href="#linearGradient3678"
       gradientUnits="userSpaceOnUse"
       gradientTransform="matrix(0.91421579,0,0,-0.91421579,0.7038908,45.027255)" />
    <linearGradient
       id="linearGradient3678">
      <stop
         id="stop3680"
         style="stop-color:#ffffff;stop-opacity:0.13368984"
         offset="0" />
      <stop
         id="stop3682"
         style="stop-color:#ffffff;stop-opacity:0"
         offset="1" />
    </linearGradient>
    <linearGradient
       x1="4.4897356"
       y1="23"
       x2="47.500416"
       y2="23"
       id="linearGradient4344"
       xlink:href="#linearGradient3672"
       gradientUnits="userSpaceOnUse"
       gradientTransform="matrix(0.91421579,0,0,-0.91421579,0.7038908,45.027255)" />
    <linearGradient
       id="linearGradient3672">
      <stop
         id="stop3674"
         style="stop-color:#ffffff;stop-opacity:0.49197862"
         offset="0" />
      <stop
         id="stop3676"
         style="stop-color:#ffffff;stop-opacity:1"
         offset="1" />
    </linearGradient>
    <linearGradient
       x1="14.893399"
       y1="23.707106"
       x2="2.8318863"
       y2="24.108988"
       id="linearGradient4347"
       xlink:href="#linearGradient3678"
       gradientUnits="userSpaceOnUse"
       gradientTransform="matrix(0.64644818,-0.64644818,-0.64644818,-0.64644818,22.231006,55.436572)" />
    <linearGradient
       x1="44.68652"
       y1="25.924007"
       x2="2.8725832"
       y2="24.414213"
       id="linearGradient4351"
       xlink:href="#linearGradient3672"
       gradientUnits="userSpaceOnUse"
       gradientTransform="matrix(0.64644818,-0.64644818,-0.64644818,-0.64644818,22.231006,55.436572)" />
    <linearGradient
       x1="46.006096"
       y1="23.707108"
       x2="4.2867966"
       y2="27.242641"
       id="linearGradient4355"
       xlink:href="#linearGradient3672"
       gradientUnits="userSpaceOnUse"
       gradientTransform="matrix(0.64644818,0.64644818,-0.64644818,0.64644818,22.400273,-7.35245)" />
    <linearGradient
       x1="14.893399"
       y1="22.292894"
       x2="4.0629644"
       y2="21.829967"
       id="linearGradient4358"
       xlink:href="#linearGradient3678"
       gradientUnits="userSpaceOnUse"
       gradientTransform="matrix(0.64644818,0.64644818,-0.64644818,0.64644818,22.400273,-7.35245)" />
    <linearGradient
       x1="3.5"
       y1="23"
       x2="47.5"
       y2="23"
       id="linearGradient4362"
       xlink:href="#linearGradient3672"
       gradientUnits="userSpaceOnUse"
       gradientTransform="matrix(0,0.91421579,0.91421579,0,2.9894266,0.6877848)" />
    <linearGradient
       x1="35.5"
       y1="22"
       x2="48.262592"
       y2="21.91367"
       id="linearGradient4365"
       xlink:href="#linearGradient3678"
       gradientUnits="userSpaceOnUse"
       gradientTransform="matrix(0,0.91421579,0.91421579,0,2.9894266,0.6877848)" />
    <linearGradient
       x1="71.204407"
       y1="15.369057"
       x2="71.204407"
       y2="40.495617"
       id="linearGradient4338-5-6"
       xlink:href="#linearGradient4806-2"
       gradientUnits="userSpaceOnUse"
       gradientTransform="matrix(1.6169806,0,0,1.6169806,-92.70737,-21.060237)" />
    <linearGradient
       id="linearGradient4806-2">
      <stop
         id="stop4808-4"
         style="stop-color:#ffffff;stop-opacity:1"
         offset="0" />
      <stop
         id="stop4810-0"
         style="stop-color:#ffffff;stop-opacity:0.23529412"
         offset="0.42447853" />
      <stop
         id="stop4812-8"
         style="stop-color:#ffffff;stop-opacity:0.15686275"
         offset="0.82089913" />
      <stop
         id="stop4814-0"
         style="stop-color:#ffffff;stop-opacity:0.39215687"
         offset="1" />
    </linearGradient>
    <linearGradient
       id="linearGradient3820-7-2-1">
      <stop
         id="stop3822-2-6-3"
         style="stop-color:#3d3d3d;stop-opacity:1"
         offset="0" />
      <stop
         id="stop3864-8-7-7"
         style="stop-color:#686868;stop-opacity:0.49803922"
         offset="0.5" />
      <stop
         id="stop3824-1-2-5"
         style="stop-color:#686868;stop-opacity:0"
         offset="1" />
    </linearGradient>
    <radialGradient
       cx="99.157013"
       cy="186.17059"
       r="62.769119"
       fx="99.157013"
       fy="186.17059"
       id="radialGradient4458"
       xlink:href="#linearGradient3820-7-2-1"
       gradientUnits="userSpaceOnUse"
       gradientTransform="matrix(0.27083381,0,0,0.08762273,-2.855072,25.187228)" />
    <radialGradient
       xlink:href="#linearGradient4259"
       id="radialGradient4265-0"
       cx="8.9318333"
       cy="13.857876"
       fx="8.9318333"
       fy="13.857876"
       r="2.32845"
       gradientTransform="matrix(1.0224692,0,0,1.0224692,-0.20069215,-0.31083614)"
       gradientUnits="userSpaceOnUse" />
    <radialGradient
       xlink:href="#linearGradient4259"
       id="radialGradient4265-0-5"
       cx="8.9318333"
       cy="13.857876"
       fx="8.9318333"
       fy="13.857876"
       r="2.32845"
       gradientTransform="matrix(1.0224692,0,0,1.0224692,31.968287,5.6338001)"
       gradientUnits="userSpaceOnUse" />
    <radialGradient
       xlink:href="#linearGradient4259"
       id="radialGradient4265-0-5-7"
       cx="8.9318333"
       cy="13.857876"
       fx="8.9318333"
       fy="13.857876"
       r="2.32845"
       gradientTransform="matrix(1.0224692,0,0,1.0224692,-0.36995835,18.6277)"
       gradientUnits="userSpaceOnUse" />
    <radialGradient
       xlink:href="#linearGradient4259"
       id="radialGradient4265-0-5-7-7"
       cx="8.9318333"
       cy="13.857876"
       fx="8.9318333"
       fy="13.857876"
       r="2.32845"
       gradientTransform="matrix(1.0224692,0,0,1.0224692,18.76933,27.057667)"
       gradientUnits="userSpaceOnUse" />
    <linearGradient
       id="linearGradient4330">
      <stop
         id="stop4332"
         style="stop-color:#f0c1ff;stop-opacity:1"
         offset="0" />
      <stop
         id="stop4334"
         style="stop-color:#c5a3f2;stop-opacity:1"
         offset="0.26238" />
      <stop
         id="stop4336"
         style="stop-color:#7a36b1;stop-opacity:1"
         offset="0.704952" />
      <stop
         id="stop4338"
         style="stop-color:#4c2d81;stop-opacity:1"
         offset="1" />
    </linearGradient>
    <linearGradient
       id="linearGradient4526"
       osb:paint="solid">
      <stop
         style="stop-color:#ffffff;stop-opacity:1;"
         offset="0"
         id="stop4528" />
    </linearGradient>
    <radialGradient
       r="19.99999"
       fy="8.4497671"
       fx="1.7447759"
       cy="8.4497671"
       cx="1.7447759"
       gradientTransform="matrix(0,5.8965661,-6.2378636,-1.6049546e-7,76.708612,-21.049348)"
       gradientUnits="userSpaceOnUse"
       id="radialGradient3092"
       xlink:href="#linearGradient4330" />
    <radialGradient
       gradientTransform="matrix(1.1294118,0,0,0.12941156,-34.729414,46.026471)"
       gradientUnits="userSpaceOnUse"
       xlink:href="#linearGradient8838"
       id="radialGradient2415"
       fy="4.625"
       fx="62.625"
       r="10.625"
       cy="4.625"
       cx="62.625" />
    <linearGradient
       id="linearGradient8838">
      <stop
         offset="0"
         style="stop-color:#000000;stop-opacity:1"
         id="stop8840" />
      <stop
         offset="1"
         style="stop-color:#000000;stop-opacity:0"
         id="stop8842" />
    </linearGradient>
    <linearGradient
       gradientTransform="matrix(0.48890916,0,0,0.48839827,24.266182,24.742322)"
       gradientUnits="userSpaceOnUse"
       xlink:href="#linearGradient3846-7"
       id="linearGradient3094"
       y2="54.669891"
       x2="24"
       y1="-14.603537"
       x1="24" />
    <linearGradient
       id="linearGradient3846-7">
      <stop
         offset="0"
         style="stop-color:#fff3cb;stop-opacity:1"
         id="stop3848-7" />
      <stop
         offset="0.26238"
         style="stop-color:#fdde76;stop-opacity:1"
         id="stop3850-5" />
      <stop
         offset="0.66093999"
         style="stop-color:#f9c440;stop-opacity:1"
         id="stop3852-9" />
      <stop
         offset="1"
         style="stop-color:#e48b20;stop-opacity:1"
         id="stop3854-2" />
    </linearGradient>
    <linearGradient
       gradientTransform="matrix(0.49373581,0,-0.00214922,0.51518426,21.661617,16.574027)"
       gradientUnits="userSpaceOnUse"
       xlink:href="#linearGradient3117-8"
       id="linearGradient3091"
       y2="57.567127"
       x2="29.291178"
       y1="19.787613"
       x1="29.126724" />
    <linearGradient
       id="linearGradient3117-8">
      <stop
         offset="0"
         style="stop-color:#ffffff;stop-opacity:1"
         id="stop3119-9" />
      <stop
         offset="0.56911701"
         style="stop-color:#ffffff;stop-opacity:0.23529412"
         id="stop3121-9" />
      <stop
         offset="0.93297637"
         style="stop-color:#ffffff;stop-opacity:0.15686275"
         id="stop3123-6" />
      <stop
         offset="1"
         style="stop-color:#ffffff;stop-opacity:0.39215687"
         id="stop3125-3" />
    </linearGradient>
    <linearGradient
       gradientTransform="matrix(0.3750017,0,0,0.3750017,19.021137,25.375203)"
       gradientUnits="userSpaceOnUse"
       xlink:href="#linearGradient3856-1-6"
       id="linearGradient3087"
       y2="-5.496769"
       x2="44.424442"
       y1="60.535198"
       x1="44.424442" />
    <linearGradient
       id="linearGradient3856-1-6">
      <stop
         offset="0"
         style="stop-color:#634215;stop-opacity:1"
         id="stop3858-0-6" />
      <stop
         offset="1"
         style="stop-color:#93700d;stop-opacity:1"
         id="stop3860-2-8" />
    </linearGradient>
  </defs>
  <metadata
     id="metadata4465">
    <rdf:RDF>
      <cc:Work
         rdf:about="">
        <dc:format>image/svg+xml</dc:format>
        <dc:type
           rdf:resource="http://purl.org/dc/dcmitype/StillImage" />
        <dc:title />
      </cc:Work>
    </rdf:RDF>
  </metadata>
  <path
     style="fill:url(#radialGradient4458);fill-opacity:1;stroke:none"
     id="path3818-0-5"
     d="m 40.999999,41.499999 a 17,5.4999999 0 1 1 -33.999999,0 17,5.4999999 0 1 1 33.999999,0 z" />
  <path
     style="color:#000000;display:inline;overflow:visible;visibility:visible;fill:url(#radialGradient3092);fill-opacity:1;fill-rule:nonzero;stroke:none;stroke-width:1;marker:none;enable-background:accumulate"
     id="path2555"
     d="M 24.000003,3.4999985 C 12.68881,3.4999985 3.5,12.688804 3.5,23.999997 3.5,35.311193 12.68881,44.500003 24.000003,44.5 35.311192,44.5 44.50001,35.311193 44.5,23.999997 44.5,12.688804 35.311192,3.4999985 24.000003,3.4999985 Z" />
  <path
     style="color:#000000;display:inline;overflow:visible;visibility:visible;opacity:0.5;fill:none;stroke:#6326b9;stroke-width:1;marker:none;enable-background:accumulate;stroke-opacity:1;clip-rule:nonzero;isolation:auto;mix-blend-mode:normal;color-interpolation:sRGB;color-interpolation-filters:linearRGB;solid-color:#000000;solid-opacity:1;fill-opacity:1;fill-rule:nonzero;stroke-linecap:butt;stroke-linejoin:miter;stroke-miterlimit:4;stroke-dasharray:none;stroke-dashoffset:0;filter-blend-mode:normal;filter-gaussianBlur-deviation:0;color-rendering:auto;image-rendering:auto;shape-rendering:auto;text-rendering:auto"
     id="path3871"
     d="m 24,3.5 c -11.311193,0 -20.5,9.188806 -20.5,20.499999 0,11.311193 9.188807,20.500004 20.5,20.5 11.311191,0 20.500007,-9.188807 20.5,-20.5 C 44.5,12.688806 35.311191,3.5 24,3.5 Z" />
  <path
     style="color:#000000;display:inline;overflow:visible;visibility:visible;opacity:0.5;fill:none;stroke:url(#linearGradient4338-5-6);stroke-width:1;stroke-linecap:round;stroke-linejoin:round;stroke-miterlimit:4;stroke-dasharray:none;stroke-dashoffset:0;stroke-opacity:1;marker:none;enable-background:accumulate"
     id="path3026"
     d="M 43.5,24.000001 C 43.5,34.769552 34.769544,43.499997 23.999991,43.499997 13.230451,43.499997 4.5,34.769552 4.5,24.000001 4.5,13.23045 13.230451,4.500002 23.999991,4.500002 34.769544,4.500002 43.5,13.23045 43.5,24.000001 Z" />
  <path
     style="fill:none;stroke:url(#linearGradient4365);stroke-width:1;stroke-linecap:round;stroke-linejoin:round;stroke-miterlimit:4;stroke-dasharray:none;stroke-dashoffset:0;stroke-opacity:1"
     id="path3805"
     d="M 23.985743,4.3447704 A 8.68505,19.655639 0 0 0 22.245314,43.242905" />
  <path
     style="opacity:0.8;fill:none;stroke:url(#linearGradient4362);stroke-width:1;stroke-linecap:round;stroke-linejoin:round;stroke-miterlimit:4;stroke-dasharray:none;stroke-dashoffset:0;stroke-opacity:1"
     id="path3609"
     d="M 27.695302,41.805415 A 8.68505,19.655639 0 0 0 23.995534,4.3447046" />
  <path
     style="fill:none;stroke:url(#linearGradient4358);stroke-width:1;stroke-linecap:round;stroke-linejoin:round;stroke-miterlimit:4;stroke-dasharray:none;stroke-dashoffset:0;stroke-opacity:1"
     id="path3801"
     d="m 12.563235,8.905818 a 19.655639,8.68505 45 0 1 24.966723,29.3301" />
  <path
     style="opacity:0.8;fill:none;stroke:url(#linearGradient4355);stroke-width:1;stroke-linecap:round;stroke-linejoin:round;stroke-miterlimit:4;stroke-dasharray:none;stroke-dashoffset:0;stroke-opacity:1"
     id="path3611"
     d="M 37.91503,37.898924 A 19.655639,8.68505 45 0 1 8.8409434,13.213319" />
  <path
     style="opacity:0.8;fill:none;stroke:url(#linearGradient4351);stroke-width:1;stroke-linecap:round;stroke-linejoin:round;stroke-miterlimit:4;stroke-dasharray:none;stroke-dashoffset:0;stroke-opacity:1"
     id="path3613"
     d="M 38.090981,10.581063 A 8.68505,19.655639 45 0 0 9.0314403,31.564803" />
  <path
     style="fill:none;stroke:url(#linearGradient4347);stroke-width:1;stroke-linecap:round;stroke-linejoin:round;stroke-miterlimit:4;stroke-dasharray:none;stroke-dashoffset:0;stroke-opacity:1"
     id="path3787"
     d="M 9.9838274,38.017354 A 8.68505,19.655639 45 0 0 38.345658,10.959664" />
  <path
     style="fill:none;stroke:url(#linearGradient4344);stroke-width:1;stroke-linecap:round;stroke-linejoin:round;stroke-miterlimit:4;stroke-dasharray:none;stroke-dashoffset:0;stroke-opacity:1"
     id="path2835"
     d="M 40.757683,19.449482 A 19.655639,8.68505 0 0 0 4.3822544,24.406406" />
  <path
     style="fill:none;stroke:url(#linearGradient4340);stroke-width:1;stroke-linecap:round;stroke-linejoin:round;stroke-miterlimit:4;stroke-dasharray:none;stroke-dashoffset:0;stroke-opacity:1"
     id="path3797"
     d="M 4.479048,24.95171 A 19.655639,8.68505 0 0 0 43.639245,24.501724" />
  <path
     style="color:#000000;display:inline;overflow:visible;visibility:visible;opacity:1;fill:url(#radialGradient4265-0);fill-opacity:1;fill-rule:nonzero;stroke:none;stroke-width:1.00042665;stroke-linecap:round;stroke-linejoin:round;stroke-miterlimit:4;stroke-dasharray:none;stroke-dashoffset:0;stroke-opacity:0.52127662;marker:none;enable-background:accumulate"
     id="path3781-5"
     d="m 11.431833,13.858994 a 2.5,2.4999999 0 0 1 -4.9999995,0 2.5,2.4999999 0 1 1 4.9999995,0 z" />
  <path
     style="color:#000000;display:inline;overflow:visible;visibility:visible;opacity:1;fill:url(#radialGradient4265-0-5);fill-opacity:1;fill-rule:nonzero;stroke:none;stroke-width:1.00042665;stroke-linecap:round;stroke-linejoin:round;stroke-miterlimit:4;stroke-dasharray:none;stroke-dashoffset:0;stroke-opacity:0.52127662;marker:none;enable-background:accumulate"
     id="path3781-5-4"
     d="m 43.600812,19.80363 a 2.5,2.4999999 0 0 1 -5,0 2.5,2.4999999 0 1 1 5,0 z" />
  <path
     style="color:#000000;display:inline;overflow:visible;visibility:visible;opacity:1;fill:url(#radialGradient4265-0-5-7);fill-opacity:1;fill-rule:nonzero;stroke:none;stroke-width:1.00042665;stroke-linecap:round;stroke-linejoin:round;stroke-miterlimit:4;stroke-dasharray:none;stroke-dashoffset:0;stroke-opacity:0.52127662;marker:none;enable-background:accumulate"
     id="path3781-5-4-7"
     d="m 11.262567,32.79753 a 2.5000002,2.5000001 0 0 1 -5.0000004,0 2.5000002,2.5000001 0 1 1 5.0000004,0 z" />
  <path
     style="color:#000000;display:inline;overflow:visible;visibility:visible;opacity:1;fill:url(#radialGradient4265-0-5-7-7);fill-opacity:1;fill-rule:nonzero;stroke:none;stroke-width:1.00042665;stroke-linecap:round;stroke-linejoin:round;stroke-miterlimit:4;stroke-dasharray:none;stroke-dashoffset:0;stroke-opacity:0.52127662;marker:none;enable-background:accumulate"
     id="path3781-5-4-7-6"
     d="m 30.401856,41.227497 a 2.5000005,2.5000004 0 0 1 -5.000001,0 2.5000005,2.5000004 0 1 1 5.000001,0 z" />
  <path
     d="M 48,46.625 C 48,47.384391 42.627417,48 36,48 29.372583,48 24,47.384391 24,46.625 c 0,-0.759391 5.372583,-1.375 12,-1.375 6.627417,0 12,0.615609 12,1.375 l 0,0 z"
     id="path8836"
     style="display:inline;overflow:visible;visibility:visible;opacity:0.3;fill:url(#radialGradient2415);fill-opacity:1;fill-rule:evenodd;stroke:none;stroke-width:0.99999988;marker:none" />
  <path
     d="M 46.843441,44.277765 37.294944,26.277682 c -0.274455,-0.5 -0.771065,-0.77778 -1.324145,-0.77778 -0.553075,0 -1.052235,0.33333 -1.330855,0.833335 l -9.477397,18.000088 c -0.223085,0.444445 -0.225635,1.05556 0.04905,1.500005 0.27468,0.44445 0.716215,0.66667 1.269296,0.66667 l 19.025888,0 c 0.55308,0 1.052005,-0.27778 1.275095,-0.722225 0.278385,-0.444445 0.280705,-1.000005 0.06156,-1.50001 z"
     id="path11155-5"
     style="fill:url(#linearGradient3094);fill-opacity:1;fill-rule:nonzero;stroke:none" />
  <path
     d="M 45.554469,43.506436 37.009293,27.915852 C 36.64536,27.222466 36.514831,26.5 35.961755,26.5 c -0.475681,0 -0.724576,0.823993 -1.068333,1.478495 l -8.450324,15.57762 c -0.490695,0.902951 -0.543267,1.138323 -0.307081,1.535746 0.236181,0.397428 0.539433,0.375782 1.659914,0.401703 l 16.60861,0 c 1.043148,0.01297 1.278124,-0.06692 1.470057,-0.464346 0.2395,-0.397427 0.137629,-0.712731 -0.320129,-1.522782 z"
     id="path11159-4"
     style="opacity:0.6;fill:none;stroke:url(#linearGradient3091);stroke-width:1;stroke-miterlimit:4;stroke-dasharray:none;stroke-opacity:1" />
  <path
     d="m 34.812132,32.56165 c 0.28149,2.749661 0.603925,5.480401 0.84355,8.240831 0.241015,0 0.523695,0 0.76471,0 0.19876,-2.65089 0.519345,-5.285765 0.75061,-7.933366 0.117885,-0.62692 -0.203995,-1.37126 -0.866,-1.523575 -0.654165,-0.191255 -1.38503,0.282355 -1.472015,0.95888 -0.0144,0.08493 -0.02085,0.171115 -0.02085,0.25723 l -5e-6,0 z m -0.08343,11.179351 c -0.02975,0.81847 0.870815,1.46007 1.63974,1.20058 0.744755,-0.19007 1.13703,-1.12614 0.75534,-1.791525 -0.341675,-0.687825 -1.343625,-0.914445 -1.920005,-0.38803 -0.291345,0.23936 -0.484455,0.596695 -0.475075,0.978975 l 0,0 z"
     id="text2315-7-2"
     style="font-style:normal;font-variant:normal;font-weight:normal;font-stretch:normal;font-size:62.4582634px;line-height:125%;font-family:Georgia;text-align:start;writing-mode:lr-tb;text-anchor:start;opacity:0.3;fill:#ffffff;fill-opacity:1;stroke:none" />
  <path
     d="m 34.812132,31.561647 c 0.28149,2.749661 0.603925,5.480401 0.84355,8.240831 0.241015,0 0.523695,0 0.76471,0 0.19876,-2.65089 0.519345,-5.28576 0.75061,-7.933366 0.117885,-0.626914 -0.203995,-1.371259 -0.866,-1.523574 -0.654165,-0.191255 -1.38503,0.28236 -1.472015,0.958879 -0.0144,0.08493 -0.02085,0.171115 -0.02085,0.25723 l -5e-6,0 z m -0.08343,11.179351 c -0.02975,0.81847 0.870815,1.46007 1.63974,1.200585 0.744755,-0.190075 1.13703,-1.126145 0.75534,-1.79153 -0.341675,-0.68782 -1.343625,-0.914445 -1.920005,-0.38803 -0.291345,0.239365 -0.484455,0.596695 -0.475075,0.978975 l 0,0 z"
     id="path3295-1-9"
     style="color:#000000;font-style:normal;font-variant:normal;font-weight:normal;font-stretch:normal;font-size:62.4582634px;line-height:125%;font-family:Georgia;text-align:start;writing-mode:lr-tb;text-anchor:start;display:inline;overflow:visible;visibility:visible;fill:url(#linearGradient3087);fill-opacity:1;fill-rule:nonzero;stroke:none;marker:none;enable-background:accumulate" />
  <path
     d="M 46.843441,44.277775 37.294944,26.277777 C 37.020489,25.777779 36.523879,25.5 35.970799,25.5 c -0.553075,0 -1.052235,0.333329 -1.330855,0.833332 l -9.477397,18.000003 c -0.223085,0.444443 -0.225635,1.055555 0.04905,1.499998 C 25.486277,46.277781 25.927812,46.5 26.480892,46.5 l 19.025889,0 c 0.55308,0 1.052005,-0.277779 1.275095,-0.722222 0.278385,-0.444443 0.280705,-1 0.06156,-1.500003 z"
     id="path11155-8"
     style="opacity:0.4;fill:none;stroke:#311d00;stroke-width:0.99999982;stroke-miterlimit:4;stroke-dasharray:none;stroke-opacity:1" />
</svg>
