<?xml version="1.0" encoding="UTF-8" standalone="no"?>
<svg
   xmlns:dc="http://purl.org/dc/elements/1.1/"
   xmlns:cc="http://creativecommons.org/ns#"
   xmlns:rdf="http://www.w3.org/1999/02/22-rdf-syntax-ns#"
   xmlns:svg="http://www.w3.org/2000/svg"
   xmlns="http://www.w3.org/2000/svg"
   xmlns:xlink="http://www.w3.org/1999/xlink"
   version="1.1"
   id="svg2"
   height="48"
   width="48">
  <defs
     id="defs4">
    <linearGradient
       gradientTransform="scale(1.0058652,0.994169)"
       gradientUnits="userSpaceOnUse"
       id="ButtonShadow-9"
       y2="7.0165396"
       x2="45.447727"
       y1="92.539597"
       x1="45.447727">
      <stop
         offset="0"
         style="stop-color:#000000;stop-opacity:1"
         id="stop3750-3" />
      <stop
         offset="1"
         style="stop-color:#000000;stop-opacity:0.58823532"
         id="stop3752-1" />
    </linearGradient>
    <filter
       id="filter3174-4"
       color-interpolation-filters="sRGB">
      <feGaussianBlur
         stdDeviation="1.71"
         id="feGaussianBlur3176-5" />
    </filter>
    <linearGradient
       gradientTransform="scale(1.0058652,0.994169)"
       gradientUnits="userSpaceOnUse"
       id="ButtonShadow"
       y2="7.0165396"
       x2="45.447727"
       y1="92.539597"
       x1="45.447727">
      <stop
         offset="0"
         style="stop-color:#000000;stop-opacity:1"
         id="stop3750-9" />
      <stop
         offset="1"
         style="stop-color:#000000;stop-opacity:0.58823532"
         id="stop3752-7" />
    </linearGradient>
    <filter
       id="filter3174"
       color-interpolation-filters="sRGB">
      <feGaussianBlur
         stdDeviation="1.71"
         id="feGaussianBlur3176" />
    </filter>
    <linearGradient
       y2="7.0165396"
       x2="45.447727"
       y1="92.539597"
       x1="45.447727"
       gradientTransform="scale(1.0058652,0.994169)"
       gradientUnits="userSpaceOnUse"
       id="linearGradient6176"
       xlink:href="#ButtonShadow-9" />
    <linearGradient
       y2="7.0165396"
       x2="45.447727"
       y1="92.539597"
       x1="45.447727"
       gradientTransform="scale(1.0058652,0.994169)"
       gradientUnits="userSpaceOnUse"
       id="linearGradient6178"
       xlink:href="#ButtonShadow" />
  </defs>
  <metadata
     id="metadata7">
    <rdf:RDF>
      <cc:Work
         rdf:about="">
        <dc:format>image/svg+xml</dc:format>
        <dc:type
           rdf:resource="http://purl.org/dc/dcmitype/StillImage" />
        <dc:title />
      </cc:Work>
    </rdf:RDF>
  </metadata>
  <g
     id="layer1"
     transform="translate(473.00006,-641.36218)">
    <g
       transform="translate(403.27272,612.31676)"
       style="display:none"
       id="layer2">
      <rect
         style="opacity:0.9;fill:url(#linearGradient6178);fill-opacity:1;fill-rule:nonzero;stroke:none;filter:url(#filter3174)"
         id="rect3745"
         y="7"
         x="5"
         ry="6"
         rx="6"
         height="85"
         width="86" />
    </g>
    <g
       transform="translate(400,611.95312)"
       style="display:none"
       id="layer2-4">
      <rect
         style="opacity:0.9;fill:url(#linearGradient6176);fill-opacity:1;fill-rule:nonzero;stroke:none;filter:url(#filter3174-4)"
         id="rect3745-5"
         y="7"
         x="5"
         ry="6"
         rx="6"
         height="85"
         width="86" />
    </g>
    <path
       style="opacity:0.4;color:#bebebe;fill:#4d4d4d;fill-opacity:1;fill-rule:nonzero;stroke:none;stroke-width:1.82310748;marker:none;visibility:visible;display:inline;overflow:visible;enable-background:accumulate"
       id="path6945-2"
       d="m -434.00005,665.36218 c 0,-6.44934 -2.40943,-11.96372 -5.89201,-14.49898 l -2.3106,2.07954 c 2.99882,2.12352 5.08331,6.90528 5.08331,12.41944 0,5.51414 -2.08449,10.29594 -5.08331,12.41944 l 2.3106,2.07954 c 3.48258,-2.53528 5.89201,-8.04966 5.89201,-14.49898 z" />
    <path
       style="opacity:0.4;color:#bebebe;fill:#4d4d4d;fill-opacity:1;fill-rule:nonzero;stroke:none;stroke-width:1.82310748;marker:none;visibility:visible;display:inline;overflow:visible;enable-background:accumulate"
       id="path6943-6"
       d="m -440.12312,665.36218 c 0,-4.36152 -1.65753,-8.16926 -4.15907,-10.57098 l -2.1373,1.90624 c 1.93073,2.05332 3.17707,5.1655 3.17707,8.66474 0,3.49924 -1.24634,6.6114 -3.17707,8.66472 l 2.1373,1.90624 c 2.50154,-2.4017 4.15907,-6.20946 4.15907,-10.57096 z" />
    <path
       id="path6941-5"
       transform="translate(-473.00006,641.36218)"
       d="M 19 13.25 L 12.3125 20 L 9 20 L 9 28 L 12.3125 28 L 19 34.75 L 19 13.25 z M 24.6875 17 L 22.46875 18.96875 C 23.3334 20.41419 23.875 22.15076 23.875 24 C 23.875 25.84922 23.3334 27.58579 22.46875 29.03125 L 24.6875 31 C 26.11935 29.09438 27 26.65142 27 24 C 27 21.34858 26.11935 18.90562 24.6875 17 z "
       style="color:#bebebe;fill:#4d4d4d;fill-opacity:1;fill-rule:nonzero;stroke:none;stroke-width:1.82310748;marker:none;visibility:visible;display:inline;overflow:visible;enable-background:accumulate" />
  </g>
</svg>
