<?xml version="1.0" encoding="UTF-8" standalone="no"?>
<svg
   xmlns:dc="http://purl.org/dc/elements/1.1/"
   xmlns:cc="http://creativecommons.org/ns#"
   xmlns:rdf="http://www.w3.org/1999/02/22-rdf-syntax-ns#"
   xmlns:svg="http://www.w3.org/2000/svg"
   xmlns="http://www.w3.org/2000/svg"
   width="16.000196"
   version="1.1"
   id="svg7384"
   height="16">
  <metadata
     id="metadata90">
    <rdf:RDF>
      <cc:Work
         rdf:about="">
        <dc:format>image/svg+xml</dc:format>
        <dc:type
           rdf:resource="http://purl.org/dc/dcmitype/StillImage" />
        <dc:title>elementary Symbolic Icon Theme</dc:title>
      </cc:Work>
    </rdf:RDF>
  </metadata>
  <title
     id="title9167">elementary Symbolic Icon Theme</title>
  <defs
     id="defs7386" />
  <g
     transform="translate(-313.0002,562)"
     style="display:inline"
     id="layer9">
    <path
       style="color:#bebebe;fill:#bebebe;fill-opacity:1;fill-rule:nonzero;stroke:none;stroke-width:1;marker:none;visibility:visible;display:inline;overflow:visible;enable-background:accumulate"
       id="path13313"
       d="m 314.0002,-559 c -0.554,0 -1,0.446 -1,1 l 0,8 c 0,0.554 0.446,1 1,1 l 12,0 c 0.554,0 1,-0.446 1,-1 l 0,-2 1,0 c 0.554,0 1,-0.446 1,-1 l 0,-2 c 0,-0.554 -0.446,-1 -1,-1 l -1,0 0,-2 c 0,-0.554 -0.446,-1 -1,-1 z m 0.5,1 11,0 c 0.277,0 0.5,0.223 0.5,0.5 l 0,7 c 0,0.277 -0.223,0.5 -0.5,0.5 l -11,0 c -0.277,0 -0.5,-0.223 -0.5,-0.5 l 0,-7 c 0,-0.277 0.223,-0.5 0.5,-0.5 z m 0.75,1 c -0.1385,0 -0.25,0.1115 -0.25,0.25 l 0,5.5 c 0,0.1385 0.1115,0.25 0.25,0.25 l 4.5,0 c 0.1385,0 0.25,-0.1115 0.25,-0.25 l 0,-5.5 c 0,-0.1385 -0.1115,-0.25 -0.25,-0.25 z m 11.75,2 0.5,0 c 0.277,0 0.5,0.223 0.5,0.5 l 0,1 c 0,0.277 -0.223,0.5 -0.5,0.5 l -0.5,0 z" />
  </g>
  <g
     transform="translate(-313.0002,562)"
     style="display:inline"
     id="layer10" />
  <g
     transform="translate(-313.0002,562)"
     id="layer11" />
  <g
     transform="translate(-313.0002,562)"
     style="display:inline"
     id="layer13" />
  <g
     transform="translate(-313.0002,562)"
     id="layer14" />
  <g
     transform="translate(-313.0002,562)"
     style="display:inline"
     id="layer15" />
  <g
     transform="translate(-313.0002,562)"
     style="display:inline"
     id="g71291" />
  <g
     transform="translate(-313.0002,562)"
     style="display:inline"
     id="g4953" />
  <g
     transform="translate(-313.0002,562)"
     style="display:inline"
     id="layer12" />
</svg>
