<?xml version="1.0" encoding="UTF-8" standalone="no"?>
<svg
   xmlns:dc="http://purl.org/dc/elements/1.1/"
   xmlns:cc="http://creativecommons.org/ns#"
   xmlns:rdf="http://www.w3.org/1999/02/22-rdf-syntax-ns#"
   xmlns:svg="http://www.w3.org/2000/svg"
   xmlns="http://www.w3.org/2000/svg"
   width="16"
   version="1.1"
   id="svg7384"
   height="16">
  <metadata
     id="metadata90">
    <rdf:RDF>
      <cc:Work
         rdf:about="">
        <dc:format>image/svg+xml</dc:format>
        <dc:type
           rdf:resource="http://purl.org/dc/dcmitype/StillImage" />
        <dc:title>elementary Symbolic Icon Theme</dc:title>
      </cc:Work>
    </rdf:RDF>
  </metadata>
  <title
     id="title9167">elementary Symbolic Icon Theme</title>
  <defs
     id="defs7386" />
  <g
     transform="translate(-633.00035,462)"
     style="display:inline"
     id="layer9">
    <path
       style="font-size:medium;font-style:normal;font-variant:normal;font-weight:normal;font-stretch:normal;text-indent:0;text-align:start;text-decoration:none;line-height:normal;letter-spacing:normal;word-spacing:normal;text-transform:none;direction:ltr;block-progression:tb;writing-mode:lr-tb;text-anchor:start;baseline-shift:baseline;color:#000000;fill:#bebebe;fill-opacity:1;stroke:none;stroke-width:0.99556434;marker:none;visibility:visible;display:inline;overflow:visible;enable-background:accumulate;font-family:Sans;-inkscape-font-specification:Sans"
       id="rect9618"
       d="m 636.4375,-461 c -1.37299,0 -2.5,1.1012 -2.5,2.46875 l 0,9.0625 c 0,1.36755 1.12701,2.46875 2.5,2.46875 l 9.125,0 c 1.37299,0 2.5,-1.1012 2.5,-2.46875 l 0,-9.0625 c 0,-1.36755 -1.12701,-2.46875 -2.5,-2.46875 l -9.125,0 z m 0,1 9.125,0 c 0.84376,0 1.5,0.64066 1.5,1.46875 l 0,9.0625 c 0,0.82809 -0.65624,1.46875 -1.5,1.46875 l -9.125,0 c -0.84376,0 -1.5,-0.64066 -1.5,-1.46875 l 0,-9.0625 c 0,-0.82809 0.65624,-1.46875 1.5,-1.46875 z" />
  </g>
  <g
     transform="translate(-633.00035,462)"
     style="display:inline"
     id="layer10" />
  <g
     transform="translate(-633.00035,462)"
     id="layer11" />
  <g
     transform="translate(-633.00035,462)"
     style="display:inline"
     id="layer13" />
  <g
     transform="translate(-633.00035,462)"
     id="layer14" />
  <g
     transform="translate(-633.00035,462)"
     style="display:inline"
     id="layer15" />
  <g
     transform="translate(-633.00035,462)"
     style="display:inline"
     id="g71291" />
  <g
     transform="translate(-633.00035,462)"
     style="display:inline"
     id="g4953" />
  <g
     transform="translate(-633.00035,462)"
     style="display:inline"
     id="layer12" />
</svg>
