<?xml version="1.0" encoding="UTF-8" standalone="no"?>
<svg
   xmlns:dc="http://purl.org/dc/elements/1.1/"
   xmlns:cc="http://creativecommons.org/ns#"
   xmlns:rdf="http://www.w3.org/1999/02/22-rdf-syntax-ns#"
   xmlns:svg="http://www.w3.org/2000/svg"
   xmlns="http://www.w3.org/2000/svg"
   width="16"
   version="1.1"
   id="svg7384"
   height="16">
  <metadata
     id="metadata90">
    <rdf:RDF>
      <cc:Work
         rdf:about="">
        <dc:format>image/svg+xml</dc:format>
        <dc:type
           rdf:resource="http://purl.org/dc/dcmitype/StillImage" />
        <dc:title>elementary Symbolic Icon Theme</dc:title>
      </cc:Work>
    </rdf:RDF>
  </metadata>
  <title
     id="title9167">elementary Symbolic Icon Theme</title>
  <defs
     id="defs7386" />
  <g
     transform="translate(-455.0004,582)"
     style="display:inline"
     id="layer9">
    <path
       style="fill:#bebebe;fill-opacity:1;stroke:none"
       id="rect3773-4"
       d="m 459.0004,-581 c -1.662,0 -3,1.338 -3,3 l 0,6 c 0,1.662 1.338,3 3,3 l 8,0 c 1.662,0 3,-1.338 3,-3 l 0,-6 c 0,-1.662 -1.338,-3 -3,-3 l -8,0 z m 2,3 c 0.55833,0 1.03125,0.47292 1.03125,1.03125 l 0,0.96875 c 0,0.55833 -0.47292,1 -1.03125,1 -0.55833,0 -1,-0.44167 -1,-1 l 0,-0.96875 c 0,-0.55833 0.44167,-1.03125 1,-1.03125 z m 4,0 c 0.55833,0 1,0.47292 1,1.03125 l 0,0.96875 c 0,0.55833 -0.44167,1 -1,1 -0.55833,0 -1,-0.44167 -1,-1 l 0,-0.96875 c 0,-0.55833 0.44167,-1.03125 1,-1.03125 z m -2,4.03125 c 3.25585,0 5,0.87374 5,1.40625 l 0,0.5 c -0.99656,-0.6369 -4.01648,-0.90625 -5,-0.90625 -0.98352,0 -3.80457,-0.0621 -5,0.90625 l 0,-0.5 c 0,-0.68098 1.74415,-1.40625 5,-1.40625 z" />
    <path
       style="fill:#bebebe;fill-opacity:1;stroke:none"
       id="rect3778-3"
       d="m 463.0004,-568 c -5,0 -5,1 -5,1 0,1 1,1 1,1 l 8,0 c 1,0 1,-1 1,-1 0,0 0,-1 -5,-1 z" />
  </g>
  <g
     transform="translate(-455.0004,582)"
     style="display:inline"
     id="layer10" />
  <g
     transform="translate(-455.0004,582)"
     id="layer11" />
  <g
     transform="translate(-455.0004,582)"
     style="display:inline"
     id="layer13" />
  <g
     transform="translate(-455.0004,582)"
     id="layer14" />
  <g
     transform="translate(-455.0004,582)"
     style="display:inline"
     id="layer15" />
  <g
     transform="translate(-455.0004,582)"
     style="display:inline"
     id="g71291" />
  <g
     transform="translate(-455.0004,582)"
     style="display:inline"
     id="g4953" />
  <g
     transform="translate(-455.0004,582)"
     style="display:inline"
     id="layer12" />
</svg>
