<?xml version="1.0" encoding="UTF-8" standalone="no"?>
<svg
   xmlns:dc="http://purl.org/dc/elements/1.1/"
   xmlns:cc="http://creativecommons.org/ns#"
   xmlns:rdf="http://www.w3.org/1999/02/22-rdf-syntax-ns#"
   xmlns:svg="http://www.w3.org/2000/svg"
   xmlns="http://www.w3.org/2000/svg"
   width="16"
   version="1.1"
   id="svg7384"
   height="16">
  <metadata
     id="metadata90">
    <rdf:RDF>
      <cc:Work
         rdf:about="">
        <dc:format>image/svg+xml</dc:format>
        <dc:type
           rdf:resource="http://purl.org/dc/dcmitype/StillImage" />
        <dc:title>elementary Symbolic Icon Theme</dc:title>
      </cc:Work>
    </rdf:RDF>
  </metadata>
  <title
     id="title9167">elementary Symbolic Icon Theme</title>
  <defs
     id="defs7386" />
  <g
     transform="translate(-413.0006,462)"
     style="display:inline"
     id="layer9">
    <path
       transform="matrix(2.000025,0,0,2.000025,359.99972,-872.0052)"
       style="fill:#bebebe;fill-opacity:1;stroke:none;display:inline"
       id="path4955-1-2"
       d="m 29,209 a 1,1 0 1 1 -2,0 1,1 0 1 1 2,0 z" />
    <path
       transform="matrix(2,0,0,2,365.00045,-872)"
       style="fill:#bebebe;fill-opacity:1;stroke:none;display:inline"
       id="path4957-2-4"
       d="m 29,209 a 1,1 0 1 1 -2,0 1,1 0 1 1 2,0 z" />
    <path
       transform="matrix(2,0,0,2,370.0004,-872)"
       style="fill:#bebebe;fill-opacity:1;stroke:none;display:inline"
       id="path4959-4-6"
       d="m 29,209 a 1,1 0 1 1 -2,0 1,1 0 1 1 2,0 z" />
  </g>
  <g
     transform="translate(-413.0006,462)"
     style="display:inline"
     id="layer10" />
  <g
     transform="translate(-413.0006,462)"
     id="layer11" />
  <g
     transform="translate(-413.0006,462)"
     style="display:inline"
     id="layer13" />
  <g
     transform="translate(-413.0006,462)"
     id="layer14" />
  <g
     transform="translate(-413.0006,462)"
     style="display:inline"
     id="layer15" />
  <g
     transform="translate(-413.0006,462)"
     style="display:inline"
     id="g71291" />
  <g
     transform="translate(-413.0006,462)"
     style="display:inline"
     id="g4953" />
  <g
     transform="translate(-413.0006,462)"
     style="display:inline"
     id="layer12" />
</svg>
