<?xml version="1.0" encoding="UTF-8" standalone="no"?>
<svg
   xmlns:dc="http://purl.org/dc/elements/1.1/"
   xmlns:cc="http://creativecommons.org/ns#"
   xmlns:rdf="http://www.w3.org/1999/02/22-rdf-syntax-ns#"
   xmlns:svg="http://www.w3.org/2000/svg"
   xmlns="http://www.w3.org/2000/svg"
   width="16.013103"
   version="1.1"
   id="svg7384"
   height="16">
  <metadata
     id="metadata90">
    <rdf:RDF>
      <cc:Work
         rdf:about="">
        <dc:format>image/svg+xml</dc:format>
        <dc:type
           rdf:resource="http://purl.org/dc/dcmitype/StillImage" />
        <dc:title>elementary Symbolic Icon Theme</dc:title>
      </cc:Work>
    </rdf:RDF>
  </metadata>
  <title
     id="title9167">elementary Symbolic Icon Theme</title>
  <defs
     id="defs7386" />
  <g
     transform="translate(-293.0004,362)"
     style="display:inline"
     label="status"
     id="layer9">
    <path
       style="font-size:medium;font-style:normal;font-variant:normal;font-weight:normal;font-stretch:normal;text-indent:0;text-align:start;text-decoration:none;line-height:normal;letter-spacing:normal;word-spacing:normal;text-transform:none;direction:ltr;block-progression:tb;writing-mode:lr-tb;text-anchor:start;baseline-shift:baseline;color:#000000;fill:#bebebe;fill-opacity:1;stroke:none;stroke-width:1;marker:none;visibility:visible;display:inline;overflow:visible;enable-background:accumulate;font-family:Sans;-inkscape-font-specification:Sans"
       id="path22918"
       d="m 294.7635,-361.00191 c -0.40685,0 -0.75,0.34315 -0.75,0.75 l 0,0.21875 -0.25,0 c -0.40685,0 -0.75,0.34315 -0.75,0.75 l 0,11.5 c 0,0.40685 0.34315,0.75 0.75,0.75 l 14.5,0 c 0.40685,0 0.75,-0.34315 0.75,-0.75 l 0,-11.5 c 0,-0.40685 -0.34315,-0.75 -0.75,-0.75 l -6.25,0 0,-0.21875 c 0,-0.40685 -0.34315,-0.75 -0.75,-0.75 z m 0.25,1 6,0 0,0.46875 0,0.5 0.5,0 6.5,0 0,11 -14,0 0,-11 0.5,0 0.5,0 0,-0.5 z" />
  </g>
  <g
     transform="translate(-293.0004,362)"
     style="display:inline"
     id="layer10" />
  <g
     transform="translate(-293.0004,362)"
     style="display:inline"
     id="layer13" />
  <g
     transform="translate(-293.0004,362)"
     id="layer14" />
  <g
     transform="translate(-293.0004,362)"
     style="display:inline"
     id="layer15" />
  <g
     transform="translate(-293.0004,362)"
     style="display:inline"
     id="g71291" />
  <g
     transform="translate(-293.0004,362)"
     style="display:inline"
     id="layer12" />
</svg>
