<?xml version="1.0" encoding="UTF-8" standalone="no"?>
<svg
   xmlns:dc="http://purl.org/dc/elements/1.1/"
   xmlns:cc="http://creativecommons.org/ns#"
   xmlns:rdf="http://www.w3.org/1999/02/22-rdf-syntax-ns#"
   xmlns:svg="http://www.w3.org/2000/svg"
   xmlns="http://www.w3.org/2000/svg"
   width="16.000002"
   version="1.1"
   id="svg7384"
   height="16">
  <metadata
     id="metadata90">
    <rdf:RDF>
      <cc:Work
         rdf:about="">
        <dc:format>image/svg+xml</dc:format>
        <dc:type
           rdf:resource="http://purl.org/dc/dcmitype/StillImage" />
        <dc:title>elementary Symbolic Icon Theme</dc:title>
      </cc:Work>
    </rdf:RDF>
  </metadata>
  <title
     id="title9167">elementary Symbolic Icon Theme</title>
  <defs
     id="defs7386" />
  <g
     transform="translate(-293.00015,462)"
     style="display:inline"
     label="status"
     id="layer9">
    <path
       style="color:#bebebe;fill:#bebebe;fill-opacity:1;fill-rule:nonzero;stroke:none;stroke-width:1;marker:none;visibility:visible;display:inline;overflow:visible;enable-background:accumulate"
       id="path6916"
       d="m 299.00015,-461 0,2 -1,0 c -2.77,0 -5,2.23 -5,5 0,2.77 2.23,5 5,5 l 0,-2 c -1.662,0 -3,-1.338 -3,-3 0,-1.662 1.338,-3 3,-3 l 1,0 0,2 4,-3 -4,-3 z m 5,2 0,2 c 1.07347,0 2.00133,0.56311 2.53125,1.40625 0.98759,0.39193 1.82726,1.05516 2.4375,1.90625 0.007,-0.1067 0.0312,-0.20404 0.0312,-0.3125 0,-2.77 -2.23,-5 -5,-5 z m 0.5,4 c -2.48528,0 -4.5,2.01472 -4.5,4.5 0,2.48528 2.01472,4.5 4.5,4.5 2.48528,0 4.5,-2.01472 4.5,-4.5 0,-2.48528 -2.01472,-4.5 -4.5,-4.5 z m -0.5,2 1,0 0,4 1,0 0,1 -3,0 0,-1 1,0 0,-2 -1,0 0,-1 c 1,0 1,-1 1,-1 z m -4.96875,2.96875 -0.0312,0.0312 0.0312,0.0312 c -0.002,-0.0205 0.002,-0.0419 0,-0.0625 z" />
  </g>
  <g
     transform="translate(-293.00015,462)"
     style="display:inline"
     id="layer10" />
  <g
     transform="translate(-293.00015,462)"
     style="display:inline"
     id="layer13" />
  <g
     transform="translate(-293.00015,462)"
     id="layer14" />
  <g
     transform="translate(-293.00015,462)"
     style="display:inline"
     id="layer15" />
  <g
     transform="translate(-293.00015,462)"
     style="display:inline"
     id="g71291" />
  <g
     transform="translate(-293.00015,462)"
     style="display:inline"
     id="g4953" />
  <g
     transform="translate(-293.00015,462)"
     style="display:inline"
     id="layer12" />
</svg>
