<?xml version="1.0" encoding="UTF-8" standalone="no"?>
<svg
   xmlns:dc="http://purl.org/dc/elements/1.1/"
   xmlns:cc="http://creativecommons.org/ns#"
   xmlns:rdf="http://www.w3.org/1999/02/22-rdf-syntax-ns#"
   xmlns:svg="http://www.w3.org/2000/svg"
   xmlns="http://www.w3.org/2000/svg"
   width="16"
   version="1.1"
   id="svg7384"
   height="16">
  <metadata
     id="metadata90">
    <rdf:RDF>
      <cc:Work
         rdf:about="">
        <dc:format>image/svg+xml</dc:format>
        <dc:type
           rdf:resource="http://purl.org/dc/dcmitype/StillImage" />
        <dc:title>elementary Symbolic Icon Theme</dc:title>
      </cc:Work>
    </rdf:RDF>
  </metadata>
  <title
     id="title9167">elementary Symbolic Icon Theme</title>
  <defs
     id="defs7386" />
  <g
     transform="translate(-573.0004,602)"
     style="display:inline"
     id="layer9">
    <path
       style="opacity:0.35;color:#000000;fill:#bebebe;fill-opacity:1;fill-rule:nonzero;stroke:none;stroke-width:1;marker:none;visibility:visible;display:inline;overflow:visible;enable-background:accumulate"
       id="path12905"
       d="m 578.0002,-599 0,4 2,0 0,1 -6,0 0,1 3,0 0,1 -2,0 0,4 5,0 0,-4 -2,0 0,-1 5,0 0,1 -2,0 0,4 5,0 0,-4 -2,0 0,-1 3,0 0,-1 -6,0 0,-1 2,0 0,-4 z m 1,1 3,0 0,2 -3,0 z m -3,7 3,0 0,2 -3,0 z m 6,0 3,0 0,2 -3,0 z" />
    <path
       style="color:#000000;fill:#bebebe;fill-opacity:1;fill-rule:nonzero;stroke:none;stroke-width:1;marker:none;visibility:visible;display:inline;overflow:visible;enable-background:accumulate"
       id="path12909"
       d="m 578.0002,-599 0,4 2,0 0,1 -6,0 0,1 13,0 0,-1 -6,0 0,-1 2,0 0,-4 -5,0 z m 1,1 3,0 0,2 -3,0 0,-2 z" />
  </g>
  <g
     transform="translate(-573.0004,602)"
     style="display:inline"
     id="layer10" />
  <g
     transform="translate(-573.0004,602)"
     id="layer11" />
  <g
     transform="translate(-573.0004,602)"
     style="display:inline"
     id="layer13" />
  <g
     transform="translate(-573.0004,602)"
     id="layer14" />
  <g
     transform="translate(-573.0004,602)"
     style="display:inline"
     id="layer15" />
  <g
     transform="translate(-573.0004,602)"
     style="display:inline"
     id="g71291" />
  <g
     transform="translate(-573.0004,602)"
     style="display:inline"
     id="g4953" />
  <g
     transform="translate(-573.0004,602)"
     style="display:inline"
     id="layer12" />
</svg>
