<?xml version="1.0" encoding="UTF-8" standalone="no"?>
<svg
   xmlns:dc="http://purl.org/dc/elements/1.1/"
   xmlns:cc="http://creativecommons.org/ns#"
   xmlns:rdf="http://www.w3.org/1999/02/22-rdf-syntax-ns#"
   xmlns:svg="http://www.w3.org/2000/svg"
   xmlns="http://www.w3.org/2000/svg"
   width="16"
   version="1.1"
   id="svg7384"
   height="16">
  <metadata
     id="metadata90">
    <rdf:RDF>
      <cc:Work
         rdf:about="">
        <dc:format>image/svg+xml</dc:format>
        <dc:type
           rdf:resource="http://purl.org/dc/dcmitype/StillImage" />
        <dc:title>elementary Symbolic Icon Theme</dc:title>
      </cc:Work>
    </rdf:RDF>
  </metadata>
  <title
     id="title9167">elementary Symbolic Icon Theme</title>
  <defs
     id="defs7386" />
  <g
     transform="translate(-393.0004,602)"
     style="display:inline"
     id="layer9">
    <path
       style="opacity:0.35;color:#000000;fill:#bebebe;fill-opacity:1;fill-rule:nonzero;stroke:none;stroke-width:1;marker:none;visibility:visible;display:inline;overflow:visible;enable-background:accumulate"
       id="path13015"
       d="m 401.0002,-599 c -2.85342,0 -5.46832,1.11106 -7.5,2.9375 l 2.75,3 c -0.15116,-0.28036 -0.25,-0.60081 -0.25,-0.9375 0,-0.22879 0.0521,-0.45035 0.125,-0.65625 l -1.125,-1.21875 c 1.73319,-1.29243 3.74766,-2.15625 6,-2.15625 2.25234,0 4.26681,0.86382 6,2.15625 l -1.125,1.21875 c 0.0729,0.2059 0.125,0.42746 0.125,0.65625 0,0.33669 -0.0988,0.65714 -0.25,0.9375 l 2.75,-3 c -2.03168,-1.82644 -4.64658,-2.9375 -7.5,-2.9375 z m -4.09375,6.6875 4.09375,4.46875 4.09375,-4.46875 c -0.31243,0.20299 -0.69877,0.3125 -1.09375,0.3125 -0.16847,0 -0.31899,-0.0176 -0.46875,-0.0625 l -2.53125,2.78125 -2.53125,-2.78125 c -0.14976,0.0449 -0.30028,0.0625 -0.46875,0.0625 -0.39498,0 -0.78132,-0.10951 -1.09375,-0.3125 z" />
    <path
       style="fill:#bebebe;fill-opacity:1;stroke:none"
       id="path13030"
       d="m 398.0002,-595 c -0.55228,0 -1,0.44772 -1,1 0,0.55228 0.44772,1 1,1 0.55228,0 1,-0.44772 1,-1 0,-0.55228 -0.44772,-1 -1,-1 z m 3,0 c -0.55228,0 -1,0.44772 -1,1 0,0.55228 0.44772,1 1,1 0.55228,0 1,-0.44772 1,-1 0,-0.55228 -0.44772,-1 -1,-1 z m 3,0 c -0.55228,0 -1,0.44772 -1,1 0,0.55228 0.44772,1 1,1 0.55228,0 1,-0.44772 1,-1 0,-0.55228 -0.44772,-1 -1,-1 z" />
  </g>
  <g
     transform="translate(-393.0004,602)"
     style="display:inline"
     id="layer10" />
  <g
     transform="translate(-393.0004,602)"
     id="layer11" />
  <g
     transform="translate(-393.0004,602)"
     style="display:inline"
     id="layer13" />
  <g
     transform="translate(-393.0004,602)"
     id="layer14" />
  <g
     transform="translate(-393.0004,602)"
     style="display:inline"
     id="layer15" />
  <g
     transform="translate(-393.0004,602)"
     style="display:inline"
     id="g71291" />
  <g
     transform="translate(-393.0004,602)"
     style="display:inline"
     id="g4953" />
  <g
     transform="translate(-393.0004,602)"
     style="display:inline"
     id="layer12" />
</svg>
