<?xml version="1.0" encoding="UTF-8" standalone="no"?>
<svg
   xmlns:dc="http://purl.org/dc/elements/1.1/"
   xmlns:cc="http://creativecommons.org/ns#"
   xmlns:rdf="http://www.w3.org/1999/02/22-rdf-syntax-ns#"
   xmlns:svg="http://www.w3.org/2000/svg"
   xmlns="http://www.w3.org/2000/svg"
   width="16"
   version="1.1"
   id="svg7384"
   height="16">
  <metadata
     id="metadata90">
    <rdf:RDF>
      <cc:Work
         rdf:about="">
        <dc:format>image/svg+xml</dc:format>
        <dc:type
           rdf:resource="http://purl.org/dc/dcmitype/StillImage" />
        <dc:title>elementary Symbolic Icon Theme</dc:title>
      </cc:Work>
    </rdf:RDF>
  </metadata>
  <title
     id="title9167">elementary Symbolic Icon Theme</title>
  <defs
     id="defs7386" />
  <g
     transform="translate(-373.0004,502)"
     style="display:inline"
     label="status"
     id="layer9">
    <path
       style="opacity:0.35;fill:#bebebe;fill-opacity:1;stroke:none"
       id="rect13687"
       d="m 386.5002,-499 c -0.277,0 -0.5,0.223 -0.5,0.5 l 0,6.5 0,4.5 c 0,0.277 0.223,0.5 0.5,0.5 l 1,0 c 0.277,0 0.5,-0.223 0.5,-0.5 l 0,-11 c 0,-0.277 -0.223,-0.5 -0.5,-0.5 l -1,0 z m -4,3 c -0.277,0 -0.5,0.223 -0.5,0.5 l 0,1.84375 c 0.18222,0.13143 0.35733,0.28794 0.5,0.46875 0.3683,-0.46676 0.86845,-0.8125 1.5,-0.8125 l 0,-1.5 c 0,-0.277 -0.223,-0.5 -0.5,-0.5 l -1,0 z m -3,5.1875 c -0.3683,0.46676 -0.86845,0.8125 -1.5,0.8125 l 0,2.5 c 0,0.277 0.223,0.5 0.5,0.5 l 1,0 c 0.277,0 0.5,-0.223 0.5,-0.5 l 0,-2.84375 c -0.18222,-0.13143 -0.35733,-0.28794 -0.5,-0.46875 z m 3,0 c -0.14267,0.18081 -0.31778,0.33732 -0.5,0.46875 l 0,2.84375 c 0,0.277 0.223,0.5 0.5,0.5 l 1,0 c 0.277,0 0.5,-0.223 0.5,-0.5 l 0,-2.5 c -0.63155,0 -1.1317,-0.34574 -1.5,-0.8125 z m -8,0.8125 c -0.277,0 -0.5,0.223 -0.5,0.5 l 0,2 c 0,0.277 0.223,0.5 0.5,0.5 l 1,0 c 0.277,0 0.5,-0.223 0.5,-0.5 l 0,-2 c 0,-0.277 -0.223,-0.5 -0.5,-0.5 l -1,0 z" />
    <path
       style="fill:#bebebe;fill-opacity:1;stroke:none"
       id="path13701"
       d="m 378.0002,-493 c -0.55228,0 -1,0.44772 -1,1 0,0.55228 0.44772,1 1,1 0.55228,0 1,-0.44772 1,-1 0,-0.55228 -0.44772,-1 -1,-1 z m 3,0 c -0.55228,0 -1,0.44772 -1,1 0,0.55228 0.44772,1 1,1 0.55228,0 1,-0.44772 1,-1 0,-0.55228 -0.44772,-1 -1,-1 z m 3,0 c -0.55228,0 -1,0.44772 -1,1 0,0.55228 0.44772,1 1,1 0.55228,0 1,-0.44772 1,-1 0,-0.55228 -0.44772,-1 -1,-1 z" />
  </g>
  <g
     transform="translate(-373.0004,502)"
     style="display:inline"
     id="layer10" />
  <g
     transform="translate(-373.0004,502)"
     style="display:inline"
     id="layer13" />
  <g
     transform="translate(-373.0004,502)"
     id="layer14" />
  <g
     transform="translate(-373.0004,502)"
     style="display:inline"
     id="layer15" />
  <g
     transform="translate(-373.0004,502)"
     style="display:inline"
     id="g71291" />
  <g
     transform="translate(-373.0004,502)"
     style="display:inline"
     id="layer12" />
</svg>
