<?xml version="1.0" encoding="UTF-8" standalone="no"?>
<svg
   xmlns:dc="http://purl.org/dc/elements/1.1/"
   xmlns:cc="http://creativecommons.org/ns#"
   xmlns:rdf="http://www.w3.org/1999/02/22-rdf-syntax-ns#"
   xmlns:svg="http://www.w3.org/2000/svg"
   xmlns="http://www.w3.org/2000/svg"
   width="16.000004"
   version="1.1"
   id="svg7384"
   height="16">
  <metadata
     id="metadata90">
    <rdf:RDF>
      <cc:Work
         rdf:about="">
        <dc:format>image/svg+xml</dc:format>
        <dc:type
           rdf:resource="http://purl.org/dc/dcmitype/StillImage" />
        <dc:title>elementary Symbolic Icon Theme</dc:title>
      </cc:Work>
    </rdf:RDF>
  </metadata>
  <title
     id="title9167">elementary Symbolic Icon Theme</title>
  <defs
     id="defs7386" />
  <g
     transform="translate(-653.0004,602)"
     style="display:inline"
     label="status"
     id="layer9">
    <path
       style="color:#bebebe;fill:#bebebe;fill-opacity:1;stroke:none;stroke-width:2;marker:none;visibility:visible;display:inline;overflow:visible"
       id="path13596"
       d="m 664.0004,-591 1.375,0 1.125,1.09375 1.09375,-1.09375 1.40625,0 0,1.46875 -1.09375,1.0625 1.09375,1.0625 0,1.40625 -1.4375,0 -1.0625,-1.0625 -1.0625,1.0625 -1.4375,0 0,-1.40625 1.0625,-1.0625 -1.0625,-1.0625 0,-1.46875 z" />
    <path
       style="opacity:0.35;color:#000000;fill:#bebebe;fill-opacity:1;fill-rule:nonzero;stroke:none;stroke-width:1;marker:none;visibility:visible;display:inline;overflow:visible;enable-background:accumulate"
       id="path13598"
       d="m 658.0002,-599 0,4 2,0 0,1 -6,0 0,1 3,0 0,1 -2,0 0,4 5,0 0,-4 -2,0 0,-1 5,0 0,1 1,0 0,-1 3,0 0,-1 -6,0 0,-1 2,0 0,-4 -5,0 z m 5,7 -2,0 0,4 2,0 0,-1 -1,0 0,-2 1,0 0,-1 z m -4,-6 3,0 0,2 -3,0 0,-2 z m -3,7 3,0 0,2 -3,0 0,-2 z" />
  </g>
  <g
     transform="translate(-653.0004,602)"
     style="display:inline"
     id="layer10" />
  <g
     transform="translate(-653.0004,602)"
     style="display:inline"
     id="layer13" />
  <g
     transform="translate(-653.0004,602)"
     id="layer14" />
  <g
     transform="translate(-653.0004,602)"
     style="display:inline"
     id="layer15" />
  <g
     transform="translate(-653.0004,602)"
     style="display:inline"
     id="g71291" />
  <g
     transform="translate(-653.0004,602)"
     style="display:inline"
     id="g4953" />
  <g
     transform="translate(-653.0004,602)"
     style="display:inline"
     id="layer12" />
</svg>
