<?xml version="1.0" encoding="UTF-8" standalone="no"?>
<svg
   xmlns:dc="http://purl.org/dc/elements/1.1/"
   xmlns:cc="http://creativecommons.org/ns#"
   xmlns:rdf="http://www.w3.org/1999/02/22-rdf-syntax-ns#"
   xmlns:svg="http://www.w3.org/2000/svg"
   xmlns="http://www.w3.org/2000/svg"
   width="16"
   version="1.1"
   id="svg7384"
   height="16">
  <metadata
     id="metadata90">
    <rdf:RDF>
      <cc:Work
         rdf:about="">
        <dc:format>image/svg+xml</dc:format>
        <dc:type
           rdf:resource="http://purl.org/dc/dcmitype/StillImage" />
        <dc:title>elementary Symbolic Icon Theme</dc:title>
      </cc:Work>
    </rdf:RDF>
  </metadata>
  <title
     id="title9167">elementary Symbolic Icon Theme</title>
  <defs
     id="defs7386" />
  <g
     transform="translate(-333.0004,382)"
     style="display:inline"
     label="status"
     id="layer9">
    <path
       style="color:#fbc02d;fill:#fbc02d;fill-opacity:1;fill-rule:nonzero;stroke:none;stroke-width:1;marker:none;visibility:visible;display:inline;overflow:visible;enable-background:accumulate"
       class="warning"
       id="path13555"
       d="m 341.0002,-381.5 2,5.5 5.5,0 -4.25,3.5 2,5.75 -5.25,-2.5 -5.25,2.5 2,-5.75 -4.25,-3.5 5.5,0 2,-5.5 z m 0,2.9375 -1.0625,2.90625 A 0.98599047,0.98599047 0 0 1 339.0002,-375 l -2.75,0 2.125,1.75 a 0.98599047,0.98599047 0 0 1 0.3125,1.0625 l -1.21875,3.53125 3.09375,-1.46875 a 0.98599047,0.98599047 0 0 1 0.4375,-0.0937 l 0,-8.34375 z" />
  </g>
  <g
     transform="translate(-333.0004,382)"
     style="display:inline"
     id="layer10" />
  <g
     transform="translate(-333.0004,382)"
     style="display:inline"
     id="layer13" />
  <g
     transform="translate(-333.0004,382)"
     id="layer14" />
  <g
     transform="translate(-333.0004,382)"
     style="display:inline"
     id="layer15" />
  <g
     transform="translate(-333.0004,382)"
     style="display:inline"
     id="g71291" />
  <g
     transform="translate(-333.0004,382)"
     style="display:inline"
     id="g4953" />
  <g
     transform="translate(-333.0004,382)"
     style="display:inline"
     id="layer12" />
</svg>
