<?xml version="1.0" encoding="UTF-8" standalone="no"?>
<svg
   xmlns:dc="http://purl.org/dc/elements/1.1/"
   xmlns:cc="http://creativecommons.org/ns#"
   xmlns:rdf="http://www.w3.org/1999/02/22-rdf-syntax-ns#"
   xmlns:svg="http://www.w3.org/2000/svg"
   xmlns="http://www.w3.org/2000/svg"
   width="16"
   version="1.1"
   id="svg7384"
   height="16">
  <metadata
     id="metadata90">
    <rdf:RDF>
      <cc:Work
         rdf:about="">
        <dc:format>image/svg+xml</dc:format>
        <dc:type
           rdf:resource="http://purl.org/dc/dcmitype/StillImage" />
        <dc:title>elementary Symbolic Icon Theme</dc:title>
      </cc:Work>
    </rdf:RDF>
  </metadata>
  <title
     id="title9167">elementary Symbolic Icon Theme</title>
  <defs
     id="defs7386" />
  <g
     transform="translate(-572.9992,562)"
     style="display:inline"
     id="layer9">
    <path
       style="color:#bebebe;fill:#bebebe;fill-opacity:1;fill-rule:nonzero;stroke:none;stroke-width:1;marker:none;visibility:visible;display:inline;overflow:visible;enable-background:accumulate"
       id="rect10309"
       d="m 579.0002,-561 0,1 -3.5,0 c 0,0 -0.5,0 -0.5,0.5 l 0,1.5 12,0 0,-1.5 c 0,-0.5 -0.5,-0.5 -0.5,-0.5 l -3.5,0 0,-1 z m -2.03125,4 -0.96875,0 0,9 c 0,0 0,1 1,1 l 7.96875,0 c 0.0312,0 1.03125,0 1.03125,-1 l 0,-8 0,-1 z m 2.03125,2 1,0 0,6 -1,0 z m 3,0 1,0 0,6 -1,0 z" />
  </g>
  <g
     transform="translate(-572.9992,562)"
     style="display:inline"
     id="layer10" />
  <g
     transform="translate(-572.9992,562)"
     id="layer11" />
  <g
     transform="translate(-572.9992,562)"
     style="display:inline"
     id="layer13" />
  <g
     transform="translate(-572.9992,562)"
     id="layer14" />
  <g
     transform="translate(-572.9992,562)"
     style="display:inline"
     id="layer15" />
  <g
     transform="translate(-572.9992,562)"
     style="display:inline"
     id="g71291" />
  <g
     transform="translate(-572.9992,562)"
     style="display:inline"
     id="g4953" />
  <g
     transform="translate(-572.9992,562)"
     style="display:inline"
     id="layer12" />
</svg>
