<?xml version="1.0" encoding="UTF-8" standalone="no"?>
<svg
   xmlns:dc="http://purl.org/dc/elements/1.1/"
   xmlns:cc="http://creativecommons.org/ns#"
   xmlns:rdf="http://www.w3.org/1999/02/22-rdf-syntax-ns#"
   xmlns:svg="http://www.w3.org/2000/svg"
   xmlns="http://www.w3.org/2000/svg"
   width="16"
   version="1.1"
   id="svg7384"
   height="16">
  <metadata
     id="metadata90">
    <rdf:RDF>
      <cc:Work
         rdf:about="">
        <dc:format>image/svg+xml</dc:format>
        <dc:type
           rdf:resource="http://purl.org/dc/dcmitype/StillImage" />
        <dc:title>elementary Symbolic Icon Theme</dc:title>
      </cc:Work>
    </rdf:RDF>
  </metadata>
  <title
     id="title9167">elementary Symbolic Icon Theme</title>
  <defs
     id="defs7386" />
  <g
     transform="translate(-453.00021,482)"
     style="display:inline"
     label="status"
     id="layer9">
    <path
       style="fill:#bebebe;fill-opacity:1;stroke:none;display:inline"
       id="path2876-6-6-4"
       d="m 461.33396,-472.04954 c 0.0711,-1.96431 -1.14814,-2.51493 -1.4821,-2.81148 -1.17828,-1.04656 1.71395,-5.38808 0.16287,-5.12775 -1.55097,0.26033 -2.98582,1.16078 -3.89941,2.44714 -0.91349,1.28635 -1.2946,2.9428 -1.03562,4.50167 0.25898,1.55886 1.15495,3.00094 2.43483,3.91915 1.27988,0.9182 2.92797,1.30121 4.47894,1.04088 1.55108,-0.26033 2.98583,-1.16078 3.89941,-2.44714 0.91369,-1.28636 -4.29994,0.0364 -4.55892,-1.52247 l 0,0 z" />
  </g>
  <g
     transform="translate(-453.00021,482)"
     style="display:inline"
     id="layer10" />
  <g
     transform="translate(-453.00021,482)"
     style="display:inline"
     id="layer13" />
  <g
     transform="translate(-453.00021,482)"
     id="layer14" />
  <g
     transform="translate(-453.00021,482)"
     style="display:inline"
     id="layer15" />
  <g
     transform="translate(-453.00021,482)"
     style="display:inline"
     id="g71291" />
  <g
     transform="translate(-453.00021,482)"
     style="display:inline"
     id="layer12" />
</svg>
