<?xml version="1.0" encoding="UTF-8" standalone="no"?>
<svg
   xmlns:dc="http://purl.org/dc/elements/1.1/"
   xmlns:cc="http://creativecommons.org/ns#"
   xmlns:rdf="http://www.w3.org/1999/02/22-rdf-syntax-ns#"
   xmlns:svg="http://www.w3.org/2000/svg"
   xmlns="http://www.w3.org/2000/svg"
   width="16.000002"
   version="1.1"
   id="svg7384"
   height="16">
  <metadata
     id="metadata90">
    <rdf:RDF>
      <cc:Work
         rdf:about="">
        <dc:format>image/svg+xml</dc:format>
        <dc:type
           rdf:resource="http://purl.org/dc/dcmitype/StillImage" />
        <dc:title>elementary Symbolic Icon Theme</dc:title>
      </cc:Work>
    </rdf:RDF>
  </metadata>
  <title
     id="title9167">elementary Symbolic Icon Theme</title>
  <defs
     id="defs7386" />
  <g
     transform="translate(-753.00043,584)"
     style="display:inline"
     id="layer9" />
  <g
     transform="translate(-753.00043,584)"
     style="display:inline"
     id="layer10" />
  <g
     transform="translate(-753.00043,584)"
     id="layer11" />
  <g
     transform="translate(-753.00043,584)"
     style="display:inline"
     id="layer13">
    <path
       style="color:#bebebe;fill:#bebebe;fill-opacity:1;fill-rule:nonzero;stroke:none;stroke-width:1;marker:none;visibility:visible;display:inline;overflow:visible;enable-background:accumulate"
       id="path2991"
       d="m 761.00043,-584 c -4.41828,0 -8,3.58172 -8,8 0,4.41828 3.58172,8 8,8 4.41828,0 8,-3.58172 8,-8 0,-4.41828 -3.58172,-8 -8,-8 z m 0,2 c 3.31371,0 6,2.68629 6,6 0,3.31371 -2.68629,6 -6,6 -3.31371,0 -6,-2.68629 -6,-6 0,-3.31371 2.68629,-6 6,-6 z" />
    <path
       style="color:#bebebe;fill:#bebebe;fill-opacity:1;fill-rule:nonzero;stroke:none;stroke-width:1;marker:none;visibility:visible;display:inline;overflow:visible;enable-background:accumulate"
       id="rect3005"
       d="m 760.00043,-580 0,4 -3,0 4,4 4,-4 -3,0 0,-4 z" />
  </g>
  <g
     transform="translate(-753.00043,584)"
     id="layer14" />
  <g
     transform="translate(-753.00043,584)"
     style="display:inline"
     id="layer15" />
  <g
     transform="translate(-753.00043,584)"
     style="display:inline"
     id="g71291" />
  <g
     transform="translate(-753.00043,584)"
     style="display:inline"
     id="g4953" />
  <g
     transform="translate(-753.00043,584)"
     style="display:inline"
     id="layer12" />
</svg>
