<?xml version="1.0" encoding="UTF-8" standalone="no"?>
<svg
   xmlns:dc="http://purl.org/dc/elements/1.1/"
   xmlns:cc="http://creativecommons.org/ns#"
   xmlns:rdf="http://www.w3.org/1999/02/22-rdf-syntax-ns#"
   xmlns:svg="http://www.w3.org/2000/svg"
   xmlns="http://www.w3.org/2000/svg"
   width="16.000002"
   version="1.1"
   id="svg7384"
   height="16">
  <metadata
     id="metadata90">
    <rdf:RDF>
      <cc:Work
         rdf:about="">
        <dc:format>image/svg+xml</dc:format>
        <dc:type
           rdf:resource="http://purl.org/dc/dcmitype/StillImage" />
        <dc:title>elementary Symbolic Icon Theme</dc:title>
      </cc:Work>
    </rdf:RDF>
  </metadata>
  <title
     id="title9167">elementary Symbolic Icon Theme</title>
  <defs
     id="defs7386" />
  <g
     transform="translate(-753.0004,604)"
     style="display:inline"
     id="layer9" />
  <g
     transform="translate(-753.0004,604)"
     style="display:inline"
     id="layer10" />
  <g
     transform="translate(-753.0004,604)"
     id="layer11" />
  <g
     transform="translate(-753.0004,604)"
     style="display:inline"
     id="layer13">
    <path
       style="fill:#bebebe;fill-opacity:1;stroke:none;display:inline"
       id="path11106"
       d="m 759.0004,-592 0,2 -5.53125,0 c -0.26299,0 -0.46875,0.2057 -0.46875,0.4688 l 0,1.0624 c 0,0.263 0.20576,0.4688 0.46875,0.4688 4.35417,0 8.70833,0 13.0625,0 0.26299,0 0.46875,-0.2058 0.46875,-0.4688 l 0,-1.0624 c 0,-0.263 -0.20575,-0.4688 -0.46875,-0.4688 l -5.53125,0 0,-2 z" />
    <path
       style="font-size:medium;font-style:normal;font-variant:normal;font-weight:normal;font-stretch:normal;text-indent:0;text-align:start;text-decoration:none;line-height:normal;letter-spacing:normal;word-spacing:normal;text-transform:none;direction:ltr;block-progression:tb;writing-mode:lr-tb;text-anchor:start;baseline-shift:baseline;color:#000000;fill:#bebebe;fill-opacity:1;stroke:none;stroke-width:2;marker:none;visibility:visible;display:inline;overflow:visible;enable-background:accumulate;font-family:Sans;-inkscape-font-specification:Sans"
       id="rect11110"
       d="m 757,-604 c -1.0907,0 -2,0.9093 -2,2 l 0,8 c 0,1.0907 0.9093,2 2,2 l 6,0 c 1.0907,0 2,-0.9093 2,-2 l 0,-8 c 0,-1.0907 -0.9093,-2 -2,-2 l -6,0 z m 0,2 6,0 0,8 -6,0 0,-8 z" />
    <rect
       y="-601"
       x="758.00043"
       width="4.0000014"
       style="color:#000000;fill:#bebebe;fill-opacity:1;stroke:none;stroke-width:2;marker:none;visibility:visible;display:inline;overflow:visible;enable-background:accumulate"
       id="rect11880"
       height="1" />
    <rect
       y="-599"
       x="761.00043"
       width="0.99999839"
       style="color:#000000;fill:#bebebe;fill-opacity:1;stroke:none;stroke-width:2;marker:none;visibility:visible;display:inline;overflow:visible;enable-background:accumulate"
       id="rect11882"
       height="1" />
  </g>
  <g
     transform="translate(-753.0004,604)"
     id="layer14" />
  <g
     transform="translate(-753.0004,604)"
     style="display:inline"
     id="layer15" />
  <g
     transform="translate(-753.0004,604)"
     style="display:inline"
     id="g71291" />
  <g
     transform="translate(-753.0004,604)"
     style="display:inline"
     id="g4953" />
  <g
     transform="translate(-753.0004,604)"
     style="display:inline"
     id="layer12" />
</svg>
