<?xml version="1.0" encoding="UTF-8" standalone="no"?>
<svg
   xmlns:dc="http://purl.org/dc/elements/1.1/"
   xmlns:cc="http://creativecommons.org/ns#"
   xmlns:rdf="http://www.w3.org/1999/02/22-rdf-syntax-ns#"
   xmlns:svg="http://www.w3.org/2000/svg"
   xmlns="http://www.w3.org/2000/svg"
   width="16"
   version="1.1"
   id="svg7384"
   height="15.999979">
  <metadata
     id="metadata90">
    <rdf:RDF>
      <cc:Work
         rdf:about="">
        <dc:format>image/svg+xml</dc:format>
        <dc:type
           rdf:resource="http://purl.org/dc/dcmitype/StillImage" />
        <dc:title>elementary Symbolic Icon Theme</dc:title>
      </cc:Work>
    </rdf:RDF>
  </metadata>
  <title
     id="title9167">elementary Symbolic Icon Theme</title>
  <defs
     id="defs7386" />
  <g
     transform="translate(-815.0004,603.99997)"
     style="display:inline"
     id="layer9" />
  <g
     transform="translate(-815.0004,603.99997)"
     style="display:inline"
     id="layer10" />
  <g
     transform="translate(-815.0004,603.99997)"
     id="layer11" />
  <g
     transform="translate(-815.0004,603.99997)"
     style="display:inline"
     id="layer13">
    <g
       transform="matrix(1,0,0,0.99999871,657.62038,-1363.9021)"
       id="g5388">
      <title
         id="title5390">go-home</title>
      <g
         transform="matrix(0.02603569,0,0,0.02603569,345.96663,902.07624)"
         style="fill:#bebebe;fill-opacity:1"
         id="g5392">
        <g
           style="fill:#bebebe;fill-opacity:1"
           id="g5394" />
        <g
           style="fill:#bebebe;fill-opacity:1"
           id="g5396" />
      </g>
      <g
         transform="matrix(0,1,1,0,-360.61998,639.9031)"
         id="g5398" />
    </g>
    <path
       style="fill:#bebebe;fill-opacity:1;stroke:none"
       id="path2998-6"
       d="m 823.0004,-603 -7.75,7.75 1.5,1.5 1.25,-1.25 0,6 4,0 0,-3 c 0,-0.554 0.446,-1 1,-1 0.554,0 1,0.446 1,1 l 0,3 4,0 0,-6 1.25,1.25 1.5,-1.5 -7.75,-7.75 z m 3,1 0,0.75 2,2 0,-2.75 -2,0 z" />
  </g>
  <g
     transform="translate(-815.0004,603.99997)"
     id="layer14" />
  <g
     transform="translate(-815.0004,603.99997)"
     style="display:inline"
     id="layer15" />
  <g
     transform="translate(-815.0004,603.99997)"
     style="display:inline"
     id="g71291" />
  <g
     transform="translate(-815.0004,603.99997)"
     style="display:inline"
     id="g4953" />
  <g
     transform="translate(-815.0004,603.99997)"
     style="display:inline"
     id="layer12" />
</svg>
