<?xml version="1.0" encoding="UTF-8" standalone="no"?>
<svg
   xmlns:dc="http://purl.org/dc/elements/1.1/"
   xmlns:cc="http://creativecommons.org/ns#"
   xmlns:rdf="http://www.w3.org/1999/02/22-rdf-syntax-ns#"
   xmlns:svg="http://www.w3.org/2000/svg"
   xmlns="http://www.w3.org/2000/svg"
   xmlns:xlink="http://www.w3.org/1999/xlink"
   id="svg3901"
   height="48"
   width="48"
   version="1.1">
  <defs
     id="defs3903">
    <linearGradient
       id="linearGradient3029">
      <stop
         offset="0"
         style="stop-color:#ffffff;stop-opacity:1"
         id="stop3031" />
      <stop
         offset="0.01487851"
         style="stop-color:#ffffff;stop-opacity:0.23529412"
         id="stop3033" />
      <stop
         offset="0.98463625"
         style="stop-color:#ffffff;stop-opacity:0.15686275"
         id="stop3035" />
      <stop
         offset="1"
         style="stop-color:#ffffff;stop-opacity:0.39215687"
         id="stop3037" />
    </linearGradient>
    <linearGradient
       id="linearGradient3600">
      <stop
         offset="0"
         style="stop-color:#f4f4f4;stop-opacity:1"
         id="stop3602" />
      <stop
         offset="1"
         style="stop-color:#dbdbdb;stop-opacity:1"
         id="stop3604" />
    </linearGradient>
    <linearGradient
       id="linearGradient5060">
      <stop
         offset="0"
         style="stop-color:#000000;stop-opacity:1"
         id="stop5062" />
      <stop
         offset="1"
         style="stop-color:#000000;stop-opacity:0"
         id="stop5064" />
    </linearGradient>
    <linearGradient
       id="linearGradient5048">
      <stop
         offset="0"
         style="stop-color:#000000;stop-opacity:0"
         id="stop5050" />
      <stop
         offset="0.5"
         style="stop-color:#000000;stop-opacity:1"
         id="stop5056" />
      <stop
         offset="1"
         style="stop-color:#000000;stop-opacity:0"
         id="stop5052" />
    </linearGradient>
    <linearGradient
       id="linearGradient3104-6">
      <stop
         id="stop3106-3"
         style="stop-color:#000000;stop-opacity:0.31782946"
         offset="0" />
      <stop
         id="stop3108-9"
         style="stop-color:#000000;stop-opacity:0.24031007"
         offset="1" />
    </linearGradient>
    <linearGradient
       y2="42.110645"
       x2="23.99999"
       y1="5.5641499"
       x1="23.99999"
       gradientTransform="matrix(0.89189189,0,0,1.1351351,2.5945999,-4.7432314)"
       gradientUnits="userSpaceOnUse"
       id="linearGradient3106"
       xlink:href="#linearGradient3029" />
    <linearGradient
       y2="47.013336"
       x2="25.132275"
       y1="0.98520643"
       x1="25.132275"
       gradientTransform="matrix(0.97142632,0,0,0.93431938,0.68576678,-1.3569996)"
       gradientUnits="userSpaceOnUse"
       id="linearGradient3109"
       xlink:href="#linearGradient3600" />
    <radialGradient
       r="117.14286"
       fy="486.64789"
       fx="605.71429"
       cy="486.64789"
       cx="605.71429"
       gradientTransform="matrix(0.02303995,0,0,0.01470022,26.360882,37.040176)"
       gradientUnits="userSpaceOnUse"
       id="radialGradient3112"
       xlink:href="#linearGradient5060" />
    <radialGradient
       r="117.14286"
       fy="486.64789"
       fx="605.71429"
       cy="486.64789"
       cx="605.71429"
       gradientTransform="matrix(-0.02303994,0,0,0.01470022,21.62311,37.040176)"
       gradientUnits="userSpaceOnUse"
       id="radialGradient3115"
       xlink:href="#linearGradient5060" />
    <linearGradient
       y2="609.50507"
       x2="302.85715"
       y1="366.64789"
       x1="302.85715"
       gradientTransform="matrix(0.06732488,0,0,0.01470022,-0.3411391,37.040146)"
       gradientUnits="userSpaceOnUse"
       id="linearGradient3118"
       xlink:href="#linearGradient5048" />
    <linearGradient
       y2="2.9062471"
       x2="-51.786404"
       y1="50.786446"
       x1="-51.786404"
       gradientTransform="matrix(0.80749686,0,0,0.89471714,59.410232,-2.9773433)"
       gradientUnits="userSpaceOnUse"
       id="linearGradient3170"
       xlink:href="#linearGradient3104-6" />
  </defs>
  <metadata
     id="metadata3906">
    <rdf:RDF>
      <cc:Work
         rdf:about="">
        <dc:format>image/svg+xml</dc:format>
        <dc:type
           rdf:resource="http://purl.org/dc/dcmitype/StillImage" />
        <dc:title />
      </cc:Work>
    </rdf:RDF>
  </metadata>
  <rect
     width="32.508301"
     height="3.5700529"
     x="7.7378473"
     y="42.429947"
     id="rect2879"
     style="opacity:0.3;fill:url(#linearGradient3118);fill-opacity:1;fill-rule:nonzero;stroke:none;stroke-width:1;marker:none;visibility:visible;display:inline;overflow:visible" />
  <path
     d="m 7.7378475,42.430102 0,3.569856 C 6.5513473,46.006658 4.869468,45.200135 4.869468,44.2148 c 0,-0.985333 1.3240446,-1.784697 2.8683795,-1.784698 z"
     id="path2881"
     style="display:inline;overflow:visible;visibility:visible;opacity:0.3;fill:url(#radialGradient3115);fill-opacity:1;fill-rule:nonzero;stroke:none;stroke-width:1;marker:none" />
  <path
     d="m 40.246148,42.430102 0,3.569856 c 1.1865,0.0067 2.86838,-0.799823 2.86838,-1.785158 0,-0.985333 -1.324045,-1.784697 -2.86838,-1.784698 z"
     id="path2883"
     style="display:inline;overflow:visible;visibility:visible;opacity:0.3;fill:url(#radialGradient3112);fill-opacity:1;fill-rule:nonzero;stroke:none;stroke-width:1;marker:none" />
  <path
     d="m 7,1.0000001 c 7.791126,0 33.999959,0.00274 33.999959,0.00274 L 41,44 7,44 Z"
     id="path4160"
     style="display:inline;fill:url(#linearGradient3109);fill-opacity:1;stroke:none" />
  <path
     d="m 40.5,43.5 -33,0 0,-41.9999998 33,0 z"
     id="rect6741-1"
     style="fill:none;stroke:url(#linearGradient3106);stroke-width:1;stroke-linecap:round;stroke-linejoin:miter;stroke-miterlimit:4;stroke-dasharray:none;stroke-dashoffset:0;stroke-opacity:1" />
  <path
     d="m 6.4999605,0.4999623 c 8.0202885,0 35.0000415,0.00298 35.0000415,0.00298 l 3.7e-5,43.9970957 -35.0000785,0 0,-43.9998923 z"
     id="path4160-6-1"
     style="display:inline;fill:none;stroke:url(#linearGradient3170);stroke-width:0.99992192;stroke-linecap:butt;stroke-linejoin:round;stroke-miterlimit:4;stroke-dasharray:none;stroke-dashoffset:0;stroke-opacity:1" />
  <g
     transform="translate(0,-12.229793)"
     id="g4235">
    <path
       style="color:#000000;font-style:normal;font-variant:normal;font-weight:600;font-stretch:normal;font-size:19px;line-height:125%;font-family:'Open Sans';-inkscape-font-specification:'Open Sans Semi-Bold';text-align:start;letter-spacing:0px;word-spacing:0px;writing-mode:lr-tb;text-anchor:start;display:inline;overflow:visible;visibility:visible;opacity:0.4;fill:#ffffff;fill-opacity:1;fill-rule:nonzero;stroke:none;marker:none;enable-background:accumulate"
       d="m 19,28.229793 c -1.445369,1.4e-5 -2.211493,0.214124 -2.9375,0.65625 C 15.343145,29.322219 15,30.016479 15,30.948543 l 0,2.78125 c 0,0.555667 -0.2479,0.943915 -0.6875,1.21875 -0.432945,0.268875 -1.413312,0.437506 -2.3125,0.4375 l 0,1.6875 c 1.771732,4e-6 3,0.576183 3,1.6875 l 0,2.53125 c 0,1.021697 0.32727,1.79591 1,2.25 0.679383,0.46006 1.461383,0.675547 3,0.6875 l 0,-1.625 C 18.234018,42.592843 17.839687,42.449485 17.5,42.198543 17.1603,41.9476 17,41.59473 17,41.104793 l 0,-2.6875 c 0,-1.20094 -0.599714,-1.909901 -2.125,-2.125 l 0,-0.125 C 16.400286,35.93428 17,35.200044 17,34.011043 l 0,-2.65625 c 0,-0.489927 0.1603,-0.81752 0.5,-1.0625 0.346348,-0.250932 0.740679,-0.407615 1.5,-0.4375 l 0,-1.625 z m 10,0 0,1.625 c 0.759321,0.02989 1.153652,0.186568 1.5,0.4375 0.3397,0.24498 0.5,0.572573 0.5,1.0625 l 0,2.65625 c 0,1.189001 0.599714,1.923237 2.125,2.15625 l 0,0.125 C 31.599714,36.507392 31,37.216353 31,38.417293 l 0,2.6875 c 0,0.489937 -0.1603,0.842807 -0.5,1.09375 -0.339687,0.250942 -0.734018,0.3943 -1.5,0.40625 l 0,1.625 c 1.538617,-0.01195 2.320617,-0.22744 3,-0.6875 0.67273,-0.45409 1,-1.228303 1,-2.25 l 0,-2.53125 c 0,-1.111317 1.228268,-1.687496 3,-1.6875 l 0,-1.6875 c -0.899188,6e-6 -1.879555,-0.168625 -2.3125,-0.4375 C 33.2479,34.673708 33,34.28546 33,33.729793 l 0,-2.78125 c 0,-0.932064 -0.343145,-1.626324 -1.0625,-2.0625 C 31.211493,28.443917 30.445369,28.229807 29,28.229793 Z"
       id="path3873" />
    <path
       style="color:#000000;font-style:normal;font-variant:normal;font-weight:600;font-stretch:normal;font-size:19px;line-height:125%;font-family:'Open Sans';-inkscape-font-specification:'Open Sans Semi-Bold';text-align:start;letter-spacing:0px;word-spacing:0px;writing-mode:lr-tb;text-anchor:start;display:inline;overflow:visible;visibility:visible;fill:#999999;fill-opacity:1;fill-rule:nonzero;stroke:none;marker:none;enable-background:accumulate"
       d="m 19,27.229793 c -1.445369,1.4e-5 -2.211493,0.214124 -2.9375,0.65625 C 15.343145,28.322219 15,29.016479 15,29.948543 l 0,2.78125 c 0,0.555667 -0.2479,0.943915 -0.6875,1.21875 -0.432945,0.268875 -1.413312,0.437506 -2.3125,0.4375 l 0,1.6875 c 1.771732,4e-6 3,0.576183 3,1.6875 l 0,2.53125 c 0,1.021697 0.32727,1.79591 1,2.25 0.679383,0.46006 1.461383,0.675547 3,0.6875 l 0,-1.625 C 18.234018,41.592843 17.839687,41.449485 17.5,41.198543 17.1603,40.9476 17,40.59473 17,40.104793 l 0,-2.6875 c 0,-1.20094 -0.599714,-1.909901 -2.125,-2.125 l 0,-0.125 C 16.400286,34.93428 17,34.200044 17,33.011043 l 0,-2.65625 c 0,-0.489927 0.1603,-0.81752 0.5,-1.0625 0.346348,-0.250932 0.740679,-0.407615 1.5,-0.4375 l 0,-1.625 z m 10,0 0,1.625 c 0.759321,0.02989 1.153652,0.186568 1.5,0.4375 0.3397,0.24498 0.5,0.572573 0.5,1.0625 l 0,2.65625 c 0,1.189001 0.599714,1.923237 2.125,2.15625 l 0,0.125 C 31.599714,35.507392 31,36.216353 31,37.417293 l 0,2.6875 c 0,0.489937 -0.1603,0.842807 -0.5,1.09375 -0.339687,0.250942 -0.734018,0.3943 -1.5,0.40625 l 0,1.625 c 1.538617,-0.01195 2.320617,-0.22744 3,-0.6875 0.67273,-0.45409 1,-1.228303 1,-2.25 l 0,-2.53125 c 0,-1.111317 1.228268,-1.687496 3,-1.6875 l 0,-1.6875 c -0.899188,6e-6 -1.879555,-0.168625 -2.3125,-0.4375 C 33.2479,33.673708 33,33.28546 33,32.729793 l 0,-2.78125 c 0,-0.932064 -0.343145,-1.626324 -1.0625,-2.0625 C 31.211493,27.443917 30.445369,27.229807 29,27.229793 Z"
       id="path3873-9" />
  </g>
</svg>
