<?xml version="1.0" encoding="UTF-8" standalone="no"?>
<svg
   xmlns:dc="http://purl.org/dc/elements/1.1/"
   xmlns:cc="http://creativecommons.org/ns#"
   xmlns:rdf="http://www.w3.org/1999/02/22-rdf-syntax-ns#"
   xmlns:svg="http://www.w3.org/2000/svg"
   xmlns="http://www.w3.org/2000/svg"
   xmlns:xlink="http://www.w3.org/1999/xlink"
   id="svg2770"
   height="24"
   width="24"
   version="1.0">
  <metadata
     id="metadata103774">
    <rdf:RDF>
      <cc:Work
         rdf:about="">
        <dc:format>image/svg+xml</dc:format>
        <dc:type
           rdf:resource="http://purl.org/dc/dcmitype/StillImage" />
      </cc:Work>
    </rdf:RDF>
  </metadata>
  <defs
     id="defs2772">
    <linearGradient
       id="linearGradient5048">
      <stop
         offset="0"
         style="stop-color:#000000;stop-opacity:0"
         id="stop5050" />
      <stop
         offset="0.5"
         style="stop-color:#000000;stop-opacity:1"
         id="stop5056" />
      <stop
         offset="1"
         style="stop-color:#000000;stop-opacity:0"
         id="stop5052" />
    </linearGradient>
    <linearGradient
       id="linearGradient5060">
      <stop
         offset="0"
         style="stop-color:#000000;stop-opacity:1"
         id="stop5062" />
      <stop
         offset="1"
         style="stop-color:#000000;stop-opacity:0"
         id="stop5064" />
    </linearGradient>
    <linearGradient
       id="linearGradient3104">
      <stop
         offset="0"
         style="stop-color:#aaaaaa;stop-opacity:1"
         id="stop3106" />
      <stop
         offset="1"
         style="stop-color:#c8c8c8;stop-opacity:1"
         id="stop3108" />
    </linearGradient>
    <linearGradient
       id="linearGradient3600">
      <stop
         offset="0"
         style="stop-color:#f4f4f4;stop-opacity:1"
         id="stop3602" />
      <stop
         offset="1"
         style="stop-color:#dbdbdb;stop-opacity:1"
         id="stop3604" />
    </linearGradient>
    <linearGradient
       id="linearGradient3211">
      <stop
         offset="0"
         style="stop-color:#ffffff;stop-opacity:1"
         id="stop3213" />
      <stop
         offset="1"
         style="stop-color:#ffffff;stop-opacity:0"
         id="stop3215" />
    </linearGradient>
    <linearGradient
       id="linearGradient4102">
      <stop
         offset="0"
         style="stop-color:#fda852;stop-opacity:1"
         id="stop4104" />
      <stop
         offset="1"
         style="stop-color:#ffffff;stop-opacity:0"
         id="stop4106" />
    </linearGradient>
    <linearGradient
       gradientTransform="matrix(0.6594275,0,0,0.6465221,-4.0326729,-3.5947164)"
       gradientUnits="userSpaceOnUse"
       xlink:href="#linearGradient4102"
       id="linearGradient3064"
       y2="13.663627"
       x2="16.887266"
       y1="24.239939"
       x1="28.534189" />
    <linearGradient
       gradientTransform="matrix(0.4545444,0,0,0.4651153,1.0909345,0.3372293)"
       gradientUnits="userSpaceOnUse"
       xlink:href="#linearGradient3211"
       id="linearGradient3067"
       y2="46.01725"
       x2="24"
       y1="1.9999999"
       x1="24" />
    <linearGradient
       gradientTransform="matrix(0.4857154,0,0,0.4780255,0.3428305,-0.7059501)"
       gradientUnits="userSpaceOnUse"
       xlink:href="#linearGradient3600"
       id="linearGradient3073"
       y2="47.013336"
       x2="25.132275"
       y1="0.98520643"
       x1="25.132275" />
    <linearGradient
       gradientTransform="matrix(0.3922135,0,0,0.4473607,29.199293,-1.2386997)"
       gradientUnits="userSpaceOnUse"
       xlink:href="#linearGradient3104"
       id="linearGradient3075"
       y2="2.9062471"
       x2="-51.786404"
       y1="50.786446"
       x1="-51.786404" />
    <radialGradient
       gradientTransform="matrix(0.01204859,0,0,0.00823529,13.238794,18.980568)"
       gradientUnits="userSpaceOnUse"
       xlink:href="#linearGradient5060"
       id="radialGradient3078"
       fy="486.64789"
       fx="605.71429"
       r="117.14286"
       cy="486.64789"
       cx="605.71429" />
    <radialGradient
       gradientTransform="matrix(-0.01204859,0,0,0.00823529,10.761206,18.980568)"
       gradientUnits="userSpaceOnUse"
       xlink:href="#linearGradient5060"
       id="radialGradient3081"
       fy="486.64789"
       fx="605.71429"
       r="117.14286"
       cy="486.64789"
       cx="605.71429" />
    <linearGradient
       gradientTransform="matrix(0.0352071,0,0,0.00823529,-0.724852,18.980551)"
       gradientUnits="userSpaceOnUse"
       xlink:href="#linearGradient5048"
       id="linearGradient3084"
       y2="609.50507"
       x2="302.85715"
       y1="366.64789"
       x1="302.85715" />
  </defs>
  <rect
     style="opacity:0.15;fill:url(#linearGradient3084);fill-opacity:1;fill-rule:nonzero;stroke:none;stroke-width:1;marker:none;visibility:visible;display:inline;overflow:visible"
     id="rect2879"
     y="21.999998"
     x="3.5000005"
     height="1.9999981"
     width="17" />
  <path
     style="opacity:0.15;fill:url(#radialGradient3081);fill-opacity:1;fill-rule:nonzero;stroke:none;stroke-width:1;marker:none;visibility:visible;display:inline;overflow:visible"
     id="path2881"
     d="m 3.5,22.000086 c 0,0 0,1.999889 0,1.999889 C 2.8795275,24.00374 2,23.551901 2,22.999901 2,22.447902 2.6924,22.000086 3.5,22.000086 z" />
  <path
     style="opacity:0.15;fill:url(#radialGradient3078);fill-opacity:1;fill-rule:nonzero;stroke:none;stroke-width:1;marker:none;visibility:visible;display:inline;overflow:visible"
     id="path2883"
     d="m 20.5,22.000086 c 0,0 0,1.999889 0,1.999889 0.620472,0.0038 1.5,-0.448074 1.5,-1.000074 0,-0.551999 -0.692401,-0.999815 -1.5,-0.999815 z" />
  <path
     style="fill:url(#linearGradient3073);fill-opacity:1;stroke:url(#linearGradient3075);stroke-width:0.99992162;stroke-linecap:butt;stroke-linejoin:round;stroke-miterlimit:4;stroke-opacity:1;stroke-dasharray:none;stroke-dashoffset:0;display:inline"
     id="path4160"
     d="M 3.4999617,0.49996097 C 3.4626392,0.54279646 20.5,0.5 20.5,0.5 c 0,5.729157 3.9e-5,16.270881 3.9e-5,22.000039 -5.666693,0 -11.3333845,0 -17.0000773,0 0,-7.33336 0,-14.6667201 0,-22.00007803 z" />
  <path
     style="opacity:0.6;fill:none;stroke:url(#linearGradient3067);stroke-width:0.99999988;stroke-linecap:butt;stroke-linejoin:miter;stroke-miterlimit:4;stroke-opacity:1;stroke-dasharray:none;stroke-dashoffset:0;display:inline"
     id="path2435"
     d="m 19.500001,1 c 0,5.2083053 0,15.291693 0,20.5 -5,0 -9.9999998,0 -15.000001,0 0,-6.66667 0,-13.3333343 0,-20.0000001 3.4372614,0 11.062738,0 14.5,0" />
  <path
     style="fill:url(#linearGradient3064);fill-opacity:1;fill-rule:evenodd;stroke:#ea541a;stroke-width:1px;stroke-linecap:butt;stroke-linejoin:miter;stroke-opacity:1"
     id="path2783"
     d="m 6.751475,19.41069 c 2.7541345,1.831596 8.767223,-0.618817 3.768118,-7.176388 C 5.5657429,5.736093 15.441506,1.4740434 18.372104,8.9890263" />
  <rect
     style="fill:#ea541a;fill-opacity:1;stroke:none"
     id="rect3565"
     y="17.999962"
     x="5"
     height="2"
     width="2" />
  <rect
     style="fill:#ea541a;fill-opacity:1;stroke:none"
     id="rect3567"
     y="7.9999609"
     x="17"
     height="2"
     width="2" />
  <path
     style="fill:none;stroke:#ea541a;stroke-width:1.00000012px;stroke-linecap:butt;stroke-linejoin:miter;stroke-opacity:1"
     id="path3571"
     d="M 6.0891664,6.3288278 15.589284,18.645207" />
  <path
     style="fill:#e6e6e6;fill-opacity:1;stroke:#ea541a;stroke-width:1.00000012;stroke-linecap:butt;stroke-miterlimit:4;stroke-opacity:1;stroke-dasharray:none"
     id="path3573"
     d="m 7.4999896,6.499961 c 3.72e-4,0.5521763 -0.4474529,0.9999999 -0.9999997,0.9999999 -0.5525469,0 -1.0003717,-0.4478236 -0.9999997,-0.9999999 -3.72e-4,-0.5521764 0.4474528,-1 0.9999997,-1 0.5525468,0 1.0003717,0.4478236 0.9999997,1 l 0,0 z" />
  <path
     style="fill:#e6e6e6;fill-opacity:1;stroke:#ea541a;stroke-width:1.00000012;stroke-linecap:butt;stroke-miterlimit:4;stroke-opacity:1;stroke-dasharray:none"
     id="path3575"
     d="m 16.499999,18.499961 c 3.73e-4,0.552177 -0.447452,1 -1,1 -0.552546,0 -1.000371,-0.447823 -0.999999,-1 -3.72e-4,-0.552175 0.447453,-1 0.999999,-1 0.552548,0 1.000373,0.447825 1,1 l 0,0 z" />
  <rect
     style="fill:#ea541a;fill-opacity:1;stroke:none"
     id="rect3569"
     y="10.999961"
     x="9"
     height="2"
     width="2" />
</svg>
