<?xml version="1.0" encoding="UTF-8" standalone="no"?>
<svg
   xmlns:dc="http://purl.org/dc/elements/1.1/"
   xmlns:cc="http://creativecommons.org/ns#"
   xmlns:rdf="http://www.w3.org/1999/02/22-rdf-syntax-ns#"
   xmlns:svg="http://www.w3.org/2000/svg"
   xmlns="http://www.w3.org/2000/svg"
   xmlns:xlink="http://www.w3.org/1999/xlink"
   id="svg3426"
   height="24"
   width="24"
   version="1.1">
  <defs
     id="defs3428">
    <linearGradient
       id="linearGradient3924">
      <stop
         offset="0"
         style="stop-color:#ffffff;stop-opacity:1"
         id="stop3926" />
      <stop
         offset="0.06316455"
         style="stop-color:#ffffff;stop-opacity:0.23529412"
         id="stop3928" />
      <stop
         offset="0.95056331"
         style="stop-color:#ffffff;stop-opacity:0.15686275"
         id="stop3930" />
      <stop
         offset="1"
         style="stop-color:#ffffff;stop-opacity:0.39215687"
         id="stop3932" />
    </linearGradient>
    <linearGradient
       id="linearGradient3688-166-749">
      <stop
         offset="0"
         style="stop-color:#181818;stop-opacity:1"
         id="stop2883" />
      <stop
         offset="1"
         style="stop-color:#181818;stop-opacity:0"
         id="stop2885" />
    </linearGradient>
    <linearGradient
       id="linearGradient3688-464-309">
      <stop
         offset="0"
         style="stop-color:#181818;stop-opacity:1"
         id="stop2889" />
      <stop
         offset="1"
         style="stop-color:#181818;stop-opacity:0"
         id="stop2891" />
    </linearGradient>
    <linearGradient
       id="linearGradient3702-501-757">
      <stop
         offset="0"
         style="stop-color:#181818;stop-opacity:0"
         id="stop2895" />
      <stop
         offset="0.5"
         style="stop-color:#181818;stop-opacity:1"
         id="stop2897" />
      <stop
         offset="1"
         style="stop-color:#181818;stop-opacity:0"
         id="stop2899" />
    </linearGradient>
    <radialGradient
       r="2.5"
       fy="43.5"
       fx="4.9929786"
       cy="43.5"
       cx="4.9929786"
       gradientTransform="matrix(2.003784,0,0,1.4,27.98813,-17.4)"
       gradientUnits="userSpaceOnUse"
       id="radialGradient3064"
       xlink:href="#linearGradient3688-166-749" />
    <radialGradient
       r="2.5"
       fy="43.5"
       fx="4.9929786"
       cy="43.5"
       cx="4.9929786"
       gradientTransform="matrix(2.003784,0,0,1.4,-20.01187,-104.4)"
       gradientUnits="userSpaceOnUse"
       id="radialGradient3066"
       xlink:href="#linearGradient3688-464-309" />
    <linearGradient
       y2="39.999443"
       x2="25.058096"
       y1="47.027729"
       x1="25.058096"
       gradientUnits="userSpaceOnUse"
       id="linearGradient3068"
       xlink:href="#linearGradient3702-501-757" />
    <linearGradient
       y2="43"
       x2="23.99999"
       y1="4.999989"
       x1="23.99999"
       gradientTransform="matrix(0.45945947,0,0,0.45945947,0.9742203,0.9717328)"
       gradientUnits="userSpaceOnUse"
       id="linearGradient3088"
       xlink:href="#linearGradient3924" />
    <radialGradient
       r="19.99999"
       fy="8.4497671"
       fx="7.4956832"
       cy="8.4497671"
       cx="7.4956832"
       gradientTransform="matrix(0,1.1385337,-1.2044328,-2.0976135e-8,22.177231,-5.7502893)"
       gradientUnits="userSpaceOnUse"
       id="radialGradient3091"
       xlink:href="#linearGradient4632-92-3-0-8-1-6" />
    <linearGradient
       y2="44.340794"
       x2="71.204407"
       y1="6.2375584"
       x1="71.204407"
       gradientTransform="matrix(-0.12612572,0,0,0.12612572,24.549488,9.2956327)"
       gradientUnits="userSpaceOnUse"
       id="linearGradient3866"
       xlink:href="#linearGradient4011-9-9-70-61-7" />
    <linearGradient
       id="linearGradient4011-9-9-70-61-7">
      <stop
         offset="0"
         style="stop-color:#ffffff;stop-opacity:1;"
         id="stop4013-5-4-3-8-3" />
      <stop
         id="stop4015-1-5-70-9-5"
         style="stop-color:#ffffff;stop-opacity:0.23529412;"
         offset="0.507761" />
      <stop
         offset="0.83456558"
         style="stop-color:#ffffff;stop-opacity:0.15686275;"
         id="stop4017-7-0-13-0-1" />
      <stop
         offset="1"
         style="stop-color:#ffffff;stop-opacity:0.39215687;"
         id="stop4019-1-12-7-0-7" />
    </linearGradient>
    <linearGradient
       y2="8.0928917"
       x2="38.976662"
       y1="59.967686"
       x1="38.976662"
       gradientTransform="matrix(-0.12200399,0,0,0.12200399,19.406172,8.3456975)"
       gradientUnits="userSpaceOnUse"
       id="linearGradient3869"
       xlink:href="#linearGradient4215-8-4-07-7" />
    <linearGradient
       id="linearGradient4215-8-4-07-7">
      <stop
         id="stop4217-1-2-1-2"
         offset="0"
         style="stop-color:#e9e9e9;stop-opacity:1;" />
      <stop
         id="stop4219-3-4-0-96"
         offset="1"
         style="stop-color:#ffffff;stop-opacity:1;" />
    </linearGradient>
    <linearGradient
       y2="55.052982"
       x2="30.271185"
       y1="10.028973"
       x1="30.271185"
       gradientTransform="matrix(0.38888771,0,0,0.4374987,-0.4423505,-1.5061266)"
       gradientUnits="userSpaceOnUse"
       id="linearGradient3884"
       xlink:href="#linearGradient27416-1-2" />
    <linearGradient
       id="linearGradient27416-1-2">
      <stop
         id="stop27420-2-0"
         style="stop-color:#55c1ec;stop-opacity:1"
         offset="0" />
      <stop
         id="stop27422-3-5"
         style="stop-color:#3689e6;stop-opacity:1"
         offset="1" />
    </linearGradient>
    <linearGradient
       id="linearGradient4632-92-3-0-8-1-6">
      <stop
         offset="0"
         style="stop-color:#fafafa;stop-opacity:1"
         id="stop4634-68-8-0-2-9-1" />
      <stop
         offset="1"
         style="stop-color:#e1e1e1;stop-opacity:1"
         id="stop4636-8-21-7-1-4-9" />
    </linearGradient>
  </defs>
  <metadata
     id="metadata3431">
    <rdf:RDF>
      <cc:Work
         rdf:about="">
        <dc:format>image/svg+xml</dc:format>
        <dc:type
           rdf:resource="http://purl.org/dc/dcmitype/StillImage" />
        <dc:title />
      </cc:Work>
    </rdf:RDF>
  </metadata>
  <g
     style="opacity:0.4"
     id="g3712"
     transform="matrix(0.5789476,0,0,0.42857134,-1.894738,2.8571264)">
    <rect
       style="fill:url(#radialGradient3064);fill-opacity:1;stroke:none"
       id="rect2801"
       y="40"
       x="38"
       height="7"
       width="5" />
    <rect
       style="fill:url(#radialGradient3066);fill-opacity:1;stroke:none"
       id="rect3696"
       transform="scale(-1)"
       y="-47"
       x="-10"
       height="7"
       width="5" />
    <rect
       style="fill:url(#linearGradient3068);fill-opacity:1;stroke:none"
       id="rect3700"
       y="40"
       x="10"
       height="7.0000005"
       width="28" />
  </g>
  <path
     id="rect5505-21"
     d="M 3.5 3 C 3.2143514 3 3 3.2143514 3 3.5 L 3 20.5 C 3 20.785649 3.2143514 21 3.5 21 L 20.5 21 C 20.785649 21 21 20.785649 21 20.5 L 21 3.5 C 21 3.2143514 20.785649 3 20.5 3 L 3.5 3 z "
     style="color:#000000;fill:url(#radialGradient3091);fill-opacity:1;fill-rule:nonzero;stroke:none;stroke-width:1;stroke-linecap:round;stroke-linejoin:round;stroke-miterlimit:4;stroke-opacity:0.23907104;stroke-dasharray:none;stroke-dashoffset:0;marker:none;visibility:visible;display:inline;overflow:visible;enable-background:accumulate" />
  <rect
     width="17"
     height="17"
     x="3.5012455"
     y="3.4987564"
     id="rect6741-9"
     style="opacity:0.5;fill:none;stroke:url(#linearGradient3088);stroke-width:0.99999988;stroke-linecap:round;stroke-linejoin:round;stroke-miterlimit:4;stroke-opacity:1;stroke-dasharray:none;stroke-dashoffset:0" />
  <path
     d="m 4.93578,4.9745759 a 0.44444569,0.44444569 0 0 1 -0.888891,0 0.44444569,0.44444569 0 1 1 0.888891,0 z"
     id="path4356-7-9"
     style="color:#000000;display:inline;overflow:visible;visibility:visible;fill:#ffffff;fill-opacity:1;fill-rule:evenodd;stroke:none;stroke-width:0.33830979;marker:none;enable-background:accumulate" />
  <path
     d="m 4.93578,4.5301309 a 0.44444569,0.44444569 0 0 1 -0.888891,0 0.44444569,0.44444569 0 1 1 0.888891,0 z"
     id="path4356-9"
     style="color:#000000;display:inline;overflow:visible;visibility:visible;opacity:0.3;fill:#000000;fill-opacity:1;fill-rule:evenodd;stroke:none;stroke-width:0.33830979;marker:none;enable-background:accumulate" />
  <path
     d="m 19.91606,4.9745759 a 0.44444561,0.44444561 0 0 1 -0.88889,0 0.44444561,0.44444561 0 1 1 0.88889,0 z"
     id="path4356-7-6-7"
     style="color:#000000;display:inline;overflow:visible;visibility:visible;fill:#ffffff;fill-opacity:1;fill-rule:evenodd;stroke:none;stroke-width:0.33830979;marker:none;enable-background:accumulate" />
  <path
     d="m 19.91606,4.5301309 a 0.44444561,0.44444561 0 0 1 -0.88889,0 0.44444561,0.44444561 0 1 1 0.88889,0 z"
     id="path4356-8-9"
     style="color:#000000;display:inline;overflow:visible;visibility:visible;opacity:0.3;fill:#000000;fill-opacity:1;fill-rule:evenodd;stroke:none;stroke-width:0.33830979;marker:none;enable-background:accumulate" />
  <path
     d="m 4.93578,19.992089 a 0.44444569,0.44444569 0 0 1 -0.888891,0 0.44444569,0.44444569 0 1 1 0.888891,0 z"
     id="path4356-7-9-3"
     style="color:#000000;display:inline;overflow:visible;visibility:visible;fill:#ffffff;fill-opacity:1;fill-rule:evenodd;stroke:none;stroke-width:0.33830979;marker:none;enable-background:accumulate" />
  <path
     d="m 4.93578,19.547643 a 0.44444569,0.44444569 0 0 1 -0.888891,0 0.44444569,0.44444569 0 1 1 0.888891,0 z"
     id="path4356-9-1"
     style="color:#000000;display:inline;overflow:visible;visibility:visible;opacity:0.3;fill:#000000;fill-opacity:1;fill-rule:evenodd;stroke:none;stroke-width:0.33830979;marker:none;enable-background:accumulate" />
  <path
     d="m 19.91606,19.992089 a 0.44444561,0.44444561 0 0 1 -0.88889,0 0.44444561,0.44444561 0 1 1 0.88889,0 z"
     id="path4356-7-6-7-1"
     style="color:#000000;display:inline;overflow:visible;visibility:visible;fill:#ffffff;fill-opacity:1;fill-rule:evenodd;stroke:none;stroke-width:0.33830979;marker:none;enable-background:accumulate" />
  <path
     d="m 19.91606,19.547643 a 0.44444561,0.44444561 0 0 1 -0.88889,0 0.44444561,0.44444561 0 1 1 0.88889,0 z"
     id="path4356-8-9-8"
     style="color:#000000;display:inline;overflow:visible;visibility:visible;opacity:0.3;fill:#000000;fill-opacity:1;fill-rule:evenodd;stroke:none;stroke-width:0.33830979;marker:none;enable-background:accumulate" />
  <path
     d="m 8.5452698,8.993838 c -1.9150596,0 -3.4567864,1.541726 -3.4567864,3.456785 0,1.91506 1.5417268,3.456788 3.4567864,3.456788 l 6.9135732,0 c 1.915061,0 3.456787,-1.541728 3.456787,-3.456788 0,-1.915059 -1.541726,-3.456785 -3.456787,-3.456785 z"
     id="rect13708-6"
     style="color:#000000;display:inline;overflow:visible;visibility:visible;opacity:0.2;fill:#ffffff;fill-opacity:1;stroke:none;stroke-width:1.55555081;marker:none;enable-background:accumulate" />
  <path
     d="m 8.5020659,8.9938426 c -1.9389936,0 -3.4999886,1.5609954 -3.4999886,3.4999894 0,1.938993 1.560995,3.49999 3.4999886,3.49999 l 6.9999801,0 c 1.938994,0 3.499988,-1.560996 3.499988,-3.49999 0,-1.938994 -1.560994,-3.4999894 -3.499988,-3.4999894 z"
     id="rect13708"
     style="color:#000000;display:inline;overflow:visible;visibility:visible;fill:url(#linearGradient3884);fill-opacity:1;stroke:none;stroke-width:1.55555081;marker:none;enable-background:accumulate" />
  <path
     id="path5598"
     d="m 8.5019531,8.9929462 c -1.9389936,0 -3.5,1.5610048 -3.5,3.4999988 0,0.171373 0.025258,0.33535 0.048828,0.5 0.2431172,-1.698286 1.6835509,-2.9999988 3.451172,-2.9999988 l 6.9999999,0 c 1.767622,0 3.208055,1.3017128 3.451172,2.9999988 0.02357,-0.16465 0.04883,-0.328627 0.04883,-0.5 0,-1.938994 -1.561006,-3.4999988 -3.5,-3.4999988 l -6.9999999,0 z"
     style="color:#000000;display:inline;overflow:visible;visibility:visible;opacity:0.3;fill:#0e4774;fill-opacity:1;stroke:none;stroke-width:1.55555081;marker:none;enable-background:accumulate" />
  <path
     style="color:#000000;display:inline;overflow:visible;visibility:visible;opacity:0.15;fill:#000000;fill-opacity:1;fill-rule:nonzero;stroke:none;stroke-width:1.55555081;marker:none;enable-background:accumulate"
     id="path2555-7-1-9-4-9"
     d="m 15.502045,9.9699661 c 1.931172,0 3.499989,1.5688109 3.499989,3.4999869 0,1.931173 -1.568817,3.499988 -3.499989,3.499988 -1.931177,0 -3.499993,-1.568815 -3.49999,-3.499988 0,-1.931176 1.568813,-3.4999869 3.49999,-3.4999869 z" />
  <path
     style="color:#000000;display:inline;overflow:visible;visibility:visible;fill:url(#linearGradient3869);fill-opacity:1;fill-rule:nonzero;stroke:none;stroke-width:0.77777541;marker:none;enable-background:accumulate"
     id="path2555-7-1-9-4"
     d="m 15.502045,9.3827311 c 1.716597,0 3.111102,1.3945029 3.111102,3.1111009 0,1.716601 -1.394505,3.111103 -3.111102,3.111103 -1.7166,0 -3.111105,-1.394502 -3.111102,-3.111103 0,-1.716598 1.394502,-3.1111009 3.111102,-3.1111009 z" />
  <path
     style="color:#000000;display:inline;overflow:visible;visibility:visible;fill:none;stroke:url(#linearGradient3866);stroke-width:0.77777541;stroke-linecap:round;stroke-linejoin:round;stroke-miterlimit:4;stroke-dasharray:none;stroke-dashoffset:0;stroke-opacity:1;marker:none;enable-background:accumulate"
     id="path8655-6-0-5-2"
     d="m 13.168718,12.493749 c 0,1.288704 1.044745,2.33341 2.333299,2.33341 1.28867,0 2.333354,-1.044719 2.333354,-2.33341 0,-1.288641 -1.044684,-2.333242 -2.333354,-2.333242 -1.288554,0 -2.333299,1.044601 -2.333299,2.333242 l 0,0 z" />
  <path
     style="color:#000000;display:inline;overflow:visible;visibility:visible;opacity:0.3;fill:none;stroke:#000000;stroke-width:0.77777541;stroke-linecap:round;stroke-linejoin:round;stroke-miterlimit:4;stroke-dasharray:none;stroke-dashoffset:0;stroke-opacity:1;marker:none;enable-background:accumulate"
     id="path2555-7-1-9-9-41"
     d="m 15.502046,9.3827319 c 1.716599,0 3.111101,1.3945021 3.111101,3.1111011 0,1.7166 -1.394502,3.111101 -3.111101,3.111101 -1.716601,0 -3.111106,-1.394501 -3.111103,-3.111101 0,-1.716599 1.394502,-3.1111011 3.111103,-3.1111011 z" />
  <path
     id="rect7183"
     d="M 3.5,2 C 2.6776486,2 2,2.6776486 2,3.5 l 0,17 C 2,21.322351 2.6776486,22 3.5,22 l 17,0 c 0.822351,0 1.5,-0.677649 1.5,-1.5 l 0,-17 C 22,2.6776486 21.322351,2 20.5,2 l -17,0 z m 0,1 17,0 C 20.785649,3 21,3.2143514 21,3.5 l 0,17 c 0,0.285649 -0.214351,0.5 -0.5,0.5 l -17,0 C 3.2143514,21 3,20.785649 3,20.5 L 3,3.5 C 3,3.2143514 3.2143514,3 3.5,3 Z"
     style="color:#000000;font-style:normal;font-variant:normal;font-weight:normal;font-stretch:normal;font-size:medium;line-height:normal;font-family:sans-serif;text-indent:0;text-align:start;text-decoration:none;text-decoration-line:none;text-decoration-style:solid;text-decoration-color:#000000;letter-spacing:normal;word-spacing:normal;text-transform:none;direction:ltr;block-progression:tb;writing-mode:lr-tb;baseline-shift:baseline;text-anchor:start;white-space:normal;shape-padding:0;clip-rule:nonzero;display:inline;overflow:visible;visibility:visible;opacity:1;isolation:auto;mix-blend-mode:normal;color-interpolation:sRGB;color-interpolation-filters:linearRGB;solid-color:#000000;solid-opacity:1;fill:#000000;fill-opacity:0.23907106;fill-rule:nonzero;stroke:none;stroke-width:1;stroke-linecap:round;stroke-linejoin:round;stroke-miterlimit:4;stroke-dasharray:none;stroke-dashoffset:0;stroke-opacity:1;marker:none;color-rendering:auto;image-rendering:auto;shape-rendering:auto;text-rendering:auto;enable-background:accumulate" />
</svg>
