<?xml version="1.0" encoding="UTF-8" standalone="no"?>
<svg
   xmlns:osb="http://www.openswatchbook.org/uri/2009/osb"
   xmlns:dc="http://purl.org/dc/elements/1.1/"
   xmlns:cc="http://creativecommons.org/ns#"
   xmlns:rdf="http://www.w3.org/1999/02/22-rdf-syntax-ns#"
   xmlns:svg="http://www.w3.org/2000/svg"
   xmlns="http://www.w3.org/2000/svg"
   xmlns:xlink="http://www.w3.org/1999/xlink"
   id="svg4518"
   height="64"
   width="64"
   version="1.1">
  <defs
     id="defs4520">
    <linearGradient
       gradientTransform="matrix(1.6579954,0,0,1.6579577,-55.127981,53.820816)"
       gradientUnits="userSpaceOnUse"
       xlink:href="#linearGradient4873-4"
       id="linearGradient4402"
       y2="5.4675598"
       x2="63.397362"
       y1="-12.489107"
       x1="63.397362" />
    <linearGradient
       id="linearGradient4873-4">
      <stop
         offset="0"
         style="stop-color:#ffffff;stop-opacity:1"
         id="stop4875-0" />
      <stop
         offset="1"
         style="stop-color:#ffffff;stop-opacity:0"
         id="stop4877-7" />
    </linearGradient>
    <radialGradient
       gradientTransform="matrix(0,2.0728187,-2.736084,0,58.916984,-18.201198)"
       gradientUnits="userSpaceOnUse"
       xlink:href="#linearGradient3242-5"
       id="radialGradient4405"
       fy="3.9900031"
       fx="23.407145"
       r="20.397499"
       cy="3.9900031"
       cx="23.407145" />
    <linearGradient
       id="linearGradient3242-5">
      <stop
         offset="0"
         style="stop-color:#f8b17e;stop-opacity:1"
         id="stop3244-2" />
      <stop
         offset="0.26238"
         style="stop-color:#e35d4f;stop-opacity:1"
         id="stop3246-5" />
      <stop
         offset="0.66093999"
         style="stop-color:#c6262e;stop-opacity:1"
         id="stop3248-9" />
      <stop
         offset="1"
         style="stop-color:#690b54;stop-opacity:1"
         id="stop3250-7" />
    </linearGradient>
    <linearGradient
       gradientTransform="matrix(2.363279,0,0,2.363279,-138.57229,-33.857264)"
       gradientUnits="userSpaceOnUse"
       xlink:href="#linearGradient4806-2-9"
       id="linearGradient3549"
       y2="40.495617"
       x2="71.204407"
       y1="15.369057"
       x1="71.204407" />
    <linearGradient
       id="linearGradient4806-2-9">
      <stop
         offset="0"
         style="stop-color:#ffffff;stop-opacity:1"
         id="stop4808-4-5" />
      <stop
         offset="0.42447853"
         style="stop-color:#ffffff;stop-opacity:0.23529412"
         id="stop4810-0-5" />
      <stop
         offset="0.82089913"
         style="stop-color:#ffffff;stop-opacity:0.15686275"
         id="stop4812-8-4" />
      <stop
         offset="1"
         style="stop-color:#ffffff;stop-opacity:0.39215687"
         id="stop4814-0-5" />
    </linearGradient>
    <linearGradient
       gradientTransform="matrix(1.3155762,0,0,-1.3155762,-1.523661,62.258671)"
       gradientUnits="userSpaceOnUse"
       xlink:href="#linearGradient3678-5"
       id="linearGradient3520"
       y2="23.172663"
       x2="49.089928"
       y1="23"
       x1="37.5" />
    <linearGradient
       id="linearGradient3678-5">
      <stop
         offset="0"
         style="stop-color:#ffffff;stop-opacity:0.13368984"
         id="stop3680-6" />
      <stop
         offset="1"
         style="stop-color:#ffffff;stop-opacity:0"
         id="stop3682-5" />
    </linearGradient>
    <linearGradient
       gradientTransform="matrix(1.3155762,0,0,-1.3155762,-1.523661,62.258671)"
       gradientUnits="userSpaceOnUse"
       xlink:href="#linearGradient3672-3"
       id="linearGradient3524"
       y2="23"
       x2="47.500416"
       y1="23"
       x1="4.4897356" />
    <linearGradient
       id="linearGradient3672-3">
      <stop
         offset="0"
         style="stop-color:#ffffff;stop-opacity:0.49197862"
         id="stop3674-4" />
      <stop
         offset="1"
         style="stop-color:#ffffff;stop-opacity:1"
         id="stop3676-5" />
    </linearGradient>
    <linearGradient
       gradientTransform="matrix(0.93025283,-0.93025283,-0.93025283,-0.93025283,29.45432,77.237902)"
       gradientUnits="userSpaceOnUse"
       xlink:href="#linearGradient3678-5"
       id="linearGradient3527"
       y2="24.108988"
       x2="2.8318863"
       y1="23.707106"
       x1="14.893399" />
    <linearGradient
       gradientTransform="matrix(0.93025283,-0.93025283,-0.93025283,-0.93025283,29.45432,77.237902)"
       gradientUnits="userSpaceOnUse"
       xlink:href="#linearGradient3672-3"
       id="linearGradient3531"
       y2="24.414213"
       x2="2.8725832"
       y1="25.828426"
       x1="48.127419" />
    <linearGradient
       gradientTransform="matrix(0.93025283,0.93025283,-0.93025283,0.93025283,29.697899,-13.116851)"
       gradientUnits="userSpaceOnUse"
       xlink:href="#linearGradient3672-3"
       id="linearGradient3535"
       y2="27.242641"
       x2="4.2867966"
       y1="23.707108"
       x1="46.006096" />
    <linearGradient
       gradientTransform="matrix(0.93025283,0.93025283,-0.93025283,0.93025283,29.697899,-13.116851)"
       gradientUnits="userSpaceOnUse"
       xlink:href="#linearGradient3678-5"
       id="linearGradient3538"
       y2="21.829967"
       x2="4.0629644"
       y1="22.292894"
       x1="14.893399" />
    <linearGradient
       gradientTransform="matrix(0,1.3155762,1.3155762,0,1.765274,-1.54678)"
       gradientUnits="userSpaceOnUse"
       xlink:href="#linearGradient3672-3"
       id="linearGradient3543"
       y2="23"
       x2="47.5"
       y1="23"
       x1="3.5" />
    <linearGradient
       gradientTransform="matrix(0,1.3155762,1.3155762,0,1.765274,-1.54678)"
       gradientUnits="userSpaceOnUse"
       xlink:href="#linearGradient3678-5"
       id="linearGradient3546"
       y2="21.91367"
       x2="48.262592"
       y1="22"
       x1="35.5" />
    <radialGradient
       r="62.769119"
       fy="185.29727"
       fx="99.189415"
       cy="185.29727"
       cx="99.189415"
       gradientTransform="matrix(0.3823536,7.5555777e-8,-1.8372241e-8,0.1115198,-5.9254271,36.335849)"
       gradientUnits="userSpaceOnUse"
       id="radialGradient3300"
       xlink:href="#linearGradient3820-7-2-7" />
    <linearGradient
       id="linearGradient3820-7-2-7">
      <stop
         offset="0"
         style="stop-color:#000000;stop-opacity:1"
         id="stop3822-2-6-8" />
      <stop
         offset="1"
         style="stop-color:#000000;stop-opacity:0"
         id="stop3824-1-2-6" />
    </linearGradient>
    <radialGradient
       r="62.769119"
       fy="185.29727"
       fx="99.189415"
       cy="185.29727"
       cx="99.189415"
       gradientTransform="matrix(0.2549024,5.3967361e-8,-1.2248161e-8,0.07965545,6.7163816,44.240666)"
       gradientUnits="userSpaceOnUse"
       id="radialGradient4192"
       xlink:href="#linearGradient3820-7-2-7" />
    <linearGradient
       id="linearGradient4330">
      <stop
         id="stop4332"
         style="stop-color:#f0c1ff;stop-opacity:1"
         offset="0" />
      <stop
         id="stop4334"
         style="stop-color:#c5a3f2;stop-opacity:1"
         offset="0.26238" />
      <stop
         id="stop4336"
         style="stop-color:#7a36b1;stop-opacity:1"
         offset="0.704952" />
      <stop
         id="stop4338"
         style="stop-color:#4c2d81;stop-opacity:1"
         offset="1" />
    </linearGradient>
    <linearGradient
       id="linearGradient4526"
       osb:paint="solid">
      <stop
         style="stop-color:#ffffff;stop-opacity:1;"
         offset="0"
         id="stop4528" />
    </linearGradient>
    <radialGradient
       r="19.99999"
       fy="8.4497671"
       fx="1.7447759"
       cy="8.4497671"
       cx="1.7447759"
       gradientTransform="matrix(0,8.4853025,-8.9764378,-2.3095688e-7,107.84892,-32.827113)"
       gradientUnits="userSpaceOnUse"
       id="radialGradient3092"
       xlink:href="#linearGradient4330" />
  </defs>
  <metadata
     id="metadata4523">
    <rdf:RDF>
      <cc:Work
         rdf:about="">
        <dc:format>image/svg+xml</dc:format>
        <dc:type
           rdf:resource="http://purl.org/dc/dcmitype/StillImage" />
        <dc:title />
      </cc:Work>
    </rdf:RDF>
  </metadata>
  <g
     id="g4198"
     transform="translate(1.55e-6,-0.00183192)">
    <path
       style="opacity:0.2;fill:url(#radialGradient3300);fill-opacity:1;stroke:none"
       id="path3818-0"
       d="m 55.999998,57.0017 a 24,6.9985714 0 1 1 -47.9999991,0 24,6.9985714 0 1 1 47.9999991,0 z" />
    <path
       d="m 47.999998,59.0017 a 16,4.9988822 0 1 1 -31.999999,0 16,4.9988822 0 1 1 31.999999,0 z"
       id="path4190"
       style="opacity:0.4;fill:url(#radialGradient4192);fill-opacity:1;stroke:none" />
  </g>
  <path
     style="color:#000000;display:inline;overflow:visible;visibility:visible;fill:url(#radialGradient3092);fill-opacity:1;fill-rule:nonzero;stroke:none;stroke-width:1;marker:none;enable-background:accumulate"
     id="path2555"
     d="m 31.999946,2.4999964 c -16.277083,0 -29.500004,13.2229156 -29.500004,29.4999976 0,16.277087 13.222921,29.500008 29.500004,29.500004 16.277077,0 29.50001,-13.222917 29.499996,-29.500004 0,-16.277082 -13.222919,-29.4999976 -29.499996,-29.4999976 z" />
  <path
     d="M 31.979424,3.7157009 A 12.497974,28.284887 0 0 0 29.47491,59.690953"
     id="path3805-8"
     style="fill:none;stroke:url(#linearGradient3546);stroke-width:1;stroke-linecap:round;stroke-linejoin:round;stroke-miterlimit:4;stroke-dasharray:none;stroke-dashoffset:0;stroke-opacity:1" />
  <path
     d="M 37.317564,57.622374 A 12.497974,28.284887 0 0 0 31.993514,3.7156062"
     id="path3609-5"
     style="opacity:0.8;fill:none;stroke:url(#linearGradient3543);stroke-width:1;stroke-linecap:round;stroke-linejoin:round;stroke-miterlimit:4;stroke-dasharray:none;stroke-dashoffset:0;stroke-opacity:1" />
  <g
     transform="matrix(1.4390215,0,0,1.4390215,98.587414,-8.161078)"
     id="g3191">
    <path
       d="m -44.199125,45.136098 a 1.8282365,1.8282365 0 0 0 3.656473,0 1.8282365,1.8282365 0 1 0 -3.656473,0 z"
       id="path3775-8"
       style="color:#000000;display:inline;overflow:visible;visibility:visible;opacity:0.8;fill:#ffffff;fill-opacity:1;fill-rule:nonzero;stroke:#ffffff;stroke-width:0.69521314;stroke-linecap:round;stroke-linejoin:round;stroke-miterlimit:4;stroke-dasharray:none;stroke-dashoffset:0;stroke-opacity:0.52127662;marker:none;enable-background:accumulate" />
  </g>
  <path
     d="M 15.54219,10.279146 A 28.284887,12.497974 45 0 1 51.469844,52.485791"
     id="path3801-6"
     style="fill:none;stroke:url(#linearGradient3538);stroke-width:1;stroke-linecap:round;stroke-linejoin:round;stroke-miterlimit:4;stroke-dasharray:none;stroke-dashoffset:0;stroke-opacity:1" />
  <path
     d="M 52.023964,52.000849 A 28.284887,12.497974 45 0 1 10.185732,16.477733"
     id="path3611-3"
     style="opacity:0.8;fill:none;stroke:url(#linearGradient3535);stroke-width:1;stroke-linecap:round;stroke-linejoin:round;stroke-miterlimit:4;stroke-dasharray:none;stroke-dashoffset:0;stroke-opacity:1" />
  <path
     d="m 12.947397,17.40588 a 2.630872,2.630872 0 0 1 -5.261744,0 2.630872,2.630872 0 1 1 5.261744,0 z"
     id="path3781-3"
     style="color:#000000;display:inline;overflow:visible;visibility:visible;opacity:0.8;fill:#ffffff;fill-opacity:1;fill-rule:nonzero;stroke:#ffffff;stroke-width:1.00042665;stroke-linecap:round;stroke-linejoin:round;stroke-miterlimit:4;stroke-dasharray:none;stroke-dashoffset:0;stroke-opacity:0.52127662;marker:none;enable-background:accumulate" />
  <path
     d="M 52.277164,12.68986 A 12.497974,28.284887 45 0 0 10.459861,42.885913"
     id="path3613-2"
     style="opacity:0.8;fill:none;stroke:url(#linearGradient3531);stroke-width:1;stroke-linecap:round;stroke-linejoin:round;stroke-miterlimit:4;stroke-dasharray:none;stroke-dashoffset:0;stroke-opacity:1" />
  <path
     d="m 10.072947,47.290705 a 2.630872,2.630872 0 0 0 0,-5.261744 2.630872,2.630872 0 1 0 0,5.261744 z"
     id="path3615-8"
     style="opacity:0.8;fill:#ffffff;fill-opacity:1;stroke:#ffffff;stroke-width:1.00042665;stroke-linecap:round;stroke-linejoin:round;stroke-miterlimit:4;stroke-dasharray:none;stroke-dashoffset:0;stroke-opacity:0.52127662" />
  <path
     d="M 11.830366,52.171273 A 12.497974,28.284887 45 0 0 52.643654,13.234675"
     id="path3787-6"
     style="fill:none;stroke:url(#linearGradient3527);stroke-width:1;stroke-linecap:round;stroke-linejoin:round;stroke-miterlimit:4;stroke-dasharray:none;stroke-dashoffset:0;stroke-opacity:1" />
  <path
     d="M 56.114604,25.451706 A 28.284887,12.497974 0 0 0 3.769582,32.584826"
     id="path2835-7"
     style="fill:none;stroke:url(#linearGradient3524);stroke-width:1;stroke-linecap:round;stroke-linejoin:round;stroke-miterlimit:4;stroke-dasharray:none;stroke-dashoffset:0;stroke-opacity:1" />
  <path
     d="m 59.239244,25.956982 a 2.6308716,2.6308716 0 0 0 -5.26174,0 2.6308716,2.6308716 0 1 0 5.26174,0 z"
     id="path3722-4"
     style="color:#000000;display:inline;overflow:visible;visibility:visible;opacity:0.8;fill:#ffffff;fill-opacity:1;fill-rule:nonzero;stroke:#ffffff;stroke-width:1.00042665;stroke-linecap:round;stroke-linejoin:round;stroke-miterlimit:4;stroke-dasharray:none;stroke-dashoffset:0;stroke-opacity:0.52127662;marker:none;enable-background:accumulate" />
  <path
     d="M 3.908871,33.36953 A 28.284887,12.497974 0 0 0 60.261234,32.72199"
     id="path3797-3"
     style="fill:none;stroke:url(#linearGradient3520);stroke-width:1;stroke-linecap:round;stroke-linejoin:round;stroke-miterlimit:4;stroke-dasharray:none;stroke-dashoffset:0;stroke-opacity:1" />
  <path
     d="m 32,2.499999 c -16.277082,0 -29.5,13.222915 -29.5,29.499998 0,16.277083 13.222918,29.500005 29.5,29.5 16.27708,0 29.50001,-13.222917 29.5,-29.5 C 61.5,15.722914 48.27708,2.499999 32,2.499999 Z"
     id="path2555-7-1"
     style="color:#000000;display:inline;overflow:visible;visibility:visible;opacity:0.5;fill:none;stroke:#6326b9;stroke-width:1;stroke-linecap:butt;stroke-linejoin:miter;stroke-miterlimit:4;stroke-dasharray:none;stroke-dashoffset:0;stroke-opacity:1;marker:none;enable-background:accumulate;clip-rule:nonzero;isolation:auto;mix-blend-mode:normal;color-interpolation:sRGB;color-interpolation-filters:linearRGB;solid-color:#000000;solid-opacity:1;fill-opacity:1;fill-rule:nonzero;filter-blend-mode:normal;filter-gaussianBlur-deviation:0;color-rendering:auto;image-rendering:auto;shape-rendering:auto;text-rendering:auto" />
  <path
     d="m 60.499998,32 c 0,15.740111 -12.7599,28.499991 -28.500011,28.499991 C 16.259892,60.499991 3.5000025,47.740111 3.5000025,32 3.5000025,16.259889 16.259892,3.500005 31.999987,3.500005 47.740098,3.500005 60.499998,16.259889 60.499998,32 Z"
     id="path3026-5"
     style="color:#000000;display:inline;overflow:visible;visibility:visible;opacity:0.5;fill:none;stroke:url(#linearGradient3549);stroke-width:1;stroke-linecap:round;stroke-linejoin:round;stroke-miterlimit:4;stroke-dasharray:none;stroke-dashoffset:0;stroke-opacity:1;marker:none;enable-background:accumulate" />
  <path
     d="M 48.000003,32.5 C 39.447637,32.5 32.5,39.447634 32.5,47.999998 32.5,56.552366 39.447637,63.500004 48.000003,63.5 56.552364,63.5 63.500009,56.552366 63.5,47.999998 63.5,39.447634 56.552364,32.5 48.000003,32.5 Z"
     id="path2555-1"
     style="fill:url(#radialGradient4405);fill-opacity:1;stroke:none" />
  <path
     d="m 62.5,47.999485 c 0,8.008388 -6.49235,14.500514 -14.499816,14.500514 C 39.991983,62.499999 33.5,56.007801 33.5,47.999485 33.5,39.99147 39.991983,33.500001 48.000184,33.500001 56.00765,33.500001 62.5,39.99147 62.5,47.999485 l 0,0 z"
     id="path2463-6"
     style="opacity:0.4;fill:none;stroke:url(#linearGradient4402);stroke-width:1;stroke-miterlimit:4;stroke-dasharray:none;stroke-opacity:1" />
  <path
     d="m 36,47 c 7.999999,0 16.000001,0 24,0 0,-0.333333 0,-0.666667 0,-1 -7.999999,0 -16.000001,0 -24,0 0,0.333333 0,0.666667 0,1 z"
     id="path3360-8"
     style="font-style:normal;font-variant:normal;font-weight:normal;font-stretch:normal;font-size:89.63063812px;line-height:125%;font-family:Georgia;text-align:start;writing-mode:lr-tb;text-anchor:start;opacity:0.2;fill:#000000;fill-opacity:1;stroke:none" />
  <path
     d="m 36,51 c 7.999999,0 16.000001,0 24,0 0,-1.333331 0,-2.666666 0,-4 -7.999999,0 -16.000001,0 -24,0 0,1.333334 0,2.666669 0,4 z"
     id="path3271-6"
     style="font-style:normal;font-variant:normal;font-weight:normal;font-stretch:normal;font-size:89.63063812px;line-height:125%;font-family:Georgia;text-align:start;writing-mode:lr-tb;text-anchor:start;fill:#ffffff;fill-opacity:1;stroke:none" />
  <path
     d="m 48.000015,32.501851 c -8.551351,0 -15.498164,6.94681 -15.498164,15.498159 0,8.551353 6.946813,15.498167 15.498164,15.498163 8.551346,0 15.498167,-6.94681 15.498158,-15.498163 0,-8.551349 -6.946812,-15.498159 -15.498158,-15.498159 z"
     id="path2555-4-9"
     style="opacity:0.3;fill:none;stroke:#000000;stroke-width:1.00365424;stroke-linecap:round;stroke-linejoin:round;stroke-miterlimit:4;stroke-dasharray:none;stroke-dashoffset:0;stroke-opacity:1" />
</svg>
