<?xml version="1.0" encoding="UTF-8" standalone="no"?>
<svg
   xmlns:dc="http://purl.org/dc/elements/1.1/"
   xmlns:cc="http://creativecommons.org/ns#"
   xmlns:rdf="http://www.w3.org/1999/02/22-rdf-syntax-ns#"
   xmlns:svg="http://www.w3.org/2000/svg"
   xmlns="http://www.w3.org/2000/svg"
   id="svg7384"
   height="24"
   width="24"
   version="1.1">
  <title
     id="title9167">elementary Symbolic Icon Theme</title>
  <metadata
     id="metadata90">
    <rdf:RDF>
      <cc:Work
         rdf:about="">
        <dc:format>image/svg+xml</dc:format>
        <dc:type
           rdf:resource="http://purl.org/dc/dcmitype/StillImage" />
        <dc:title>elementary Symbolic Icon Theme</dc:title>
      </cc:Work>
    </rdf:RDF>
  </metadata>
  <defs
     id="defs7386" />
  <g
     style="display:inline"
     id="layer10"
     transform="translate(-473.0004,610)" />
  <g
     id="layer11"
     transform="translate(-473.0004,610)" />
  <g
     style="display:inline"
     id="layer13"
     transform="translate(-473.0004,610)" />
  <g
     id="layer14"
     transform="translate(-473.0004,610)" />
  <g
     style="display:inline"
     id="layer15"
     transform="translate(-473.0004,610)" />
  <g
     style="display:inline"
     id="g71291"
     transform="translate(-473.0004,610)" />
  <g
     style="display:inline"
     id="g4953"
     transform="translate(-473.0004,610)" />
  <g
     style="display:inline"
     id="layer12"
     transform="translate(-473.0004,610)" />
  <path
     d="m 9,6 0,5 2,0 0,1 -7.0000001,0 0,1 3,0 0,1 -2,0 0,5 L 11,19 l 0,-5 -2,0 0,-1 6,0 0,1 -2,0 0,5 6,0 0,-5 -2,0 0,-1 3,0 0,-1 -7,0 0,-1 2,0 0,-5 z m 1,1 4,0 0,3 -4,0 z M 5.9999999,15 10,15 10,18 5.9999999,18 Z M 14,15 l 4,0 0,3 -4,0 z"
     id="rect2986-4"
     style="color:#000000;clip-rule:nonzero;display:inline;overflow:visible;visibility:visible;opacity:1;isolation:auto;mix-blend-mode:normal;color-interpolation:sRGB;color-interpolation-filters:linearRGB;solid-color:#000000;solid-opacity:1;fill:#bebebe;fill-opacity:1;fill-rule:nonzero;stroke:none;stroke-width:1;stroke-linecap:butt;stroke-linejoin:miter;stroke-miterlimit:4;stroke-dasharray:none;stroke-dashoffset:0;stroke-opacity:1;marker:none;color-rendering:auto;image-rendering:auto;shape-rendering:auto;text-rendering:auto;enable-background:accumulate" />
</svg>
