<?xml version="1.0" encoding="UTF-8" standalone="no"?>
<svg
   xmlns:dc="http://purl.org/dc/elements/1.1/"
   xmlns:cc="http://creativecommons.org/ns#"
   xmlns:rdf="http://www.w3.org/1999/02/22-rdf-syntax-ns#"
   xmlns:svg="http://www.w3.org/2000/svg"
   xmlns="http://www.w3.org/2000/svg"
   id="svg3020"
   height="16"
   width="16"
   version="1.1">
  <defs
     id="defs3022" />
  <metadata
     id="metadata3025">
    <rdf:RDF>
      <cc:Work
         rdf:about="">
        <dc:format>image/svg+xml</dc:format>
        <dc:type
           rdf:resource="http://purl.org/dc/dcmitype/StillImage" />
        <dc:title />
      </cc:Work>
    </rdf:RDF>
  </metadata>
  <path
     id="rect3289"
     d="M 1.5,0 C 0.669,0 0,0.669 0,1.5 l 0,13 C 0,15.331 0.669,16 1.5,16 l 11,0 c 0.831,0 1.5,-0.669 1.5,-1.5 l 0,-7 -1,1 0,6 c 0,0.30217 -0.19783,0.5 -0.5,0.5 l -11,0 C 1.1978297,15 1,14.80217 1,14.5 L 1,1.5 C 1,1.1978297 1.1978297,1 1.5,1 l 11,0 C 12.80217,1 13,1.1978297 13,1.5 L 13.849074,0.88166192 C 13.617931,0.35968217 13.111435,0 12.5,0 z"
     style="color:#bebebe;fill:#bebebe;fill-opacity:1;fill-rule:nonzero;stroke:none;stroke-width:1;marker:none;visibility:visible;display:inline;overflow:visible;enable-background:accumulate" />
  <path
     style="color:#bebebe;fill:#bebebe;fill-opacity:1;fill-rule:nonzero;stroke:none;stroke-width:1;marker:none;visibility:visible;display:inline;overflow:visible;enable-background:accumulate"
     id="rect2994"
     d="M 6.1589087,9.7017742 4.9911823,13.010025 8.2951718,11.838037 14.169897,5.9633136 12.033633,3.8270503 z m 6.9428563,-6.9428558 2.136263,2.1362632 0.534065,-0.5340653 c 0.292002,-0.2920014 0.308692,-0.7594417 0.0167,-1.0514425 L 14.703965,2.2248524 c -0.292,-0.2920007 -0.77613,-0.2920007 -1.068131,0 z" />
</svg>
